<svg viewBox="0 0 32 32" xmlns="http://www.w3.org/2000/svg" fill="#737373">
  <clipPath id="a">
    <path clip-rule="evenodd" d="M0 0h32v32H0z"/>
  </clipPath>
  <g clip-path="url(#a)">
    <path
      d="M20.368 1.998A9.864 9.864 0 0 0 16.001 1h-.002c-2.58 0-4.826.865-6.739 2.595-1.913 1.73-3 3.878-3.259 6.444l-.848 8.394C3.718 19.097 3 20.286 3 21.999v.002C3 24.667 4.333 26 6.999 26h3.077c.192 1.233.753 2.314 1.681 3.243C12.93 30.414 14.343 31 16 31s3.071-.586 4.243-1.757c.928-.929 1.489-2.01 1.681-3.243h3.077C27.667 26 29 24.667 29 22.001v-.002c0-1.713-.718-2.902-2.153-3.566l-.39-3.855.01-.004C29.49 13.58 31 11.39 31 8c0-1.933-.683-3.583-2.05-4.95C27.583 1.683 25.933 1 24 1c-1.348 0-2.559.333-3.632.998zm-1.694 1.455C17.558 4.738 17 6.253 17 8c0 1.933.683 3.583 2.05 4.95C20.417 14.317 22.067 15 24 15c.165 0 .328-.005.488-.015l.43 4.258a.98.98 0 0 0 .219.529.98.98 0 0 0 .472.323c.927.296 1.391.93 1.391 1.904v.002c0 .552-.195 1.023-.586 1.413s-.861.586-1.413.586H6.999C5.666 24 5 23.334 5 22.001v-.002c0-.973.464-1.608 1.39-1.904a.98.98 0 0 0 .473-.323.98.98 0 0 0 .219-.53l.909-9.002c.208-2.056 1.078-3.776 2.61-5.162C12.134 3.693 13.933 3 16 3h.002c.93 0 1.822.151 2.673.453zm2.29.568a5.466 5.466 0 0 0-.5.443C19.489 5.441 19 6.62 19 8s.488 2.56 1.464 3.535S22.62 13 24 13c.358 0 .703-.033 1.034-.099.037-.013.075-.024.115-.033.21-.05.41-.106.602-.168a4.921 4.921 0 0 0 1.785-1.164C28.512 10.558 29 9.38 29 8c0-.086-.002-.172-.006-.257-.057-1.27-.543-2.363-1.458-3.279C26.559 3.488 25.38 3 24 3h-.004c-1.094 0-2.08.325-2.958.971a1.068 1.068 0 0 1-.073.05zm1.743 2.772.354.353.439.44.879-.879 1.414-1.414c.195-.195.43-.293.707-.293s.512.098.707.293A.99.99 0 0 1 27.5 6a.991.991 0 0 1-.293.707l-3 3c-.195.195-.43.293-.707.293s-.512-.098-.707-.293l-1.5-1.5A.99.99 0 0 1 21 7.5a.991.991 0 0 1 .293-.707c.195-.195.43-.293.707-.293s.512.098.707.293zM16 29c-2.31 0-3.619-1-3.928-3h7.856c-.31 2-1.619 3-3.928 3z"
      fill-rule="evenodd"/>
  </g>
</svg>
