<?xml version="1.0" encoding="UTF-8" standalone="no"?>
<!DOCTYPE svg PUBLIC "-//W3C//DTD SVG 1.1//EN" "http://www.w3.org/Graphics/SVG/1.1/DTD/svg11.dtd">
<svg xmlns="http://www.w3.org/2000/svg" version="1.1" viewBox="0.00 0.00 1971.00 1064.00">
<g stroke-width="2.00" fill="none" stroke-linecap="butt">
<path stroke="#800000" vector-effect="non-scaling-stroke" d="
  M 775.99 958.64
  L 765.56 958.75
  Q 765.05 958.76 764.63 959.04
  L 764.00 959.46"
/>
<path stroke="#800000" vector-effect="non-scaling-stroke" d="
  M 743.47 959.13
  Q 737.11 958.33 730.74 958.96"
/>
<path stroke="#800000" vector-effect="non-scaling-stroke" d="
  M 507.19 958.54
  L 496.05 958.81"
/>
<path stroke="#800000" vector-effect="non-scaling-stroke" d="
  M 374.04 902.50
  L 373.24 899.98"
/>
<path stroke="#800000" vector-effect="non-scaling-stroke" d="
  M 369.50 881.79
  C 375.81 881.31 374.00 872.75 373.99 868.49
  Q 373.99 866.96 371.75 865.29"
/>
</g>
<path fill="#000000" d="
  M 775.99 958.64
  L 765.56 958.75
  Q 765.05 958.76 764.63 959.04
  L 764.00 959.46
  Q 763.94 959.33 763.94 959.14
  Q 763.96 958.76 763.58 958.77
  L 743.47 959.13
  Q 737.11 958.33 730.74 958.96
  Q 722.87 958.76 714.98 958.41
  C 692.25 957.38 671.16 957.11 649.93 949.02
  C 638.03 944.50 625.67 937.33 613.00 935.77
  C 598.74 934.02 582.49 934.25 570.15 940.97
  C 559.33 946.87 549.57 952.39 536.75 955.27
  Q 524.75 957.96 507.19 958.54
  L 496.05 958.81
  Q 483.57 958.83 471.14 957.90
  C 450.68 956.35 435.96 953.66 421.03 939.23
  Q 417.23 935.55 413.45 931.88
  Q 413.09 931.53 412.59 931.45
  Q 387.26 927.18 375.56 904.55
  C 375.12 903.69 375.32 902.56 374.04 902.50
  L 373.24 899.98
  Q 370.43 891.08 369.50 881.79
  C 375.81 881.31 374.00 872.75 373.99 868.49
  Q 373.99 866.96 371.75 865.29
  Q 375.89 853.54 386.56 847.95
  Q 388.59 846.88 390.23 845.22
  C 398.62 836.67 408.84 835.35 420.45 834.64
  Q 423.28 834.46 425.38 833.49
  C 435.61 828.78 445.04 822.31 454.35 816.05
  C 465.65 808.46 475.73 807.43 490.26 808.59
  C 504.12 809.70 519.82 811.79 531.79 812.38
  C 556.72 813.61 580.00 810.31 604.49 806.22
  Q 609.07 805.46 613.61 803.69
  C 634.25 795.65 654.47 791.26 675.21 786.04
  C 720.99 774.53 756.69 743.88 793.83 716.84
  Q 842.52 681.37 894.94 651.68
  C 937.42 627.62 975.36 608.71 1016.16 588.26
  Q 1058.34 567.10 1091.96 545.74
  C 1122.85 526.11 1139.17 499.20 1147.88 464.47
  C 1158.31 422.80 1161.58 377.18 1163.39 335.43
  C 1167.42 242.86 1166.69 149.93 1165.73 57.28
  A 0.77 0.77 0.0 0 1 1166.47 56.50
  L 1598.48 41.43
  Q 1599.17 41.41 1598.99 42.08
  C 1578.18 119.87 1557.62 197.58 1538.56 275.70
  Q 1524.91 331.66 1514.70 388.34
  C 1506.26 435.17 1502.48 480.31 1512.94 526.71
  Q 1522.15 567.56 1536.10 605.68
  C 1547.63 637.17 1565.14 678.36 1570.76 717.00
  Q 1578.27 768.60 1578.02 825.51
  C 1577.94 843.53 1577.46 859.47 1575.17 876.43
  C 1569.07 921.69 1540.38 935.47 1499.00 941.50
  Q 1479.11 944.39 1459.06 945.86
  Q 1401.50 950.07 1331.75 949.82
  C 1292.28 949.68 1253.61 948.58 1218.27 934.21
  C 1191.50 923.34 1165.57 919.98 1136.31 919.43
  C 1074.74 918.27 1012.82 921.23 951.43 925.78
  Q 917.72 928.28 890.74 932.97
  Q 870.33 936.52 850.12 945.73
  C 835.64 952.34 822.29 955.90 806.25 957.01
  Q 788.63 958.22 775.99 958.64
  Z
  M 1186.13 878.72
  Q 1166.28 879.42 1145.25 880.48
  Q 1096.06 882.95 1047.59 891.44
  C 1006.25 898.69 965.29 907.25 924.68 917.87
  A 0.29 0.29 0.0 0 0 924.49 918.27
  C 924.70 918.73 941.07 917.16 942.83 917.02
  Q 1017.30 911.03 1092.01 909.77
  Q 1126.53 909.19 1142.56 909.87
  C 1160.45 910.64 1178.32 912.16 1195.74 916.45
  C 1212.62 920.61 1228.55 928.89 1244.95 932.84
  C 1269.81 938.83 1297.01 939.92 1322.50 940.26
  Q 1395.36 941.23 1467.98 935.33
  C 1487.57 933.74 1507.43 931.40 1526.22 925.41
  C 1542.83 920.13 1555.25 909.88 1561.13 893.22
  C 1566.84 877.04 1567.81 858.52 1568.17 841.50
  Q 1569.23 791.53 1564.11 741.82
  C 1561.20 713.53 1555.73 686.19 1545.83 659.47
  C 1522.35 596.12 1495.39 531.16 1496.81 462.81
  C 1497.65 422.72 1505.85 378.05 1514.60 337.82
  C 1530.09 266.52 1548.64 193.58 1567.92 122.15
  A 0.35 0.35 0.0 0 0 1567.25 121.93
  Q 1544.94 182.72 1522.23 242.24
  C 1499.46 301.93 1471.22 361.33 1441.46 427.02
  Q 1441.36 427.24 1441.24 427.03
  Q 1441.17 426.92 1441.24 426.75
  C 1462.52 369.77 1482.56 312.45 1506.68 256.58
  C 1529.75 203.14 1547.82 163.63 1568.13 116.99
  Q 1570.74 111.00 1572.41 104.60
  Q 1579.26 78.50 1586.31 52.23
  A 0.56 0.56 0.0 0 0 1585.75 51.52
  L 1176.26 65.82
  Q 1175.44 65.85 1175.45 66.67
  C 1176.06 143.89 1176.36 221.04 1174.41 298.25
  C 1173.29 342.59 1170.80 390.54 1163.85 435.23
  C 1156.92 479.78 1143.28 521.90 1104.04 549.06
  C 1079.82 565.83 1053.44 579.84 1027.18 593.11
  C 971.56 621.21 913.12 650.44 862.57 682.07
  C 823.36 706.61 790.18 731.61 754.56 757.30
  C 735.34 771.16 716.39 782.78 694.80 790.10
  C 669.78 798.59 643.50 802.60 619.15 812.04
  Q 608.41 816.21 597.67 820.41
  C 574.00 829.68 550.95 831.23 525.86 832.40
  C 511.96 833.05 502.17 834.62 490.46 839.50
  Q 486.86 841.00 474.19 843.14
  C 473.32 843.28 471.71 843.12 470.56 843.63
  Q 470.08 843.84 470.05 844.36
  C 468.81 872.29 446.60 878.05 423.44 873.01
  Q 406.06 869.23 395.23 856.57
  Q 394.80 856.08 394.59 856.70
  C 385.47 882.96 408.24 912.39 424.68 929.31
  C 432.86 937.72 442.76 944.56 453.74 946.34
  Q 483.32 951.13 519.25 947.97
  Q 534.73 946.60 547.09 941.84
  C 554.47 938.99 563.85 932.40 570.81 929.81
  C 583.66 925.03 597.46 924.89 610.96 925.87
  C 626.66 927.01 643.51 936.35 654.32 940.45
  C 668.01 945.64 683.91 947.42 699.06 948.15
  Q 742.18 950.21 785.32 948.66
  C 802.54 948.04 821.68 947.05 837.68 940.67
  C 844.72 937.86 853.51 933.63 860.63 931.10
  Q 877.39 925.14 895.03 922.48
  Q 899.45 921.81 903.32 920.37
  C 974.73 893.80 1048.29 880.40 1124.68 878.75
  Q 1155.31 878.09 1186.13 878.30
  A 0.21 0.21 0.0 0 1 1186.13 878.72
  Z
  M 445.37 834.30
  Q 461.44 835.04 476.10 832.74
  C 487.39 830.96 497.71 825.77 508.95 823.87
  C 516.96 822.52 522.93 823.42 529.66 822.34
  A 0.31 0.31 0.0 0 0 529.63 821.73
  Q 511.95 820.65 495.42 818.70
  C 483.70 817.32 472.95 816.28 462.41 822.73
  Q 453.40 828.24 445.18 833.60
  A 0.38 0.38 0.0 0 0 445.37 834.30
  Z
  M 418.75 844.50
  C 412.26 844.63 404.24 846.00 398.74 850.26
  Q 398.29 850.61 398.65 851.05
  Q 403.97 857.52 406.05 858.95
  Q 423.88 871.21 445.48 867.56
  C 458.22 865.40 463.49 857.23 463.91 844.86
  Q 463.93 844.29 463.36 844.29
  Q 441.01 844.05 418.75 844.50
  Z
  M 382.77 869.66
  C 382.73 868.20 383.02 866.60 383.01 865.04
  A 0.33 0.33 0.0 0 0 382.38 864.91
  C 373.94 884.90 383.27 907.22 401.28 918.06
  A 0.45 0.45 0.0 0 0 401.86 917.40
  C 391.12 903.62 383.29 887.48 382.77 869.66
  Z"
/>
<rect fill="#ff0000" x="1579.27" y="165.32" width="8.16" height="11.42" rx="3.80"/>
<rect fill="#ff0000" x="-4.10" y="-8.31" transform="translate(1583.35,202.10) rotate(0.2)" width="8.20" height="16.62" rx="3.89"/>
<rect fill="#ff0000" x="-4.11" y="-8.31" transform="translate(1583.35,235.64) rotate(-0.4)" width="8.22" height="16.62" rx="3.89"/>
<rect fill="#ff0000" x="-4.16" y="-8.28" transform="translate(1583.30,269.17) rotate(0.2)" width="8.32" height="16.56" rx="3.94"/>
<rect fill="#ff0000" x="-4.15" y="-8.28" transform="translate(1583.31,302.83) rotate(-0.2)" width="8.30" height="16.56" rx="3.93"/>
<rect fill="#ff0000" x="-4.10" y="-8.30" transform="translate(1583.35,336.35) rotate(0.4)" width="8.20" height="16.60" rx="3.89"/>
<rect fill="#ff0000" x="-4.10" y="-8.30" transform="translate(1583.35,369.88) rotate(-0.4)" width="8.20" height="16.60" rx="3.89"/>
<rect fill="#ff0000" x="1579.23" y="395.23" width="8.24" height="16.50" rx="3.91"/>
<rect fill="#ff0000" x="-4.16" y="-8.28" transform="translate(1583.30,437.07) rotate(-0.2)" width="8.32" height="16.56" rx="3.94"/>
<path fill="#000000" d="
  M 1337.42 674.91
  C 1353.61 664.49 1368.75 647.97 1378.47 630.14
  C 1390.32 608.42 1392.48 583.93 1395.66 559.91
  C 1397.59 545.31 1400.82 531.99 1405.18 518.98
  Q 1416.51 485.17 1432.48 448.76
  Q 1433.70 445.99 1432.62 448.81
  C 1419.43 483.52 1405.57 518.02 1403.07 555.31
  C 1401.32 581.57 1400.61 609.11 1387.91 632.96
  Q 1372.13 662.60 1342.88 680.40
  C 1316.44 696.48 1300.23 679.03 1284.53 659.92
  Q 1260.70 630.89 1239.70 599.69
  Q 1237.63 596.62 1239.87 599.58
  C 1257.30 622.61 1274.91 645.61 1295.30 665.70
  C 1308.04 678.25 1320.19 685.99 1337.42 674.91
  Z"
/>
<rect fill="#ff0000" x="-4.16" y="-8.28" transform="translate(1583.30,470.62) rotate(-0.2)" width="8.32" height="16.56" rx="3.94"/>
<rect fill="#ff0000" x="365.58" y="495.84" width="8.38" height="16.60" rx="3.98"/>
<rect fill="#ff0000" x="-4.10" y="-8.32" transform="translate(1583.35,504.13) rotate(-0.4)" width="8.20" height="16.64" rx="3.89"/>
<rect fill="#ff0000" x="365.56" y="529.51" width="8.42" height="16.44" rx="3.98"/>
<rect fill="#ff0000" x="1579.23" y="529.48" width="8.24" height="16.50" rx="3.91"/>
<rect fill="#ff0000" x="-4.23" y="-8.23" transform="translate(369.77,571.26) rotate(-0.1)" width="8.46" height="16.46" rx="3.99"/>
<rect fill="#ff0000" x="-4.12" y="-8.25" transform="translate(1583.35,571.26) rotate(0.1)" width="8.24" height="16.50" rx="3.90"/>
<rect fill="#ff0000" x="-4.20" y="-8.29" transform="translate(369.77,604.85) rotate(-0.2)" width="8.40" height="16.58" rx="3.98"/>
<rect fill="#ff0000" x="-4.10" y="-8.31" transform="translate(1583.35,604.86) rotate(0.4)" width="8.20" height="16.62" rx="3.89"/>
<rect fill="#ff0000" x="-4.19" y="-8.28" transform="translate(369.77,638.39) rotate(0.2)" width="8.38" height="16.56" rx="3.98"/>
<rect fill="#ff0000" x="-4.10" y="-8.30" transform="translate(1583.35,638.38) rotate(0.5)" width="8.20" height="16.60" rx="3.89"/>
<rect fill="#ff0000" x="-4.22" y="-8.23" transform="translate(369.77,671.98) rotate(0.1)" width="8.44" height="16.46" rx="3.99"/>
<rect fill="#ff0000" x="-4.12" y="-8.24" transform="translate(1583.35,671.98) rotate(0.2)" width="8.24" height="16.48" rx="3.91"/>
<rect fill="#ff0000" x="-4.22" y="-8.23" transform="translate(369.77,705.51) rotate(-0.1)" width="8.44" height="16.46" rx="3.99"/>
<rect fill="#ff0000" x="1579.23" y="697.25" width="8.24" height="16.50" rx="3.91"/>
<rect fill="#ff0000" x="-4.20" y="-8.30" transform="translate(369.77,739.10) rotate(-0.2)" width="8.40" height="16.60" rx="3.98"/>
<rect fill="#ff0000" x="-4.10" y="-8.31" transform="translate(1583.35,739.11) rotate(0.3)" width="8.20" height="16.62" rx="3.89"/>
<rect fill="#ff0000" x="365.58" y="764.33" width="8.38" height="16.60" rx="3.98"/>
<rect fill="#ff0000" x="1579.27" y="764.32" width="8.18" height="16.64" rx="3.89"/>
<rect fill="#ff0000" x="-4.19" y="-8.29" transform="translate(369.77,806.16) rotate(0.2)" width="8.38" height="16.58" rx="3.98"/>
<rect fill="#ff0000" x="1579.26" y="797.84" width="8.18" height="16.64" rx="3.89"/>
<rect fill="#ff0000" x="365.57" y="831.52" width="8.40" height="16.56" rx="3.98"/>
<rect fill="#ff0000" x="-4.10" y="-8.32" transform="translate(1583.35,839.83) rotate(0.1)" width="8.20" height="16.64" rx="3.89"/>
<path fill="#ff0000" d="
  M 371.75 865.29
  Q 373.99 866.96 373.99 868.49
  C 374.00 872.75 375.81 881.31 369.50 881.79
  Q 365.79 881.00 365.61 877.19
  C 365.39 872.70 363.81 863.60 371.75 865.29
  Z"
/>
<rect fill="#ff0000" x="-4.10" y="-8.31" transform="translate(1583.35,873.36) rotate(-0.2)" width="8.20" height="16.62" rx="3.89"/>
<path fill="#ff0000" d="
  M 373.24 899.98
  L 374.04 902.50
  C 374.00 906.04 375.59 916.46 369.00 915.23
  C 362.93 914.09 363.86 892.49 373.24 899.98
  Z"
/>
<rect fill="#ff0000" x="-4.10" y="-8.31" transform="translate(1583.35,906.89) rotate(-0.4)" width="8.20" height="16.62" rx="3.89"/>
<rect fill="#ff0000" x="365.55" y="932.26" width="8.44" height="16.44" rx="3.99"/>
<rect fill="#ff0000" x="1579.23" y="932.23" width="8.24" height="16.50" rx="3.91"/>
<rect fill="#ff0000" x="-8.33" y="-4.12" transform="translate(32.12,962.88) rotate(-0.4)" width="16.66" height="8.24" rx="3.90"/>
<rect fill="#ff0000" x="-8.32" y="-4.11" transform="translate(65.65,962.88) rotate(-0.4)" width="16.64" height="8.22" rx="3.90"/>
<rect fill="#ff0000" x="91.00" y="958.76" width="16.50" height="8.24" rx="3.91"/>
<rect fill="#ff0000" x="124.53" y="958.79" width="16.62" height="8.18" rx="3.90"/>
<rect fill="#ff0000" x="-8.31" y="-4.11" transform="translate(166.38,962.88) rotate(-0.4)" width="16.62" height="8.22" rx="3.90"/>
<rect fill="#ff0000" x="191.58" y="958.78" width="16.66" height="8.20" rx="3.90"/>
<rect fill="#ff0000" x="225.24" y="958.75" width="16.52" height="8.26" rx="3.91"/>
<rect fill="#ff0000" x="258.78" y="958.78" width="16.64" height="8.20" rx="3.90"/>
<rect fill="#ff0000" x="-8.31" y="-4.11" transform="translate(300.63,962.88) rotate(-0.4)" width="16.62" height="8.22" rx="3.90"/>
<rect fill="#ff0000" x="325.98" y="958.75" width="16.50" height="8.26" rx="3.91"/>
<path fill="#ff0000" d="
  M 365.44 966.95
  C 362.15 967.53 358.94 965.84 359.52 962.16
  C 360.27 957.40 367.28 958.75 370.65 958.74
  Q 373.41 958.73 374.62 959.67
  C 376.72 961.28 376.60 965.38 373.82 966.58
  Q 373.36 966.78 373.45 967.27
  Q 374.43 972.58 374.03 978.00
  C 373.63 983.51 366.59 983.83 365.65 978.57
  Q 364.87 974.22 366.07 967.57
  Q 366.20 966.81 365.44 966.95
  Z"
/>
<rect fill="#ff0000" x="-8.31" y="-4.11" transform="translate(401.36,962.88) rotate(-0.4)" width="16.62" height="8.22" rx="3.90"/>
<rect fill="#ff0000" x="426.57" y="958.78" width="16.64" height="8.20" rx="3.90"/>
<rect fill="#ff0000" x="-8.24" y="-4.11" transform="translate(468.50,962.90) rotate(0.5)" width="16.48" height="8.22" rx="3.89"/>
<path fill="#ff0000" d="
  M 507.19 958.54
  Q 511.36 960.70 509.96 964.94
  C 508.95 968.00 499.82 967.01 497.24 967.00
  C 492.87 966.97 493.04 961.15 496.05 958.81
  L 507.19 958.54
  Z"
/>
<rect fill="#ff0000" x="-8.32" y="-4.11" transform="translate(535.62,962.88) rotate(-0.4)" width="16.64" height="8.22" rx="3.90"/>
<rect fill="#ff0000" x="560.82" y="958.78" width="16.66" height="8.20" rx="3.90"/>
<rect fill="#ff0000" x="594.50" y="958.76" width="16.50" height="8.24" rx="3.91"/>
<rect fill="#ff0000" x="-8.31" y="-4.10" transform="translate(636.34,962.88) rotate(-0.1)" width="16.62" height="8.20" rx="3.90"/>
<rect fill="#ff0000" x="-8.32" y="-4.11" transform="translate(669.88,962.88) rotate(0.4)" width="16.64" height="8.22" rx="3.90"/>
<rect fill="#ff0000" x="-8.24" y="-4.11" transform="translate(703.49,962.90) rotate(0.3)" width="16.48" height="8.22" rx="3.89"/>
<path fill="#ff0000" d="
  M 743.47 959.13
  C 747.52 963.76 744.69 966.91 739.57 967.04
  Q 735.50 967.14 731.44 966.86
  Q 730.93 966.82 730.55 966.47
  Q 726.69 962.86 730.74 958.96
  Q 737.11 958.33 743.47 959.13
  Z"
/>
<path fill="#ff0000" d="
  M 775.99 958.64
  C 778.89 960.30 780.28 963.99 777.38 966.15
  C 775.33 967.69 768.00 967.02 765.31 966.97
  A 2.12 2.09 69.0 0 1 763.81 966.29
  Q 760.55 962.72 764.00 959.46
  L 764.63 959.04
  Q 765.05 958.76 765.56 958.75
  L 775.99 958.64
  Z"
/>
<rect fill="#ff0000" x="-8.32" y="-4.11" transform="translate(804.14,962.88) rotate(-0.5)" width="16.64" height="8.22" rx="3.89"/>
<rect fill="#ff0000" x="829.49" y="958.76" width="16.50" height="8.24" rx="3.91"/>
<rect fill="#ff0000" x="-8.31" y="-4.10" transform="translate(871.33,962.88) rotate(0.1)" width="16.62" height="8.20" rx="3.90"/>
<rect fill="#ff0000" x="-8.31" y="-4.11" transform="translate(904.86,962.88) rotate(-0.4)" width="16.62" height="8.22" rx="3.90"/>
<rect fill="#ff0000" x="930.09" y="958.78" width="16.64" height="8.20" rx="3.90"/>
<rect fill="#ff0000" x="963.75" y="958.75" width="16.50" height="8.24" rx="3.91"/>
<rect fill="#ff0000" x="-8.33" y="-4.10" transform="translate(1005.59,962.88) rotate(0.1)" width="16.66" height="8.20" rx="3.90"/>
<rect fill="#ff0000" x="-8.32" y="-4.11" transform="translate(1039.12,962.88) rotate(0.3)" width="16.64" height="8.22" rx="3.90"/>
<rect fill="#ff0000" x="1064.34" y="958.78" width="16.64" height="8.20" rx="3.91"/>
<rect fill="#ff0000" x="1098.00" y="958.76" width="16.50" height="8.24" rx="3.91"/>
<rect fill="#ff0000" x="1131.53" y="958.78" width="16.64" height="8.20" rx="3.90"/>
<rect fill="#ff0000" x="-8.31" y="-4.11" transform="translate(1173.39,962.88) rotate(-0.4)" width="16.62" height="8.22" rx="3.90"/>
<rect fill="#ff0000" x="1198.74" y="958.75" width="16.50" height="8.26" rx="3.91"/>
<rect fill="#ff0000" x="-8.25" y="-4.12" transform="translate(1240.51,962.88) rotate(-0.1)" width="16.50" height="8.24" rx="3.91"/>
<rect fill="#ff0000" x="-8.32" y="-4.11" transform="translate(1274.12,962.88) rotate(0.4)" width="16.64" height="8.22" rx="3.90"/>
<rect fill="#ff0000" x="-8.32" y="-4.11" transform="translate(1307.65,962.88) rotate(-0.2)" width="16.64" height="8.22" rx="3.90"/>
<rect fill="#ff0000" x="-8.25" y="-4.12" transform="translate(1341.25,962.88) rotate(0.1)" width="16.50" height="8.24" rx="3.91"/>
<rect fill="#ff0000" x="-8.31" y="-4.10" transform="translate(1374.83,962.88) rotate(-0.1)" width="16.62" height="8.20" rx="3.90"/>
<rect fill="#ff0000" x="-8.31" y="-4.11" transform="translate(1408.38,962.88) rotate(0.4)" width="16.62" height="8.22" rx="3.90"/>
<rect fill="#ff0000" x="1433.58" y="958.78" width="16.66" height="8.20" rx="3.90"/>
<rect fill="#ff0000" x="1467.24" y="958.75" width="16.52" height="8.26" rx="3.91"/>
<rect fill="#ff0000" x="-8.32" y="-4.11" transform="translate(1509.10,962.88) rotate(-0.4)" width="16.64" height="8.22" rx="3.90"/>
<rect fill="#ff0000" x="-8.31" y="-4.11" transform="translate(1542.63,962.88) rotate(-0.4)" width="16.62" height="8.22" rx="3.90"/>
<path fill="#ff0000" d="
  M 1579.00 967.04
  C 1575.00 966.82 1567.49 968.76 1567.96 962.25
  C 1568.31 957.53 1575.52 958.75 1578.67 958.73
  C 1582.91 958.70 1585.75 960.50 1584.02 965.14
  Q 1583.81 965.69 1584.38 965.87
  Q 1587.43 966.83 1587.47 969.25
  C 1587.52 972.08 1588.19 978.50 1586.57 980.74
  C 1584.31 983.88 1579.43 982.29 1579.26 978.10
  Q 1579.06 972.84 1579.50 967.62
  Q 1579.54 967.07 1579.00 967.04
  Z"
/>
<rect fill="#ff0000" x="1601.50" y="958.75" width="16.52" height="8.26" rx="3.91"/>
<rect fill="#ff0000" x="-8.31" y="-4.11" transform="translate(1643.36,962.88) rotate(-0.4)" width="16.62" height="8.22" rx="3.90"/>
<rect fill="#ff0000" x="-8.32" y="-4.10" transform="translate(1676.89,962.88) rotate(0.2)" width="16.64" height="8.20" rx="3.90"/>
<rect fill="#ff0000" x="1702.25" y="958.76" width="16.50" height="8.24" rx="3.91"/>
<rect fill="#ff0000" x="1735.76" y="958.75" width="16.52" height="8.26" rx="3.91"/>
<rect fill="#ff0000" x="-8.32" y="-4.12" transform="translate(1777.62,962.88) rotate(-0.4)" width="16.64" height="8.24" rx="3.90"/>
<rect fill="#ff0000" x="-8.32" y="-4.11" transform="translate(1811.15,962.88) rotate(-0.4)" width="16.64" height="8.22" rx="3.90"/>
<rect fill="#ff0000" x="1836.50" y="958.76" width="16.50" height="8.24" rx="3.91"/>
<rect fill="#ff0000" x="-8.31" y="-4.10" transform="translate(1878.34,962.89) rotate(0.1)" width="16.62" height="8.20" rx="3.90"/>
<rect fill="#ff0000" x="-8.32" y="-4.11" transform="translate(1911.88,962.88) rotate(-0.4)" width="16.64" height="8.22" rx="3.90"/>
<rect fill="#ff0000" x="-8.25" y="-4.13" transform="translate(1945.49,962.88) rotate(-0.1)" width="16.50" height="8.26" rx="3.91"/>
<rect fill="#ff0000" x="-4.19" y="-8.30" transform="translate(369.78,1007.60) rotate(-0.2)" width="8.38" height="16.60" rx="3.97"/>
<rect fill="#ff0000" x="-4.15" y="-8.29" transform="translate(1583.32,1007.60) rotate(0.5)" width="8.30" height="16.58" rx="3.92"/>
<rect fill="#ff0000" x="-4.19" y="-8.30" transform="translate(369.77,1041.13) rotate(0.2)" width="8.38" height="16.60" rx="3.98"/>
<rect fill="#ff0000" x="-4.17" y="-8.30" transform="translate(1583.29,1041.12) rotate(-0.3)" width="8.34" height="16.60" rx="3.94"/>
</svg>
