<?xml version="1.0" encoding="UTF-8" standalone="no"?>
<!DOCTYPE svg PUBLIC "-//W3C//DTD SVG 1.1//EN" "http://www.w3.org/Graphics/SVG/1.1/DTD/svg11.dtd">
<svg xmlns="http://www.w3.org/2000/svg" version="1.1" viewBox="0.00 0.00 936.00 2237.00">
<g stroke-width="2.00" fill="none" stroke-linecap="butt">
<path stroke="#808080" vector-effect="non-scaling-stroke" d="
  M 318.08 106.47
  A 0.18 0.17 47.6 0 1 318.43 106.49
  Q 319.20 117.15 319.97 127.76
  C 321.68 151.40 340.11 170.61 357.36 186.15
  C 376.45 203.33 396.24 218.82 413.76 238.71
  Q 414.08 239.07 414.05 239.54
  L 413.70 246.46
  Q 413.67 246.92 413.93 247.31
  C 427.90 268.50 425.19 291.13 405.25 307.26
  Q 404.82 307.61 404.71 308.15
  Q 400.03 332.74 384.55 352.33
  Q 384.23 352.74 384.20 353.27
  C 383.70 363.21 381.38 397.31 389.07 403.94
  Q 396.65 410.49 406.88 416.48
  Q 407.30 416.72 407.67 416.41
  C 408.57 415.65 412.87 411.03 413.67 412.67
  Q 413.92 413.19 413.51 413.60
  L 409.57 417.56
  Q 409.14 418.00 409.67 418.31
  L 413.79 420.67
  Q 414.24 420.93 414.61 420.55
  Q 420.46 414.52 425.87 408.08
  C 426.13 407.77 426.92 407.56 427.01 407.78
  A 1.83 0.59 65.3 0 1 427.20 409.34
  Q 424.22 413.26 421.90 417.19
  Q 421.18 418.40 422.09 417.33
  L 429.83 408.29
  Q 430.28 407.77 430.82 408.20
  C 431.93 409.10 428.70 413.31 428.04 414.19
  Q 427.75 414.59 428.14 414.88
  C 429.91 416.20 427.66 416.97 427.59 418.22
  Q 427.55 418.84 427.99 418.40
  C 435.59 410.87 442.05 401.18 448.33 392.51
  Q 448.65 392.07 448.42 391.58
  L 448.20 391.12
  Q 447.96 390.62 448.19 390.12
  C 449.25 387.87 455.14 376.24 457.73 376.81
  A 0.53 0.52 21.6 0 1 458.07 377.58
  L 452.57 386.86
  Q 452.32 387.29 452.78 387.50
  C 456.21 389.09 439.12 411.99 437.09 414.37
  Q 437.04 414.43 437.04 414.51
  L 437.04 414.89
  Q 437.04 415.03 437.14 414.94
  Q 443.98 408.74 448.99 403.25
  C 460.58 390.57 466.11 374.57 469.10 357.83
  A 0.68 0.67 89.5 0 1 469.63 357.28
  C 472.92 356.60 466.29 380.25 465.61 382.33
  Q 465.57 382.46 465.70 382.48
  C 468.14 382.91 472.70 350.32 473.04 348.01
  Q 473.21 346.82 474.21 347.04
  A 0.70 0.69 7.9 0 1 474.75 347.75
  Q 474.25 356.72 473.07 365.49
  C 472.86 367.11 471.83 369.57 472.03 371.77
  Q 472.13 372.95 472.37 371.79
  Q 481.33 328.44 467.14 286.67
  Q 466.76 285.54 467.80 285.41
  A 0.58 0.58 0.0 0 1 468.38 285.73
  C 474.68 298.38 480.15 312.09 483.14 325.87
  C 484.77 333.37 484.54 338.58 485.36 345.04
  Q 485.50 346.12 485.69 345.05
  Q 485.93 343.69 485.85 341.43
  C 485.17 322.35 479.13 304.07 471.02 286.96
  C 465.75 275.85 460.35 264.92 456.43 253.32
  A 0.57 0.57 0.0 0 1 457.14 252.59
  L 457.58 252.73
  Q 458.05 252.88 458.28 253.33
  Q 460.49 257.57 463.42 261.40
  Q 464.85 263.27 463.69 261.23
  C 457.86 250.99 453.23 243.67 451.69 236.47
  A 0.61 0.61 0.0 0 1 452.53 235.78
  C 455.62 237.10 467.11 260.27 469.19 264.50
  Q 470.25 266.66 469.50 264.37
  C 464.10 247.96 454.19 237.19 446.53 220.96
  Q 445.92 219.68 447.29 219.09
  Q 447.97 218.80 448.37 219.43
  L 452.16 225.39
  A 0.15 0.15 0.0 0 0 452.42 225.26
  C 444.92 204.60 439.11 182.82 432.63 161.47
  C 419.24 117.40 394.62 93.94 347.76 88.76
  Q 320.73 85.77 295.41 89.59
  C 264.99 94.18 242.24 108.12 228.39 136.55
  Q 221.39 150.92 218.52 160.51
  Q 210.61 186.92 202.65 213.33
  C 202.12 215.09 200.91 217.21 200.43 219.33
  Q 199.99 221.32 200.82 219.46
  L 202.00 216.84
  Q 202.27 216.24 202.90 216.46
  C 205.50 217.37 196.15 236.98 194.70 239.74
  Q 194.23 240.63 195.00 240.00
  C 196.28 238.96 196.74 236.12 198.47 235.88
  Q 199.17 235.78 199.01 236.47
  C 197.04 244.69 191.89 252.74 187.69 260.05
  Q 187.14 261.02 187.90 260.20
  Q 190.18 257.77 191.56 254.80
  Q 192.03 253.78 193.07 253.18
  Q 193.66 252.84 193.72 253.52
  Q 193.85 255.00 193.26 256.47
  Q 186.89 272.40 179.28 287.76
  C 171.88 302.70 163.99 325.49 165.12 343.29
  Q 165.19 344.37 165.41 343.31
  C 166.14 339.91 165.93 335.86 166.37 333.09
  C 169.01 316.48 174.95 301.58 181.94 286.40
  C 182.12 286.00 182.77 285.37 183.01 285.77
  A 1.94 0.52 55.8 0 1 183.53 287.26
  Q 171.03 323.92 176.63 362.38
  Q 176.73 363.03 177.12 362.50
  C 178.42 360.74 174.46 348.58 176.69 346.98
  Q 177.12 346.67 177.34 347.15
  Q 178.35 349.30 178.43 350.57
  Q 178.94 358.67 180.69 366.59
  Q 180.73 366.78 180.93 366.77
  C 182.00 366.74 179.02 358.33 180.57 357.10
  A 0.60 0.60 0.0 0 1 181.53 357.44
  Q 183.75 367.83 186.79 378.01
  Q 193.87 401.70 214.36 415.38
  Q 214.87 415.72 214.47 415.26
  Q 204.02 403.26 197.39 388.79
  Q 197.10 388.15 197.71 387.79
  L 198.09 387.57
  Q 198.59 387.27 198.26 386.78
  C 196.32 383.92 191.48 376.99 193.29 376.22
  Q 193.76 376.02 194.08 376.42
  Q 199.46 383.11 202.95 390.96
  A 0.44 0.44 0.0 0 1 202.46 391.57
  C 200.52 391.17 200.27 388.81 199.57 388.75
  Q 199.18 388.71 199.37 389.05
  C 205.00 399.00 212.42 410.36 221.60 417.37
  Q 222.01 417.69 222.31 418.11
  Q 223.32 419.54 224.59 420.71
  Q 226.69 422.64 224.91 420.42
  C 224.18 419.51 220.82 415.91 222.56 414.91
  Q 222.98 414.67 222.72 414.27
  L 219.47 409.25
  A 0.60 0.60 0.0 0 1 219.70 408.39
  Q 220.51 407.97 221.02 408.68
  Q 226.40 416.03 232.45 422.85
  Q 232.72 423.15 232.98 422.84
  C 233.69 422.00 221.74 409.06 223.70 407.69
  Q 224.11 407.39 224.45 407.77
  L 235.98 420.53
  Q 236.40 420.99 236.94 420.68
  L 240.94 418.39
  Q 241.44 418.10 241.07 417.65
  C 240.05 416.42 236.06 413.04 236.27 411.58
  Q 236.45 410.35 237.33 411.23
  L 242.69 416.54
  A 0.76 0.75 -37.3 0 0 243.61 416.66
  Q 252.15 411.57 259.97 405.45
  Q 265.11 401.43 265.79 394.51
  Q 267.95 372.33 266.37 351.57
  Q 266.33 351.04 266.02 350.62
  Q 251.76 331.01 245.14 307.67
  Q 244.99 307.13 244.57 306.75
  C 241.57 303.98 238.32 301.00 236.00 297.91
  C 223.48 281.21 225.17 261.88 233.78 243.51
  Q 234.00 243.03 233.61 241.73
  Q 233.46 241.26 233.67 240.81
  Q 243.05 220.81 259.01 205.51
  C 272.30 192.77 287.70 180.22 298.17 166.18
  C 311.69 148.03 314.90 128.40 318.08 106.47"
/>
<path stroke="#808080" vector-effect="non-scaling-stroke" d="
  M 304.08 227.78
  C 292.05 222.68 259.68 212.86 249.68 223.68
  C 247.18 226.39 238.11 238.85 238.65 244.02
  C 240.82 264.88 243.35 284.98 249.50 305.13
  C 251.31 311.07 252.90 316.87 255.41 322.57
  Q 268.01 351.06 291.50 371.50
  C 300.09 378.99 312.13 386.28 323.38 386.70
  C 333.67 387.08 344.88 381.53 353.25 375.74
  C 375.74 360.18 392.35 338.29 398.99 311.54
  Q 407.39 277.68 409.47 242.76
  Q 409.58 240.77 408.31 239.44
  Q 398.53 229.28 388.04 219.72
  Q 387.66 219.38 387.16 219.33
  C 372.84 217.75 356.60 221.83 343.74 227.47
  A 1.04 1.04 0.0 0 1 342.50 225.89
  C 350.36 215.60 368.50 212.72 380.50 213.41
  Q 381.17 213.45 380.66 213.01
  C 356.65 192.15 327.63 170.95 317.22 139.45
  Q 317.02 138.86 316.83 139.45
  Q 308.60 165.27 288.61 184.12
  C 275.20 196.77 264.68 205.72 255.61 216.06
  Q 255.21 216.52 255.77 216.29
  C 269.43 210.52 286.30 213.70 298.83 220.61
  Q 303.00 222.90 304.62 227.26
  A 0.41 0.41 0.0 0 1 304.08 227.78"
/>
<path stroke="#808080" vector-effect="non-scaling-stroke" d="
  M 241.47 294.59
  C 238.55 282.43 236.77 270.20 235.27 257.75
  Q 235.15 256.73 234.84 257.71
  Q 228.54 278.06 240.93 294.84
  A 0.30 0.30 0.0 0 0 241.47 294.59"
/>
<path stroke="#808080" vector-effect="non-scaling-stroke" d="
  M 412.97 258.59
  Q 411.16 277.84 407.16 296.77
  A 0.20 0.20 0.0 0 0 407.50 296.94
  Q 422.61 279.80 413.47 258.51
  A 0.26 0.26 0.0 0 0 412.97 258.59"
/>
<path stroke="#808080" vector-effect="non-scaling-stroke" d="
  M 270.61 399.46
  C 269.62 403.89 267.49 406.92 263.97 409.72
  C 249.43 421.28 232.26 430.52 215.64 438.77
  Q 215.15 439.02 215.64 439.27
  C 283.52 474.22 367.30 473.95 435.22 439.29
  A 0.26 0.26 0.0 0 0 435.22 438.83
  Q 417.35 430.05 400.50 419.49
  Q 390.72 413.36 385.32 408.44
  C 380.13 403.71 379.20 397.36 378.63 390.74
  Q 377.36 375.89 378.09 360.92
  A 0.29 0.29 0.0 0 0 377.58 360.72
  C 366.08 373.75 347.31 388.49 329.67 391.20
  C 308.64 394.42 285.61 375.30 273.11 359.53
  A 0.25 0.25 0.0 0 0 272.67 359.69
  C 272.91 372.83 273.51 386.53 270.61 399.46"
/>
<path stroke="#800000" vector-effect="non-scaling-stroke" d="
  M 205.04 847.75
  Q 203.54 850.45 204.59 853.57"
/>
<path stroke="#808080" vector-effect="non-scaling-stroke" d="
  M 204.59 853.57
  Q 198.98 889.12 185.55 927.82
  C 174.51 959.63 162.48 990.90 153.75 1023.96"
/>
<path stroke="#800000" vector-effect="non-scaling-stroke" d="
  M 153.75 1023.96
  C 147.60 1023.21 145.14 1030.56 151.25 1033.04"
/>
<path stroke="#808080" vector-effect="non-scaling-stroke" d="
  M 151.25 1033.04
  Q 145.40 1057.13 142.42 1082.43
  Q 142.32 1083.28 143.16 1083.45
  C 181.55 1091.04 220.92 1094.26 260.00 1095.22
  C 342.63 1097.27 425.55 1092.40 507.25 1079.67
  Q 507.82 1079.59 507.78 1079.02
  Q 507.69 1077.59 507.35 1075.18
  Q 504.18 1053.11 500.00 1035.95
  C 491.42 1000.80 478.83 967.01 466.84 932.93
  C 457.14 905.37 449.19 877.95 445.77 849.20
  C 444.08 834.96 444.65 820.92 446.57 807.06
  Q 455.33 743.65 474.26 682.28
  A 0.25 0.25 0.0 0 0 473.85 682.02
  C 428.68 726.88 354.34 694.81 353.93 631.95
  Q 353.93 631.73 354.03 631.46
  Q 354.23 630.96 354.24 631.50
  C 354.69 656.17 370.83 678.52 392.76 688.56
  C 429.24 705.27 472.08 685.88 483.71 647.58
  C 494.15 613.21 475.35 576.12 440.87 565.19
  A 0.22 0.22 0.0 0 1 440.99 564.76
  Q 461.69 570.21 476.04 585.99
  Q 476.53 586.52 476.58 585.80
  C 478.17 563.68 479.60 539.09 471.39 518.02
  Q 470.83 516.60 471.54 517.95
  Q 476.34 527.15 478.64 538.08
  Q 484.66 566.62 483.22 594.91
  Q 483.20 595.41 483.46 595.84
  Q 489.60 605.66 492.23 617.00"
/>
<path stroke="#800000" vector-effect="non-scaling-stroke" d="
  M 492.23 617.00
  Q 485.82 619.79 489.93 625.10
  Q 490.25 625.51 490.76 625.63
  L 493.75 626.29"
/>
<path stroke="#808080" vector-effect="non-scaling-stroke" d="
  M 493.75 626.29
  Q 495.54 649.33 483.94 669.01
  Q 483.69 669.44 483.72 669.93
  Q 483.77 670.74 483.98 671.50
  Q 502.41 738.93 518.31 806.99
  C 522.08 823.13 525.43 840.82 526.44 855.31
  C 528.34 882.32 529.36 909.31 534.31 936.38
  Q 534.39 936.86 534.87 936.91
  C 560.87 939.98 590.44 935.92 611.83 919.81
  Q 612.24 919.50 612.16 919.00
  Q 606.88 885.22 598.82 851.98
  C 594.17 832.77 589.14 813.58 585.18 794.23
  Q 568.86 714.53 556.52 634.13
  C 551.53 601.61 548.20 568.59 545.31 535.83
  Q 543.22 512.13 535.89 489.60
  C 530.43 472.82 520.76 465.92 505.53 458.30
  C 486.02 448.55 463.35 450.61 442.76 442.43
  Q 442.29 442.24 441.84 442.48
  C 368.99 481.55 281.53 480.35 208.64 442.50
  Q 208.19 442.27 207.72 442.46
  C 195.50 447.46 184.30 448.88 169.93 450.88
  C 157.31 452.64 148.44 456.61 137.01 462.51
  C 125.69 468.35 118.97 478.18 114.82 489.82
  C 108.81 506.67 106.26 525.42 104.66 543.32
  C 102.32 569.41 99.92 595.75 96.08 621.66
  Q 83.52 706.30 66.48 790.15
  Q 64.59 799.42 62.16 809.66
  C 53.59 845.82 44.53 881.54 38.67 918.39
  A 1.88 1.88 0.0 0 0 39.41 920.20
  C 60.92 935.92 89.49 939.95 116.04 936.89
  Q 116.50 936.84 116.58 936.38
  C 120.58 913.10 121.98 889.57 123.62 866.04
  C 125.93 833.04 132.48 805.04 140.88 771.21
  Q 153.48 720.45 167.17 669.91
  Q 167.30 669.42 167.05 668.98
  C 153.76 646.26 153.54 618.37 167.54 595.91
  Q 167.81 595.48 167.78 594.98
  Q 166.49 568.14 171.64 541.77
  C 173.50 532.24 175.77 524.99 179.56 517.98
  Q 179.91 517.34 179.65 518.01
  Q 173.74 533.20 173.51 549.51
  Q 173.26 567.85 174.39 586.12
  A 0.19 0.19 0.0 0 0 174.72 586.24
  Q 189.22 570.22 210.21 564.75
  A 0.18 0.18 0.0 0 1 210.31 565.10
  Q 190.01 571.69 177.41 588.64
  C 162.02 609.36 160.31 636.60 172.13 659.18
  C 190.31 693.92 234.78 705.21 267.36 683.46
  Q 293.85 665.78 296.93 632.56
  A 0.25 0.24 -41.2 0 1 297.42 632.59
  Q 295.68 666.17 272.21 686.21
  C 244.20 710.12 202.48 707.86 176.88 681.65
  A 0.27 0.26 -76.2 0 0 176.44 681.92
  Q 193.27 737.09 202.22 793.75
  C 205.02 811.45 207.37 829.87 205.04 847.75"
/>
<path stroke="#ff8080" vector-effect="non-scaling-stroke" d="
  M 493.75 626.29
  C 499.70 624.37 498.77 617.21 492.23 617.00"
/>
<path stroke="#ff8080" vector-effect="non-scaling-stroke" d="
  M 151.25 1033.04
  C 154.36 1032.99 160.38 1033.63 163.02 1032.45
  C 165.68 1031.26 166.18 1027.92 164.56 1025.64
  C 162.86 1023.25 156.44 1023.98 153.75 1023.96"
/>
<path stroke="#ff8080" vector-effect="non-scaling-stroke" d="
  M 204.59 853.57
  Q 210.45 856.06 216.98 855.39
  C 218.78 855.21 221.52 854.00 221.78 852.26
  C 222.88 844.83 214.68 846.19 210.24 846.27
  Q 207.00 846.32 205.04 847.75"
/>
<path stroke="#808080" vector-effect="non-scaling-stroke" d="
  M 115.99 1292.30
  L 128.19 1297.03
  A 0.49 0.48 86.3 0 0 128.79 1296.34
  Q 124.99 1289.37 118.20 1285.14
  Q 117.75 1284.85 117.69 1284.32
  C 117.42 1281.57 117.70 1277.82 115.49 1275.76
  C 111.90 1272.42 101.18 1263.93 100.39 1259.45
  Q 96.42 1236.84 92.45 1213.93
  Q 92.26 1212.89 93.13 1213.50
  C 100.44 1218.71 109.66 1224.98 114.56 1232.84
  C 117.52 1237.58 117.87 1244.11 119.77 1248.48
  C 121.71 1252.96 127.45 1262.76 132.69 1263.27
  Q 133.35 1263.33 133.47 1262.67
  Q 133.94 1260.13 132.79 1256.43
  C 131.22 1251.39 129.70 1247.05 128.52 1241.42
  C 127.16 1234.90 124.03 1228.46 122.30 1223.31
  C 118.26 1211.29 117.40 1197.08 114.25 1186.21
  C 109.88 1171.17 97.84 1160.64 88.11 1148.90
  C 72.57 1130.15 77.39 1103.23 80.82 1081.42
  C 85.37 1052.52 91.62 1023.66 100.16 995.67
  C 106.01 976.49 111.67 960.08 114.94 943.64
  Q 115.06 943.05 114.46 943.11
  C 88.22 945.68 60.48 941.60 38.31 926.77
  Q 37.90 926.49 37.85 926.98
  Q 35.93 946.13 36.20 954.75
  C 37.38 993.58 36.41 1026.65 34.72 1067.19
  Q 32.97 1109.15 32.99 1121.75
  Q 33.01 1139.91 33.97 1146.76
  C 35.51 1157.72 39.73 1173.36 41.77 1186.89
  Q 44.20 1202.95 46.96 1218.96
  Q 48.05 1225.28 50.86 1230.16
  Q 54.42 1236.34 65.80 1254.45
  C 69.16 1259.80 72.54 1263.62 77.39 1265.07
  Q 77.85 1265.21 78.10 1265.63
  C 81.75 1271.87 86.48 1282.53 95.86 1283.63
  Q 96.38 1283.69 96.71 1284.09
  Q 110.08 1300.41 124.77 1315.53
  A 0.51 0.51 0.0 0 0 125.64 1315.11
  C 124.68 1307.06 119.39 1299.69 115.65 1292.69
  Q 115.29 1292.03 115.99 1292.30"
/>
<path stroke="#808080" vector-effect="non-scaling-stroke" d="
  M 558.23 1213.07
  A 0.17 0.17 0.0 0 1 558.49 1213.24
  L 550.05 1261.08
  Q 549.96 1261.62 549.57 1262.03
  Q 544.03 1267.76 538.10 1273.13
  C 534.40 1276.47 532.71 1278.93 533.34 1283.79
  Q 533.41 1284.31 532.98 1284.63
  C 528.69 1287.84 524.17 1291.33 522.18 1296.51
  Q 521.89 1297.25 522.64 1296.97
  L 535.13 1292.17
  A 0.22 0.22 0.0 0 1 535.40 1292.48
  C 531.57 1299.17 527.22 1305.73 525.31 1313.39
  Q 524.36 1317.20 527.10 1314.38
  Q 541.22 1299.82 554.04 1284.08
  Q 554.38 1283.67 554.90 1283.61
  C 564.10 1282.43 568.63 1272.82 572.47 1265.88
  Q 572.71 1265.44 573.19 1265.28
  Q 578.71 1263.43 582.03 1258.54
  Q 591.38 1244.78 599.73 1230.39
  C 601.84 1226.75 603.37 1222.79 604.03 1219.00
  Q 606.09 1207.24 609.24 1185.39
  C 611.51 1169.66 616.32 1154.37 617.33 1138.76
  C 618.42 1121.98 617.64 1104.62 616.94 1087.81
  Q 615.65 1056.82 614.61 1025.81
  Q 613.40 989.51 614.00 978.49
  Q 615.41 952.84 613.10 927.15
  Q 613.04 926.47 612.46 926.84
  C 589.51 941.29 563.53 945.76 536.68 943.14
  Q 535.44 943.02 535.76 944.23
  Q 541.82 967.16 548.74 989.46
  C 557.68 1018.23 564.57 1047.73 569.46 1077.47
  Q 572.21 1094.14 573.20 1111.00
  C 573.78 1120.79 572.89 1131.02 568.54 1139.73
  C 564.02 1148.77 557.61 1154.89 549.78 1163.97
  C 541.31 1173.79 537.02 1181.00 535.03 1193.01
  C 532.95 1205.50 530.36 1218.64 525.48 1231.22
  C 522.18 1239.70 520.66 1249.00 517.57 1257.78
  C 517.11 1259.10 517.25 1260.66 517.25 1262.05
  Q 517.25 1262.57 517.70 1262.84
  C 521.67 1265.15 529.30 1252.35 530.61 1249.41
  Q 531.37 1247.70 532.75 1241.86
  C 536.10 1227.65 548.23 1220.25 558.23 1213.07"
/>
<path stroke="#808080" vector-effect="non-scaling-stroke" d="
  M 188.70 1140.00
  Q 188.82 1139.94 189.00 1140.00
  C 218.97 1150.00 246.83 1164.89 273.06 1181.95
  Q 294.96 1196.19 306.38 1203.07
  Q 314.68 1208.06 319.07 1209.43
  C 327.85 1212.17 335.96 1208.95 344.20 1204.96
  C 384.93 1185.22 422.65 1158.81 465.47 1143.68
  Q 466.20 1143.43 467.19 1143.42
  Q 467.86 1143.41 467.23 1143.64
  C 423.59 1159.60 384.39 1191.71 341.45 1213.67
  Q 341.01 1213.89 340.95 1214.38
  C 327.64 1313.73 327.44 1410.91 336.19 1510.54
  Q 336.97 1519.42 337.21 1530.50
  C 337.96 1566.03 343.01 1593.43 349.53 1634.72
  Q 350.47 1640.69 350.34 1646.46
  C 349.71 1675.13 346.05 1704.38 343.85 1727.57
  Q 339.73 1771.03 347.76 1810.01
  C 354.56 1843.01 358.73 1870.94 359.43 1903.94
  Q 360.07 1934.25 360.75 1964.57
  C 361.38 1992.44 359.03 2020.65 357.72 2048.50
  Q 357.62 2050.61 358.12 2054.48
  Q 358.19 2055.01 358.59 2054.66
  C 373.06 2042.04 389.04 2036.56 407.70 2043.55
  A 0.75 0.75 0.0 0 0 408.71 2042.88
  C 410.06 2015.71 414.94 1988.23 420.69 1961.59
  C 433.41 1902.68 445.65 1843.52 455.80 1784.10
  C 462.50 1744.87 456.77 1706.73 452.59 1668.94
  C 448.90 1635.54 449.53 1608.73 450.66 1572.31
  C 451.59 1542.25 455.83 1513.32 462.57 1484.08
  C 484.92 1387.07 504.31 1293.12 511.44 1196.19
  Q 515.45 1141.59 508.57 1086.04
  Q 508.50 1085.46 507.92 1085.55
  Q 484.09 1089.49 459.75 1092.24
  Q 369.95 1102.42 279.56 1101.57
  C 234.30 1101.14 187.13 1097.97 142.32 1089.44
  Q 141.86 1089.35 141.81 1089.81
  C 134.06 1152.63 138.91 1213.49 148.04 1276.50
  C 158.35 1347.62 172.95 1417.42 188.98 1487.44
  C 194.99 1513.70 198.81 1540.32 199.90 1567.24
  Q 201.55 1608.11 200.95 1628.19
  C 200.16 1655.26 197.68 1674.08 193.85 1708.07
  C 191.17 1731.88 190.66 1759.59 194.96 1784.35
  Q 205.48 1845.01 218.23 1905.25
  C 229.58 1958.87 239.05 1996.26 240.85 2043.53
  Q 240.87 2044.13 241.44 2043.92
  C 261.01 2036.52 276.96 2041.74 291.88 2054.94
  Q 292.30 2055.30 292.38 2054.76
  Q 292.79 2052.09 292.75 2051.25
  C 290.80 2015.78 288.78 1982.20 290.20 1944.93
  Q 290.62 1933.80 291.50 1900.25
  C 292.23 1872.38 295.74 1846.60 301.16 1819.78
  C 307.32 1789.25 309.97 1759.25 306.89 1728.06
  C 304.21 1700.92 301.05 1675.57 300.38 1646.61
  Q 300.24 1640.86 301.17 1634.96
  C 307.59 1593.96 312.76 1565.26 313.59 1529.25
  Q 313.84 1518.23 314.64 1509.30
  Q 320.98 1438.54 320.78 1367.51
  C 320.75 1353.18 320.06 1337.51 319.74 1322.50
  Q 319.73 1322.15 319.21 1321.54
  Q 318.90 1321.16 318.93 1320.67
  C 319.60 1309.77 318.31 1300.17 317.37 1287.18
  Q 314.93 1253.46 309.77 1213.48
  Q 309.71 1212.98 309.27 1212.73
  Q 297.18 1205.85 289.82 1200.44
  C 259.40 1178.09 226.13 1154.10 188.71 1140.13
  Q 188.55 1140.07 188.70 1140.00"
/>
<path stroke="#808080" vector-effect="non-scaling-stroke" d="
  M 284.67 2122.87
  C 286.75 2101.83 289.10 2082.69 290.96 2062.54
  Q 291.01 2062.04 290.63 2061.70
  C 275.31 2047.76 261.50 2042.26 240.95 2050.27
  Q 240.49 2050.44 240.37 2050.92
  Q 238.39 2058.81 235.74 2064.22
  Q 225.99 2084.15 209.93 2113.69
  Q 202.96 2126.51 190.52 2138.27
  Q 183.77 2144.65 180.11 2154.93
  Q 179.94 2155.40 180.09 2155.87
  C 188.03 2181.60 216.90 2191.71 240.94 2186.42
  Q 258.83 2182.47 273.53 2169.98
  C 287.09 2158.46 283.11 2138.70 284.67 2122.87"
/>
<path stroke="#808080" vector-effect="non-scaling-stroke" d="
  M 471.64 2155.11
  C 467.04 2140.18 451.69 2131.46 445.50 2120.23
  Q 434.59 2100.45 423.44 2080.81
  C 417.83 2070.94 411.66 2060.88 408.93 2050.63
  Q 408.80 2050.16 408.34 2049.98
  C 388.97 2042.59 374.64 2047.57 360.07 2061.32
  Q 359.70 2061.66 359.75 2062.17
  Q 362.95 2090.43 366.59 2118.64
  Q 367.49 2125.60 367.76 2132.91
  C 368.25 2146.75 366.94 2161.67 379.32 2171.17
  C 393.64 2182.16 410.11 2188.77 428.29 2187.56
  C 447.32 2186.28 465.79 2175.02 471.64 2156.04
  Q 471.79 2155.57 471.64 2155.11"
/>
<path stroke="#808080" vector-effect="non-scaling-stroke" d="
  M 472.09 2169.15
  C 446.15 2204.96 397.86 2198.30 369.66 2170.11
  Q 369.33 2169.78 369.40 2170.24
  Q 370.80 2178.88 376.10 2183.89
  C 391.74 2198.67 417.13 2207.21 438.44 2201.67
  C 454.53 2197.48 467.93 2185.65 472.30 2169.25
  A 0.12 0.12 0.0 0 0 472.09 2169.15"
/>
<path stroke="#808080" vector-effect="non-scaling-stroke" d="
  M 282.19 2170.01
  C 254.79 2197.84 205.21 2205.29 179.89 2169.27
  A 0.21 0.21 0.0 0 0 179.51 2169.45
  Q 182.67 2181.22 191.47 2189.54
  C 213.97 2210.82 248.68 2205.42 271.40 2187.49
  C 277.67 2182.54 281.17 2177.77 282.50 2170.17
  Q 282.60 2169.60 282.19 2170.01"
/>
<path stroke="#808080" vector-effect="non-scaling-stroke" d="
  M 303.50 236.79
  C 310.43 245.18 310.81 256.11 310.05 266.21
  Q 309.96 267.43 310.29 266.25
  C 311.29 262.61 314.83 249.39 312.71 246.55
  Q 309.42 242.14 303.59 236.72
  Q 302.93 236.11 303.50 236.79"
/>
<path stroke="#808080" vector-effect="non-scaling-stroke" d="
  M 262.19 244.80
  L 264.91 251.91
  Q 265.13 252.50 265.76 252.50
  L 281.62 252.50
  Q 282.22 252.50 282.41 251.93
  L 285.03 244.02
  Q 285.23 243.42 285.85 243.57
  L 301.78 247.33
  Q 302.16 247.42 301.83 247.21
  C 287.84 238.22 254.73 226.53 250.47 253.67
  Q 250.35 254.39 250.69 253.75
  Q 254.26 246.91 261.66 244.54
  Q 262.04 244.42 262.19 244.80"
/>
<path stroke="#808080" vector-effect="non-scaling-stroke" d="
  M 385.24 244.72
  Q 392.31 247.49 396.09 254.03
  Q 396.52 254.77 396.35 253.93
  C 391.06 227.43 360.79 236.92 345.45 247.06
  Q 345.32 247.14 345.47 247.10
  L 360.91 243.21
  A 0.83 0.83 0.0 0 1 361.93 243.89
  Q 362.60 248.17 364.62 251.99
  Q 364.89 252.50 365.47 252.50
  L 380.92 252.50
  Q 381.54 252.50 381.78 251.92
  L 384.59 245.00
  Q 384.78 244.54 385.24 244.72"
/>
<path stroke="#808080" vector-effect="non-scaling-stroke" d="
  M 321.00 305.00
  Q 315.16 304.55 308.82 302.40
  Q 308.40 302.26 308.73 302.55
  Q 314.27 307.37 319.25 309.50
  C 327.44 313.00 336.10 307.82 342.85 302.06
  Q 343.23 301.74 342.76 301.91
  Q 332.03 305.85 321.00 305.00"
/>
<path stroke="#808080" vector-effect="non-scaling-stroke" d="
  M 281.34 324.13
  L 283.83 321.10
  Q 284.30 320.53 283.68 320.11
  L 282.77 319.50
  Q 282.29 319.18 281.93 319.63
  L 275.64 327.49
  Q 275.26 327.98 275.76 328.34
  L 276.80 329.09
  Q 277.27 329.42 277.61 328.96
  L 279.48 326.42
  A 1.42 1.41 -53.9 0 1 281.44 326.11
  C 284.01 327.97 286.88 329.26 289.11 331.44
  C 304.81 346.77 322.03 366.90 344.33 345.33
  Q 350.87 339.01 359.15 329.15
  Q 360.74 327.26 365.52 325.09
  Q 365.95 324.89 366.24 325.27
  L 369.08 328.92
  Q 369.49 329.44 369.99 329.02
  L 370.89 328.28
  Q 371.36 327.88 370.98 327.40
  L 364.73 319.60
  Q 364.33 319.10 363.83 319.50
  L 362.87 320.27
  Q 362.38 320.66 362.80 321.12
  L 364.35 322.82
  Q 364.97 323.50 364.06 323.67
  Q 358.16 324.76 355.25 324.69
  C 347.52 324.50 336.74 321.71 327.48 323.91
  C 321.42 325.34 317.61 322.68 311.99 323.03
  C 301.70 323.65 292.63 325.92 281.53 324.58
  Q 281.02 324.52 281.34 324.13"
/>
<path stroke="#808080" vector-effect="non-scaling-stroke" d="
  M 325.76 325.53
  C 319.14 326.14 313.65 323.49 306.60 324.73
  Q 296.28 326.55 285.80 326.54
  Q 285.51 326.54 285.80 326.59
  Q 309.55 331.09 333.69 329.84
  Q 343.63 329.33 355.99 326.96
  Q 358.06 326.56 359.34 326.01
  Q 360.36 325.57 359.26 325.73
  C 352.34 326.69 344.10 325.06 337.09 324.37
  C 333.12 323.97 329.70 325.17 325.76 325.53"
/>
<path stroke="#808080" vector-effect="non-scaling-stroke" d="
  M 353.72 329.13
  C 332.68 332.28 314.02 331.82 292.54 329.48
  Q 291.78 329.40 292.44 329.77
  Q 299.77 333.93 308.68 337.11
  C 324.52 342.76 338.73 337.51 353.78 329.30
  Q 354.23 329.05 353.72 329.13"
/>
<path stroke="#808080" vector-effect="non-scaling-stroke" d="
  M 353.73 332.18
  C 333.46 342.82 315.58 344.92 294.74 333.72
  A 0.23 0.23 0.0 0 0 294.46 334.07
  C 300.66 341.23 311.69 351.23 321.27 352.81
  C 333.97 354.91 346.53 341.99 354.00 332.50
  Q 354.62 331.71 353.73 332.18"
/>
<path stroke="#ff8080" vector-effect="non-scaling-stroke" d="
  M 219.89 621.35
  A 4.16 4.16 0.0 0 0 215.73 617.19
  L 206.43 617.19
  A 4.16 4.16 0.0 0 0 202.27 621.35
  L 202.27 621.83
  A 4.16 4.16 0.0 0 0 206.43 625.99
  L 215.73 625.99
  A 4.16 4.16 0.0 0 0 219.89 621.83
  L 219.89 621.35"
/>
<path stroke="#ff8080" vector-effect="non-scaling-stroke" d="
  M 255.6496 621.3046
  A 4.19 4.19 0.0 0 0 251.4523 617.1220
  L 242.2323 617.1381
  A 4.19 4.19 0.0 0 0 238.0496 621.3354
  L 238.0504 621.8154
  A 4.19 4.19 0.0 0 0 242.2477 625.9980
  L 251.4677 625.9819
  A 4.19 4.19 0.0 0 0 255.6504 621.7846
  L 255.6496 621.3046"
/>
<path stroke="#ff8080" vector-effect="non-scaling-stroke" d="
  M 184.15 621.39
  A 4.13 4.13 0.0 0 0 180.02 617.26
  L 170.60 617.26
  A 4.13 4.13 0.0 0 0 166.47 621.39
  L 166.47 621.85
  A 4.13 4.13 0.0 0 0 170.60 625.98
  L 180.02 625.98
  A 4.13 4.13 0.0 0 0 184.15 621.85
  L 184.15 621.39"
/>
<path stroke="#ff8080" vector-effect="non-scaling-stroke" d="
  M 291.4614 621.4517
  A 4.14 4.14 0.0 0 0 287.3504 617.2829
  L 277.9506 617.2173
  A 4.14 4.14 0.0 0 0 273.7818 621.3283
  L 273.7786 621.7883
  A 4.14 4.14 0.0 0 0 277.8896 625.9571
  L 287.2894 626.0227
  A 4.14 4.14 0.0 0 0 291.4582 621.9117
  L 291.4614 621.4517"
/>
<path stroke="#ff8080" vector-effect="non-scaling-stroke" d="
  M 327.2113 621.4616
  A 4.14 4.14 0.0 0 0 323.1003 617.2928
  L 313.7206 617.2274
  A 4.14 4.14 0.0 0 0 309.5518 621.3384
  L 309.5487 621.7784
  A 4.14 4.14 0.0 0 0 313.6597 625.9472
  L 323.0394 626.0126
  A 4.14 4.14 0.0 0 0 327.2082 621.9016
  L 327.2113 621.4616"
/>
<path stroke="#ff8080" vector-effect="non-scaling-stroke" d="
  M 362.9813 621.4616
  A 4.14 4.14 0.0 0 0 358.8703 617.2928
  L 349.4906 617.2274
  A 4.14 4.14 0.0 0 0 345.3218 621.3384
  L 345.3187 621.7784
  A 4.14 4.14 0.0 0 0 349.4297 625.9472
  L 358.8094 626.0126
  A 4.14 4.14 0.0 0 0 362.9782 621.9016
  L 362.9813 621.4616"
/>
<path stroke="#ff8080" vector-effect="non-scaling-stroke" d="
  M 398.75 621.39
  A 4.14 4.14 0.0 0 0 394.61 617.25
  L 385.21 617.25
  A 4.14 4.14 0.0 0 0 381.07 621.39
  L 381.07 621.83
  A 4.14 4.14 0.0 0 0 385.21 625.97
  L 394.61 625.97
  A 4.14 4.14 0.0 0 0 398.75 621.83
  L 398.75 621.39"
/>
<path stroke="#ff8080" vector-effect="non-scaling-stroke" d="
  M 434.52 621.40
  A 4.14 4.14 0.0 0 0 430.38 617.26
  L 420.98 617.26
  A 4.14 4.14 0.0 0 0 416.84 621.40
  L 416.84 621.84
  A 4.14 4.14 0.0 0 0 420.98 625.98
  L 430.38 625.98
  A 4.14 4.14 0.0 0 0 434.52 621.84
  L 434.52 621.40"
/>
<path stroke="#ff8080" vector-effect="non-scaling-stroke" d="
  M 470.40 621.41
  A 4.15 4.15 0.0 0 0 466.25 617.26
  L 456.89 617.26
  A 4.15 4.15 0.0 0 0 452.74 621.41
  L 452.74 621.83
  A 4.15 4.15 0.0 0 0 456.89 625.98
  L 466.25 625.98
  A 4.15 4.15 0.0 0 0 470.40 621.83
  L 470.40 621.41"
/>
<path stroke="#ff8080" vector-effect="non-scaling-stroke" d="
  M 257.6507 850.5607
  A 4.22 4.22 0.0 0 0 253.4455 846.3260
  L 244.2856 846.2940
  A 4.22 4.22 0.0 0 0 240.0509 850.4993
  L 240.0493 850.9593
  A 4.22 4.22 0.0 0 0 244.2545 855.1940
  L 253.4144 855.2260
  A 4.22 4.22 0.0 0 0 257.6491 851.0207
  L 257.6507 850.5607"
/>
<path stroke="#ff8080" vector-effect="non-scaling-stroke" d="
  M 293.43 850.53
  A 4.22 4.22 0.0 0 0 289.21 846.31
  L 280.03 846.31
  A 4.22 4.22 0.0 0 0 275.81 850.53
  L 275.81 850.99
  A 4.22 4.22 0.0 0 0 280.03 855.21
  L 289.21 855.21
  A 4.22 4.22 0.0 0 0 293.43 850.99
  L 293.43 850.53"
/>
<path stroke="#ff8080" vector-effect="non-scaling-stroke" d="
  M 329.1891 850.4992
  A 4.22 4.22 0.0 0 0 324.9544 846.2940
  L 315.7745 846.3260
  A 4.22 4.22 0.0 0 0 311.5693 850.5608
  L 311.5709 851.0208
  A 4.22 4.22 0.0 0 0 315.8056 855.2260
  L 324.9855 855.1940
  A 4.22 4.22 0.0 0 0 329.1907 850.9592
  L 329.1891 850.4992"
/>
<path stroke="#ff8080" vector-effect="non-scaling-stroke" d="
  M 364.9491 850.4892
  A 4.22 4.22 0.0 0 0 360.7144 846.2840
  L 351.5345 846.3160
  A 4.22 4.22 0.0 0 0 347.3292 850.5508
  L 347.3309 851.0308
  A 4.22 4.22 0.0 0 0 351.5656 855.2360
  L 360.7455 855.2040
  A 4.22 4.22 0.0 0 0 364.9508 850.9692
  L 364.9491 850.4892"
/>
<path stroke="#ff8080" vector-effect="non-scaling-stroke" d="
  M 400.7191 850.4892
  A 4.21 4.21 0.0 0 0 396.4944 846.2940
  L 387.2945 846.3261
  A 4.21 4.21 0.0 0 0 383.0992 850.5508
  L 383.1009 851.0308
  A 4.21 4.21 0.0 0 0 387.3256 855.2260
  L 396.5255 855.1939
  A 4.21 4.21 0.0 0 0 400.7208 850.9692
  L 400.7191 850.4892"
/>
<path stroke="#ff8080" vector-effect="non-scaling-stroke" d="
  M 436.4804 850.5352
  A 4.23 4.23 0.0 0 0 432.2578 846.2979
  L 423.2578 846.2822
  A 4.23 4.23 0.0 0 0 419.0204 850.5048
  L 419.0196 850.9848
  A 4.23 4.23 0.0 0 0 423.2422 855.2221
  L 432.2422 855.2378
  A 4.23 4.23 0.0 0 0 436.4796 851.0152
  L 436.4804 850.5352"
/>
<path stroke="#ff8080" vector-effect="non-scaling-stroke" d="
  M 201.1915 1028.3215
  A 4.22 4.22 0.0 0 0 197.0010 1024.0722
  L 187.8212 1024.0081
  A 4.22 4.22 0.0 0 0 183.5719 1028.1985
  L 183.5685 1028.6785
  A 4.22 4.22 0.0 0 0 187.7590 1032.9278
  L 196.9388 1032.9919
  A 4.22 4.22 0.0 0 0 201.1881 1028.8015
  L 201.1915 1028.3215"
/>
<path stroke="#ff8080" vector-effect="non-scaling-stroke" d="
  M 236.9711 1028.2961
  A 4.21 4.21 0.0 0 0 232.7832 1024.0641
  L 223.5834 1024.0160
  A 4.21 4.21 0.0 0 0 219.3514 1028.2039
  L 219.3489 1028.6839
  A 4.21 4.21 0.0 0 0 223.5368 1032.9159
  L 232.7366 1032.9640
  A 4.21 4.21 0.0 0 0 236.9686 1028.7761
  L 236.9711 1028.2961"
/>
<path stroke="#ff8080" vector-effect="non-scaling-stroke" d="
  M 272.7304 1028.2854
  A 4.21 4.21 0.0 0 0 268.5277 1024.0680
  L 259.3478 1024.0520
  A 4.21 4.21 0.0 0 0 255.1304 1028.2546
  L 255.1296 1028.7146
  A 4.21 4.21 0.0 0 0 259.3323 1032.9320
  L 268.5122 1032.9480
  A 4.21 4.21 0.0 0 0 272.7296 1028.7454
  L 272.7304 1028.2854"
/>
<path stroke="#ff8080" vector-effect="non-scaling-stroke" d="
  M 308.49 1028.26
  A 4.23 4.23 0.0 0 0 304.26 1024.03
  L 295.26 1024.03
  A 4.23 4.23 0.0 0 0 291.03 1028.26
  L 291.03 1028.74
  A 4.23 4.23 0.0 0 0 295.26 1032.97
  L 304.26 1032.97
  A 4.23 4.23 0.0 0 0 308.49 1028.74
  L 308.49 1028.26"
/>
<path stroke="#ff8080" vector-effect="non-scaling-stroke" d="
  M 344.41 1028.26
  A 4.22 4.22 0.0 0 0 340.19 1024.04
  L 330.99 1024.04
  A 4.22 4.22 0.0 0 0 326.77 1028.26
  L 326.77 1028.72
  A 4.22 4.22 0.0 0 0 330.99 1032.94
  L 340.19 1032.94
  A 4.22 4.22 0.0 0 0 344.41 1028.72
  L 344.41 1028.26"
/>
<path stroke="#ff8080" vector-effect="non-scaling-stroke" d="
  M 380.1791 1028.2292
  A 4.22 4.22 0.0 0 0 375.9444 1024.0240
  L 366.7445 1024.0561
  A 4.22 4.22 0.0 0 0 362.5393 1028.2908
  L 362.5409 1028.7508
  A 4.22 4.22 0.0 0 0 366.7756 1032.9560
  L 375.9755 1032.9239
  A 4.22 4.22 0.0 0 0 380.1807 1028.6892
  L 380.1791 1028.2292"
/>
<path stroke="#ff8080" vector-effect="non-scaling-stroke" d="
  M 415.9381 1028.1984
  A 4.23 4.23 0.0 0 0 411.6787 1023.9981
  L 402.4989 1024.0622
  A 4.23 4.23 0.0 0 0 398.2985 1028.3216
  L 398.3019 1028.8016
  A 4.23 4.23 0.0 0 0 402.5613 1033.0019
  L 411.7411 1032.9378
  A 4.23 4.23 0.0 0 0 415.9415 1028.6784
  L 415.9381 1028.1984"
/>
<path stroke="#ff8080" vector-effect="non-scaling-stroke" d="
  M 451.7207 1028.3008
  A 4.23 4.23 0.0 0 0 447.5055 1024.0561
  L 438.3056 1024.0240
  A 4.23 4.23 0.0 0 0 434.0609 1028.2392
  L 434.0593 1028.6992
  A 4.23 4.23 0.0 0 0 438.2745 1032.9439
  L 447.4744 1032.9760
  A 4.23 4.23 0.0 0 0 451.7191 1028.7608
  L 451.7207 1028.3008"
/>
<path stroke="#ff8080" vector-effect="non-scaling-stroke" d="
  M 487.4711 1028.3061
  A 4.22 4.22 0.0 0 0 483.2732 1024.0641
  L 474.0934 1024.0160
  A 4.22 4.22 0.0 0 0 469.8513 1028.2139
  L 469.8489 1028.6739
  A 4.22 4.22 0.0 0 0 474.0468 1032.9159
  L 483.2266 1032.9640
  A 4.22 4.22 0.0 0 0 487.4687 1028.7661
  L 487.4711 1028.3061"
/>
</g>
<path fill="#000000" d="
  M 182.09 378.92
  Q 188.18 405.29 206.01 425.54
  C 206.44 426.03 206.31 426.52 205.73 426.81
  A 1.04 1.03 55.6 0 1 204.50 426.57
  C 174.32 392.63 167.43 344.84 177.54 301.59
  A 0.31 0.31 0.0 0 0 176.95 301.40
  C 165.51 331.07 162.81 359.16 175.49 388.90
  C 180.45 400.53 186.67 409.33 195.01 419.24
  C 195.38 419.68 195.48 420.52 194.69 420.60
  A 0.93 0.91 -24.2 0 1 193.92 420.32
  C 170.95 396.51 160.03 363.00 164.12 330.68
  C 167.16 306.72 178.81 284.98 188.95 263.47
  C 189.06 263.23 189.01 262.84 188.95 262.59
  A 0.33 0.32 -35.1 0 0 188.36 262.49
  C 183.56 269.97 177.12 277.50 173.64 285.61
  Q 167.50 299.92 162.13 314.53
  C 161.86 315.28 161.32 315.41 160.61 315.20
  A 0.54 0.54 0.0 0 1 160.26 314.50
  L 167.23 294.96
  Q 167.34 294.63 167.03 294.49
  C 166.57 294.29 165.25 296.81 164.96 297.27
  Q 164.76 297.58 164.53 297.88
  Q 163.08 299.78 162.49 298.50
  A 0.61 0.60 -42.7 0 1 162.52 297.91
  C 166.18 291.96 169.85 286.34 172.83 279.91
  Q 182.24 259.63 192.93 239.99
  Q 193.75 238.47 194.91 235.18
  A 0.20 0.20 0.0 0 0 194.54 235.02
  L 191.17 241.64
  Q 190.93 242.11 190.41 241.96
  C 189.81 241.79 189.71 241.29 189.97 240.73
  Q 198.61 221.76 204.48 201.74
  C 210.71 180.50 216.24 158.64 225.43 138.44
  C 247.73 89.44 297.13 82.17 345.01 86.77
  C 375.35 89.68 402.77 100.24 418.95 126.56
  Q 429.06 143.01 435.35 164.48
  C 442.83 190.03 449.26 215.45 460.55 240.30
  C 460.93 241.14 460.53 241.78 460.93 242.54
  Q 470.26 260.36 477.58 279.09
  C 480.22 285.87 484.60 291.82 488.22 298.12
  A 0.59 0.59 0.0 0 1 487.81 299.00
  C 486.40 299.23 484.46 294.99 483.95 293.92
  Q 483.82 293.65 483.54 293.74
  Q 483.40 293.78 483.26 293.83
  Q 483.06 293.90 483.14 294.10
  C 484.13 296.68 490.91 313.97 490.08 315.28
  A 0.69 0.69 0.0 0 1 488.86 315.15
  Q 482.92 299.18 476.31 283.69
  Q 475.40 281.57 474.05 279.70
  Q 467.81 270.99 462.00 261.88
  A 0.40 0.40 0.0 0 0 461.29 261.96
  Q 461.11 262.44 461.41 263.05
  C 470.04 280.28 478.50 297.41 483.66 316.06
  C 493.99 353.35 482.99 392.75 456.66 420.61
  Q 456.27 421.02 455.86 420.63
  C 455.36 420.16 455.38 419.44 455.85 418.92
  Q 473.20 399.79 480.10 374.77
  C 487.10 349.42 483.45 325.28 473.63 301.33
  Q 473.53 301.10 473.31 301.02
  Q 472.88 300.86 472.99 301.30
  C 483.46 343.72 476.45 393.37 446.24 426.32
  C 445.78 426.83 444.98 427.04 444.58 426.44
  A 0.66 0.66 0.0 0 1 444.63 425.64
  Q 460.38 407.80 467.13 384.86
  Q 467.25 384.47 466.84 384.48
  C 466.60 384.49 466.46 384.60 466.37 384.83
  C 460.96 398.81 453.83 410.02 441.20 417.54
  A 0.57 0.57 0.0 0 1 440.42 417.35
  Q 439.98 416.64 440.66 416.18
  Q 454.83 406.53 460.84 390.41
  Q 461.41 388.88 460.34 390.11
  C 459.18 391.44 458.19 393.89 457.52 394.89
  C 450.01 406.28 439.61 415.23 429.31 423.74
  A 0.52 0.52 0.0 0 1 428.55 423.62
  L 428.35 423.33
  Q 428.03 422.85 428.42 422.41
  C 430.63 419.96 445.92 403.00 445.93 398.66
  Q 445.94 397.92 445.53 398.54
  Q 435.76 413.10 423.60 425.76
  Q 423.30 426.08 423.68 426.29
  C 436.72 433.51 449.39 439.92 464.52 442.37
  Q 475.01 444.07 485.49 445.82
  C 498.91 448.07 508.19 452.93 517.24 457.77
  C 530.79 465.01 538.56 477.56 542.86 491.92
  C 551.14 519.57 552.87 552.18 555.43 577.48
  Q 559.44 617.23 565.98 656.64
  C 574.11 705.63 582.83 754.40 593.06 802.99
  Q 594.87 811.59 597.64 822.46
  Q 606.76 858.15 614.01 894.25
  Q 621.51 931.57 620.20 969.51
  C 618.37 1022.90 623.51 1067.48 623.52 1129.50
  C 623.53 1139.48 622.74 1148.35 620.39 1158.68
  C 615.11 1181.89 613.05 1203.34 609.28 1222.50
  C 608.58 1226.08 606.78 1230.04 604.70 1233.57
  Q 597.16 1246.36 589.06 1258.80
  Q 583.78 1266.91 576.91 1270.50
  Q 576.47 1270.73 576.23 1271.15
  C 572.76 1277.15 568.66 1284.58 562.17 1287.68
  C 560.41 1288.52 558.03 1288.41 556.28 1290.53
  C 551.46 1296.33 530.52 1322.96 523.69 1322.48
  C 515.49 1321.91 520.98 1307.34 522.46 1303.57
  Q 522.68 1303.00 522.07 1303.03
  C 512.73 1303.50 516.15 1293.83 519.34 1289.33
  Q 522.06 1285.49 526.99 1281.94
  Q 527.41 1281.64 527.43 1281.12
  C 527.81 1271.77 538.59 1264.88 544.16 1259.22
  Q 544.52 1258.85 544.61 1258.33
  L 550.10 1227.05
  A 0.25 0.25 0.0 0 0 549.71 1226.81
  C 544.58 1230.58 540.16 1235.66 538.93 1242.07
  C 537.39 1250.05 527.79 1272.44 516.08 1268.59
  Q 511.85 1267.21 511.27 1261.69
  A 0.31 0.31 0.0 0 0 510.66 1261.68
  C 500.27 1339.30 484.12 1415.12 466.80 1491.41
  Q 456.82 1535.39 456.13 1580.50
  Q 455.88 1596.38 455.64 1612.26
  C 455.32 1633.06 456.54 1653.60 459.04 1674.24
  C 462.65 1703.97 465.66 1732.37 464.12 1763.54
  Q 463.66 1772.79 461.85 1783.37
  C 451.21 1845.61 438.04 1907.23 425.09 1969.02
  C 419.94 1993.54 415.87 2019.24 414.38 2042.24
  C 413.83 2050.70 418.32 2059.46 421.97 2065.99
  Q 435.90 2090.93 449.90 2115.83
  C 455.04 2124.98 465.58 2133.81 470.43 2139.82
  C 481.21 2153.22 481.02 2170.46 471.78 2184.70
  C 457.04 2207.41 428.46 2214.00 403.10 2205.95
  C 388.83 2201.41 369.26 2191.12 364.54 2175.48
  C 360.74 2162.84 362.65 2148.74 360.87 2135.66
  Q 354.75 2090.53 352.34 2061.94
  Q 351.61 2053.23 352.55 2036.33
  Q 354.06 2009.05 354.94 1981.75
  Q 355.25 1972.13 354.98 1961.76
  Q 354.19 1931.78 353.44 1901.80
  C 352.74 1874.13 349.61 1847.03 343.75 1819.98
  C 337.34 1790.44 334.98 1759.90 337.76 1729.75
  C 339.89 1706.60 343.95 1674.64 344.46 1646.69
  Q 344.57 1640.74 343.57 1634.39
  C 338.63 1603.04 332.22 1566.16 331.37 1531.25
  Q 331.09 1519.87 330.36 1511.29
  Q 327.41 1476.61 325.72 1441.85
  Q 325.70 1441.56 325.42 1441.50
  Q 325.06 1441.41 325.04 1441.75
  Q 323.18 1478.02 320.45 1510.11
  Q 319.71 1518.86 319.44 1530.06
  C 318.58 1565.20 312.68 1599.42 307.21 1634.04
  C 305.09 1647.41 306.58 1663.15 307.60 1675.93
  C 309.40 1698.56 313.31 1724.96 314.02 1749.69
  C 314.75 1775.33 311.07 1800.26 305.88 1825.28
  C 296.45 1870.73 297.42 1909.49 295.74 1960.68
  C 294.79 1989.26 296.45 2016.18 298.43 2046.06
  Q 298.93 2053.73 297.82 2067.26
  Q 294.94 2102.42 290.66 2137.43
  C 288.46 2155.47 293.36 2176.19 277.86 2189.57
  C 258.52 2206.27 231.28 2214.62 206.54 2205.64
  C 181.82 2196.68 162.73 2168.19 179.30 2142.81
  C 185.96 2132.61 196.00 2125.99 202.17 2114.99
  Q 214.71 2092.63 229.58 2063.30
  C 233.59 2055.41 234.91 2049.01 234.73 2039.65
  C 234.28 2015.86 230.39 1991.22 225.45 1967.96
  C 212.44 1906.66 199.47 1845.40 188.91 1783.61
  C 182.45 1745.84 187.76 1707.23 192.47 1667.75
  C 196.33 1635.45 195.26 1598.83 194.20 1568.81
  Q 192.83 1530.25 183.59 1489.98
  C 166.28 1414.46 149.88 1338.68 140.13 1261.73
  Q 140.09 1261.48 139.84 1261.49
  Q 139.73 1261.50 139.58 1261.54
  Q 139.54 1261.56 139.53 1261.61
  C 139.17 1267.15 134.39 1270.45 129.33 1268.63
  C 120.83 1265.57 113.95 1251.61 112.18 1243.45
  C 110.59 1236.11 107.24 1231.25 101.15 1226.93
  A 0.30 0.29 12.4 0 0 100.69 1227.22
  L 106.23 1258.52
  Q 106.31 1258.96 106.62 1259.28
  C 112.19 1264.92 122.94 1271.59 123.33 1281.10
  Q 123.35 1281.62 123.77 1281.93
  C 127.99 1285.07 138.68 1295.52 133.70 1301.49
  Q 132.04 1303.48 128.92 1302.92
  A 0.65 0.64 80.6 0 0 128.24 1303.87
  C 130.53 1307.96 133.24 1316.75 130.20 1320.91
  C 127.44 1324.69 121.95 1320.94 119.32 1318.27
  Q 105.90 1304.58 93.81 1289.68
  C 92.96 1288.63 89.29 1288.17 87.80 1287.28
  C 81.51 1283.53 77.52 1276.20 74.24 1270.63
  Q 73.99 1270.20 73.52 1270.01
  C 66.67 1267.09 62.41 1260.29 58.44 1253.81
  Q 52.75 1244.50 46.97 1235.26
  C 43.27 1229.36 41.60 1223.79 40.38 1216.28
  Q 37.29 1197.16 34.52 1178.00
  C 33.38 1170.15 29.82 1158.21 28.63 1149.84
  C 26.90 1137.74 27.14 1125.45 27.41 1113.25
  Q 28.10 1083.03 29.45 1052.82
  Q 31.55 1005.53 30.96 984.56
  C 30.21 958.42 30.06 940.69 32.99 917.00
  C 37.71 878.85 51.02 836.20 59.33 795.73
  Q 76.82 710.52 89.56 624.47
  Q 93.84 595.53 95.64 576.18
  C 97.81 552.89 99.31 529.25 104.03 506.31
  C 108.56 484.28 116.00 466.94 136.13 456.41
  C 142.50 453.08 147.96 449.93 155.66 447.83
  C 169.46 444.07 184.07 444.03 197.72 439.85
  C 207.60 436.82 217.49 431.49 226.65 426.49
  A 0.62 0.61 54.7 0 0 226.81 425.54
  C 226.01 424.65 219.41 417.05 218.75 417.26
  Q 218.23 417.43 218.54 417.88
  C 219.31 419.03 222.97 422.43 222.32 423.64
  A 0.53 0.53 0.0 0 1 221.53 423.80
  C 211.69 416.08 200.83 407.77 193.83 397.29
  C 193.66 397.03 193.48 396.88 193.17 397.01
  Q 192.88 397.13 193.03 397.41
  Q 199.03 408.81 209.81 415.94
  Q 210.75 416.57 210.21 417.37
  A 0.49 0.49 0.0 0 1 209.55 417.52
  C 194.81 408.83 187.56 394.68 182.47 378.99
  Q 182.39 378.75 182.25 378.75
  Q 182.20 378.75 182.16 378.77
  Q 182.06 378.80 182.09 378.92
  Z
  M 318.08 106.47
  A 0.18 0.17 47.6 0 1 318.43 106.49
  Q 319.20 117.15 319.97 127.76
  C 321.68 151.40 340.11 170.61 357.36 186.15
  C 376.45 203.33 396.24 218.82 413.76 238.71
  Q 414.08 239.07 414.05 239.54
  L 413.70 246.46
  Q 413.67 246.92 413.93 247.31
  C 427.90 268.50 425.19 291.13 405.25 307.26
  Q 404.82 307.61 404.71 308.15
  Q 400.03 332.74 384.55 352.33
  Q 384.23 352.74 384.20 353.27
  C 383.70 363.21 381.38 397.31 389.07 403.94
  Q 396.65 410.49 406.88 416.48
  Q 407.30 416.72 407.67 416.41
  C 408.57 415.65 412.87 411.03 413.67 412.67
  Q 413.92 413.19 413.51 413.60
  L 409.57 417.56
  Q 409.14 418.00 409.67 418.31
  L 413.79 420.67
  Q 414.24 420.93 414.61 420.55
  Q 420.46 414.52 425.87 408.08
  C 426.13 407.77 426.92 407.56 427.01 407.78
  A 1.83 0.59 65.3 0 1 427.20 409.34
  Q 424.22 413.26 421.90 417.19
  Q 421.18 418.40 422.09 417.33
  L 429.83 408.29
  Q 430.28 407.77 430.82 408.20
  C 431.93 409.10 428.70 413.31 428.04 414.19
  Q 427.75 414.59 428.14 414.88
  C 429.91 416.20 427.66 416.97 427.59 418.22
  Q 427.55 418.84 427.99 418.40
  C 435.59 410.87 442.05 401.18 448.33 392.51
  Q 448.65 392.07 448.42 391.58
  L 448.20 391.12
  Q 447.96 390.62 448.19 390.12
  C 449.25 387.87 455.14 376.24 457.73 376.81
  A 0.53 0.52 21.6 0 1 458.07 377.58
  L 452.57 386.86
  Q 452.32 387.29 452.78 387.50
  C 456.21 389.09 439.12 411.99 437.09 414.37
  Q 437.04 414.43 437.04 414.51
  L 437.04 414.89
  Q 437.04 415.03 437.14 414.94
  Q 443.98 408.74 448.99 403.25
  C 460.58 390.57 466.11 374.57 469.10 357.83
  A 0.68 0.67 89.5 0 1 469.63 357.28
  C 472.92 356.60 466.29 380.25 465.61 382.33
  Q 465.57 382.46 465.70 382.48
  C 468.14 382.91 472.70 350.32 473.04 348.01
  Q 473.21 346.82 474.21 347.04
  A 0.70 0.69 7.9 0 1 474.75 347.75
  Q 474.25 356.72 473.07 365.49
  C 472.86 367.11 471.83 369.57 472.03 371.77
  Q 472.13 372.95 472.37 371.79
  Q 481.33 328.44 467.14 286.67
  Q 466.76 285.54 467.80 285.41
  A 0.58 0.58 0.0 0 1 468.38 285.73
  C 474.68 298.38 480.15 312.09 483.14 325.87
  C 484.77 333.37 484.54 338.58 485.36 345.04
  Q 485.50 346.12 485.69 345.05
  Q 485.93 343.69 485.85 341.43
  C 485.17 322.35 479.13 304.07 471.02 286.96
  C 465.75 275.85 460.35 264.92 456.43 253.32
  A 0.57 0.57 0.0 0 1 457.14 252.59
  L 457.58 252.73
  Q 458.05 252.88 458.28 253.33
  Q 460.49 257.57 463.42 261.40
  Q 464.85 263.27 463.69 261.23
  C 457.86 250.99 453.23 243.67 451.69 236.47
  A 0.61 0.61 0.0 0 1 452.53 235.78
  C 455.62 237.10 467.11 260.27 469.19 264.50
  Q 470.25 266.66 469.50 264.37
  C 464.10 247.96 454.19 237.19 446.53 220.96
  Q 445.92 219.68 447.29 219.09
  Q 447.97 218.80 448.37 219.43
  L 452.16 225.39
  A 0.15 0.15 0.0 0 0 452.42 225.26
  C 444.92 204.60 439.11 182.82 432.63 161.47
  C 419.24 117.40 394.62 93.94 347.76 88.76
  Q 320.73 85.77 295.41 89.59
  C 264.99 94.18 242.24 108.12 228.39 136.55
  Q 221.39 150.92 218.52 160.51
  Q 210.61 186.92 202.65 213.33
  C 202.12 215.09 200.91 217.21 200.43 219.33
  Q 199.99 221.32 200.82 219.46
  L 202.00 216.84
  Q 202.27 216.24 202.90 216.46
  C 205.50 217.37 196.15 236.98 194.70 239.74
  Q 194.23 240.63 195.00 240.00
  C 196.28 238.96 196.74 236.12 198.47 235.88
  Q 199.17 235.78 199.01 236.47
  C 197.04 244.69 191.89 252.74 187.69 260.05
  Q 187.14 261.02 187.90 260.20
  Q 190.18 257.77 191.56 254.80
  Q 192.03 253.78 193.07 253.18
  Q 193.66 252.84 193.72 253.52
  Q 193.85 255.00 193.26 256.47
  Q 186.89 272.40 179.28 287.76
  C 171.88 302.70 163.99 325.49 165.12 343.29
  Q 165.19 344.37 165.41 343.31
  C 166.14 339.91 165.93 335.86 166.37 333.09
  C 169.01 316.48 174.95 301.58 181.94 286.40
  C 182.12 286.00 182.77 285.37 183.01 285.77
  A 1.94 0.52 55.8 0 1 183.53 287.26
  Q 171.03 323.92 176.63 362.38
  Q 176.73 363.03 177.12 362.50
  C 178.42 360.74 174.46 348.58 176.69 346.98
  Q 177.12 346.67 177.34 347.15
  Q 178.35 349.30 178.43 350.57
  Q 178.94 358.67 180.69 366.59
  Q 180.73 366.78 180.93 366.77
  C 182.00 366.74 179.02 358.33 180.57 357.10
  A 0.60 0.60 0.0 0 1 181.53 357.44
  Q 183.75 367.83 186.79 378.01
  Q 193.87 401.70 214.36 415.38
  Q 214.87 415.72 214.47 415.26
  Q 204.02 403.26 197.39 388.79
  Q 197.10 388.15 197.71 387.79
  L 198.09 387.57
  Q 198.59 387.27 198.26 386.78
  C 196.32 383.92 191.48 376.99 193.29 376.22
  Q 193.76 376.02 194.08 376.42
  Q 199.46 383.11 202.95 390.96
  A 0.44 0.44 0.0 0 1 202.46 391.57
  C 200.52 391.17 200.27 388.81 199.57 388.75
  Q 199.18 388.71 199.37 389.05
  C 205.00 399.00 212.42 410.36 221.60 417.37
  Q 222.01 417.69 222.31 418.11
  Q 223.32 419.54 224.59 420.71
  Q 226.69 422.64 224.91 420.42
  C 224.18 419.51 220.82 415.91 222.56 414.91
  Q 222.98 414.67 222.72 414.27
  L 219.47 409.25
  A 0.60 0.60 0.0 0 1 219.70 408.39
  Q 220.51 407.97 221.02 408.68
  Q 226.40 416.03 232.45 422.85
  Q 232.72 423.15 232.98 422.84
  C 233.69 422.00 221.74 409.06 223.70 407.69
  Q 224.11 407.39 224.45 407.77
  L 235.98 420.53
  Q 236.40 420.99 236.94 420.68
  L 240.94 418.39
  Q 241.44 418.10 241.07 417.65
  C 240.05 416.42 236.06 413.04 236.27 411.58
  Q 236.45 410.35 237.33 411.23
  L 242.69 416.54
  A 0.76 0.75 -37.3 0 0 243.61 416.66
  Q 252.15 411.57 259.97 405.45
  Q 265.11 401.43 265.79 394.51
  Q 267.95 372.33 266.37 351.57
  Q 266.33 351.04 266.02 350.62
  Q 251.76 331.01 245.14 307.67
  Q 244.99 307.13 244.57 306.75
  C 241.57 303.98 238.32 301.00 236.00 297.91
  C 223.48 281.21 225.17 261.88 233.78 243.51
  Q 234.00 243.03 233.61 241.73
  Q 233.46 241.26 233.67 240.81
  Q 243.05 220.81 259.01 205.51
  C 272.30 192.77 287.70 180.22 298.17 166.18
  C 311.69 148.03 314.90 128.40 318.08 106.47
  Z
  M 304.08 227.78
  C 292.05 222.68 259.68 212.86 249.68 223.68
  C 247.18 226.39 238.11 238.85 238.65 244.02
  C 240.82 264.88 243.35 284.98 249.50 305.13
  C 251.31 311.07 252.90 316.87 255.41 322.57
  Q 268.01 351.06 291.50 371.50
  C 300.09 378.99 312.13 386.28 323.38 386.70
  C 333.67 387.08 344.88 381.53 353.25 375.74
  C 375.74 360.18 392.35 338.29 398.99 311.54
  Q 407.39 277.68 409.47 242.76
  Q 409.58 240.77 408.31 239.44
  Q 398.53 229.28 388.04 219.72
  Q 387.66 219.38 387.16 219.33
  C 372.84 217.75 356.60 221.83 343.74 227.47
  A 1.04 1.04 0.0 0 1 342.50 225.89
  C 350.36 215.60 368.50 212.72 380.50 213.41
  Q 381.17 213.45 380.66 213.01
  C 356.65 192.15 327.63 170.95 317.22 139.45
  Q 317.02 138.86 316.83 139.45
  Q 308.60 165.27 288.61 184.12
  C 275.20 196.77 264.68 205.72 255.61 216.06
  Q 255.21 216.52 255.77 216.29
  C 269.43 210.52 286.30 213.70 298.83 220.61
  Q 303.00 222.90 304.62 227.26
  A 0.41 0.41 0.0 0 1 304.08 227.78
  Z
  M 241.47 294.59
  C 238.55 282.43 236.77 270.20 235.27 257.75
  Q 235.15 256.73 234.84 257.71
  Q 228.54 278.06 240.93 294.84
  A 0.30 0.30 0.0 0 0 241.47 294.59
  Z
  M 412.97 258.59
  Q 411.16 277.84 407.16 296.77
  A 0.20 0.20 0.0 0 0 407.50 296.94
  Q 422.61 279.80 413.47 258.51
  A 0.26 0.26 0.0 0 0 412.97 258.59
  Z
  M 270.61 399.46
  C 269.62 403.89 267.49 406.92 263.97 409.72
  C 249.43 421.28 232.26 430.52 215.64 438.77
  Q 215.15 439.02 215.64 439.27
  C 283.52 474.22 367.30 473.95 435.22 439.29
  A 0.26 0.26 0.0 0 0 435.22 438.83
  Q 417.35 430.05 400.50 419.49
  Q 390.72 413.36 385.32 408.44
  C 380.13 403.71 379.20 397.36 378.63 390.74
  Q 377.36 375.89 378.09 360.92
  A 0.29 0.29 0.0 0 0 377.58 360.72
  C 366.08 373.75 347.31 388.49 329.67 391.20
  C 308.64 394.42 285.61 375.30 273.11 359.53
  A 0.25 0.25 0.0 0 0 272.67 359.69
  C 272.91 372.83 273.51 386.53 270.61 399.46
  Z
  M 205.04 847.75
  Q 203.54 850.45 204.59 853.57
  Q 198.98 889.12 185.55 927.82
  C 174.51 959.63 162.48 990.90 153.75 1023.96
  C 147.60 1023.21 145.14 1030.56 151.25 1033.04
  Q 145.40 1057.13 142.42 1082.43
  Q 142.32 1083.28 143.16 1083.45
  C 181.55 1091.04 220.92 1094.26 260.00 1095.22
  C 342.63 1097.27 425.55 1092.40 507.25 1079.67
  Q 507.82 1079.59 507.78 1079.02
  Q 507.69 1077.59 507.35 1075.18
  Q 504.18 1053.11 500.00 1035.95
  C 491.42 1000.80 478.83 967.01 466.84 932.93
  C 457.14 905.37 449.19 877.95 445.77 849.20
  C 444.08 834.96 444.65 820.92 446.57 807.06
  Q 455.33 743.65 474.26 682.28
  A 0.25 0.25 0.0 0 0 473.85 682.02
  C 428.68 726.88 354.34 694.81 353.93 631.95
  Q 353.93 631.73 354.03 631.46
  Q 354.23 630.96 354.24 631.50
  C 354.69 656.17 370.83 678.52 392.76 688.56
  C 429.24 705.27 472.08 685.88 483.71 647.58
  C 494.15 613.21 475.35 576.12 440.87 565.19
  A 0.22 0.22 0.0 0 1 440.99 564.76
  Q 461.69 570.21 476.04 585.99
  Q 476.53 586.52 476.58 585.80
  C 478.17 563.68 479.60 539.09 471.39 518.02
  Q 470.83 516.60 471.54 517.95
  Q 476.34 527.15 478.64 538.08
  Q 484.66 566.62 483.22 594.91
  Q 483.20 595.41 483.46 595.84
  Q 489.60 605.66 492.23 617.00
  Q 485.82 619.79 489.93 625.10
  Q 490.25 625.51 490.76 625.63
  L 493.75 626.29
  Q 495.54 649.33 483.94 669.01
  Q 483.69 669.44 483.72 669.93
  Q 483.77 670.74 483.98 671.50
  Q 502.41 738.93 518.31 806.99
  C 522.08 823.13 525.43 840.82 526.44 855.31
  C 528.34 882.32 529.36 909.31 534.31 936.38
  Q 534.39 936.86 534.87 936.91
  C 560.87 939.98 590.44 935.92 611.83 919.81
  Q 612.24 919.50 612.16 919.00
  Q 606.88 885.22 598.82 851.98
  C 594.17 832.77 589.14 813.58 585.18 794.23
  Q 568.86 714.53 556.52 634.13
  C 551.53 601.61 548.20 568.59 545.31 535.83
  Q 543.22 512.13 535.89 489.60
  C 530.43 472.82 520.76 465.92 505.53 458.30
  C 486.02 448.55 463.35 450.61 442.76 442.43
  Q 442.29 442.24 441.84 442.48
  C 368.99 481.55 281.53 480.35 208.64 442.50
  Q 208.19 442.27 207.72 442.46
  C 195.50 447.46 184.30 448.88 169.93 450.88
  C 157.31 452.64 148.44 456.61 137.01 462.51
  C 125.69 468.35 118.97 478.18 114.82 489.82
  C 108.81 506.67 106.26 525.42 104.66 543.32
  C 102.32 569.41 99.92 595.75 96.08 621.66
  Q 83.52 706.30 66.48 790.15
  Q 64.59 799.42 62.16 809.66
  C 53.59 845.82 44.53 881.54 38.67 918.39
  A 1.88 1.88 0.0 0 0 39.41 920.20
  C 60.92 935.92 89.49 939.95 116.04 936.89
  Q 116.50 936.84 116.58 936.38
  C 120.58 913.10 121.98 889.57 123.62 866.04
  C 125.93 833.04 132.48 805.04 140.88 771.21
  Q 153.48 720.45 167.17 669.91
  Q 167.30 669.42 167.05 668.98
  C 153.76 646.26 153.54 618.37 167.54 595.91
  Q 167.81 595.48 167.78 594.98
  Q 166.49 568.14 171.64 541.77
  C 173.50 532.24 175.77 524.99 179.56 517.98
  Q 179.91 517.34 179.65 518.01
  Q 173.74 533.20 173.51 549.51
  Q 173.26 567.85 174.39 586.12
  A 0.19 0.19 0.0 0 0 174.72 586.24
  Q 189.22 570.22 210.21 564.75
  A 0.18 0.18 0.0 0 1 210.31 565.10
  Q 190.01 571.69 177.41 588.64
  C 162.02 609.36 160.31 636.60 172.13 659.18
  C 190.31 693.92 234.78 705.21 267.36 683.46
  Q 293.85 665.78 296.93 632.56
  A 0.25 0.24 -41.2 0 1 297.42 632.59
  Q 295.68 666.17 272.21 686.21
  C 244.20 710.12 202.48 707.86 176.88 681.65
  A 0.27 0.26 -76.2 0 0 176.44 681.92
  Q 193.27 737.09 202.22 793.75
  C 205.02 811.45 207.37 829.87 205.04 847.75
  Z
  M 137.77 1252.81
  C 137.98 1253.44 138.26 1255.19 138.58 1255.57
  A 0.42 0.42 0.0 0 0 139.32 1255.24
  C 134.33 1217.42 130.81 1178.40 132.06 1140.83
  C 133.60 1094.36 138.89 1050.52 151.84 1008.57
  C 167.43 958.07 191.06 906.27 198.77 852.00
  C 201.69 831.41 199.49 812.76 196.02 791.50
  Q 186.97 736.03 170.47 682.48
  A 0.32 0.32 0.0 0 0 169.86 682.49
  Q 153.27 744.13 138.53 806.15
  Q 131.09 837.45 129.58 863.31
  C 127.65 896.11 125.83 929.22 116.76 960.75
  Q 112.11 976.91 104.50 1001.25
  Q 96.22 1027.77 89.80 1063.97
  C 86.68 1081.54 84.53 1095.71 83.34 1112.75
  Q 82.06 1131.17 92.19 1144.78
  C 100.10 1155.42 111.89 1164.72 117.10 1176.67
  C 121.92 1187.73 123.45 1202.48 125.98 1215.01
  C 127.41 1222.09 131.71 1229.52 133.43 1237.22
  Q 135.19 1245.13 137.77 1252.81
  Z
  M 515.14 1090.76
  Q 517.47 1115.43 518.18 1127.31
  C 520.67 1169.38 516.79 1214.41 511.10 1257.53
  A 0.30 0.30 0.0 0 0 511.68 1257.65
  Q 514.79 1247.58 517.56 1236.48
  Q 518.53 1232.60 520.58 1227.74
  C 525.90 1215.09 527.26 1201.18 530.14 1187.83
  C 533.75 1171.12 545.17 1160.04 556.12 1147.87
  C 568.30 1134.35 568.75 1118.26 566.68 1101.06
  Q 561.43 1057.62 549.89 1014.14
  C 544.60 994.23 537.70 974.79 532.46 954.86
  C 523.96 922.54 523.40 889.81 520.58 856.76
  C 519.21 840.68 516.49 824.53 513.01 809.75
  Q 497.95 745.78 480.89 682.25
  A 0.27 0.27 0.0 0 0 480.38 682.24
  Q 461.94 741.72 453.00 803.25
  C 450.81 818.34 449.61 833.35 451.57 848.69
  Q 455.76 881.50 465.76 911.25
  Q 479.82 953.06 489.30 979.44
  C 502.30 1015.60 511.57 1052.98 515.14 1090.76
  Z
  M 115.99 1292.30
  L 128.19 1297.03
  A 0.49 0.48 86.3 0 0 128.79 1296.34
  Q 124.99 1289.37 118.20 1285.14
  Q 117.75 1284.85 117.69 1284.32
  C 117.42 1281.57 117.70 1277.82 115.49 1275.76
  C 111.90 1272.42 101.18 1263.93 100.39 1259.45
  Q 96.42 1236.84 92.45 1213.93
  Q 92.26 1212.89 93.13 1213.50
  C 100.44 1218.71 109.66 1224.98 114.56 1232.84
  C 117.52 1237.58 117.87 1244.11 119.77 1248.48
  C 121.71 1252.96 127.45 1262.76 132.69 1263.27
  Q 133.35 1263.33 133.47 1262.67
  Q 133.94 1260.13 132.79 1256.43
  C 131.22 1251.39 129.70 1247.05 128.52 1241.42
  C 127.16 1234.90 124.03 1228.46 122.30 1223.31
  C 118.26 1211.29 117.40 1197.08 114.25 1186.21
  C 109.88 1171.17 97.84 1160.64 88.11 1148.90
  C 72.57 1130.15 77.39 1103.23 80.82 1081.42
  C 85.37 1052.52 91.62 1023.66 100.16 995.67
  C 106.01 976.49 111.67 960.08 114.94 943.64
  Q 115.06 943.05 114.46 943.11
  C 88.22 945.68 60.48 941.60 38.31 926.77
  Q 37.90 926.49 37.85 926.98
  Q 35.93 946.13 36.20 954.75
  C 37.38 993.58 36.41 1026.65 34.72 1067.19
  Q 32.97 1109.15 32.99 1121.75
  Q 33.01 1139.91 33.97 1146.76
  C 35.51 1157.72 39.73 1173.36 41.77 1186.89
  Q 44.20 1202.95 46.96 1218.96
  Q 48.05 1225.28 50.86 1230.16
  Q 54.42 1236.34 65.80 1254.45
  C 69.16 1259.80 72.54 1263.62 77.39 1265.07
  Q 77.85 1265.21 78.10 1265.63
  C 81.75 1271.87 86.48 1282.53 95.86 1283.63
  Q 96.38 1283.69 96.71 1284.09
  Q 110.08 1300.41 124.77 1315.53
  A 0.51 0.51 0.0 0 0 125.64 1315.11
  C 124.68 1307.06 119.39 1299.69 115.65 1292.69
  Q 115.29 1292.03 115.99 1292.30
  Z
  M 558.23 1213.07
  A 0.17 0.17 0.0 0 1 558.49 1213.24
  L 550.05 1261.08
  Q 549.96 1261.62 549.57 1262.03
  Q 544.03 1267.76 538.10 1273.13
  C 534.40 1276.47 532.71 1278.93 533.34 1283.79
  Q 533.41 1284.31 532.98 1284.63
  C 528.69 1287.84 524.17 1291.33 522.18 1296.51
  Q 521.89 1297.25 522.64 1296.97
  L 535.13 1292.17
  A 0.22 0.22 0.0 0 1 535.40 1292.48
  C 531.57 1299.17 527.22 1305.73 525.31 1313.39
  Q 524.36 1317.20 527.10 1314.38
  Q 541.22 1299.82 554.04 1284.08
  Q 554.38 1283.67 554.90 1283.61
  C 564.10 1282.43 568.63 1272.82 572.47 1265.88
  Q 572.71 1265.44 573.19 1265.28
  Q 578.71 1263.43 582.03 1258.54
  Q 591.38 1244.78 599.73 1230.39
  C 601.84 1226.75 603.37 1222.79 604.03 1219.00
  Q 606.09 1207.24 609.24 1185.39
  C 611.51 1169.66 616.32 1154.37 617.33 1138.76
  C 618.42 1121.98 617.64 1104.62 616.94 1087.81
  Q 615.65 1056.82 614.61 1025.81
  Q 613.40 989.51 614.00 978.49
  Q 615.41 952.84 613.10 927.15
  Q 613.04 926.47 612.46 926.84
  C 589.51 941.29 563.53 945.76 536.68 943.14
  Q 535.44 943.02 535.76 944.23
  Q 541.82 967.16 548.74 989.46
  C 557.68 1018.23 564.57 1047.73 569.46 1077.47
  Q 572.21 1094.14 573.20 1111.00
  C 573.78 1120.79 572.89 1131.02 568.54 1139.73
  C 564.02 1148.77 557.61 1154.89 549.78 1163.97
  C 541.31 1173.79 537.02 1181.00 535.03 1193.01
  C 532.95 1205.50 530.36 1218.64 525.48 1231.22
  C 522.18 1239.70 520.66 1249.00 517.57 1257.78
  C 517.11 1259.10 517.25 1260.66 517.25 1262.05
  Q 517.25 1262.57 517.70 1262.84
  C 521.67 1265.15 529.30 1252.35 530.61 1249.41
  Q 531.37 1247.70 532.75 1241.86
  C 536.10 1227.65 548.23 1220.25 558.23 1213.07
  Z
  M 188.70 1140.00
  Q 188.82 1139.94 189.00 1140.00
  C 218.97 1150.00 246.83 1164.89 273.06 1181.95
  Q 294.96 1196.19 306.38 1203.07
  Q 314.68 1208.06 319.07 1209.43
  C 327.85 1212.17 335.96 1208.95 344.20 1204.96
  C 384.93 1185.22 422.65 1158.81 465.47 1143.68
  Q 466.20 1143.43 467.19 1143.42
  Q 467.86 1143.41 467.23 1143.64
  C 423.59 1159.60 384.39 1191.71 341.45 1213.67
  Q 341.01 1213.89 340.95 1214.38
  C 327.64 1313.73 327.44 1410.91 336.19 1510.54
  Q 336.97 1519.42 337.21 1530.50
  C 337.96 1566.03 343.01 1593.43 349.53 1634.72
  Q 350.47 1640.69 350.34 1646.46
  C 349.71 1675.13 346.05 1704.38 343.85 1727.57
  Q 339.73 1771.03 347.76 1810.01
  C 354.56 1843.01 358.73 1870.94 359.43 1903.94
  Q 360.07 1934.25 360.75 1964.57
  C 361.38 1992.44 359.03 2020.65 357.72 2048.50
  Q 357.62 2050.61 358.12 2054.48
  Q 358.19 2055.01 358.59 2054.66
  C 373.06 2042.04 389.04 2036.56 407.70 2043.55
  A 0.75 0.75 0.0 0 0 408.71 2042.88
  C 410.06 2015.71 414.94 1988.23 420.69 1961.59
  C 433.41 1902.68 445.65 1843.52 455.80 1784.10
  C 462.50 1744.87 456.77 1706.73 452.59 1668.94
  C 448.90 1635.54 449.53 1608.73 450.66 1572.31
  C 451.59 1542.25 455.83 1513.32 462.57 1484.08
  C 484.92 1387.07 504.31 1293.12 511.44 1196.19
  Q 515.45 1141.59 508.57 1086.04
  Q 508.50 1085.46 507.92 1085.55
  Q 484.09 1089.49 459.75 1092.24
  Q 369.95 1102.42 279.56 1101.57
  C 234.30 1101.14 187.13 1097.97 142.32 1089.44
  Q 141.86 1089.35 141.81 1089.81
  C 134.06 1152.63 138.91 1213.49 148.04 1276.50
  C 158.35 1347.62 172.95 1417.42 188.98 1487.44
  C 194.99 1513.70 198.81 1540.32 199.90 1567.24
  Q 201.55 1608.11 200.95 1628.19
  C 200.16 1655.26 197.68 1674.08 193.85 1708.07
  C 191.17 1731.88 190.66 1759.59 194.96 1784.35
  Q 205.48 1845.01 218.23 1905.25
  C 229.58 1958.87 239.05 1996.26 240.85 2043.53
  Q 240.87 2044.13 241.44 2043.92
  C 261.01 2036.52 276.96 2041.74 291.88 2054.94
  Q 292.30 2055.30 292.38 2054.76
  Q 292.79 2052.09 292.75 2051.25
  C 290.80 2015.78 288.78 1982.20 290.20 1944.93
  Q 290.62 1933.80 291.50 1900.25
  C 292.23 1872.38 295.74 1846.60 301.16 1819.78
  C 307.32 1789.25 309.97 1759.25 306.89 1728.06
  C 304.21 1700.92 301.05 1675.57 300.38 1646.61
  Q 300.24 1640.86 301.17 1634.96
  C 307.59 1593.96 312.76 1565.26 313.59 1529.25
  Q 313.84 1518.23 314.64 1509.30
  Q 320.98 1438.54 320.78 1367.51
  C 320.75 1353.18 320.06 1337.51 319.74 1322.50
  Q 319.73 1322.15 319.21 1321.54
  Q 318.90 1321.16 318.93 1320.67
  C 319.60 1309.77 318.31 1300.17 317.37 1287.18
  Q 314.93 1253.46 309.77 1213.48
  Q 309.71 1212.98 309.27 1212.73
  Q 297.18 1205.85 289.82 1200.44
  C 259.40 1178.09 226.13 1154.10 188.71 1140.13
  Q 188.55 1140.07 188.70 1140.00
  Z
  M 334.09 1216.22
  C 328.19 1218.21 322.85 1218.15 316.97 1216.20
  A 0.67 0.67 0.0 0 0 316.10 1216.92
  Q 322.55 1267.04 325.14 1317.50
  Q 325.26 1319.81 325.59 1317.52
  C 326.17 1313.60 326.03 1308.55 326.21 1305.61
  Q 328.97 1260.95 334.64 1216.67
  A 0.42 0.42 0.0 0 0 334.09 1216.22
  Z
  M 284.67 2122.87
  C 286.75 2101.83 289.10 2082.69 290.96 2062.54
  Q 291.01 2062.04 290.63 2061.70
  C 275.31 2047.76 261.50 2042.26 240.95 2050.27
  Q 240.49 2050.44 240.37 2050.92
  Q 238.39 2058.81 235.74 2064.22
  Q 225.99 2084.15 209.93 2113.69
  Q 202.96 2126.51 190.52 2138.27
  Q 183.77 2144.65 180.11 2154.93
  Q 179.94 2155.40 180.09 2155.87
  C 188.03 2181.60 216.90 2191.71 240.94 2186.42
  Q 258.83 2182.47 273.53 2169.98
  C 287.09 2158.46 283.11 2138.70 284.67 2122.87
  Z
  M 471.64 2155.11
  C 467.04 2140.18 451.69 2131.46 445.50 2120.23
  Q 434.59 2100.45 423.44 2080.81
  C 417.83 2070.94 411.66 2060.88 408.93 2050.63
  Q 408.80 2050.16 408.34 2049.98
  C 388.97 2042.59 374.64 2047.57 360.07 2061.32
  Q 359.70 2061.66 359.75 2062.17
  Q 362.95 2090.43 366.59 2118.64
  Q 367.49 2125.60 367.76 2132.91
  C 368.25 2146.75 366.94 2161.67 379.32 2171.17
  C 393.64 2182.16 410.11 2188.77 428.29 2187.56
  C 447.32 2186.28 465.79 2175.02 471.64 2156.04
  Q 471.79 2155.57 471.64 2155.11
  Z
  M 472.09 2169.15
  C 446.15 2204.96 397.86 2198.30 369.66 2170.11
  Q 369.33 2169.78 369.40 2170.24
  Q 370.80 2178.88 376.10 2183.89
  C 391.74 2198.67 417.13 2207.21 438.44 2201.67
  C 454.53 2197.48 467.93 2185.65 472.30 2169.25
  A 0.12 0.12 0.0 0 0 472.09 2169.15
  Z
  M 282.19 2170.01
  C 254.79 2197.84 205.21 2205.29 179.89 2169.27
  A 0.21 0.21 0.0 0 0 179.51 2169.45
  Q 182.67 2181.22 191.47 2189.54
  C 213.97 2210.82 248.68 2205.42 271.40 2187.49
  C 277.67 2182.54 281.17 2177.77 282.50 2170.17
  Q 282.60 2169.60 282.19 2170.01
  Z"
/>
<path fill="#ffffff" d="
  M 318.08 106.47
  C 314.90 128.40 311.69 148.03 298.17 166.18
  C 287.70 180.22 272.30 192.77 259.01 205.51
  Q 243.05 220.81 233.67 240.81
  Q 233.46 241.26 233.61 241.73
  Q 234.00 243.03 233.78 243.51
  C 225.17 261.88 223.48 281.21 236.00 297.91
  C 238.32 301.00 241.57 303.98 244.57 306.75
  Q 244.99 307.13 245.14 307.67
  Q 251.76 331.01 266.02 350.62
  Q 266.33 351.04 266.37 351.57
  Q 267.95 372.33 265.79 394.51
  Q 265.11 401.43 259.97 405.45
  Q 252.15 411.57 243.61 416.66
  A 0.76 0.75 -37.3 0 1 242.69 416.54
  L 237.33 411.23
  Q 236.45 410.35 236.27 411.58
  C 236.06 413.04 240.05 416.42 241.07 417.65
  Q 241.44 418.10 240.94 418.39
  L 236.94 420.68
  Q 236.40 420.99 235.98 420.53
  L 224.45 407.77
  Q 224.11 407.39 223.70 407.69
  C 221.74 409.06 233.69 422.00 232.98 422.84
  Q 232.72 423.15 232.45 422.85
  Q 226.40 416.03 221.02 408.68
  Q 220.51 407.97 219.70 408.39
  A 0.60 0.60 0.0 0 0 219.47 409.25
  L 222.72 414.27
  Q 222.98 414.67 222.56 414.91
  C 220.82 415.91 224.18 419.51 224.91 420.42
  Q 226.69 422.64 224.59 420.71
  Q 223.32 419.54 222.31 418.11
  Q 222.01 417.69 221.60 417.37
  C 212.42 410.36 205.00 399.00 199.37 389.05
  Q 199.18 388.71 199.57 388.75
  C 200.27 388.81 200.52 391.17 202.46 391.57
  A 0.44 0.44 0.0 0 0 202.95 390.96
  Q 199.46 383.11 194.08 376.42
  Q 193.76 376.02 193.29 376.22
  C 191.48 376.99 196.32 383.92 198.26 386.78
  Q 198.59 387.27 198.09 387.57
  L 197.71 387.79
  Q 197.10 388.15 197.39 388.79
  Q 204.02 403.26 214.47 415.26
  Q 214.87 415.72 214.36 415.38
  Q 193.87 401.70 186.79 378.01
  Q 183.75 367.83 181.53 357.44
  A 0.60 0.60 0.0 0 0 180.57 357.10
  C 179.02 358.33 182.00 366.74 180.93 366.77
  Q 180.73 366.78 180.69 366.59
  Q 178.94 358.67 178.43 350.57
  Q 178.35 349.30 177.34 347.15
  Q 177.12 346.67 176.69 346.98
  C 174.46 348.58 178.42 360.74 177.12 362.50
  Q 176.73 363.03 176.63 362.38
  Q 171.03 323.92 183.53 287.26
  A 1.94 0.52 55.8 0 0 183.01 285.77
  C 182.77 285.37 182.12 286.00 181.94 286.40
  C 174.95 301.58 169.01 316.48 166.37 333.09
  C 165.93 335.86 166.14 339.91 165.41 343.31
  Q 165.19 344.37 165.12 343.29
  C 163.99 325.49 171.88 302.70 179.28 287.76
  Q 186.89 272.40 193.26 256.47
  Q 193.85 255.00 193.72 253.52
  Q 193.66 252.84 193.07 253.18
  Q 192.03 253.78 191.56 254.80
  Q 190.18 257.77 187.90 260.20
  Q 187.14 261.02 187.69 260.05
  C 191.89 252.74 197.04 244.69 199.01 236.47
  Q 199.17 235.78 198.47 235.88
  C 196.74 236.12 196.28 238.96 195.00 240.00
  Q 194.23 240.63 194.70 239.74
  C 196.15 236.98 205.50 217.37 202.90 216.46
  Q 202.27 216.24 202.00 216.84
  L 200.82 219.46
  Q 199.99 221.32 200.43 219.33
  C 200.91 217.21 202.12 215.09 202.65 213.33
  Q 210.61 186.92 218.52 160.51
  Q 221.39 150.92 228.39 136.55
  C 242.24 108.12 264.99 94.18 295.41 89.59
  Q 320.73 85.77 347.76 88.76
  C 394.62 93.94 419.24 117.40 432.63 161.47
  C 439.11 182.82 444.92 204.60 452.42 225.26
  A 0.15 0.15 0.0 0 1 452.16 225.39
  L 448.37 219.43
  Q 447.97 218.80 447.29 219.09
  Q 445.92 219.68 446.53 220.96
  C 454.19 237.19 464.10 247.96 469.50 264.37
  Q 470.25 266.66 469.19 264.50
  C 467.11 260.27 455.62 237.10 452.53 235.78
  A 0.61 0.61 0.0 0 0 451.69 236.47
  C 453.23 243.67 457.86 250.99 463.69 261.23
  Q 464.85 263.27 463.42 261.40
  Q 460.49 257.57 458.28 253.33
  Q 458.05 252.88 457.58 252.73
  L 457.14 252.59
  A 0.57 0.57 0.0 0 0 456.43 253.32
  C 460.35 264.92 465.75 275.85 471.02 286.96
  C 479.13 304.07 485.17 322.35 485.85 341.43
  Q 485.93 343.69 485.69 345.05
  Q 485.50 346.12 485.36 345.04
  C 484.54 338.58 484.77 333.37 483.14 325.87
  C 480.15 312.09 474.68 298.38 468.38 285.73
  A 0.58 0.58 0.0 0 0 467.80 285.41
  Q 466.76 285.54 467.14 286.67
  Q 481.33 328.44 472.37 371.79
  Q 472.13 372.95 472.03 371.77
  C 471.83 369.57 472.86 367.11 473.07 365.49
  Q 474.25 356.72 474.75 347.75
  A 0.70 0.69 7.9 0 0 474.21 347.04
  Q 473.21 346.82 473.04 348.01
  C 472.70 350.32 468.14 382.91 465.70 382.48
  Q 465.57 382.46 465.61 382.33
  C 466.29 380.25 472.92 356.60 469.63 357.28
  A 0.68 0.67 89.5 0 0 469.10 357.83
  C 466.11 374.57 460.58 390.57 448.99 403.25
  Q 443.98 408.74 437.14 414.94
  Q 437.04 415.03 437.04 414.89
  L 437.04 414.51
  Q 437.04 414.43 437.09 414.37
  C 439.12 411.99 456.21 389.09 452.78 387.50
  Q 452.32 387.29 452.57 386.86
  L 458.07 377.58
  A 0.53 0.52 21.6 0 0 457.73 376.81
  C 455.14 376.24 449.25 387.87 448.19 390.12
  Q 447.96 390.62 448.20 391.12
  L 448.42 391.58
  Q 448.65 392.07 448.33 392.51
  C 442.05 401.18 435.59 410.87 427.99 418.40
  Q 427.55 418.84 427.59 418.22
  C 427.66 416.97 429.91 416.20 428.14 414.88
  Q 427.75 414.59 428.04 414.19
  C 428.70 413.31 431.93 409.10 430.82 408.20
  Q 430.28 407.77 429.83 408.29
  L 422.09 417.33
  Q 421.18 418.40 421.90 417.19
  Q 424.22 413.26 427.20 409.34
  A 1.83 0.59 65.3 0 0 427.01 407.78
  C 426.92 407.56 426.13 407.77 425.87 408.08
  Q 420.46 414.52 414.61 420.55
  Q 414.24 420.93 413.79 420.67
  L 409.67 418.31
  Q 409.14 418.00 409.57 417.56
  L 413.51 413.60
  Q 413.92 413.19 413.67 412.67
  C 412.87 411.03 408.57 415.65 407.67 416.41
  Q 407.30 416.72 406.88 416.48
  Q 396.65 410.49 389.07 403.94
  C 381.38 397.31 383.70 363.21 384.20 353.27
  Q 384.23 352.74 384.55 352.33
  Q 400.03 332.74 404.71 308.15
  Q 404.82 307.61 405.25 307.26
  C 425.19 291.13 427.90 268.50 413.93 247.31
  Q 413.67 246.92 413.70 246.46
  L 414.05 239.54
  Q 414.08 239.07 413.76 238.71
  C 396.24 218.82 376.45 203.33 357.36 186.15
  C 340.11 170.61 321.68 151.40 319.97 127.76
  Q 319.20 117.15 318.43 106.49
  A 0.18 0.17 47.6 0 0 318.08 106.47
  Z"
/>
<path fill="#ffffff" d="
  M 304.08 227.78
  A 0.41 0.41 0.0 0 0 304.62 227.26
  Q 303.00 222.90 298.83 220.61
  C 286.30 213.70 269.43 210.52 255.77 216.29
  Q 255.21 216.52 255.61 216.06
  C 264.68 205.72 275.20 196.77 288.61 184.12
  Q 308.60 165.27 316.83 139.45
  Q 317.02 138.86 317.22 139.45
  C 327.63 170.95 356.65 192.15 380.66 213.01
  Q 381.17 213.45 380.50 213.41
  C 368.50 212.72 350.36 215.60 342.50 225.89
  A 1.04 1.04 0.0 0 0 343.74 227.47
  C 356.60 221.83 372.84 217.75 387.16 219.33
  Q 387.66 219.38 388.04 219.72
  Q 398.53 229.28 408.31 239.44
  Q 409.58 240.77 409.47 242.76
  Q 407.39 277.68 398.99 311.54
  C 392.35 338.29 375.74 360.18 353.25 375.74
  C 344.88 381.53 333.67 387.08 323.38 386.70
  C 312.13 386.28 300.09 378.99 291.50 371.50
  Q 268.01 351.06 255.41 322.57
  C 252.90 316.87 251.31 311.07 249.50 305.13
  C 243.35 284.98 240.82 264.88 238.65 244.02
  C 238.11 238.85 247.18 226.39 249.68 223.68
  C 259.68 212.86 292.05 222.68 304.08 227.78
  Z
  M 303.50 236.79
  C 310.43 245.18 310.81 256.11 310.05 266.21
  Q 309.96 267.43 310.29 266.25
  C 311.29 262.61 314.83 249.39 312.71 246.55
  Q 309.42 242.14 303.59 236.72
  Q 302.93 236.11 303.50 236.79
  Z
  M 262.19 244.80
  L 264.91 251.91
  Q 265.13 252.50 265.76 252.50
  L 281.62 252.50
  Q 282.22 252.50 282.41 251.93
  L 285.03 244.02
  Q 285.23 243.42 285.85 243.57
  L 301.78 247.33
  Q 302.16 247.42 301.83 247.21
  C 287.84 238.22 254.73 226.53 250.47 253.67
  Q 250.35 254.39 250.69 253.75
  Q 254.26 246.91 261.66 244.54
  Q 262.04 244.42 262.19 244.80
  Z
  M 385.24 244.72
  Q 392.31 247.49 396.09 254.03
  Q 396.52 254.77 396.35 253.93
  C 391.06 227.43 360.79 236.92 345.45 247.06
  Q 345.32 247.14 345.47 247.10
  L 360.91 243.21
  A 0.83 0.83 0.0 0 1 361.93 243.89
  Q 362.60 248.17 364.62 251.99
  Q 364.89 252.50 365.47 252.50
  L 380.92 252.50
  Q 381.54 252.50 381.78 251.92
  L 384.59 245.00
  Q 384.78 244.54 385.24 244.72
  Z
  M 321.00 305.00
  Q 315.16 304.55 308.82 302.40
  Q 308.40 302.26 308.73 302.55
  Q 314.27 307.37 319.25 309.50
  C 327.44 313.00 336.10 307.82 342.85 302.06
  Q 343.23 301.74 342.76 301.91
  Q 332.03 305.85 321.00 305.00
  Z
  M 281.34 324.13
  L 283.83 321.10
  Q 284.30 320.53 283.68 320.11
  L 282.77 319.50
  Q 282.29 319.18 281.93 319.63
  L 275.64 327.49
  Q 275.26 327.98 275.76 328.34
  L 276.80 329.09
  Q 277.27 329.42 277.61 328.96
  L 279.48 326.42
  A 1.42 1.41 -53.9 0 1 281.44 326.11
  C 284.01 327.97 286.88 329.26 289.11 331.44
  C 304.81 346.77 322.03 366.90 344.33 345.33
  Q 350.87 339.01 359.15 329.15
  Q 360.74 327.26 365.52 325.09
  Q 365.95 324.89 366.24 325.27
  L 369.08 328.92
  Q 369.49 329.44 369.99 329.02
  L 370.89 328.28
  Q 371.36 327.88 370.98 327.40
  L 364.73 319.60
  Q 364.33 319.10 363.83 319.50
  L 362.87 320.27
  Q 362.38 320.66 362.80 321.12
  L 364.35 322.82
  Q 364.97 323.50 364.06 323.67
  Q 358.16 324.76 355.25 324.69
  C 347.52 324.50 336.74 321.71 327.48 323.91
  C 321.42 325.34 317.61 322.68 311.99 323.03
  C 301.70 323.65 292.63 325.92 281.53 324.58
  Q 281.02 324.52 281.34 324.13
  Z"
/>
<path fill="#000000" d="
  M 310.05 266.21
  C 310.81 256.11 310.43 245.18 303.50 236.79
  Q 302.93 236.11 303.59 236.72
  Q 309.42 242.14 312.71 246.55
  C 314.83 249.39 311.29 262.61 310.29 266.25
  Q 309.96 267.43 310.05 266.21
  Z"
/>
<path fill="#000000" d="
  M 261.66 244.54
  Q 254.26 246.91 250.69 253.75
  Q 250.35 254.39 250.47 253.67
  C 254.73 226.53 287.84 238.22 301.83 247.21
  Q 302.16 247.42 301.78 247.33
  L 285.85 243.57
  Q 285.23 243.42 285.03 244.02
  L 282.41 251.93
  Q 282.22 252.50 281.62 252.50
  L 265.76 252.50
  Q 265.13 252.50 264.91 251.91
  L 262.19 244.80
  Q 262.04 244.42 261.66 244.54
  Z"
/>
<path fill="#000000" d="
  M 384.59 245.00
  L 381.78 251.92
  Q 381.54 252.50 380.92 252.50
  L 365.47 252.50
  Q 364.89 252.50 364.62 251.99
  Q 362.60 248.17 361.93 243.89
  A 0.83 0.83 0.0 0 0 360.91 243.21
  L 345.47 247.10
  Q 345.32 247.14 345.45 247.06
  C 360.79 236.92 391.06 227.43 396.35 253.93
  Q 396.52 254.77 396.09 254.03
  Q 392.31 247.49 385.24 244.72
  Q 384.78 244.54 384.59 245.00
  Z"
/>
<path fill="#ffffff" d="
  M 235.27 257.75
  C 236.77 270.20 238.55 282.43 241.47 294.59
  A 0.30 0.30 0.0 0 1 240.93 294.84
  Q 228.54 278.06 234.84 257.71
  Q 235.15 256.73 235.27 257.75
  Z"
/>
<path fill="#ffffff" d="
  M 412.97 258.59
  A 0.26 0.26 0.0 0 1 413.47 258.51
  Q 422.61 279.80 407.50 296.94
  A 0.20 0.20 0.0 0 1 407.16 296.77
  Q 411.16 277.84 412.97 258.59
  Z"
/>
<path fill="#000000" d="
  M 321.00 305.00
  Q 332.03 305.85 342.76 301.91
  Q 343.23 301.74 342.85 302.06
  C 336.10 307.82 327.44 313.00 319.25 309.50
  Q 314.27 307.37 308.73 302.55
  Q 308.40 302.26 308.82 302.40
  Q 315.16 304.55 321.00 305.00
  Z"
/>
<path fill="#000000" d="
  M 281.53 324.58
  C 292.63 325.92 301.70 323.65 311.99 323.03
  C 317.61 322.68 321.42 325.34 327.48 323.91
  C 336.74 321.71 347.52 324.50 355.25 324.69
  Q 358.16 324.76 364.06 323.67
  Q 364.97 323.50 364.35 322.82
  L 362.80 321.12
  Q 362.38 320.66 362.87 320.27
  L 363.83 319.50
  Q 364.33 319.10 364.73 319.60
  L 370.98 327.40
  Q 371.36 327.88 370.89 328.28
  L 369.99 329.02
  Q 369.49 329.44 369.08 328.92
  L 366.24 325.27
  Q 365.95 324.89 365.52 325.09
  Q 360.74 327.26 359.15 329.15
  Q 350.87 339.01 344.33 345.33
  C 322.03 366.90 304.81 346.77 289.11 331.44
  C 286.88 329.26 284.01 327.97 281.44 326.11
  A 1.42 1.41 -53.9 0 0 279.48 326.42
  L 277.61 328.96
  Q 277.27 329.42 276.80 329.09
  L 275.76 328.34
  Q 275.26 327.98 275.64 327.49
  L 281.93 319.63
  Q 282.29 319.18 282.77 319.50
  L 283.68 320.11
  Q 284.30 320.53 283.83 321.10
  L 281.34 324.13
  Q 281.02 324.52 281.53 324.58
  Z
  M 325.76 325.53
  C 319.14 326.14 313.65 323.49 306.60 324.73
  Q 296.28 326.55 285.80 326.54
  Q 285.51 326.54 285.80 326.59
  Q 309.55 331.09 333.69 329.84
  Q 343.63 329.33 355.99 326.96
  Q 358.06 326.56 359.34 326.01
  Q 360.36 325.57 359.26 325.73
  C 352.34 326.69 344.10 325.06 337.09 324.37
  C 333.12 323.97 329.70 325.17 325.76 325.53
  Z
  M 353.72 329.13
  C 332.68 332.28 314.02 331.82 292.54 329.48
  Q 291.78 329.40 292.44 329.77
  Q 299.77 333.93 308.68 337.11
  C 324.52 342.76 338.73 337.51 353.78 329.30
  Q 354.23 329.05 353.72 329.13
  Z
  M 353.73 332.18
  C 333.46 342.82 315.58 344.92 294.74 333.72
  A 0.23 0.23 0.0 0 0 294.46 334.07
  C 300.66 341.23 311.69 351.23 321.27 352.81
  C 333.97 354.91 346.53 341.99 354.00 332.50
  Q 354.62 331.71 353.73 332.18
  Z"
/>
<path fill="#ffffff" d="
  M 325.76 325.53
  C 329.70 325.17 333.12 323.97 337.09 324.37
  C 344.10 325.06 352.34 326.69 359.26 325.73
  Q 360.36 325.57 359.34 326.01
  Q 358.06 326.56 355.99 326.96
  Q 343.63 329.33 333.69 329.84
  Q 309.55 331.09 285.80 326.59
  Q 285.51 326.54 285.80 326.54
  Q 296.28 326.55 306.60 324.73
  C 313.65 323.49 319.14 326.14 325.76 325.53
  Z"
/>
<path fill="#ffffff" d="
  M 292.54 329.48
  C 314.02 331.82 332.68 332.28 353.72 329.13
  Q 354.23 329.05 353.78 329.30
  C 338.73 337.51 324.52 342.76 308.68 337.11
  Q 299.77 333.93 292.44 329.77
  Q 291.78 329.40 292.54 329.48
  Z"
/>
<path fill="#ffffff" d="
  M 294.74 333.72
  C 315.58 344.92 333.46 342.82 353.73 332.18
  Q 354.62 331.71 354.00 332.50
  C 346.53 341.99 333.97 354.91 321.27 352.81
  C 311.69 351.23 300.66 341.23 294.46 334.07
  A 0.23 0.23 0.0 0 1 294.74 333.72
  Z"
/>
<path fill="#ffffff" d="
  M 263.97 409.72
  C 267.49 406.92 269.62 403.89 270.61 399.46
  C 273.51 386.53 272.91 372.83 272.67 359.69
  A 0.25 0.25 0.0 0 1 273.11 359.53
  C 285.61 375.30 308.64 394.42 329.67 391.20
  C 347.31 388.49 366.08 373.75 377.58 360.72
  A 0.29 0.29 0.0 0 1 378.09 360.92
  Q 377.36 375.89 378.63 390.74
  C 379.20 397.36 380.13 403.71 385.32 408.44
  Q 390.72 413.36 400.50 419.49
  Q 417.35 430.05 435.22 438.83
  A 0.26 0.26 0.0 0 1 435.22 439.29
  C 367.30 473.95 283.52 474.22 215.64 439.27
  Q 215.15 439.02 215.64 438.77
  C 232.26 430.52 249.43 421.28 263.97 409.72
  Z"
/>
<path fill="#ffffff" d="
  M 493.75 626.29
  C 499.70 624.37 498.77 617.21 492.23 617.00
  Q 489.60 605.66 483.46 595.84
  Q 483.20 595.41 483.22 594.91
  Q 484.66 566.62 478.64 538.08
  Q 476.34 527.15 471.54 517.95
  Q 470.83 516.60 471.39 518.02
  C 479.60 539.09 478.17 563.68 476.58 585.80
  Q 476.53 586.52 476.04 585.99
  Q 461.69 570.21 440.99 564.76
  A 0.22 0.22 0.0 0 0 440.87 565.19
  C 475.35 576.12 494.15 613.21 483.71 647.58
  C 472.08 685.88 429.24 705.27 392.76 688.56
  C 370.83 678.52 354.69 656.17 354.24 631.50
  Q 354.23 630.96 354.03 631.46
  Q 353.93 631.73 353.93 631.95
  C 354.34 694.81 428.68 726.88 473.85 682.02
  A 0.25 0.25 0.0 0 1 474.26 682.28
  Q 455.33 743.65 446.57 807.06
  C 444.65 820.92 444.08 834.96 445.77 849.20
  C 449.19 877.95 457.14 905.37 466.84 932.93
  C 478.83 967.01 491.42 1000.80 500.00 1035.95
  Q 504.18 1053.11 507.35 1075.18
  Q 507.69 1077.59 507.78 1079.02
  Q 507.82 1079.59 507.25 1079.67
  C 425.55 1092.40 342.63 1097.27 260.00 1095.22
  C 220.92 1094.26 181.55 1091.04 143.16 1083.45
  Q 142.32 1083.28 142.42 1082.43
  Q 145.40 1057.13 151.25 1033.04
  C 154.36 1032.99 160.38 1033.63 163.02 1032.45
  C 165.68 1031.26 166.18 1027.92 164.56 1025.64
  C 162.86 1023.25 156.44 1023.98 153.75 1023.96
  C 162.48 990.90 174.51 959.63 185.55 927.82
  Q 198.98 889.12 204.59 853.57
  Q 210.45 856.06 216.98 855.39
  C 218.78 855.21 221.52 854.00 221.78 852.26
  C 222.88 844.83 214.68 846.19 210.24 846.27
  Q 207.00 846.32 205.04 847.75
  C 207.37 829.87 205.02 811.45 202.22 793.75
  Q 193.27 737.09 176.44 681.92
  A 0.27 0.26 -76.2 0 1 176.88 681.65
  C 202.48 707.86 244.20 710.12 272.21 686.21
  Q 295.68 666.17 297.42 632.59
  A 0.25 0.24 -41.2 0 0 296.93 632.56
  Q 293.85 665.78 267.36 683.46
  C 234.78 705.21 190.31 693.92 172.13 659.18
  C 160.31 636.60 162.02 609.36 177.41 588.64
  Q 190.01 571.69 210.31 565.10
  A 0.18 0.18 0.0 0 0 210.21 564.75
  Q 189.22 570.22 174.72 586.24
  A 0.19 0.19 0.0 0 1 174.39 586.12
  Q 173.26 567.85 173.51 549.51
  Q 173.74 533.20 179.65 518.01
  Q 179.91 517.34 179.56 517.98
  C 175.77 524.99 173.50 532.24 171.64 541.77
  Q 166.49 568.14 167.78 594.98
  Q 167.81 595.48 167.54 595.91
  C 153.54 618.37 153.76 646.26 167.05 668.98
  Q 167.30 669.42 167.17 669.91
  Q 153.48 720.45 140.88 771.21
  C 132.48 805.04 125.93 833.04 123.62 866.04
  C 121.98 889.57 120.58 913.10 116.58 936.38
  Q 116.50 936.84 116.04 936.89
  C 89.49 939.95 60.92 935.92 39.41 920.20
  A 1.88 1.88 0.0 0 1 38.67 918.39
  C 44.53 881.54 53.59 845.82 62.16 809.66
  Q 64.59 799.42 66.48 790.15
  Q 83.52 706.30 96.08 621.66
  C 99.92 595.75 102.32 569.41 104.66 543.32
  C 106.26 525.42 108.81 506.67 114.82 489.82
  C 118.97 478.18 125.69 468.35 137.01 462.51
  C 148.44 456.61 157.31 452.64 169.93 450.88
  C 184.30 448.88 195.50 447.46 207.72 442.46
  Q 208.19 442.27 208.64 442.50
  C 281.53 480.35 368.99 481.55 441.84 442.48
  Q 442.29 442.24 442.76 442.43
  C 463.35 450.61 486.02 448.55 505.53 458.30
  C 520.76 465.92 530.43 472.82 535.89 489.60
  Q 543.22 512.13 545.31 535.83
  C 548.20 568.59 551.53 601.61 556.52 634.13
  Q 568.86 714.53 585.18 794.23
  C 589.14 813.58 594.17 832.77 598.82 851.98
  Q 606.88 885.22 612.16 919.00
  Q 612.24 919.50 611.83 919.81
  C 590.44 935.92 560.87 939.98 534.87 936.91
  Q 534.39 936.86 534.31 936.38
  C 529.36 909.31 528.34 882.32 526.44 855.31
  C 525.43 840.82 522.08 823.13 518.31 806.99
  Q 502.41 738.93 483.98 671.50
  Q 483.77 670.74 483.72 669.93
  Q 483.69 669.44 483.94 669.01
  Q 495.54 649.33 493.75 626.29
  Z
  M 219.89 621.35
  A 4.16 4.16 0.0 0 0 215.73 617.19
  L 206.43 617.19
  A 4.16 4.16 0.0 0 0 202.27 621.35
  L 202.27 621.83
  A 4.16 4.16 0.0 0 0 206.43 625.99
  L 215.73 625.99
  A 4.16 4.16 0.0 0 0 219.89 621.83
  L 219.89 621.35
  Z
  M 255.6496 621.3046
  A 4.19 4.19 0.0 0 0 251.4523 617.1220
  L 242.2323 617.1381
  A 4.19 4.19 0.0 0 0 238.0496 621.3354
  L 238.0504 621.8154
  A 4.19 4.19 0.0 0 0 242.2477 625.9980
  L 251.4677 625.9819
  A 4.19 4.19 0.0 0 0 255.6504 621.7846
  L 255.6496 621.3046
  Z
  M 184.15 621.39
  A 4.13 4.13 0.0 0 0 180.02 617.26
  L 170.60 617.26
  A 4.13 4.13 0.0 0 0 166.47 621.39
  L 166.47 621.85
  A 4.13 4.13 0.0 0 0 170.60 625.98
  L 180.02 625.98
  A 4.13 4.13 0.0 0 0 184.15 621.85
  L 184.15 621.39
  Z
  M 291.4614 621.4517
  A 4.14 4.14 0.0 0 0 287.3504 617.2829
  L 277.9506 617.2173
  A 4.14 4.14 0.0 0 0 273.7818 621.3283
  L 273.7786 621.7883
  A 4.14 4.14 0.0 0 0 277.8896 625.9571
  L 287.2894 626.0227
  A 4.14 4.14 0.0 0 0 291.4582 621.9117
  L 291.4614 621.4517
  Z
  M 327.2113 621.4616
  A 4.14 4.14 0.0 0 0 323.1003 617.2928
  L 313.7206 617.2274
  A 4.14 4.14 0.0 0 0 309.5518 621.3384
  L 309.5487 621.7784
  A 4.14 4.14 0.0 0 0 313.6597 625.9472
  L 323.0394 626.0126
  A 4.14 4.14 0.0 0 0 327.2082 621.9016
  L 327.2113 621.4616
  Z
  M 362.9813 621.4616
  A 4.14 4.14 0.0 0 0 358.8703 617.2928
  L 349.4906 617.2274
  A 4.14 4.14 0.0 0 0 345.3218 621.3384
  L 345.3187 621.7784
  A 4.14 4.14 0.0 0 0 349.4297 625.9472
  L 358.8094 626.0126
  A 4.14 4.14 0.0 0 0 362.9782 621.9016
  L 362.9813 621.4616
  Z
  M 398.75 621.39
  A 4.14 4.14 0.0 0 0 394.61 617.25
  L 385.21 617.25
  A 4.14 4.14 0.0 0 0 381.07 621.39
  L 381.07 621.83
  A 4.14 4.14 0.0 0 0 385.21 625.97
  L 394.61 625.97
  A 4.14 4.14 0.0 0 0 398.75 621.83
  L 398.75 621.39
  Z
  M 434.52 621.40
  A 4.14 4.14 0.0 0 0 430.38 617.26
  L 420.98 617.26
  A 4.14 4.14 0.0 0 0 416.84 621.40
  L 416.84 621.84
  A 4.14 4.14 0.0 0 0 420.98 625.98
  L 430.38 625.98
  A 4.14 4.14 0.0 0 0 434.52 621.84
  L 434.52 621.40
  Z
  M 470.40 621.41
  A 4.15 4.15 0.0 0 0 466.25 617.26
  L 456.89 617.26
  A 4.15 4.15 0.0 0 0 452.74 621.41
  L 452.74 621.83
  A 4.15 4.15 0.0 0 0 456.89 625.98
  L 466.25 625.98
  A 4.15 4.15 0.0 0 0 470.40 621.83
  L 470.40 621.41
  Z
  M 257.6507 850.5607
  A 4.22 4.22 0.0 0 0 253.4455 846.3260
  L 244.2856 846.2940
  A 4.22 4.22 0.0 0 0 240.0509 850.4993
  L 240.0493 850.9593
  A 4.22 4.22 0.0 0 0 244.2545 855.1940
  L 253.4144 855.2260
  A 4.22 4.22 0.0 0 0 257.6491 851.0207
  L 257.6507 850.5607
  Z
  M 293.43 850.53
  A 4.22 4.22 0.0 0 0 289.21 846.31
  L 280.03 846.31
  A 4.22 4.22 0.0 0 0 275.81 850.53
  L 275.81 850.99
  A 4.22 4.22 0.0 0 0 280.03 855.21
  L 289.21 855.21
  A 4.22 4.22 0.0 0 0 293.43 850.99
  L 293.43 850.53
  Z
  M 329.1891 850.4992
  A 4.22 4.22 0.0 0 0 324.9544 846.2940
  L 315.7745 846.3260
  A 4.22 4.22 0.0 0 0 311.5693 850.5608
  L 311.5709 851.0208
  A 4.22 4.22 0.0 0 0 315.8056 855.2260
  L 324.9855 855.1940
  A 4.22 4.22 0.0 0 0 329.1907 850.9592
  L 329.1891 850.4992
  Z
  M 364.9491 850.4892
  A 4.22 4.22 0.0 0 0 360.7144 846.2840
  L 351.5345 846.3160
  A 4.22 4.22 0.0 0 0 347.3292 850.5508
  L 347.3309 851.0308
  A 4.22 4.22 0.0 0 0 351.5656 855.2360
  L 360.7455 855.2040
  A 4.22 4.22 0.0 0 0 364.9508 850.9692
  L 364.9491 850.4892
  Z
  M 400.7191 850.4892
  A 4.21 4.21 0.0 0 0 396.4944 846.2940
  L 387.2945 846.3261
  A 4.21 4.21 0.0 0 0 383.0992 850.5508
  L 383.1009 851.0308
  A 4.21 4.21 0.0 0 0 387.3256 855.2260
  L 396.5255 855.1939
  A 4.21 4.21 0.0 0 0 400.7208 850.9692
  L 400.7191 850.4892
  Z
  M 436.4804 850.5352
  A 4.23 4.23 0.0 0 0 432.2578 846.2979
  L 423.2578 846.2822
  A 4.23 4.23 0.0 0 0 419.0204 850.5048
  L 419.0196 850.9848
  A 4.23 4.23 0.0 0 0 423.2422 855.2221
  L 432.2422 855.2378
  A 4.23 4.23 0.0 0 0 436.4796 851.0152
  L 436.4804 850.5352
  Z
  M 201.1915 1028.3215
  A 4.22 4.22 0.0 0 0 197.0010 1024.0722
  L 187.8212 1024.0081
  A 4.22 4.22 0.0 0 0 183.5719 1028.1985
  L 183.5685 1028.6785
  A 4.22 4.22 0.0 0 0 187.7590 1032.9278
  L 196.9388 1032.9919
  A 4.22 4.22 0.0 0 0 201.1881 1028.8015
  L 201.1915 1028.3215
  Z
  M 236.9711 1028.2961
  A 4.21 4.21 0.0 0 0 232.7832 1024.0641
  L 223.5834 1024.0160
  A 4.21 4.21 0.0 0 0 219.3514 1028.2039
  L 219.3489 1028.6839
  A 4.21 4.21 0.0 0 0 223.5368 1032.9159
  L 232.7366 1032.9640
  A 4.21 4.21 0.0 0 0 236.9686 1028.7761
  L 236.9711 1028.2961
  Z
  M 272.7304 1028.2854
  A 4.21 4.21 0.0 0 0 268.5277 1024.0680
  L 259.3478 1024.0520
  A 4.21 4.21 0.0 0 0 255.1304 1028.2546
  L 255.1296 1028.7146
  A 4.21 4.21 0.0 0 0 259.3323 1032.9320
  L 268.5122 1032.9480
  A 4.21 4.21 0.0 0 0 272.7296 1028.7454
  L 272.7304 1028.2854
  Z
  M 308.49 1028.26
  A 4.23 4.23 0.0 0 0 304.26 1024.03
  L 295.26 1024.03
  A 4.23 4.23 0.0 0 0 291.03 1028.26
  L 291.03 1028.74
  A 4.23 4.23 0.0 0 0 295.26 1032.97
  L 304.26 1032.97
  A 4.23 4.23 0.0 0 0 308.49 1028.74
  L 308.49 1028.26
  Z
  M 344.41 1028.26
  A 4.22 4.22 0.0 0 0 340.19 1024.04
  L 330.99 1024.04
  A 4.22 4.22 0.0 0 0 326.77 1028.26
  L 326.77 1028.72
  A 4.22 4.22 0.0 0 0 330.99 1032.94
  L 340.19 1032.94
  A 4.22 4.22 0.0 0 0 344.41 1028.72
  L 344.41 1028.26
  Z
  M 380.1791 1028.2292
  A 4.22 4.22 0.0 0 0 375.9444 1024.0240
  L 366.7445 1024.0561
  A 4.22 4.22 0.0 0 0 362.5393 1028.2908
  L 362.5409 1028.7508
  A 4.22 4.22 0.0 0 0 366.7756 1032.9560
  L 375.9755 1032.9239
  A 4.22 4.22 0.0 0 0 380.1807 1028.6892
  L 380.1791 1028.2292
  Z
  M 415.9381 1028.1984
  A 4.23 4.23 0.0 0 0 411.6787 1023.9981
  L 402.4989 1024.0622
  A 4.23 4.23 0.0 0 0 398.2985 1028.3216
  L 398.3019 1028.8016
  A 4.23 4.23 0.0 0 0 402.5613 1033.0019
  L 411.7411 1032.9378
  A 4.23 4.23 0.0 0 0 415.9415 1028.6784
  L 415.9381 1028.1984
  Z
  M 451.7207 1028.3008
  A 4.23 4.23 0.0 0 0 447.5055 1024.0561
  L 438.3056 1024.0240
  A 4.23 4.23 0.0 0 0 434.0609 1028.2392
  L 434.0593 1028.6992
  A 4.23 4.23 0.0 0 0 438.2745 1032.9439
  L 447.4744 1032.9760
  A 4.23 4.23 0.0 0 0 451.7191 1028.7608
  L 451.7207 1028.3008
  Z
  M 487.4711 1028.3061
  A 4.22 4.22 0.0 0 0 483.2732 1024.0641
  L 474.0934 1024.0160
  A 4.22 4.22 0.0 0 0 469.8513 1028.2139
  L 469.8489 1028.6739
  A 4.22 4.22 0.0 0 0 474.0468 1032.9159
  L 483.2266 1032.9640
  A 4.22 4.22 0.0 0 0 487.4687 1028.7661
  L 487.4711 1028.3061
  Z"
/>
<path fill="#ff0000" d="
  M 800.79 622.60
  L 800.46 622.79
  Q 800.10 623.00 799.69 623.00
  L 626.72 623.00
  A 1.18 1.17 78.0 0 1 625.65 622.30
  C 625.08 620.99 625.69 620.27 627.04 620.27
  Q 714.01 620.18 800.98 620.29
  Q 801.46 620.29 801.49 619.80
  C 802.53 599.91 812.29 582.61 829.11 572.16
  C 876.72 542.57 934.40 591.00 914.02 642.78
  C 900.27 677.74 856.95 691.40 826.06 669.19
  Q 803.20 652.77 801.50 622.98
  Q 801.45 622.20 800.79 622.60
  Z
  M 909.17 621.60
  A 49.34 49.34 0.0 0 0 859.83 572.26
  A 49.34 49.34 0.0 0 0 810.49 621.60
  A 49.34 49.34 0.0 0 0 859.83 670.94
  A 49.34 49.34 0.0 0 0 909.17 621.60
  Z"
/>
<path fill="#000000" d="
  M 857.69 605.47
  Q 851.61 610.35 844.44 613.44
  Q 843.81 613.71 843.80 613.03
  L 843.64 607.34
  Q 843.63 606.82 844.07 606.55
  C 850.88 602.36 856.21 599.13 860.72 592.22
  Q 861.03 591.75 861.59 591.75
  L 865.00 591.75
  Q 865.50 591.75 865.50 592.25
  L 865.50 651.00
  Q 865.50 651.50 865.00 651.50
  L 859.00 651.50
  Q 858.25 651.50 858.25 650.75
  L 858.25 605.74
  A 0.35 0.34 70.7 0 0 857.69 605.47
  Z"
/>
<rect fill="#ff0000" x="202.27" y="617.19" width="17.62" height="8.80" rx="4.16"/>
<rect fill="#ff0000" x="-8.80" y="-4.43" transform="translate(246.85,621.56) rotate(-0.1)" width="17.60" height="8.86" rx="4.19"/>
<path fill="#ff0000" d="
  M 492.23 617.00
  C 498.77 617.21 499.70 624.37 493.75 626.29
  L 490.76 625.63
  Q 490.25 625.51 489.93 625.10
  Q 485.82 619.79 492.23 617.00
  Z"
/>
<rect fill="#ff0000" x="166.47" y="617.26" width="17.68" height="8.72" rx="4.13"/>
<rect fill="#ff0000" x="-8.84" y="-4.37" transform="translate(282.62,621.62) rotate(0.4)" width="17.68" height="8.74" rx="4.14"/>
<rect fill="#ff0000" x="-8.83" y="-4.36" transform="translate(318.38,621.62) rotate(0.4)" width="17.66" height="8.72" rx="4.14"/>
<rect fill="#ff0000" x="-8.83" y="-4.36" transform="translate(354.15,621.62) rotate(0.4)" width="17.66" height="8.72" rx="4.14"/>
<rect fill="#ff0000" x="381.07" y="617.25" width="17.68" height="8.72" rx="4.14"/>
<rect fill="#ff0000" x="416.84" y="617.26" width="17.68" height="8.72" rx="4.14"/>
<rect fill="#ff0000" x="452.74" y="617.26" width="17.66" height="8.72" rx="4.15"/>
<path fill="#ff0000" d="
  M 801.55 849.94
  C 802.61 810.72 841.16 782.11 879.09 795.73
  C 921.27 810.89 931.57 864.95 898.36 894.38
  C 874.56 915.47 837.80 913.46 816.95 890.29
  Q 802.62 874.37 801.43 852.06
  A 0.49 0.49 0.0 0 0 800.72 851.65
  L 799.81 852.10
  Q 799.50 852.25 799.15 852.25
  L 650.43 852.25
  A 0.83 0.83 0.0 0 1 649.60 851.46
  L 649.54 850.20
  Q 649.51 849.48 650.24 849.48
  L 800.10 849.51
  Q 800.63 849.51 801.01 849.88
  L 801.21 850.08
  Q 801.54 850.41 801.55 849.94
  Z
  M 909.19 850.77
  A 49.35 49.35 0.0 0 0 859.84 801.42
  A 49.35 49.35 0.0 0 0 810.49 850.77
  A 49.35 49.35 0.0 0 0 859.84 900.12
  A 49.35 49.35 0.0 0 0 909.19 850.77
  Z"
/>
<path fill="#000000" d="
  M 851.05 873.75
  L 878.88 873.75
  Q 879.50 873.75 879.50 874.38
  L 879.50 880.00
  Q 879.50 880.75 878.75 880.75
  L 840.95 880.75
  Q 840.28 880.75 840.26 880.08
  C 839.78 862.98 870.02 854.56 871.82 838.40
  C 873.46 823.70 848.93 822.59 849.27 838.28
  Q 849.28 838.84 848.72 838.79
  L 842.25 838.19
  Q 841.72 838.14 841.76 837.61
  C 842.82 824.00 854.01 819.14 866.04 821.54
  C 880.96 824.53 883.24 841.04 873.75 851.03
  Q 865.48 859.73 854.25 868.75
  Q 853.20 869.59 850.73 873.14
  Q 850.30 873.75 851.05 873.75
  Z"
/>
<path fill="#ff0000" d="
  M 204.59 853.57
  Q 203.54 850.45 205.04 847.75
  Q 207.00 846.32 210.24 846.27
  C 214.68 846.19 222.88 844.83 221.78 852.26
  C 221.52 854.00 218.78 855.21 216.98 855.39
  Q 210.45 856.06 204.59 853.57
  Z"
/>
<rect fill="#ff0000" x="-8.80" y="-4.45" transform="translate(248.85,850.76) rotate(0.2)" width="17.60" height="8.90" rx="4.22"/>
<rect fill="#ff0000" x="275.81" y="846.31" width="17.62" height="8.90" rx="4.22"/>
<rect fill="#ff0000" x="-8.81" y="-4.45" transform="translate(320.38,850.76) rotate(-0.2)" width="17.62" height="8.90" rx="4.22"/>
<rect fill="#ff0000" x="-8.81" y="-4.46" transform="translate(356.14,850.76) rotate(-0.2)" width="17.62" height="8.92" rx="4.22"/>
<rect fill="#ff0000" x="-8.81" y="-4.45" transform="translate(391.91,850.76) rotate(-0.2)" width="17.62" height="8.90" rx="4.21"/>
<rect fill="#ff0000" x="-8.73" y="-4.47" transform="translate(427.75,850.76) rotate(0.1)" width="17.46" height="8.94" rx="4.23"/>
<path fill="#ffffff" d="
  M 115.65 1292.69
  C 119.39 1299.69 124.68 1307.06 125.64 1315.11
  A 0.51 0.51 0.0 0 1 124.77 1315.53
  Q 110.08 1300.41 96.71 1284.09
  Q 96.38 1283.69 95.86 1283.63
  C 86.48 1282.53 81.75 1271.87 78.10 1265.63
  Q 77.85 1265.21 77.39 1265.07
  C 72.54 1263.62 69.16 1259.80 65.80 1254.45
  Q 54.42 1236.34 50.86 1230.16
  Q 48.05 1225.28 46.96 1218.96
  Q 44.20 1202.95 41.77 1186.89
  C 39.73 1173.36 35.51 1157.72 33.97 1146.76
  Q 33.01 1139.91 32.99 1121.75
  Q 32.97 1109.15 34.72 1067.19
  C 36.41 1026.65 37.38 993.58 36.20 954.75
  Q 35.93 946.13 37.85 926.98
  Q 37.90 926.49 38.31 926.77
  C 60.48 941.60 88.22 945.68 114.46 943.11
  Q 115.06 943.05 114.94 943.64
  C 111.67 960.08 106.01 976.49 100.16 995.67
  C 91.62 1023.66 85.37 1052.52 80.82 1081.42
  C 77.39 1103.23 72.57 1130.15 88.11 1148.90
  C 97.84 1160.64 109.88 1171.17 114.25 1186.21
  C 117.40 1197.08 118.26 1211.29 122.30 1223.31
  C 124.03 1228.46 127.16 1234.90 128.52 1241.42
  C 129.70 1247.05 131.22 1251.39 132.79 1256.43
  Q 133.94 1260.13 133.47 1262.67
  Q 133.35 1263.33 132.69 1263.27
  C 127.45 1262.76 121.71 1252.96 119.77 1248.48
  C 117.87 1244.11 117.52 1237.58 114.56 1232.84
  C 109.66 1224.98 100.44 1218.71 93.13 1213.50
  Q 92.26 1212.89 92.45 1213.93
  Q 96.42 1236.84 100.39 1259.45
  C 101.18 1263.93 111.90 1272.42 115.49 1275.76
  C 117.70 1277.82 117.42 1281.57 117.69 1284.32
  Q 117.75 1284.85 118.20 1285.14
  Q 124.99 1289.37 128.79 1296.34
  A 0.49 0.48 86.3 0 1 128.19 1297.03
  L 115.99 1292.30
  Q 115.29 1292.03 115.65 1292.69
  Z"
/>
<path fill="#ffffff" d="
  M 558.23 1213.07
  C 548.23 1220.25 536.10 1227.65 532.75 1241.86
  Q 531.37 1247.70 530.61 1249.41
  C 529.30 1252.35 521.67 1265.15 517.70 1262.84
  Q 517.25 1262.57 517.25 1262.05
  C 517.25 1260.66 517.11 1259.10 517.57 1257.78
  C 520.66 1249.00 522.18 1239.70 525.48 1231.22
  C 530.36 1218.64 532.95 1205.50 535.03 1193.01
  C 537.02 1181.00 541.31 1173.79 549.78 1163.97
  C 557.61 1154.89 564.02 1148.77 568.54 1139.73
  C 572.89 1131.02 573.78 1120.79 573.20 1111.00
  Q 572.21 1094.14 569.46 1077.47
  C 564.57 1047.73 557.68 1018.23 548.74 989.46
  Q 541.82 967.16 535.76 944.23
  Q 535.44 943.02 536.68 943.14
  C 563.53 945.76 589.51 941.29 612.46 926.84
  Q 613.04 926.47 613.10 927.15
  Q 615.41 952.84 614.00 978.49
  Q 613.40 989.51 614.61 1025.81
  Q 615.65 1056.82 616.94 1087.81
  C 617.64 1104.62 618.42 1121.98 617.33 1138.76
  C 616.32 1154.37 611.51 1169.66 609.24 1185.39
  Q 606.09 1207.24 604.03 1219.00
  C 603.37 1222.79 601.84 1226.75 599.73 1230.39
  Q 591.38 1244.78 582.03 1258.54
  Q 578.71 1263.43 573.19 1265.28
  Q 572.71 1265.44 572.47 1265.88
  C 568.63 1272.82 564.10 1282.43 554.90 1283.61
  Q 554.38 1283.67 554.04 1284.08
  Q 541.22 1299.82 527.10 1314.38
  Q 524.36 1317.20 525.31 1313.39
  C 527.22 1305.73 531.57 1299.17 535.40 1292.48
  A 0.22 0.22 0.0 0 0 535.13 1292.17
  L 522.64 1296.97
  Q 521.89 1297.25 522.18 1296.51
  C 524.17 1291.33 528.69 1287.84 532.98 1284.63
  Q 533.41 1284.31 533.34 1283.79
  C 532.71 1278.93 534.40 1276.47 538.10 1273.13
  Q 544.03 1267.76 549.57 1262.03
  Q 549.96 1261.62 550.05 1261.08
  L 558.49 1213.24
  A 0.17 0.17 0.0 0 0 558.23 1213.07
  Z"
/>
<path fill="#ff0000" d="
  M 801.06 1029.33
  L 800.67 1029.56
  Q 800.35 1029.75 799.99 1029.75
  Q 719.85 1029.75 639.72 1029.75
  C 638.97 1029.75 638.61 1029.39 638.26 1028.80
  Q 637.17 1026.99 639.29 1026.99
  L 799.75 1027.10
  Q 800.23 1027.10 800.57 1027.44
  L 800.80 1027.68
  Q 801.53 1028.41 801.56 1027.37
  C 802.62 992.69 832.27 966.55 866.98 970.68
  C 903.07 974.97 927.09 1012.17 915.14 1047.02
  C 901.31 1087.34 850.63 1100.21 819.59 1070.58
  Q 802.71 1054.46 801.47 1029.56
  Q 801.44 1029.10 801.06 1029.33
  Z
  M 909.18 1028.49
  A 49.34 49.34 0.0 0 0 859.84 979.15
  A 49.34 49.34 0.0 0 0 810.50 1028.49
  A 49.34 49.34 0.0 0 0 859.84 1077.83
  A 49.34 49.34 0.0 0 0 909.18 1028.49
  Z"
/>
<path fill="#000000" d="
  M 869.23 1025.72
  C 889.04 1033.40 877.64 1060.70 857.86 1058.89
  C 848.41 1058.03 841.68 1052.19 840.38 1042.59
  Q 840.32 1042.11 840.80 1042.04
  L 846.98 1041.21
  Q 847.54 1041.14 847.70 1041.68
  C 848.39 1044.04 849.15 1046.61 850.57 1048.50
  C 855.55 1055.13 866.33 1053.77 870.04 1046.56
  C 875.56 1035.85 866.47 1026.43 855.42 1029.52
  A 0.48 0.48 0.0 0 1 854.82 1028.99
  L 855.53 1023.76
  Q 855.60 1023.30 856.05 1023.29
  C 862.23 1023.16 868.77 1020.84 868.90 1013.53
  C 868.98 1008.87 866.13 1005.30 861.45 1004.46
  Q 851.86 1002.73 848.32 1013.87
  Q 848.01 1014.83 847.02 1014.64
  L 841.71 1013.64
  Q 841.25 1013.55 841.33 1013.08
  C 844.97 992.12 876.58 993.99 876.35 1013.73
  Q 876.27 1020.87 869.18 1025.13
  Q 868.60 1025.47 869.23 1025.72
  Z"
/>
<path fill="#ff0000" d="
  M 153.75 1023.96
  C 156.44 1023.98 162.86 1023.25 164.56 1025.64
  C 166.18 1027.92 165.68 1031.26 163.02 1032.45
  C 160.38 1033.63 154.36 1032.99 151.25 1033.04
  C 145.14 1030.56 147.60 1023.21 153.75 1023.96
  Z"
/>
<rect fill="#ff0000" x="-8.81" y="-4.46" transform="translate(192.38,1028.50) rotate(0.4)" width="17.62" height="8.92" rx="4.22"/>
<rect fill="#ff0000" x="-8.81" y="-4.45" transform="translate(228.16,1028.49) rotate(0.3)" width="17.62" height="8.90" rx="4.21"/>
<rect fill="#ff0000" x="-8.80" y="-4.44" transform="translate(263.93,1028.50) rotate(0.1)" width="17.60" height="8.88" rx="4.21"/>
<rect fill="#ff0000" x="291.03" y="1024.03" width="17.46" height="8.94" rx="4.23"/>
<rect fill="#ff0000" x="326.77" y="1024.04" width="17.64" height="8.90" rx="4.22"/>
<rect fill="#ff0000" x="-8.82" y="-4.45" transform="translate(371.36,1028.49) rotate(-0.2)" width="17.64" height="8.90" rx="4.22"/>
<rect fill="#ff0000" x="-8.82" y="-4.47" transform="translate(407.12,1028.50) rotate(-0.4)" width="17.64" height="8.94" rx="4.23"/>
<rect fill="#ff0000" x="-8.83" y="-4.46" transform="translate(442.89,1028.50) rotate(0.2)" width="17.66" height="8.92" rx="4.23"/>
<rect fill="#ff0000" x="-8.81" y="-4.45" transform="translate(478.66,1028.49) rotate(0.3)" width="17.62" height="8.90" rx="4.22"/>
<path fill="#ffffff" d="
  M 188.71 1140.13
  C 226.13 1154.10 259.40 1178.09 289.82 1200.44
  Q 297.18 1205.85 309.27 1212.73
  Q 309.71 1212.98 309.77 1213.48
  Q 314.93 1253.46 317.37 1287.18
  C 318.31 1300.17 319.60 1309.77 318.93 1320.67
  Q 318.90 1321.16 319.21 1321.54
  Q 319.73 1322.15 319.74 1322.50
  C 320.06 1337.51 320.75 1353.18 320.78 1367.51
  Q 320.98 1438.54 314.64 1509.30
  Q 313.84 1518.23 313.59 1529.25
  C 312.76 1565.26 307.59 1593.96 301.17 1634.96
  Q 300.24 1640.86 300.38 1646.61
  C 301.05 1675.57 304.21 1700.92 306.89 1728.06
  C 309.97 1759.25 307.32 1789.25 301.16 1819.78
  C 295.74 1846.60 292.23 1872.38 291.50 1900.25
  Q 290.62 1933.80 290.20 1944.93
  C 288.78 1982.20 290.80 2015.78 292.75 2051.25
  Q 292.79 2052.09 292.38 2054.76
  Q 292.30 2055.30 291.88 2054.94
  C 276.96 2041.74 261.01 2036.52 241.44 2043.92
  Q 240.87 2044.13 240.85 2043.53
  C 239.05 1996.26 229.58 1958.87 218.23 1905.25
  Q 205.48 1845.01 194.96 1784.35
  C 190.66 1759.59 191.17 1731.88 193.85 1708.07
  C 197.68 1674.08 200.16 1655.26 200.95 1628.19
  Q 201.55 1608.11 199.90 1567.24
  C 198.81 1540.32 194.99 1513.70 188.98 1487.44
  C 172.95 1417.42 158.35 1347.62 148.04 1276.50
  C 138.91 1213.49 134.06 1152.63 141.81 1089.81
  Q 141.86 1089.35 142.32 1089.44
  C 187.13 1097.97 234.30 1101.14 279.56 1101.57
  Q 369.95 1102.42 459.75 1092.24
  Q 484.09 1089.49 507.92 1085.55
  Q 508.50 1085.46 508.57 1086.04
  Q 515.45 1141.59 511.44 1196.19
  C 504.31 1293.12 484.92 1387.07 462.57 1484.08
  C 455.83 1513.32 451.59 1542.25 450.66 1572.31
  C 449.53 1608.73 448.90 1635.54 452.59 1668.94
  C 456.77 1706.73 462.50 1744.87 455.80 1784.10
  C 445.65 1843.52 433.41 1902.68 420.69 1961.59
  C 414.94 1988.23 410.06 2015.71 408.71 2042.88
  A 0.75 0.75 0.0 0 1 407.70 2043.55
  C 389.04 2036.56 373.06 2042.04 358.59 2054.66
  Q 358.19 2055.01 358.12 2054.48
  Q 357.62 2050.61 357.72 2048.50
  C 359.03 2020.65 361.38 1992.44 360.75 1964.57
  Q 360.07 1934.25 359.43 1903.94
  C 358.73 1870.94 354.56 1843.01 347.76 1810.01
  Q 339.73 1771.03 343.85 1727.57
  C 346.05 1704.38 349.71 1675.13 350.34 1646.46
  Q 350.47 1640.69 349.53 1634.72
  C 343.01 1593.43 337.96 1566.03 337.21 1530.50
  Q 336.97 1519.42 336.19 1510.54
  C 327.44 1410.91 327.64 1313.73 340.95 1214.38
  Q 341.01 1213.89 341.45 1213.67
  C 384.39 1191.71 423.59 1159.60 467.23 1143.64
  Q 467.86 1143.41 467.19 1143.42
  Q 466.20 1143.43 465.47 1143.68
  C 422.65 1158.81 384.93 1185.22 344.20 1204.96
  C 335.96 1208.95 327.85 1212.17 319.07 1209.43
  Q 314.68 1208.06 306.38 1203.07
  Q 294.96 1196.19 273.06 1181.95
  C 246.83 1164.89 218.97 1150.00 189.00 1140.00
  Q 188.82 1139.94 188.70 1140.00
  Q 188.55 1140.07 188.71 1140.13
  Z"
/>
<path fill="#ffffff" d="
  M 284.67 2122.87
  C 283.11 2138.70 287.09 2158.46 273.53 2169.98
  Q 258.83 2182.47 240.94 2186.42
  C 216.90 2191.71 188.03 2181.60 180.09 2155.87
  Q 179.94 2155.40 180.11 2154.93
  Q 183.77 2144.65 190.52 2138.27
  Q 202.96 2126.51 209.93 2113.69
  Q 225.99 2084.15 235.74 2064.22
  Q 238.39 2058.81 240.37 2050.92
  Q 240.49 2050.44 240.95 2050.27
  C 261.50 2042.26 275.31 2047.76 290.63 2061.70
  Q 291.01 2062.04 290.96 2062.54
  C 289.10 2082.69 286.75 2101.83 284.67 2122.87
  Z"
/>
<path fill="#ffffff" d="
  M 445.50 2120.23
  C 451.69 2131.46 467.04 2140.18 471.64 2155.11
  Q 471.79 2155.57 471.64 2156.04
  C 465.79 2175.02 447.32 2186.28 428.29 2187.56
  C 410.11 2188.77 393.64 2182.16 379.32 2171.17
  C 366.94 2161.67 368.25 2146.75 367.76 2132.91
  Q 367.49 2125.60 366.59 2118.64
  Q 362.95 2090.43 359.75 2062.17
  Q 359.70 2061.66 360.07 2061.32
  C 374.64 2047.57 388.97 2042.59 408.34 2049.98
  Q 408.80 2050.16 408.93 2050.63
  C 411.66 2060.88 417.83 2070.94 423.44 2080.81
  Q 434.59 2100.45 445.50 2120.23
  Z"
/>
<path fill="#ffffff" d="
  M 369.66 2170.11
  C 397.86 2198.30 446.15 2204.96 472.09 2169.15
  A 0.12 0.12 0.0 0 1 472.30 2169.25
  C 467.93 2185.65 454.53 2197.48 438.44 2201.67
  C 417.13 2207.21 391.74 2198.67 376.10 2183.89
  Q 370.80 2178.88 369.40 2170.24
  Q 369.33 2169.78 369.66 2170.11
  Z"
/>
<path fill="#ffffff" d="
  M 179.89 2169.27
  C 205.21 2205.29 254.79 2197.84 282.19 2170.01
  Q 282.60 2169.60 282.50 2170.17
  C 281.17 2177.77 277.67 2182.54 271.40 2187.49
  C 248.68 2205.42 213.97 2210.82 191.47 2189.54
  Q 182.67 2181.22 179.51 2169.45
  A 0.21 0.21 0.0 0 1 179.89 2169.27
  Z"
/>
</svg>
