<!DOCTYPE svg PUBLIC "-//W3C//DTD SVG 1.1//EN"
  "http://www.w3.org/Graphics/SVG/1.1/DTD/svg11.dtd">
<svg viewBox="0 0 32 32" xmlns="http://www.w3.org/2000/svg" version="1.1" fill="#0369a1">
  <clipPath id="clip_1">
    <path id="artboard_1" clip-rule="evenodd" d="m0 0h32v32h-32z"></path>
  </clipPath>
  <g id="subscribe" clip-path="url(#clip_1)">
    <path id="Vector"
          d="m15 8c0-2.48528.8787-4.60661 2.636-6.36396.1471-.14711.2968-.28805.449-.42285-.676-.14213-1.3707-.21319-2.0841-.21319h-.0018c-2.5794 0-4.8258.86492-6.73914 2.59475-1.91337 1.72983-2.99966 3.87791-3.25889 6.44425l-.84785 8.3938c-1.43548.6645-2.15322 1.8532-2.15322 3.5662v.002c0 2.666 1.333 3.999 3.999 3.999h18.002c2.666 0 3.999-1.333 3.999-3.999v-.002c0-1.713-.7177-2.9017-2.1532-3.5662l-.1828-1.81c-.8359.2515-1.7239.3772-2.664.3772-2.4853 0-4.6066-.8787-6.364-2.636-1.7573-1.7574-2.636-3.8787-2.636-6.364zm4.0503-4.94975c-1.3669 1.36683-2.0503 3.01675-2.0503 4.94975s.6834 3.5829 2.0503 4.9497c1.3668 1.3669 3.0167 2.0503 4.9497 2.0503s3.5829-.6834 4.9497-2.0503c1.3669-1.3668 2.0503-3.0167 2.0503-4.9497s-.6834-3.58292-2.0503-4.94975c-1.3668-1.36683-3.0167-2.05025-4.9497-2.05025s-3.5829.68342-4.9497 2.05025zm4.0104 4.0962-.3536-.35356c-.1953-.19526-.431-.29289-.7071-.29289s-.5118.09763-.7071.29289c-.0938.09377-.166.20191-.2168.32443-.0507.12251-.0761.25007-.0761.38268s.0254.26017.0761.38268c.0508.12252.123.23066.2168.32443l1.5 1.5c.1953.19526.431.29289.7071.29289s.5118-.09763.7071-.29289l3-3c.0938-.09377.166-.20191.2168-.32443.0507-.12251.0761-.25007.0761-.38268s-.0254-.26017-.0761-.38268c-.0508-.12252-.123-.23066-.2168-.32443-.1953-.19526-.431-.29289-.7071-.29289s-.5118.09763-.7071.29289l-1.4142 1.41422-.8787.87868zm-11.3033 22.09625c-.3877-.3877-.7112-.8019-.9706-1.2427h10.4264c-.2594.4408-.5829.855-.9706 1.2427-1.1715 1.1715-2.5857 1.7573-4.2426 1.7573-1.6568 0-3.0711-.5858-4.2426-1.7573z"
          fill-rule="evenodd"></path>
  </g>
</svg>
