<?xml version="1.0" encoding="UTF-8" standalone="no"?>
<svg
   width="7002.9619"
   height="1601.9581"
   viewBox="0 0 7002.9619 1601.9581"
   fill="none"
   version="1.1"
   id="svg8"
   sodipodi:docname="logo-seconom-2.svg"
   inkscape:version="1.3.2 (091e20e, 2023-11-25, custom)"
   xmlns:inkscape="http://www.inkscape.org/namespaces/inkscape"
   xmlns:sodipodi="http://sodipodi.sourceforge.net/DTD/sodipodi-0.dtd"
   xmlns="http://www.w3.org/2000/svg"
   xmlns:svg="http://www.w3.org/2000/svg">
  <defs
     id="defs8" />
  <sodipodi:namedview
     id="namedview8"
     pagecolor="#ffffff"
     bordercolor="#000000"
     borderopacity="0.25"
     inkscape:showpageshadow="2"
     inkscape:pageopacity="0.0"
     inkscape:pagecheckerboard="0"
     inkscape:deskcolor="#d1d1d1"
     showgrid="false"
     inkscape:zoom="0.13751323"
     inkscape:cx="3705.0979"
     inkscape:cy="927.18349"
     inkscape:window-width="1920"
     inkscape:window-height="1001"
     inkscape:window-x="1071"
     inkscape:window-y="-9"
     inkscape:window-maximized="1"
     inkscape:current-layer="svg8" />
  <rect
     width="7002.9619"
     height="1601.9581"
     fill="#ffffff"
     id="rect1"
     x="0"
     y="0"
     style="stroke-width:0.790655" />
  <path
     fill-rule="evenodd"
     clip-rule="evenodd"
     d="m 100.5672,1359.3235 h 767.504 c 54.76,0 99.59,50.39 99.59,111.9 0,61.55 -44.83,111.88 -99.59,111.88 h -767.504 c -54.755999,0 -99.58599883,-50.33 -99.58599883,-111.88 0,-61.51 44.82999983,-111.9 99.58599883,-111.9 z"
     fill="#f44336"
     id="path1" />
  <path
     fill-rule="evenodd"
     clip-rule="evenodd"
     d="m 538.5612,324.2235 h 274.05 c 54.78,0 99.58,50.372 99.58,111.882 0,61.552 -44.8,111.895 -99.58,111.895 h -274.05 c -54.78,0 -99.57,-50.343 -99.57,-111.895 0,-61.51 44.79,-111.882 99.57,-111.882 z"
     fill="#f44336"
     id="path2" />
  <path
     fill-rule="evenodd"
     clip-rule="evenodd"
     d="m 1266.6412,324.2235 h -427.36 c -28.53,0 -55.23,10.761 -75.29,28.199 -20.11,17.466 -33.6,41.551 -35.61,68.113 l -21.27,278.147 c 60.58,11.485 108.29,71.416 108.29,142.658 0,79.393 -57.89,148.143 -128.44,144.353 l -1.8,-0.1 -35.66,466.52 c -0.24,3.5 -0.4,7.07 -0.4,10.69 0,32.31 11.4,61.51 30.37,83.01 18.82,21.31 45.12,35.17 75.21,37.07 2.34,0.18 4.8,0.22 7.34,0.22 h 1009.73 c 2.54,0 5,-0.04 7.29,-0.22 30.18,-1.9 56.56,-15.8 75.46,-37.12 19.05,-21.59 30.48,-50.78 30.48,-83.14 0,-3.58 -0.15,-7.16 -0.4,-10.64 l -79.23,-1031.303 c -2.02,-26.62 -15.56,-50.705 -35.73,-68.172 -20.15,-17.466 -46.97,-28.285 -75.53,-28.285 z m 26.83,976.13 c -89.75,0 -163.99,-33.31 -222.77,-100.04 -58.78,-66.66 -88.18,-149.77 -88.18,-249.29 0,-99.545 29.42,-182.692 88.18,-249.358 58.78,-66.665 133.02,-100.034 222.77,-100.034 53.93,0 103.89,14.396 149.9,43.087 46,28.705 82.05,67.317 108.19,115.835 l -132.05,85.189 c -11.36,-23.636 -28.23,-42.275 -50.67,-55.991 -22.44,-13.715 -47.58,-20.595 -75.37,-20.595 -47.74,0 -86.2,16.743 -115.45,50.242 -29.25,33.485 -43.88,77.395 -43.88,131.625 0,54.22 14.63,98.08 43.88,131.57 29.25,33.55 67.71,50.29 115.45,50.29 27.79,0 52.93,-6.88 75.37,-20.59 22.44,-13.72 39.31,-32.74 50.67,-56.95 l 132.05,86.14 c -26.14,49.1 -62.03,87.9 -107.75,116.27 -45.72,28.43 -95.84,42.6 -150.34,42.6 z"
     fill="#f44336"
     id="path3" />
  <path
     fill-rule="evenodd"
     clip-rule="evenodd"
     d="m 1267.0312,7.1035004 c 77.95,0 148.48,35.4829996 199.56,92.8799996 51.08,57.396 82.66,136.705 82.66,224.24 h -71.34 c 0,-65.405 -23.6,-124.655 -61.76,-167.568 -38.19,-42.856 -90.87,-69.388 -149.12,-69.388 -58.26,0 -110.94,26.532 -149.13,69.388 -38.15,42.913 -61.76,102.163 -61.76,167.568 h -71.34 c 0,-87.535 31.58,-166.844 82.66,-224.24 51.08,-57.382 121.62,-92.8799996 199.57,-92.8799996 z"
     fill="#f44336"
     id="path4" />
  <path
     fill-rule="evenodd"
     clip-rule="evenodd"
     d="m 264.5912,324.2235 h 64.37 c 36.98,0 67.27,34.035 67.27,75.587 0,41.595 -30.3,75.63 -67.27,75.63 h -64.37 c -36.978,0 -67.282,-34.035 -67.282,-75.63 0,-41.552 30.304,-75.587 67.282,-75.587 z"
     fill="#f44336"
     id="path5" />
  <path
     fill-rule="evenodd"
     clip-rule="evenodd"
     d="m 412.7612,727.2435 h 274.09 c 54.74,0 99.59,50.328 99.59,111.881 0,61.509 -44.85,111.899 -99.59,111.899 h -274.09 c -54.74,0 -99.57,-50.39 -99.57,-111.899 0,-61.553 44.83,-111.881 99.57,-111.881 z"
     fill="#f44336"
     id="path6" />
  <path
     fill-rule="evenodd"
     clip-rule="evenodd"
     d="m 452.0712,1148.2235 h 64.33 c 37.02,0 67.28,34.03 67.28,75.63 0,41.55 -30.26,75.6 -67.28,75.6 h -64.33 c -37.02,0 -67.27,-34.05 -67.27,-75.6 0,-41.6 30.25,-75.63 67.27,-75.63 z"
     fill="#f44336"
     id="path7" />
  <path
     d="m 2350.8012,1404.1035 c -96.25,0 -176.14,-43.09 -239.6,-129.24 -63.48,-86.07 -95.22,-193.02 -95.22,-320.76 0,-127.72 31.74,-234.69 95.22,-320.818 63.46,-86.146 143.35,-129.182 239.6,-129.182 57.69,0 111.02,17.936 160.1,53.809 49.08,35.799 87.69,84.684 115.88,146.471 l -126.94,98.918 c -14.08,-33.781 -34.31,-59.991 -60.7,-78.502 -26.38,-18.565 -55.79,-27.82 -88.34,-27.82 -56.98,0 -102.53,23.489 -136.58,70.449 -34.05,46.979 -51.05,109.225 -51.05,186.675 0,77.46 17,139.71 51.05,186.67 34.05,46.98 79.6,70.47 136.58,70.47 32.55,0 62.12,-9.49 88.82,-28.47 26.64,-18.91 46.75,-44.88 60.22,-77.85 l 126.94,98.92 c -27.59,61.79 -65.91,110.6 -114.97,146.47 -49.04,35.87 -102.72,53.79 -161.01,53.79 z m 666.98,-900 c 96.3,0 176.15,43.036 239.65,129.182 63.45,86.128 95.17,193.098 95.17,320.818 0,127.74 -31.72,234.69 -95.17,320.76 -63.5,86.15 -143.35,129.24 -239.65,129.24 -58.28,0 -111.92,-17.94 -161,-53.79 -49.07,-35.87 -87.38,-84.7 -114.97,-146.47 l 126.94,-98.94 c 13.47,32.99 33.58,58.96 60.26,77.87 26.66,18.98 56.27,28.47 88.78,28.47 44.16,0 81.69,-14.64 112.69,-43.9 30.95,-29.29 52.56,-69.43 64.83,-120.5 h -263.1 v -185.476 h 263.1 c -12.27,-51.069 -33.88,-91.273 -64.83,-120.501 -31,-29.264 -68.53,-43.906 -112.69,-43.906 -32.51,0 -61.96,9.255 -88.33,27.839 -26.35,18.511 -46.59,44.702 -60.71,78.483 l -126.94,-98.918 c 28.2,-61.768 66.85,-110.653 115.88,-146.471 49.08,-35.854 102.45,-53.79 160.1,-53.79 z m 1007.31,882.66 h -167.41 l -206.07,-400.54 v 400.54 h -147.18 v -865.353 h 147.18 v 375.833 l 196.86,-375.833 h 167.41 l -217.1,421.583 z m 613.59,-112.47 c -65,86.55 -144.12,129.81 -237.36,129.81 -93.19,0 -172.31,-43.26 -237.31,-129.81 -65,-86.54 -97.51,-193.27 -97.51,-320.19 0,-126.924 32.51,-233.654 97.51,-320.188 65,-86.535 144.12,-129.812 237.31,-129.812 93.24,0 172.36,43.277 237.36,129.812 65,86.534 97.5,193.264 97.5,320.188 0,126.92 -32.5,233.65 -97.5,320.19 z m -371.19,-134.77 c 35.9,47.83 80.5,71.72 133.83,71.72 53.38,0 97.98,-23.89 133.87,-71.72 35.87,-47.8 53.82,-109.64 53.82,-185.42 0,-75.84 -17.95,-137.623 -53.82,-185.453 -35.89,-47.793 -80.49,-71.671 -133.87,-71.671 -53.33,0 -97.93,23.878 -133.83,71.671 -35.87,47.83 -53.81,109.613 -53.81,185.453 0,75.78 17.94,137.62 53.81,185.42 z m 970.06,-618.132 h 147.19 v 865.372 h -147.19 v -343.63 h -202.36 v 343.63 h -147.23 v -865.372 h 147.23 v 331.369 h 202.36 z m 871.16,752.902 c -65.01,86.55 -144.13,129.81 -237.33,129.81 -93.23,0 -172.31,-43.26 -237.35,-129.81 -65,-86.54 -97.51,-193.27 -97.51,-320.19 0,-126.924 32.51,-233.654 97.51,-320.188 65.04,-86.535 144.12,-129.812 237.35,-129.812 93.2,0 172.32,43.277 237.33,129.812 65.04,86.534 97.54,193.264 97.54,320.188 0,126.92 -32.5,233.65 -97.54,320.19 z m -371.16,-134.77 c 35.86,47.83 80.46,71.72 133.83,71.72 53.34,0 97.98,-23.89 133.85,-71.72 35.89,-47.8 53.8,-109.64 53.8,-185.42 0,-75.84 -17.91,-137.623 -53.8,-185.453 -35.87,-47.793 -80.51,-71.671 -133.85,-71.671 -53.37,0 -97.97,23.878 -133.83,71.671 -35.91,47.83 -53.85,109.613 -53.85,185.453 0,75.78 17.94,137.62 53.85,185.42 z m 1264.43,-618.132 v 865.372 h -147.18 v -503.11 l -166.5,367.15 h -16.58 l -166.51,-367.15 v 503.11 h -147.17 v -865.372 h 147.17 l 174.77,384.472 174.82,-384.472 z"
     fill="#0369a1"
     id="path8" />
</svg>
