<svg xmlns="http://www.w3.org/2000/svg" viewBox="0 0 40 40"><defs><style>.cls-1{fill:#5181b8;}.cls-2{fill:#fff;}</style></defs><g id="Layer_2" data-name="Layer 2"><g id="Layer_2-2" data-name="Layer 2"><rect class="cls-1" width="40" height="40" rx="6"/><path class="cls-2" d="M30.25,14c.16-.55,0-.95-.78-.95H26.89a1.13,1.13,0,0,0-1.13.73A21.56,21.56,0,0,1,22.6,19c-.61.6-.88.79-1.21.79-.16,0-.4-.19-.4-.73V14c0-.66-.19-.95-.73-.95H16.2a.61.61,0,0,0-.65.59c0,.62.93.77,1,2.52V19.9c0,.84-.15,1-.48,1-.87,0-3-3.21-4.26-6.89-.25-.71-.49-1-1.15-1H8.1c-.74,0-.89.35-.89.73,0,.68.88,4.07,4.07,8.55C13.42,25.34,16.42,27,19.15,27c1.64,0,1.84-.37,1.84-1V23.68c0-.73.16-.88.68-.88s1,.19,2.56,1.67c1.75,1.75,2,2.53,3,2.53h2.57c.74,0,1.11-.37.9-1.1a11.36,11.36,0,0,0-2.18-3c-.6-.71-1.5-1.47-1.77-1.86s-.28-.71,0-1.14c0,0,3.14-4.43,3.47-5.93Z"/></g></g></svg>