<svg xmlns="http://www.w3.org/2000/svg" xmlns:xlink="http://www.w3.org/1999/xlink" viewBox="0 0 40 40"><defs><style>.cls-1{fill:url(#linear-gradient);}.cls-2{fill:#fff;}</style><linearGradient id="linear-gradient" x1="-98.58" y1="299.1" x2="-101.46" y2="292.37" gradientTransform="matrix(3.47, 0, 0, -3.47, 367.76, 1043.65)" gradientUnits="userSpaceOnUse"><stop offset="0" stop-color="#37aee2"/><stop offset="1" stop-color="#1e96c8"/></linearGradient></defs><g id="Layer_2" data-name="Layer 2"><g id="Layer_2-2" data-name="Layer 2"><circle class="cls-1" cx="20" cy="20" r="20"/><path class="cls-2" d="M7.32,19.83l13.47-5.55c1.33-.58,5.84-2.43,5.84-2.43S28.71,11,28.54,13c-.06.81-.52,3.64-1,6.7l-1.44,9.08S26,30.12,25,30.35s-2.6-.81-2.89-1-4.33-2.78-5.84-4a1.1,1.1,0,0,1,.06-1.85c2.08-1.91,4.57-4.28,6.07-5.78.69-.69,1.39-2.31-1.5-.35l-8.15,5.49a3.4,3.4,0,0,1-2.66.06c-1.74-.52-3.76-1.21-3.76-1.21s-1.39-.87,1-1.79Z"/></g></g></svg>