<?xml version="1.0" encoding="UTF-8"?>
<!DOCTYPE svg PUBLIC "-//W3C//DTD SVG 1.1//EN" "http://www.w3.org/Graphics/SVG/1.1/DTD/svg11.dtd">
<!-- Creator: CorelDRAW 2018 (64-Bit) -->
<svg xmlns="http://www.w3.org/2000/svg" xml:space="preserve" width="300px" height="62px" version="1.1" style="shape-rendering:geometricPrecision; text-rendering:geometricPrecision; image-rendering:optimizeQuality; fill-rule:evenodd; clip-rule:evenodd"
viewBox="0 0 5341 1095.58"
 xmlns:xlink="http://www.w3.org/1999/xlink">
 <defs>
  <style type="text/css">
   <![CDATA[
    .fil1 {fill:#f44336}
    .fil0 {fill:#0369a1;fill-rule:nonzero}
   ]]>
  </style>
 </defs>
 <g id="Слой_x0020_1">
  <metadata id="CorelCorpID_0Corel-Layer"/>
  <path class="fil0" d="M1964.26 690.3c-69.88,0 -127.88,-23.28 -173.95,-69.82 -46.09,-46.5 -69.13,-104.28 -69.13,-173.29 0,-69 23.04,-126.79 69.13,-173.32 46.07,-46.54 104.07,-69.79 173.95,-69.79 41.88,0 80.6,9.69 116.23,29.07 35.63,19.34 63.66,45.75 84.13,79.13l-92.16 53.44c-10.22,-18.25 -24.91,-32.41 -44.07,-42.41 -19.15,-10.03 -40.5,-15.03 -64.13,-15.03 -41.37,0 -74.44,12.69 -99.16,38.06 -24.72,25.38 -37.06,59.01 -37.06,100.85 0,41.85 12.34,75.48 37.06,100.85 24.72,25.38 57.79,38.07 99.16,38.07 23.63,0 45.1,-5.13 64.48,-15.38 19.34,-10.22 33.94,-24.25 43.72,-42.06l92.16 53.44c-20.03,33.38 -47.85,59.75 -83.47,79.13 -35.6,19.38 -74.57,29.06 -116.89,29.06l0 0zm484.22 -486.22c69.92,0 127.89,23.25 173.99,69.79 46.06,46.53 69.09,104.32 69.09,173.32 0,69.01 -23.03,126.79 -69.09,173.29 -46.1,46.54 -104.07,69.82 -173.99,69.82 -42.31,0 -81.25,-9.69 -116.88,-29.06 -35.63,-19.38 -63.44,-45.76 -83.47,-79.13l92.16 -53.45c9.78,17.82 24.38,31.85 43.75,42.07 19.35,10.25 40.85,15.38 64.45,15.38 32.06,0 59.31,-7.91 81.81,-23.72 22.47,-15.82 38.16,-37.51 47.07,-65.1l-191.01 0 0 -100.2 191.01 0c-8.91,-27.59 -24.6,-49.31 -47.07,-65.1 -22.5,-15.81 -49.75,-23.72 -81.81,-23.72 -23.6,0 -44.98,5 -64.13,15.04 -19.13,10 -33.82,24.15 -44.07,42.4l-92.16 -53.44c20.47,-33.37 48.53,-59.78 84.13,-79.13 35.63,-19.37 74.38,-29.06 116.23,-29.06l-0.01 0zm731.31 476.85l-121.54 0 -149.61 -216.39 0 216.39 -106.85 0 0 -467.5 106.85 0 0 203.04 142.92 -203.04 121.54 0 -157.61 227.76 164.3 239.74zm445.46 -60.76c-47.19,46.76 -104.63,70.13 -172.32,70.13 -67.66,0 -125.1,-23.37 -172.29,-70.13 -47.19,-46.75 -70.79,-104.41 -70.79,-172.98 0,-68.57 23.6,-126.23 70.79,-172.98 47.19,-46.75 104.63,-70.13 172.29,-70.13 67.69,0 125.13,23.38 172.32,70.13 47.19,46.75 70.79,104.41 70.79,172.98 0,68.57 -23.6,126.23 -70.79,172.98zm-269.48 -72.81c26.06,25.84 58.44,38.75 97.16,38.75 38.75,0 71.13,-12.91 97.19,-38.75 26.04,-25.82 39.07,-59.23 39.07,-100.17 0,-40.97 -13.03,-74.35 -39.07,-100.19 -26.06,-25.82 -58.44,-38.72 -97.19,-38.72 -38.72,0 -71.1,12.9 -97.16,38.72 -26.04,25.84 -39.07,59.22 -39.07,100.19 0,40.94 13.03,74.35 39.07,100.17zm704.26 -333.94l106.86 0 0 467.51 -106.86 0 0 -185.64 -146.91 0 0 185.64 -106.89 0 0 -467.51 106.89 0 0 179.02 146.91 0 0 -179.02zm632.46 406.75c-47.2,46.76 -104.64,70.13 -172.3,70.13 -67.69,0 -125.1,-23.37 -172.32,-70.13 -47.19,-46.75 -70.79,-104.41 -70.79,-172.98 0,-68.57 23.6,-126.23 70.79,-172.98 47.22,-46.75 104.63,-70.13 172.32,-70.13 67.66,0 125.1,23.38 172.3,70.13 47.22,46.75 70.81,104.41 70.81,172.98 0,68.57 -23.59,126.23 -70.81,172.98zm-269.46 -72.81c26.03,25.84 58.41,38.75 97.16,38.75 38.72,0 71.13,-12.91 97.17,-38.75 26.06,-25.82 39.06,-59.23 39.06,-100.17 0,-40.97 -13,-74.35 -39.06,-100.19 -26.04,-25.82 -58.45,-38.72 -97.17,-38.72 -38.75,0 -71.13,12.9 -97.16,38.72 -26.07,25.84 -39.1,59.22 -39.1,100.19 0,40.94 13.03,74.35 39.1,100.17zm917.97 -333.94l0 467.51 -106.85 0 0 -271.8 -120.88 198.35 -12.04 0 -120.88 -198.35 0 271.8 -106.85 0 0 -467.51 106.85 0 126.88 207.71 126.92 -207.71 106.85 0z"/>
  <path class="fil0" d="M1845.6 1095.58c-21.57,0 -39.85,-4.91 -54.88,-14.72 -15.06,-9.81 -25.57,-23.25 -31.53,-40.35l31.69 -18.53c8.93,25.16 27.5,37.75 55.69,37.75 13.84,0 24.25,-2.71 31.19,-8.15 6.94,-5.44 10.4,-12.54 10.4,-21.29 0,-9.18 -3.75,-16.15 -11.22,-20.97 -7.47,-4.81 -20.68,-10.09 -39.66,-15.84 -10.68,-3.19 -19.31,-6.19 -25.93,-8.97 -6.6,-2.75 -13.6,-6.66 -20.97,-11.66 -7.35,-5.03 -12.85,-11.25 -16.48,-18.72 -3.62,-7.47 -5.43,-16.22 -5.43,-26.25 0,-19.85 7.03,-35.57 21.12,-47.19 14.07,-11.63 31.04,-17.44 50.88,-17.44 17.91,0 33.6,4.38 47.04,13.13 13.43,8.72 23.78,20.78 31.03,36.12l-31.03 17.94c-9.38,-20.91 -25.07,-31.37 -47.04,-31.37 -10.65,0 -19.19,2.53 -25.59,7.53 -6.41,5.03 -9.6,11.78 -9.6,20.31 0,8.35 3.25,14.88 9.75,19.69 6.5,4.81 18.28,9.88 35.35,15.19 8.53,2.78 14.78,4.88 18.72,6.25 3.97,1.38 9.5,3.56 16.66,6.56 7.15,3 12.53,5.97 16.15,8.97 3.63,2.97 7.53,6.72 11.69,11.19 4.16,4.47 7.1,9.6 8.78,15.38 1.72,5.75 2.57,12.25 2.57,19.5 0,20.28 -7.32,36.31 -21.91,48.16 -14.63,11.84 -33.75,17.78 -57.44,17.78zm283.05 -39.38l99.19 0 0 35.22 -136.01 0 0 -224.01 134.42 0 0 35.19 -97.6 0 0 58.25 89.6 0 0 34.88 -89.6 0 0 60.47 0 0zm373.62 39.38c-33.72,0 -61.66,-11.16 -83.85,-33.44 -22.19,-22.31 -33.28,-49.88 -33.28,-82.72 0,-32.88 11.09,-60.44 33.28,-82.73 22.19,-22.31 50.13,-33.44 83.85,-33.44 20.25,0 38.97,4.79 56.16,14.38 17.16,9.63 30.56,22.63 40.16,39.07l-32 18.56c-5.97,-11.1 -14.66,-19.91 -26.1,-26.41 -11.41,-6.5 -24.16,-9.78 -38.22,-9.78 -23.91,0 -43.25,7.59 -58.1,22.72 -14.81,15.16 -22.22,34.35 -22.22,57.63 0,23.25 7.41,42.44 22.22,57.6 14.85,15.12 34.19,22.72 58.1,22.72 14.06,0 26.88,-3.25 38.41,-9.78 11.5,-6.5 20.16,-15.29 25.91,-26.38l32 18.22c-9.41,16.44 -22.66,29.5 -39.85,39.22 -17.19,9.69 -36,14.56 -56.47,14.56l0 0zm449.28 -33.78c-22.5,22.53 -49.97,33.78 -82.38,33.78 -32.44,0 -59.91,-11.25 -82.41,-33.78 -22.5,-22.5 -33.75,-49.98 -33.75,-82.38 0,-32.44 11.25,-59.91 33.75,-82.42 22.5,-22.5 49.97,-33.75 82.41,-33.75 32.41,0 59.88,11.25 82.38,33.75 22.53,22.51 33.78,49.98 33.78,82.42 0,32.4 -11.25,59.88 -33.78,82.38zm-138.88 -24.94c15.25,15.25 34.09,22.87 56.5,22.87 22.38,0 41.22,-7.62 56.47,-22.87 15.25,-15.25 22.88,-34.41 22.88,-57.44 0,-23.07 -7.63,-42.19 -22.88,-57.44 -15.25,-15.26 -34.09,-22.91 -56.47,-22.91 -22.41,0 -41.25,7.65 -56.5,22.91 -15.26,15.25 -22.88,34.37 -22.88,57.44 0,23.03 7.62,42.19 22.88,57.44zm477.47 -169.45l36.78 0 0 224.01 -28.78 0 -105.6 -152.01 0 152.01 -36.82 0 0 -224.01 28.82 0 105.6 152.01 0 -152.01zm306.42 0c30.69,0 56.26,10.75 76.64,32.31 20.37,21.54 30.56,48.1 30.56,79.7 0,31.34 -10.19,57.84 -30.56,79.5 -20.38,21.66 -45.95,32.5 -76.64,32.5l-88 0 0 -224.01 88 0 0 0zm0 188.79c21.1,0 38.35,-7.25 51.66,-21.75 13.35,-14.5 20.01,-32.85 20.01,-55.03 0,-22.41 -6.66,-40.82 -20.01,-55.23 -13.31,-14.4 -30.56,-21.59 -51.66,-21.59l-51.22 0 0 153.6 51.22 0zm593.61 -188.79l36.81 0 0 224.01 -36.81 0 0 -96.97 -96.01 0 0 96.97 -36.78 0 0 -224.01 36.78 0 0 91.85 96.01 0 0 -91.85zm364.34 224.01l-15.69 -45.12 -95.35 0 -15.69 45.12 -40 0 81.28 -224.01 44.16 0 80.98 224.01 -39.69 0 0 0zm-98.88 -79.69l71.03 0 -35.5 -101.13 -35.53 101.13zm433.78 -144.32l36.81 0 0 224.01 -28.81 0 -105.61 -152.01 0 152.01 -36.81 0 0 -224.01 28.81 0 105.61 152.01 0 -152.01zm306.42 0c30.69,0 56.26,10.75 76.63,32.31 20.38,21.54 30.57,48.1 30.57,79.7 0,31.34 -10.19,57.84 -30.57,79.5 -20.37,21.66 -45.94,32.5 -76.63,32.5l-88 0 0 -224.01 88 0 0 0zm0 188.79c21.1,0 38.35,-7.25 51.66,-21.75 13.35,-14.5 20,-32.85 20,-55.03 0,-22.41 -6.65,-40.82 -20,-55.23 -13.31,-14.4 -30.56,-21.59 -51.66,-21.59l-51.22 0 0 153.6 51.22 0z"/>
  <path class="fil1" d="M77.26 933.66l595.44 0c42.48,0 77.26,34.79 77.26,77.26l0 0c0,42.5 -34.78,77.25 -77.26,77.25l-595.44 0c-42.48,0 -77.26,-34.75 -77.26,-77.25l0 0c0,-42.47 34.78,-77.26 77.26,-77.26z"/>
  <path class="fil1" d="M417.06 218.96l212.61 0c42.5,0 77.26,34.78 77.26,77.25l0 0c0,42.5 -34.76,77.26 -77.26,77.26l-212.61 0c-42.5,0 -77.25,-34.76 -77.25,-77.26l0 0c0,-42.47 34.75,-77.25 77.25,-77.25z"/>
  <path class="fil1" d="M981.91 218.96l-331.55 0c-22.13,0 -42.85,7.43 -58.41,19.47 -15.6,12.06 -26.07,28.69 -27.63,47.03l-16.5 192.05c47,7.93 84.01,49.31 84.01,98.5l0 0c0,54.82 -44.91,102.29 -99.64,99.67l-1.4 -0.07 -27.66 322.12c-0.19,2.41 -0.31,4.88 -0.31,7.38 0,22.31 8.84,42.47 23.56,57.31 14.6,14.72 35,24.29 58.35,25.6 1.81,0.12 3.72,0.15 5.69,0.15l783.36 0c1.97,0 3.88,-0.03 5.66,-0.15 23.41,-1.31 43.88,-10.91 58.54,-25.63 14.78,-14.91 23.65,-35.06 23.65,-57.41 0,-2.47 -0.12,-4.94 -0.31,-7.34l-61.47 -712.08c-1.57,-18.38 -12.07,-35.01 -27.72,-47.07 -15.63,-12.06 -36.44,-19.53 -58.6,-19.53l-331.62 0 0 0zm20.82 673.98c-69.63,0 -127.23,-23 -172.83,-69.07 -45.6,-46.03 -68.41,-103.41 -68.41,-172.13 0,-68.73 22.82,-126.14 68.41,-172.17 45.6,-46.03 103.2,-69.07 172.83,-69.07 41.84,0 80.6,9.94 116.29,29.75 35.69,19.82 63.66,46.48 83.94,79.98l-102.45 58.82c-8.81,-16.32 -21.9,-29.19 -39.31,-38.66 -17.41,-9.47 -36.91,-14.22 -58.47,-14.22 -37.04,0 -66.88,11.56 -89.57,34.69 -22.69,23.12 -34.04,53.44 -34.04,90.88 0,37.44 11.35,67.72 34.04,90.85 22.69,23.16 52.53,34.72 89.57,34.72 21.56,0 41.06,-4.75 58.47,-14.22 17.41,-9.47 30.5,-22.6 39.31,-39.32l102.45 59.48c-20.28,33.9 -48.13,60.69 -83.6,80.28 -35.47,19.63 -74.35,29.41 -116.63,29.41l0 0z"/>
  <path class="fil1" d="M982.23 0c60.47,0 115.19,24.5 154.82,64.13 39.63,39.63 64.13,94.39 64.13,154.83l-55.35 0c0,-45.16 -18.31,-86.07 -47.91,-115.7 -29.63,-29.59 -70.5,-47.91 -115.69,-47.91 -45.2,0 -86.07,18.32 -115.7,47.91 -29.6,29.63 -47.91,70.54 -47.91,115.7l-55.35 0c0,-60.44 24.5,-115.2 64.13,-154.83 39.63,-39.62 94.35,-64.13 154.83,-64.13z"/>
  <path class="fil1" d="M204.52 218.96l49.94 0c28.69,0 52.19,23.5 52.19,52.19l0 0c0,28.72 -23.51,52.22 -52.19,52.22l-49.94 0c-28.69,0 -52.2,-23.5 -52.2,-52.22l0 0c0,-28.69 23.51,-52.19 52.2,-52.19z"/>
  <path class="fil1" d="M319.46 497.23l212.64 0c42.47,0 77.26,34.75 77.26,77.25l0 0c0,42.47 -34.79,77.26 -77.26,77.26l-212.64 0c-42.47,0 -77.25,-34.79 -77.25,-77.26l0 0c0,-42.5 34.78,-77.25 77.25,-77.25z"/>
  <path class="fil1" d="M349.96 787.9l49.91 0c28.72,0 52.19,23.5 52.19,52.22l0 0c0,28.69 -23.47,52.2 -52.19,52.2l-49.91 0c-28.72,0 -52.19,-23.51 -52.19,-52.2l0 0c0,-28.72 23.47,-52.22 52.19,-52.22z"/>
 </g>
</svg>
