<svg viewBox="0 0 240 30" fill="none" xmlns="http://www.w3.org/2000/svg">
<g clip-path="url(#clip0_5277_21855)">
<path d="M128.259 4.60611H139.773V1.63086H128.259V4.60611ZM136.048 1.63086V23.6286H139.773V1.63086H136.048ZM128.874 21.1281C129.121 20.6639 129.346 20.0309 129.552 19.2291C129.777 18.4061 129.962 17.3511 130.106 16.0639C130.249 14.7557 130.352 13.1309 130.414 11.1896L130.721 1.63086H127.212L126.904 10.6832C126.822 13.574 126.637 15.8424 126.35 17.4882C126.083 19.1341 125.652 20.3474 125.057 21.1281H128.874ZM127.397 28.2181V23.6286H138.295V28.2181H141.774V20.6534H123.917V28.2181H127.397Z" fill="black"/>
<path d="M150.163 7.39062C148.152 7.39062 146.51 8.10806 145.237 9.54291C143.965 10.9567 143.329 13.0035 143.329 15.6833C143.329 17.4558 143.616 18.9645 144.19 20.2094C144.765 21.4333 145.566 22.3617 146.592 22.9947C147.618 23.6278 148.809 23.9443 150.163 23.9443C152.175 23.9443 153.817 23.2373 155.089 21.8236C156.362 20.3888 156.998 18.3315 156.998 15.6516C156.998 13.8792 156.711 12.381 156.136 11.1571C155.561 9.93328 154.761 9.00484 153.734 8.37182C152.708 7.71769 151.518 7.39062 150.163 7.39062ZM150.163 20.9691C149.137 20.9691 148.367 20.5471 147.854 19.703C147.362 18.859 147.115 17.5191 147.115 15.6833C147.115 13.8264 147.362 12.476 147.854 11.6319C148.367 10.7879 149.137 10.3659 150.163 10.3659C151.189 10.3659 151.949 10.7879 152.441 11.6319C152.955 12.476 153.211 13.8159 153.211 15.6516C153.211 17.5085 152.955 18.859 152.441 19.703C151.949 20.5471 151.189 20.9691 150.163 20.9691Z" fill="black"/>
<path d="M166.108 23.9443C166.949 23.9443 167.678 23.86 168.294 23.691C168.91 23.5434 169.443 23.3008 169.895 22.9632V19.893C169.423 20.2306 168.899 20.4943 168.325 20.6842C167.75 20.8741 167.083 20.9691 166.324 20.9691C165.01 20.9691 164.066 20.4838 163.491 19.5131C162.916 18.5425 162.629 17.2342 162.629 15.5883C162.629 13.8581 162.947 12.5604 163.584 11.6952C164.24 10.809 165.164 10.3659 166.354 10.3659C167.052 10.3659 167.719 10.4714 168.355 10.6824C169.012 10.8934 169.525 11.115 169.895 11.3471V8.15026C169.505 7.91815 168.971 7.73878 168.294 7.61217C167.637 7.46447 166.857 7.39062 165.954 7.39062C164.394 7.39062 163.081 7.74934 162.013 8.46676C160.967 9.1631 160.176 10.1337 159.643 11.3787C159.109 12.6237 158.842 14.0585 158.842 15.6833C158.842 18.342 159.438 20.3888 160.628 21.8236C161.839 23.2373 163.666 23.9443 166.108 23.9443Z" fill="black"/>
<path d="M183.565 10.6823V7.70703H171.281V10.6823H175.591V23.6277H179.254V10.6823H183.565Z" fill="black"/>
<path d="M192.717 19.8308C192.491 20.1684 192.163 20.4638 191.731 20.717C191.3 20.9703 190.757 21.0968 190.1 21.0968C189.32 21.0968 188.735 20.8964 188.345 20.4955C187.975 20.0734 187.791 19.5248 187.791 18.8496C187.791 17.9423 188.129 17.3092 188.807 16.9505C189.505 16.5707 190.633 16.3808 192.193 16.3808H192.717V19.8308ZM196.38 12.7725C196.38 10.8523 195.898 9.49132 194.933 8.68947C193.969 7.86653 192.522 7.45508 190.592 7.45508C189.381 7.45508 188.304 7.61332 187.36 7.92984C186.436 8.24636 185.697 8.57343 185.143 8.91103V12.0445C185.471 11.7913 185.902 11.5487 186.436 11.3166C186.99 11.0633 187.596 10.8629 188.253 10.7152C188.909 10.5464 189.546 10.462 190.161 10.462C191.044 10.462 191.69 10.6413 192.101 11C192.511 11.3588 192.717 11.9601 192.717 12.8042V13.6904H192.132C189.34 13.6904 187.288 14.1441 185.974 15.0514C184.681 15.9587 184.035 17.2143 184.035 18.8179C184.035 20.4216 184.466 21.6666 185.328 22.5528C186.21 23.4181 187.36 23.8504 188.776 23.8504C189.864 23.8504 190.674 23.7028 191.208 23.4074C191.762 23.0909 192.214 22.7426 192.563 22.3628H192.717C192.737 22.5739 192.768 22.7954 192.809 23.0276C192.87 23.2598 192.932 23.4602 192.994 23.6289H196.565C196.442 22.3207 196.38 21.023 196.38 19.7358V12.7725Z" fill="black"/>
<path d="M205.728 23.6277C207.535 23.6277 208.951 23.2375 209.977 22.4566C211.003 21.6759 211.516 20.5259 211.516 19.0066C211.516 17.825 211.147 16.9282 210.408 16.3162C209.669 15.6832 208.643 15.3245 207.329 15.2401L207.391 15.5249C208.458 15.3561 209.31 14.9658 209.946 14.3539C210.603 13.7208 210.931 12.8557 210.931 11.7584C210.931 9.05751 209.218 7.70703 205.79 7.70703H200.803V10.4924H205.359C206.734 10.4924 207.422 11.1043 207.422 12.3282C207.422 12.8768 207.227 13.3094 206.837 13.6259C206.467 13.9424 205.934 14.1006 205.236 14.1006H200.833V16.8543H205.42C207.021 16.8543 207.822 17.4873 207.822 18.7534C207.822 19.4919 207.606 20.03 207.175 20.3676C206.744 20.6841 206.159 20.8424 205.42 20.8424H200.833V23.6277H205.728ZM199.325 7.70703V23.6277H202.896V7.70703H199.325Z" fill="black"/>
<path d="M223.049 23.6277H227.206L221.326 15.1768L226.498 7.70703H222.804L217.632 15.1768V7.70703H213.967V23.6277H217.632V15.9364L223.049 23.6277Z" fill="black"/>
<path d="M236.04 19.8308C235.814 20.1684 235.486 20.4638 235.055 20.717C234.623 20.9703 234.08 21.0968 233.422 21.0968C232.642 21.0968 232.059 20.8964 231.667 20.4955C231.299 20.0734 231.113 19.5248 231.113 18.8496C231.113 17.9423 231.452 17.3092 232.13 16.9505C232.828 16.5707 233.957 16.3808 235.516 16.3808H236.04V19.8308ZM239.703 12.7725C239.703 10.8523 239.22 9.49132 238.256 8.68947C237.292 7.86653 235.846 7.45508 233.915 7.45508C232.703 7.45508 231.627 7.61332 230.682 7.92984C229.76 8.24636 229.02 8.57343 228.466 8.91103V12.0445C228.794 11.7913 229.225 11.5487 229.76 11.3166C230.314 11.0633 230.919 10.8629 231.576 10.7152C232.232 10.5464 232.868 10.462 233.484 10.462C234.368 10.462 235.013 10.6413 235.425 11C235.835 11.3588 236.04 11.9601 236.04 12.8042V13.6904H235.454C232.663 13.6904 230.61 14.1441 229.297 15.0514C228.005 15.9587 227.358 17.2143 227.358 18.8179C227.358 20.4216 227.789 21.6666 228.65 22.5528C229.534 23.4181 230.682 23.8504 232.099 23.8504C233.188 23.8504 233.998 23.7028 234.53 23.4074C235.084 23.0909 235.537 22.7426 235.886 22.3628H236.04C236.059 22.5739 236.091 22.7954 236.131 23.0276C236.195 23.2598 236.256 23.4602 236.317 23.6289H239.889C239.766 22.3207 239.703 21.023 239.703 19.7358V12.7725Z" fill="black"/>
<path d="M25.861 7.70793V14.0066H20.9659V7.70793H17.3023V23.6286H20.9659V16.9818H25.861V23.6286H29.5247V7.70793H25.861ZM46.0574 20.6534H44.4256V7.70793H33.7425V9.06896C33.7425 10.3772 33.7015 11.7593 33.6195 13.2153C33.5372 14.6502 33.3833 16.0323 33.1576 17.3616C32.9523 18.6699 32.6343 19.7671 32.2031 20.6534H31.064V27.2686H34.4507V23.6286H42.6707V27.2686H46.0574V20.6534ZM40.7619 20.6534H35.5898C35.9182 19.8515 36.1747 18.8915 36.3595 17.7731C36.5646 16.6337 36.698 15.4836 36.7595 14.3231C36.8418 13.1414 36.8828 12.0864 36.8828 11.158V10.6832H40.7619V20.6534ZM49.4747 17.0135H59.5729V15.0194C59.5729 13.1625 59.3265 11.6855 58.8338 10.5882C58.3414 9.46987 57.6436 8.65748 56.7404 8.15106C55.8373 7.64463 54.7701 7.39143 53.5386 7.39143C52.0608 7.39143 50.8293 7.75015 49.8441 8.46756C48.8794 9.185 48.1508 10.1768 47.6583 11.4428C47.1861 12.6878 46.9501 14.1121 46.9501 15.7158C46.9501 18.48 47.5864 20.5479 48.8589 21.9195C50.1315 23.2699 51.9377 23.9451 54.2774 23.9451C55.4474 23.9451 56.4632 23.8079 57.3253 23.5336C58.1874 23.2595 58.8852 22.9323 59.4189 22.5525V19.4823C58.8442 19.8832 58.1155 20.2314 57.2329 20.5268C56.371 20.8222 55.4884 20.9699 54.5853 20.9699C53.1485 20.9699 52.1428 20.6006 51.5683 19.8621C51.0141 19.1025 50.7368 17.9525 50.7368 16.4121V14.6396C50.7368 11.791 51.6503 10.3667 53.4771 10.3667C54.38 10.3667 54.9957 10.7148 55.3241 11.4112C55.673 12.0864 55.8475 12.9199 55.8475 13.9116V14.9878L57.079 14.2281H49.4747V17.0135ZM71.1178 23.6286H75.2742L69.3938 15.1777L74.566 7.70793H70.8717L65.6993 15.1777V7.70793H62.0357V23.6286H65.6993V15.9373L71.1178 23.6286ZM82.3244 23.9451C83.1658 23.9451 83.8945 23.8608 84.5102 23.6918C85.126 23.5442 85.6597 23.3016 86.1112 22.964V19.8938C85.6392 20.2314 85.1156 20.4951 84.5411 20.685C83.9664 20.875 83.2992 20.9699 82.5399 20.9699C81.2264 20.9699 80.2822 20.4846 79.7075 19.5139C79.1328 18.5433 78.8454 17.235 78.8454 15.5892C78.8454 13.8589 79.1636 12.5612 79.7999 11.696C80.4567 10.8098 81.3803 10.3667 82.5706 10.3667C83.2686 10.3667 83.9355 10.4722 84.5718 10.6832C85.2286 10.8942 85.7418 11.1158 86.1112 11.3479V8.15106C85.7212 7.91895 85.1875 7.73959 84.5102 7.61298C83.8535 7.46528 83.0736 7.39143 82.1705 7.39143C80.6106 7.39143 79.2971 7.75015 78.2296 8.46756C77.1829 9.16391 76.3927 10.1345 75.859 11.3795C75.3255 12.6245 75.0587 14.0593 75.0587 15.6841C75.0587 18.3428 75.6539 20.3896 76.8442 21.8245C78.0552 23.2381 79.8819 23.9451 82.3244 23.9451ZM10.4984 23.6286H14.2236V1.63086H8.80508C6.0753 1.63086 4.00231 2.29554 2.5861 3.62491C1.19043 4.93317 0.492592 6.64235 0.492592 8.75243C0.492592 10.4405 0.872297 11.8437 1.63171 12.9621C2.39112 14.0804 3.46867 15.1566 4.86435 16.1905L0 23.6286H4.0331L9.4516 15.3043L7.5736 14.0066C6.81418 13.4791 6.17792 12.9726 5.6648 12.4873C5.17222 11.9809 4.80277 11.4217 4.55647 10.8098C4.31017 10.1768 4.18704 9.41713 4.18704 8.53089C4.18704 7.37032 4.577 6.43132 5.35693 5.71391C6.15739 4.97537 7.31704 4.60611 8.83587 4.60611H10.4984V23.6286Z" fill="black"/>
<mask id="mask0_5277_21855" style="mask-type:luminance" maskUnits="userSpaceOnUse" x="90" y="0" width="30" height="30">
<path d="M105.303 0H105.303C97.249 0 90.7197 6.71264 90.7197 14.9931V14.9932C90.7197 23.2737 97.249 29.9863 105.303 29.9863H105.303C113.358 29.9863 119.887 23.2737 119.887 14.9932V14.9931C119.887 6.71264 113.358 0 105.303 0Z" fill="white"/>
</mask>
<g mask="url(#mask0_5277_21855)">
<path d="M105.303 0H105.303C97.249 0 90.7197 6.71264 90.7197 14.9931V14.9932C90.7197 23.2737 97.249 29.9863 105.303 29.9863H105.303C113.358 29.9863 119.887 23.2737 119.887 14.9932V14.9931C119.887 6.71264 113.358 0 105.303 0Z" fill="black"/>
<mask id="mask1_5277_21855" style="mask-type:alpha" maskUnits="userSpaceOnUse" x="82" y="-6" width="38" height="42">
<path d="M83.3299 5.10267L99.7174 -4.80775C100.503 -5.28283 101.477 -5.28283 102.263 -4.80775L118.651 5.10267C119.417 5.56636 119.888 6.4126 119.888 7.32712V22.6607C119.888 23.5751 119.417 24.4214 118.651 24.8851L102.263 34.7955C101.477 35.2705 100.503 35.2705 99.7174 34.7955L83.3299 24.8851C82.5632 24.4214 82.0923 23.5751 82.0923 22.6607V7.32712C82.0923 6.4126 82.5632 5.56636 83.3299 5.10267Z" fill="#C4C4C4"/>
</mask>
<g mask="url(#mask1_5277_21855)">
<path d="M100.99 -5.57617L82.0923 5.85235L100.99 17.2809L119.888 5.85235L100.99 -5.57617Z" fill="url(#paint0_linear_5277_21855)"/>
<path d="M82.0923 24.1369V5.85156L100.99 17.2801V35.5658L82.0923 24.1369Z" fill="url(#paint1_radial_5277_21855)"/>
<path d="M119.888 24.1373V5.85156L100.99 17.2801V35.5658L119.888 24.1373Z" fill="url(#paint2_radial_5277_21855)"/>
<path fill-rule="evenodd" clip-rule="evenodd" d="M91.2948 -3.46094L112.549 9.5318C112.964 9.78554 113.219 10.2453 113.219 10.7418V33.2804H107.661V13.9922C107.661 13.4957 107.406 13.036 106.991 12.7822L88.4541 1.45067L91.2948 -3.46094Z" fill="url(#paint3_radial_5277_21855)"/>
</g>
<path fill-rule="evenodd" clip-rule="evenodd" d="M96.0087 5.14522L96.4963 4.93096L98.4476 6.07366L99.3535 5.57372L97.4024 4.43103L97.89 4.14535L94.7544 3.35974L96.0087 5.14522ZM98.3083 3.85968L98.7959 3.574L100.747 4.7167L101.723 4.2882L99.7716 3.07407L100.259 2.78839L97.1235 2.07422L98.3083 3.85968ZM98.3779 6.57359L102.559 4.21676L102.977 4.50244L98.7959 6.85926L98.3779 6.57359Z" fill="black"/>
<path fill-rule="evenodd" clip-rule="evenodd" d="M103.264 9.71175C102.163 8.93177 102.301 7.79727 103.47 7.15912C104.64 6.45005 106.497 6.59186 107.529 7.37184C108.424 8.00999 108.355 9.07358 108.561 10.6335C108.561 10.7753 108.424 10.8463 108.217 10.8463C106.429 10.4917 104.365 10.4208 103.264 9.71175ZM106.291 9.2154C106.841 8.93177 106.841 8.36451 106.36 8.00999C105.878 7.65545 105.053 7.58455 104.502 7.93908C103.952 8.22271 103.952 8.78997 104.433 9.14449C104.915 9.42812 105.741 9.49903 106.291 9.2154Z" fill="black"/>
<path d="M112.099 12.7617L110.505 13.6741L110.314 14.3352L110.907 14.0129L110.111 16.3424L110.314 14.6502L109.742 14.9505L109.909 14.0568L108.562 14.848C108.567 15.0507 108.583 15.5908 108.606 16.13C108.678 17.998 109.747 18.0276 110.098 17.9857C110.102 18.2334 110.188 19.0916 109.971 19.5835C109.754 20.0754 109.358 20.2036 109.01 20.4524C108.824 20.5858 108.924 20.8657 109.302 20.6687C109.679 20.4716 111.048 19.6202 111.5 19.3949C111.732 19.2795 111.767 18.9505 111.398 19.119C110.382 19.5835 110.505 18.7885 110.505 18.5066C110.505 18.2246 110.501 18.1512 110.505 17.811C112.065 15.7127 112.218 13.5705 112.099 12.7617Z" fill="black"/>
<path fill-rule="evenodd" clip-rule="evenodd" d="M108.562 25.7577L108.984 25.5421V27.9849L109.827 27.4821V25.0393L110.248 24.8236L109.406 22.5964L108.562 25.7577ZM110.6 24.6082L111.021 24.3925V26.8353L111.864 26.3325V23.8897L112.286 23.674L111.373 21.375L110.6 24.6082ZM108.562 28.7753L112.216 26.6199V27.1947L108.562 29.3501V28.7753Z" fill="black"/>
</g>
</g>
<defs>
<linearGradient id="paint0_linear_5277_21855" x1="100.234" y1="-4.34189" x2="101.557" y2="13.8527" gradientUnits="userSpaceOnUse">
<stop stop-color="#FFE7C2"/>
<stop offset="1" stop-color="#E3B673"/>
</linearGradient>
<radialGradient id="paint1_radial_5277_21855" cx="0" cy="0" r="1" gradientUnits="userSpaceOnUse" gradientTransform="translate(100.163 34.1938) rotate(-129.289) scale(21.2634 19.8205)">
<stop stop-color="#CA8D32"/>
<stop offset="1" stop-color="#F2C888"/>
</radialGradient>
<radialGradient id="paint2_radial_5277_21855" cx="0" cy="0" r="1" gradientUnits="userSpaceOnUse" gradientTransform="translate(95.8802 28.0225) rotate(-28.0557) scale(24.0552 22.0829)">
<stop stop-color="#C4892F"/>
<stop offset="1" stop-color="#E6BE81"/>
</radialGradient>
<radialGradient id="paint3_radial_5277_21855" cx="0" cy="0" r="1" gradientUnits="userSpaceOnUse" gradientTransform="translate(88.7626 1.85202) rotate(31.4646) scale(27.3686 20.297)">
<stop stop-color="#FFF6E8"/>
<stop offset="0.677761" stop-color="#FFF9EF"/>
<stop offset="1" stop-color="#F0DBBC"/>
</radialGradient>
<clipPath id="clip0_5277_21855">
<rect width="240" height="30" fill="white"/>
</clipPath>
</defs>
</svg>
