<?xml version="1.0" encoding="UTF-8" standalone="no"?>
<!DOCTYPE svg PUBLIC "-//W3C//DTD SVG 1.1//EN" "http://www.w3.org/Graphics/SVG/1.1/DTD/svg11.dtd">
<svg xmlns="http://www.w3.org/2000/svg" version="1.1" viewBox="0.00 0.00 1017.00 2062.00">
<g stroke-width="2.00" fill="none" stroke-linecap="butt">
<path stroke="#800000" vector-effect="non-scaling-stroke" d="
  M 470.51 78.38
  L 410.25 78.29"
/>
<path stroke="#800000" vector-effect="non-scaling-stroke" d="
  M 394.25 78.29
  L 389.78 78.49"
/>
<path stroke="#800000" vector-effect="non-scaling-stroke" d="
  M 383.00 78.29
  L 381.03 78.28"
/>
<path stroke="#800000" vector-effect="non-scaling-stroke" d="
  M 392.00 75.45
  L 395.00 75.21"
/>
<path stroke="#800000" vector-effect="non-scaling-stroke" d="
  M 578.96 970.25
  Q 576.55 968.48 573.50 968.46"
/>
<path stroke="#808080" vector-effect="non-scaling-stroke" d="
  M 573.50 968.46
  Q 570.01 940.78 564.40 913.47
  C 555.97 872.40 554.81 832.26 557.59 790.26
  Q 561.55 730.60 572.54 672.00
  A 0.21 0.20 61.8 0 0 572.15 671.88
  Q 561.59 697.46 549.75 722.26
  Q 549.06 723.69 549.63 722.21
  Q 553.90 711.13 558.06 700.06
  C 577.45 648.42 593.15 593.35 597.41 538.18
  C 597.59 535.82 597.44 533.08 597.54 530.50
  A 0.19 0.18 45.9 0 1 597.91 530.51
  C 598.81 568.27 594.78 604.83 583.49 640.61
  A 2.34 2.32 -44.8 0 0 583.48 641.93
  Q 603.44 708.21 621.24 775.01
  C 625.48 790.94 627.37 805.80 627.22 822.99
  C 627.05 841.82 626.47 861.11 627.42 879.68
  C 628.66 903.79 634.31 926.15 639.16 948.98
  C 645.31 977.93 648.79 1007.51 650.38 1037.06
  C 651.02 1049.06 650.96 1060.28 647.62 1071.70
  Q 647.45 1072.27 648.00 1072.50
  Q 668.03 1080.88 688.89 1074.57
  A 0.86 0.85 -6.4 0 0 689.50 1073.81
  C 693.48 1024.54 693.38 975.13 698.65 925.93
  Q 700.00 913.28 700.28 906.02
  C 701.42 875.81 696.97 846.67 692.30 816.94
  C 690.80 807.39 691.86 796.79 689.11 787.64
  Q 683.45 768.84 680.78 757.24
  Q 670.10 710.87 657.99 647.25
  C 650.45 607.57 646.57 578.61 641.55 535.17
  Q 638.86 511.96 631.24 491.03
  C 625.31 474.73 614.33 467.89 597.75 462.52
  Q 585.13 458.44 575.50 457.24
  C 560.64 455.39 550.61 453.45 538.83 448.38
  Q 522.07 441.19 505.71 432.86
  Q 505.26 432.63 504.79 432.81
  Q 421.67 465.51 338.66 432.63
  Q 338.22 432.45 337.79 432.68
  Q 313.66 445.87 287.65 454.68
  Q 283.84 455.98 279.18 456.46
  C 264.58 457.98 249.14 460.82 235.59 466.63
  C 212.29 476.62 206.71 507.33 203.75 530.00
  C 199.54 562.25 196.46 591.96 190.17 626.53
  Q 178.99 687.99 165.48 749.00
  Q 161.20 768.29 155.34 787.16
  C 153.35 793.55 153.58 800.55 153.11 807.17
  C 152.18 820.43 149.77 832.59 147.52 847.75
  C 143.63 873.96 142.83 898.85 145.60 924.69
  Q 148.94 955.76 150.30 987.00
  C 151.58 1016.45 152.32 1046.19 155.12 1075.54
  Q 155.17 1076.08 155.71 1076.18
  Q 176.82 1080.28 195.05 1069.50
  A 1.33 1.32 69.0 0 0 195.67 1068.09
  Q 193.06 1054.87 193.72 1041.06
  Q 195.57 1002.29 202.23 964.10
  C 204.59 950.61 207.99 935.86 211.08 921.77
  Q 217.69 891.63 217.51 860.74
  C 217.36 832.78 215.13 805.23 222.38 777.92
  Q 239.10 714.96 257.74 652.47
  A 2.32 2.30 43.6 0 0 257.70 651.02
  C 243.62 611.18 238.72 570.33 239.88 528.18
  Q 239.89 527.97 239.98 527.82
  Q 240.13 527.61 240.13 527.86
  C 240.63 559.70 246.95 591.98 255.11 622.68
  Q 268.51 673.09 287.89 721.52
  Q 289.17 724.70 287.69 721.61
  Q 277.75 700.75 268.77 679.59
  Q 268.74 679.51 268.66 679.55
  L 268.38 679.70
  Q 268.28 679.75 268.31 679.86
  Q 278.64 729.27 283.66 779.51
  C 287.48 817.71 288.27 856.09 282.75 894.17
  C 281.09 905.63 278.08 918.94 275.65 931.30
  Q 265.26 984.09 264.36 1038.04
  Q 264.35 1038.58 264.88 1038.67
  Q 288.67 1043.03 312.76 1045.16
  Q 404.56 1053.29 496.44 1046.14
  C 524.18 1043.99 551.81 1040.58 577.85 1033.20
  Q 578.35 1033.06 578.33 1032.54
  Q 577.12 1005.29 574.54 978.25"
/>
<path stroke="#800000" vector-effect="non-scaling-stroke" d="
  M 574.54 978.25
  Q 577.64 977.67 579.46 975.25"
/>
<path stroke="#ff8080" vector-effect="non-scaling-stroke" d="
  M 573.50 968.46
  Q 571.83 968.61 570.18 968.69
  C 563.37 969.02 563.31 977.72 570.83 977.64
  Q 572.73 977.62 574.54 978.25"
/>
<path stroke="#808080" vector-effect="non-scaling-stroke" d="
  M 333.09 265.55
  Q 335.25 300.44 346.42 333.52
  C 356.36 362.97 398.53 414.82 434.76 400.77
  C 463.38 389.67 489.16 359.39 498.54 330.31
  Q 509.01 297.84 510.79 265.56
  Q 510.82 265.06 510.84 265.56
  Q 512.28 295.24 505.05 323.97
  Q 504.93 324.44 505.41 324.51
  C 508.70 324.95 515.28 325.19 517.76 322.55
  Q 537.59 301.54 535.66 272.31
  Q 535.30 266.84 532.71 260.86
  Q 532.53 260.45 532.13 260.25
  Q 524.85 256.73 517.13 259.23
  Q 515.33 259.82 515.70 257.96
  C 517.16 250.59 517.62 244.26 515.29 236.88
  C 499.99 188.48 452.56 191.06 411.70 187.56
  C 389.04 185.62 366.73 180.88 353.23 161.31
  A 0.31 0.31 0.0 0 0 352.67 161.43
  Q 349.14 183.06 346.32 204.72
  C 344.03 222.37 340.35 242.18 330.48 256.96
  Q 329.87 257.86 328.43 257.37
  Q 327.80 257.16 327.96 257.80
  L 328.26 259.01
  Q 328.47 259.84 327.67 259.54
  Q 319.44 256.47 311.57 260.32
  Q 311.15 260.52 310.98 260.96
  C 303.28 281.24 310.62 305.16 324.39 320.87
  C 328.07 325.07 333.54 325.53 338.69 324.41
  Q 339.20 324.30 339.06 323.79
  C 333.81 304.86 332.59 285.08 333.05 265.55
  Q 333.06 265.07 333.09 265.55"
/>
<path stroke="#808080" vector-effect="non-scaling-stroke" d="
  M 481.65 418.19
  C 477.13 414.48 476.63 410.38 476.01 404.75
  Q 474.67 392.41 474.57 379.92
  A 0.34 0.33 -24.0 0 0 473.99 379.70
  C 461.67 392.96 441.37 408.04 422.60 408.63
  C 402.91 409.25 382.15 393.43 369.48 379.71
  A 0.32 0.32 0.0 0 0 368.92 379.93
  Q 369.04 394.67 366.96 409.19
  C 366.38 413.26 364.64 416.40 361.15 418.97
  Q 353.49 424.62 345.08 428.89
  A 0.27 0.27 0.0 0 0 345.11 429.38
  Q 421.13 457.86 497.41 429.91
  Q 499.40 429.18 497.49 428.26
  Q 488.78 424.03 481.65 418.19"
/>
<path stroke="#808080" vector-effect="non-scaling-stroke" d="
  M 285.78 1099.05
  Q 286.72 1098.85 287.51 1099.00
  C 314.81 1104.26 335.44 1114.68 363.79 1127.65
  C 388.46 1138.94 412.83 1145.29 440.02 1141.03
  C 484.01 1134.15 518.64 1112.95 567.93 1095.44
  Q 582.16 1090.38 568.00 1095.70
  C 544.75 1104.42 528.73 1112.62 501.01 1125.75
  C 477.60 1136.84 453.37 1148.57 430.04 1152.08
  Q 429.53 1152.16 429.52 1152.68
  Q 429.45 1155.46 429.53 1158.25
  C 432.94 1282.97 438.74 1407.62 444.30 1532.26
  C 445.16 1551.60 445.24 1572.94 443.21 1590.44
  Q 439.22 1624.79 438.55 1633.57
  Q 436.04 1666.12 443.13 1700.49
  C 446.62 1717.45 449.88 1735.11 451.23 1751.00
  C 452.97 1771.29 452.86 1794.39 453.68 1816.49
  Q 454.93 1850.29 452.56 1884.06
  Q 452.30 1887.80 451.05 1894.99
  Q 449.03 1906.67 449.61 1919.94
  Q 449.63 1920.47 450.10 1920.23
  C 466.78 1911.67 481.59 1912.42 499.39 1917.21
  Q 499.99 1917.37 499.89 1916.75
  C 495.20 1890.20 502.00 1863.79 507.60 1837.57
  C 519.37 1782.39 530.99 1727.22 540.56 1671.61
  C 546.46 1637.36 541.80 1602.83 537.88 1569.32
  C 534.34 1539.13 535.05 1509.36 535.85 1479.06
  Q 536.62 1449.66 542.02 1420.76
  C 545.37 1402.83 552.35 1375.67 556.83 1350.68
  Q 568.88 1283.41 574.33 1215.25
  C 578.92 1157.78 581.47 1097.93 578.60 1039.05
  A 0.28 0.28 0.0 0 0 578.25 1038.80
  C 547.14 1047.15 514.50 1050.55 482.43 1052.58
  C 423.53 1056.32 363.56 1055.87 304.82 1049.88
  Q 284.68 1047.83 264.86 1044.24
  A 0.73 0.73 0.0 0 0 264.00 1044.94
  Q 262.49 1163.41 276.13 1280.52
  C 280.77 1320.41 288.21 1360.27 298.01 1403.24
  Q 306.55 1440.70 307.87 1484.18
  Q 308.93 1518.99 308.49 1533.44
  C 307.15 1577.63 294.98 1624.78 303.01 1671.54
  C 312.68 1727.83 324.41 1783.74 336.44 1839.56
  C 342.32 1866.84 347.06 1890.62 342.44 1916.05
  Q 342.33 1916.68 342.94 1916.50
  C 359.50 1911.72 376.78 1912.36 391.68 1921.53
  Q 392.14 1921.80 392.17 1921.27
  Q 392.72 1912.03 392.10 1904.94
  C 388.05 1858.91 389.21 1824.44 391.33 1768.24
  C 392.24 1744.14 396.05 1721.57 401.30 1696.02
  Q 406.68 1669.81 405.74 1639.98
  C 405.26 1624.70 403.00 1607.84 401.37 1591.89
  C 399.42 1572.80 398.70 1554.75 399.11 1535.56
  C 400.82 1455.27 404.34 1394.84 409.50 1297.75
  Q 413.37 1225.05 414.30 1152.28
  Q 414.31 1151.77 413.82 1151.64
  C 389.37 1144.66 367.18 1131.77 344.60 1120.37
  Q 318.07 1106.98 289.27 1099.72
  Q 287.88 1099.36 285.79 1099.23
  Q 285.15 1099.18 285.78 1099.05"
/>
<path stroke="#808080" vector-effect="non-scaling-stroke" d="
  M 215.51 1145.04
  C 222.66 1149.14 231.76 1154.35 236.72 1161.03
  C 240.50 1166.13 241.06 1173.09 244.63 1178.22
  C 246.47 1180.87 251.41 1187.10 254.96 1187.26
  A 1.47 1.47 0.0 0 0 256.43 1185.36
  C 254.24 1178.32 251.24 1171.31 248.80 1164.42
  C 247.14 1159.73 243.85 1154.73 242.28 1150.45
  Q 239.46 1142.75 235.32 1126.94
  C 232.31 1115.45 228.82 1109.06 220.08 1100.50
  C 212.06 1092.65 203.02 1085.40 198.03 1074.73
  Q 197.80 1074.23 197.32 1074.51
  C 183.93 1082.37 171.82 1083.27 156.54 1082.00
  Q 155.99 1081.96 156.07 1082.51
  C 157.89 1096.12 163.41 1109.23 166.61 1122.62
  Q 170.15 1137.44 173.80 1152.23
  Q 175.48 1159.02 180.10 1165.40
  C 185.61 1173.03 196.80 1191.60 205.58 1193.09
  Q 206.10 1193.18 206.38 1193.63
  C 210.87 1200.89 215.49 1208.09 223.38 1208.40
  Q 223.91 1208.42 224.28 1208.80
  Q 237.55 1222.50 251.94 1235.04
  A 0.62 0.62 0.0 0 0 252.94 1234.40
  C 250.79 1227.14 246.30 1221.58 242.20 1215.40
  Q 241.72 1214.68 242.56 1214.92
  L 253.79 1218.20
  A 0.46 0.45 -8.4 0 0 254.30 1217.52
  Q 250.31 1211.43 243.77 1208.10
  Q 243.34 1207.88 243.33 1207.40
  Q 243.18 1200.57 237.33 1197.19
  Q 234.15 1195.36 226.57 1188.16
  Q 226.24 1187.84 226.12 1187.39
  L 215.13 1145.33
  Q 214.97 1144.73 215.51 1145.04"
/>
<path stroke="#808080" vector-effect="non-scaling-stroke" d="
  M 602.20 1215.34
  C 598.12 1221.72 593.57 1227.08 591.37 1234.65
  A 0.42 0.42 0.0 0 0 592.07 1235.06
  C 592.52 1234.59 593.42 1234.28 593.90 1233.85
  Q 607.28 1221.98 619.79 1209.11
  Q 620.15 1208.73 620.67 1208.69
  C 629.43 1208.01 633.45 1200.40 638.06 1193.84
  Q 638.35 1193.43 638.83 1193.30
  Q 644.34 1191.85 648.16 1186.90
  Q 657.75 1174.47 663.81 1166.07
  C 667.58 1160.86 669.73 1156.46 671.14 1150.58
  C 675.44 1132.75 678.88 1116.29 684.96 1097.47
  C 686.76 1091.93 687.68 1086.81 688.58 1081.22
  A 0.62 0.61 87.2 0 0 687.82 1080.53
  Q 666.16 1086.21 645.74 1077.42
  Q 645.30 1077.23 645.04 1077.64
  C 634.29 1095.36 615.21 1102.59 609.67 1124.42
  C 606.69 1136.16 603.67 1147.51 598.24 1158.39
  C 594.14 1166.62 591.86 1175.78 588.06 1184.35
  A 1.92 1.92 0.0 0 0 589.98 1187.04
  C 595.58 1186.55 602.33 1174.41 603.93 1169.45
  C 605.69 1164.00 607.36 1160.33 611.08 1157.07
  Q 618.22 1150.83 628.88 1145.21
  Q 629.40 1144.93 629.25 1145.50
  L 618.14 1187.74
  Q 618.00 1188.30 617.56 1188.66
  Q 614.36 1191.33 604.55 1199.06
  Q 601.00 1201.87 601.31 1206.93
  Q 601.34 1207.45 600.91 1207.74
  C 596.90 1210.36 592.07 1213.21 590.20 1217.89
  Q 589.98 1218.43 590.54 1218.26
  L 601.86 1214.89
  Q 602.63 1214.66 602.20 1215.34"
/>
<path stroke="#808080" vector-effect="non-scaling-stroke" d="
  M 389.89 2007.95
  C 387.11 1980.72 388.67 1957.94 391.46 1928.80
  Q 391.51 1928.28 391.10 1927.96
  C 377.08 1917.24 357.81 1917.09 341.66 1922.63
  Q 340.92 1922.89 340.72 1923.65
  C 333.74 1951.16 318.67 1968.88 300.06 1989.30
  C 297.56 1992.04 295.07 1995.56 295.28 1999.57
  C 297.57 2042.07 349.58 2031.84 374.04 2021.59
  C 378.51 2019.71 390.49 2013.82 389.89 2007.95"
/>
<path stroke="#808080" vector-effect="non-scaling-stroke" d="
  M 454.40 1975.29
  C 454.65 1987.09 453.36 1999.16 452.20 2011.11
  Q 452.15 2011.61 452.39 2012.06
  C 461.31 2028.87 495.76 2033.12 512.31 2032.40
  C 532.09 2031.55 546.71 2023.22 552.46 2003.29
  Q 553.53 1999.57 550.72 1996.79
  C 528.57 1974.86 510.46 1955.51 501.44 1924.42
  A 1.15 1.12 3.6 0 0 500.78 1923.69
  C 485.33 1917.32 465.65 1916.77 451.18 1926.23
  Q 450.75 1926.51 450.81 1927.02
  Q 453.91 1951.09 454.40 1975.29"
/>
<path stroke="#808080" vector-effect="non-scaling-stroke" d="
  M 503.49 2037.79
  C 486.87 2037.23 464.65 2032.65 452.30 2020.73
  Q 451.74 2020.18 451.70 2020.97
  C 450.68 2045.89 501.20 2050.02 517.15 2049.01
  C 538.39 2047.66 557.32 2033.36 556.17 2010.27
  Q 556.13 2009.54 555.82 2010.21
  C 545.31 2033.44 526.86 2038.59 503.49 2037.79"
/>
<path stroke="#808080" vector-effect="non-scaling-stroke" d="
  M 293.97 2016.00
  C 293.46 2015.01 293.21 2013.77 292.70 2012.64
  Q 292.33 2011.81 292.28 2012.72
  C 291.09 2036.74 308.51 2047.88 330.50 2047.24
  Q 346.23 2046.78 361.35 2042.47
  C 369.46 2040.16 384.48 2034.49 389.22 2027.20
  Q 391.49 2023.71 390.26 2018.50
  Q 390.18 2018.15 389.90 2018.37
  C 372.88 2031.73 346.09 2036.63 325.20 2035.65
  Q 303.58 2034.63 293.97 2016.00"
/>
<path stroke="#808080" vector-effect="non-scaling-stroke" d="
  M 344.45 241.63
  C 357.88 227.61 386.90 233.57 402.87 239.77
  A 0.72 0.72 0.0 0 0 403.85 239.06
  C 403.34 230.49 393.43 227.08 386.26 226.19
  C 371.51 224.37 353.44 228.83 344.20 241.42
  Q 342.74 243.41 344.45 241.63"
/>
<path stroke="#808080" vector-effect="non-scaling-stroke" d="
  M 478.92 233.34
  C 486.30 233.69 492.11 236.17 497.81 240.90
  Q 498.61 241.57 497.97 240.74
  C 487.79 227.62 468.78 223.82 453.08 226.93
  C 446.88 228.16 441.15 230.93 438.98 237.38
  Q 437.81 240.89 441.22 239.47
  Q 458.40 232.36 478.92 233.34"
/>
<path stroke="#808080" vector-effect="non-scaling-stroke" d="
  M 413.15 264.41
  C 410.61 260.51 407.08 256.71 403.70 253.58
  Q 402.84 252.78 403.56 253.72
  C 409.98 262.00 410.70 274.15 409.74 283.97
  Q 409.65 284.92 409.86 283.99
  Q 411.92 274.73 413.36 265.36
  Q 413.43 264.85 413.15 264.41"
/>
<path stroke="#808080" vector-effect="non-scaling-stroke" d="
  M 460.39 260.58
  L 462.96 267.24
  Q 463.20 267.85 463.85 267.82
  L 479.29 267.26
  Q 480.00 267.24 480.31 266.61
  L 482.90 261.34
  Q 483.06 261.02 483.40 261.10
  Q 490.12 262.60 494.21 268.09
  Q 494.65 268.69 494.48 267.97
  C 489.21 245.38 457.25 255.93 444.64 262.99
  Q 443.46 263.65 444.76 263.25
  Q 452.11 261.02 459.76 260.20
  Q 460.22 260.15 460.39 260.58"
/>
<path stroke="#808080" vector-effect="non-scaling-stroke" d="
  M 360.11 261.78
  L 362.64 266.99
  A 1.18 1.18 0.0 0 0 363.67 267.66
  L 379.07 268.00
  Q 379.69 268.02 379.92 267.43
  L 382.59 260.66
  Q 382.76 260.22 383.23 260.28
  Q 391.21 261.29 398.94 263.48
  Q 399.80 263.73 399.02 263.30
  Q 389.32 258.00 378.59 255.61
  C 366.16 252.84 352.89 254.55 348.38 268.36
  Q 348.06 269.34 348.69 268.53
  Q 352.87 263.14 359.54 261.51
  Q 359.93 261.42 360.11 261.78"
/>
<path stroke="#808080" vector-effect="non-scaling-stroke" d="
  M 443.76 318.83
  C 431.57 323.14 418.11 323.42 405.78 319.43
  Q 405.19 319.24 405.65 319.66
  C 410.57 324.20 418.95 329.69 425.94 328.51
  C 432.35 327.43 439.02 322.73 443.84 318.98
  Q 444.25 318.66 443.76 318.83"
/>
<path stroke="#ff8080" vector-effect="non-scaling-stroke" d="
  M 460.29 342.50
  L 444.00 343.79"
/>
<path stroke="#808080" vector-effect="non-scaling-stroke" d="
  M 444.00 343.79
  Q 434.36 343.08 425.01 345.23
  C 421.99 345.92 417.17 343.93 413.98 343.85
  Q 406.72 343.66 399.50 344.54"
/>
<path stroke="#ff8080" vector-effect="non-scaling-stroke" d="
  M 399.50 344.54
  L 388.50 344.29"
/>
<path stroke="#808080" vector-effect="non-scaling-stroke" d="
  M 388.50 344.29
  L 382.40 343.05
  Q 381.78 342.92 382.18 342.43
  L 384.98 339.00
  Q 385.38 338.52 384.86 338.17
  L 384.01 337.60
  Q 383.50 337.26 383.11 337.74
  L 377.04 345.25
  Q 376.67 345.71 377.17 346.04
  L 378.15 346.69
  Q 378.58 346.97 378.91 346.58
  L 381.33 343.69
  Q 381.72 343.22 382.25 343.54
  C 396.76 352.61 415.88 360.02 433.01 356.27
  Q 448.26 352.94 463.32 342.67
  Q 463.86 342.30 464.27 342.82
  L 467.22 346.59
  Q 467.57 347.04 468.04 346.73
  L 469.00 346.09
  Q 469.56 345.73 469.14 345.21
  L 463.05 337.58
  Q 462.64 337.07 462.16 337.51
  L 461.35 338.26
  Q 460.91 338.66 461.29 339.12
  L 462.93 341.13
  Q 463.41 341.71 462.68 341.89
  L 460.29 342.50"
/>
<path stroke="#800000" vector-effect="non-scaling-stroke" d="
  M 388.50 344.29
  Q 393.75 345.95 399.25 346.21"
/>
<path stroke="#808080" vector-effect="non-scaling-stroke" d="
  M 399.25 346.21
  L 417.25 347.79"
/>
<path stroke="#800000" vector-effect="non-scaling-stroke" d="
  M 417.25 347.79
  L 416.75 348.54"
/>
<path stroke="#808080" vector-effect="non-scaling-stroke" d="
  M 416.75 348.54
  L 397.51 347.02
  A 0.26 0.26 0.0 0 0 397.38 347.51
  C 414.74 355.39 430.39 357.38 447.54 347.31
  Q 448.10 346.98 447.45 347.03
  L 430.25 348.46"
/>
<path stroke="#800000" vector-effect="non-scaling-stroke" d="
  M 430.25 348.46
  L 430.50 347.79"
/>
<path stroke="#808080" vector-effect="non-scaling-stroke" d="
  M 430.50 347.79
  Q 443.37 347.15 456.03 344.44"
/>
<path stroke="#800000" vector-effect="non-scaling-stroke" d="
  M 456.03 344.44
  Q 458.73 344.51 460.29 342.50"
/>
<path stroke="#ff8080" vector-effect="non-scaling-stroke" d="
  M 416.75 348.54
  Q 423.51 349.63 430.25 348.46"
/>
<path stroke="#ff8080" vector-effect="non-scaling-stroke" d="
  M 456.03 344.44
  Q 454.01 343.28 451.01 344.29
  Q 448.28 345.20 444.00 344.21"
/>
<path stroke="#800000" vector-effect="non-scaling-stroke" d="
  M 444.00 344.21
  L 444.00 343.79"
/>
<path stroke="#ff8080" vector-effect="non-scaling-stroke" d="
  M 430.50 347.79
  L 417.25 347.79"
/>
<path stroke="#ff8080" vector-effect="non-scaling-stroke" d="
  M 399.25 346.21
  L 400.00 345.21"
/>
<path stroke="#808080" vector-effect="non-scaling-stroke" d="
  M 444.00 344.21
  C 438.86 344.20 433.76 343.86 428.72 345.33
  Q 423.48 346.85 418.22 345.35
  C 412.49 343.72 405.82 344.48 400.00 345.21"
/>
<path stroke="#800000" vector-effect="non-scaling-stroke" d="
  M 400.00 345.21
  L 399.50 344.54"
/>
<path stroke="#808080" vector-effect="non-scaling-stroke" d="
  M 439.46 362.20
  C 421.90 371.28 405.96 364.26 392.57 351.88
  Q 392.25 351.59 392.26 352.02
  Q 392.26 352.22 392.40 352.36
  C 398.21 358.13 418.37 373.69 426.85 370.42
  Q 442.89 364.22 454.25 351.12
  Q 455.93 349.18 454.06 350.95
  Q 445.37 359.15 439.46 362.20"
/>
<path stroke="#ff8080" vector-effect="non-scaling-stroke" d="
  M 274.9321 592.4349
  A 4.34 4.34 0.0 0 0 270.6378 588.0497
  L 261.1983 587.9508
  A 4.34 4.34 0.0 0 0 256.8131 592.2451
  L 256.8079 592.7451
  A 4.34 4.34 0.0 0 0 261.1022 597.1303
  L 270.5417 597.2292
  A 4.34 4.34 0.0 0 0 274.9269 592.9349
  L 274.9321 592.4349"
/>
<path stroke="#ff8080" vector-effect="non-scaling-stroke" d="
  M 311.6881 592.2768
  A 4.31 4.31 0.0 0 0 307.3481 587.9970
  L 297.8684 588.0632
  A 4.31 4.31 0.0 0 0 293.5885 592.4032
  L 293.5919 592.8832
  A 4.31 4.31 0.0 0 0 297.9319 597.1630
  L 307.4116 597.0968
  A 4.31 4.31 0.0 0 0 311.6915 592.7568
  L 311.6881 592.2768"
/>
<path stroke="#ff8080" vector-effect="non-scaling-stroke" d="
  M 348.4604 592.3458
  A 4.30 4.30 0.0 0 0 344.1679 588.0383
  L 334.6679 588.0217
  A 4.30 4.30 0.0 0 0 330.3605 592.3142
  L 330.3596 592.8142
  A 4.30 4.30 0.0 0 0 334.6521 597.1217
  L 344.1521 597.1383
  A 4.30 4.30 0.0 0 0 348.4595 592.8458
  L 348.4604 592.3458"
/>
<path stroke="#ff8080" vector-effect="non-scaling-stroke" d="
  M 385.2291 592.2987
  A 4.34 4.34 0.0 0 0 380.8739 587.9738
  L 371.5940 588.0062
  A 4.34 4.34 0.0 0 0 367.2692 592.3613
  L 367.2709 592.8613
  A 4.34 4.34 0.0 0 0 371.6261 597.1862
  L 380.9060 597.1538
  A 4.34 4.34 0.0 0 0 385.2308 592.7987
  L 385.2291 592.2987"
/>
<path stroke="#ff8080" vector-effect="non-scaling-stroke" d="
  M 422.1586 592.2826
  A 4.31 4.31 0.0 0 0 417.8261 587.9952
  L 408.3462 588.0449
  A 4.31 4.31 0.0 0 0 404.0589 592.3774
  L 404.0614 592.8574
  A 4.31 4.31 0.0 0 0 408.3939 597.1448
  L 417.8738 597.0951
  A 4.31 4.31 0.0 0 0 422.1611 592.7626
  L 422.1586 592.2826"
/>
<path stroke="#ff8080" vector-effect="non-scaling-stroke" d="
  M 458.9118 592.4191
  A 4.34 4.34 0.0 0 0 454.6099 588.0414
  L 445.1702 587.9590
  A 4.34 4.34 0.0 0 0 440.7925 592.2609
  L 440.7882 592.7609
  A 4.34 4.34 0.0 0 0 445.0901 597.1386
  L 454.5298 597.2210
  A 4.34 4.34 0.0 0 0 458.9075 592.9191
  L 458.9118 592.4191"
/>
<path stroke="#ff8080" vector-effect="non-scaling-stroke" d="
  M 495.6781 592.2768
  A 4.31 4.31 0.0 0 0 491.3381 587.9970
  L 481.8584 588.0632
  A 4.31 4.31 0.0 0 0 477.5785 592.4032
  L 477.5819 592.8832
  A 4.31 4.31 0.0 0 0 481.9219 597.1630
  L 491.4016 597.0968
  A 4.31 4.31 0.0 0 0 495.6815 592.7568
  L 495.6781 592.2768"
/>
<path stroke="#ff8080" vector-effect="non-scaling-stroke" d="
  M 532.4504 592.3458
  A 4.30 4.30 0.0 0 0 528.1579 588.0383
  L 518.6579 588.0217
  A 4.30 4.30 0.0 0 0 514.3505 592.3142
  L 514.3496 592.8142
  A 4.30 4.30 0.0 0 0 518.6421 597.1217
  L 528.1421 597.1383
  A 4.30 4.30 0.0 0 0 532.4495 592.8458
  L 532.4504 592.3458"
/>
<path stroke="#ff8080" vector-effect="non-scaling-stroke" d="
  M 569.2285 592.2630
  A 4.32 4.32 0.0 0 0 564.8860 587.9657
  L 555.5661 588.0145
  A 4.32 4.32 0.0 0 0 551.2688 592.3570
  L 551.2715 592.8770
  A 4.32 4.32 0.0 0 0 555.6140 597.1743
  L 564.9339 597.1255
  A 4.32 4.32 0.0 0 0 569.2312 592.7830
  L 569.2285 592.2630"
/>
<path stroke="#808080" vector-effect="non-scaling-stroke" d="
  M 417.50 661.02
  C 457.79 659.73 492.12 660.69 529.45 661.47
  Q 532.99 661.54 529.48 661.16
  C 525.37 660.72 519.83 660.64 517.10 660.42
  Q 490.96 658.28 464.82 656.16
  C 437.79 653.98 410.87 653.95 383.85 656.08
  C 357.51 658.15 331.12 661.19 304.64 661.60
  Q 304.53 661.60 304.51 661.70
  Q 304.48 661.80 304.54 661.95
  Q 304.56 662.02 304.63 662.02
  Q 361.08 662.84 417.50 661.02"
/>
<path stroke="#808080" vector-effect="non-scaling-stroke" d="
  M 335.18 669.81
  C 358.30 669.13 382.60 672.13 405.60 674.54
  C 421.05 676.15 436.49 677.02 452.25 677.66
  Q 485.49 679.01 518.71 681.07
  Q 519.17 681.10 518.72 681.01
  Q 515.11 680.26 511.47 679.67
  C 458.85 671.12 405.34 666.44 352.00 667.84
  Q 343.71 668.06 335.14 669.27
  A 0.27 0.27 0.0 0 0 335.18 669.81"
/>
<path stroke="#ff8080" vector-effect="non-scaling-stroke" d="
  M 307.16 854.02
  A 4.25 4.25 0.0 0 0 302.91 849.77
  L 293.25 849.77
  A 4.25 4.25 0.0 0 0 289.00 854.02
  L 289.00 854.48
  A 4.25 4.25 0.0 0 0 293.25 858.73
  L 302.91 858.73
  A 4.25 4.25 0.0 0 0 307.16 854.48
  L 307.16 854.02"
/>
<path stroke="#ff8080" vector-effect="non-scaling-stroke" d="
  M 343.9415 854.0835
  A 4.26 4.26 0.0 0 0 339.7113 849.7938
  L 330.0515 849.7264
  A 4.26 4.26 0.0 0 0 325.7619 853.9565
  L 325.7585 854.4365
  A 4.26 4.26 0.0 0 0 329.9887 858.7262
  L 339.6485 858.7936
  A 4.26 4.26 0.0 0 0 343.9381 854.5635
  L 343.9415 854.0835"
/>
<path stroke="#ff8080" vector-effect="non-scaling-stroke" d="
  M 380.6915 854.0834
  A 4.26 4.26 0.0 0 0 376.4613 849.7938
  L 366.8215 849.7265
  A 4.26 4.26 0.0 0 0 362.5319 853.9566
  L 362.5285 854.4366
  A 4.26 4.26 0.0 0 0 366.7587 858.7262
  L 376.3985 858.7935
  A 4.26 4.26 0.0 0 0 380.6881 854.5634
  L 380.6915 854.0834"
/>
<path stroke="#ff8080" vector-effect="non-scaling-stroke" d="
  M 417.4614 854.0834
  A 4.26 4.26 0.0 0 0 413.2312 849.7938
  L 403.5915 849.7265
  A 4.26 4.26 0.0 0 0 399.3018 853.9566
  L 399.2986 854.4166
  A 4.26 4.26 0.0 0 0 403.5288 858.7062
  L 413.1685 858.7735
  A 4.26 4.26 0.0 0 0 417.4582 854.5434
  L 417.4614 854.0834"
/>
<path stroke="#ff8080" vector-effect="non-scaling-stroke" d="
  M 454.23 854.02
  A 4.25 4.25 0.0 0 0 449.98 849.77
  L 440.32 849.77
  A 4.25 4.25 0.0 0 0 436.07 854.02
  L 436.07 854.48
  A 4.25 4.25 0.0 0 0 440.32 858.73
  L 449.98 858.73
  A 4.25 4.25 0.0 0 0 454.23 854.48
  L 454.23 854.02"
/>
<path stroke="#ff8080" vector-effect="non-scaling-stroke" d="
  M 491.1304 854.0560
  A 4.24 4.24 0.0 0 0 486.8978 849.8086
  L 477.0978 849.7915
  A 4.24 4.24 0.0 0 0 472.8504 854.0240
  L 472.8496 854.4440
  A 4.24 4.24 0.0 0 0 477.0822 858.6914
  L 486.8822 858.7085
  A 4.24 4.24 0.0 0 0 491.1296 854.4760
  L 491.1304 854.0560"
/>
<path stroke="#ff8080" vector-effect="non-scaling-stroke" d="
  M 527.92 854.03
  A 4.27 4.27 0.0 0 0 523.65 849.76
  L 514.01 849.76
  A 4.27 4.27 0.0 0 0 509.74 854.03
  L 509.74 854.47
  A 4.27 4.27 0.0 0 0 514.01 858.74
  L 523.65 858.74
  A 4.27 4.27 0.0 0 0 527.92 854.47
  L 527.92 854.03"
/>
<path stroke="#ff8080" vector-effect="non-scaling-stroke" d="
  M 556.02 854.27
  A 4.73 4.73 0.0 0 0 551.29 849.54
  A 4.73 4.73 0.0 0 0 546.56 854.27
  A 4.73 4.73 0.0 0 0 551.29 859.00
  A 4.73 4.73 0.0 0 0 556.02 854.27"
/>
<path stroke="#ff8080" vector-effect="non-scaling-stroke" d="
  M 399.4408 972.9617
  A 4.31 4.31 0.0 0 0 395.1459 968.6366
  L 385.6259 968.6034
  A 4.31 4.31 0.0 0 0 381.3009 972.8983
  L 381.2992 973.3983
  A 4.31 4.31 0.0 0 0 385.5941 977.7234
  L 395.1141 977.7566
  A 4.31 4.31 0.0 0 0 399.4391 973.4617
  L 399.4408 972.9617"
/>
<path stroke="#ff8080" vector-effect="non-scaling-stroke" d="
  M 436.1995 972.9142
  A 4.31 4.31 0.0 0 0 431.8820 968.6117
  L 422.3820 968.6283
  A 4.31 4.31 0.0 0 0 418.0796 972.9458
  L 418.0805 973.4458
  A 4.31 4.31 0.0 0 0 422.3980 977.7483
  L 431.8980 977.7317
  A 4.31 4.31 0.0 0 0 436.2004 973.4142
  L 436.1995 972.9142"
/>
<path stroke="#ff8080" vector-effect="non-scaling-stroke" d="
  M 289.01 973.02
  A 4.26 4.26 0.0 0 0 284.75 968.76
  L 275.11 968.76
  A 4.26 4.26 0.0 0 0 270.85 973.02
  L 270.85 973.46
  A 4.26 4.26 0.0 0 0 275.11 977.72
  L 284.75 977.72
  A 4.26 4.26 0.0 0 0 289.01 973.46
  L 289.01 973.02"
/>
<path stroke="#ff8080" vector-effect="non-scaling-stroke" d="
  M 325.9096 972.9842
  A 4.24 4.24 0.0 0 0 321.6622 968.7516
  L 311.9822 968.7685
  A 4.24 4.24 0.0 0 0 307.7496 973.0158
  L 307.7504 973.4958
  A 4.24 4.24 0.0 0 0 311.9978 977.7284
  L 321.6778 977.7115
  A 4.24 4.24 0.0 0 0 325.9104 973.4642
  L 325.9096 972.9842"
/>
<path stroke="#ff8080" vector-effect="non-scaling-stroke" d="
  M 362.69 973.02
  A 4.26 4.26 0.0 0 0 358.43 968.76
  L 348.77 968.76
  A 4.26 4.26 0.0 0 0 344.51 973.02
  L 344.51 973.46
  A 4.26 4.26 0.0 0 0 348.77 977.72
  L 358.43 977.72
  A 4.26 4.26 0.0 0 0 362.69 973.46
  L 362.69 973.02"
/>
<path stroke="#ff8080" vector-effect="non-scaling-stroke" d="
  M 473.0004 973.0358
  A 4.26 4.26 0.0 0 0 468.7478 968.7684
  L 459.1278 968.7516
  A 4.26 4.26 0.0 0 0 454.8604 973.0042
  L 454.8596 973.4442
  A 4.26 4.26 0.0 0 0 459.1122 977.7116
  L 468.7322 977.7284
  A 4.26 4.26 0.0 0 0 472.9996 973.4758
  L 473.0004 973.0358"
/>
<path stroke="#ff8080" vector-effect="non-scaling-stroke" d="
  M 509.89 973.03
  A 4.24 4.24 0.0 0 0 505.65 968.79
  L 495.85 968.79
  A 4.24 4.24 0.0 0 0 491.61 973.03
  L 491.61 973.45
  A 4.24 4.24 0.0 0 0 495.85 977.69
  L 505.65 977.69
  A 4.24 4.24 0.0 0 0 509.89 973.45
  L 509.89 973.03"
/>
<path stroke="#ff8080" vector-effect="non-scaling-stroke" d="
  M 546.68 973.02
  A 4.26 4.26 0.0 0 0 542.42 968.76
  L 532.76 968.76
  A 4.26 4.26 0.0 0 0 528.50 973.02
  L 528.50 973.46
  A 4.26 4.26 0.0 0 0 532.76 977.72
  L 542.42 977.72
  A 4.26 4.26 0.0 0 0 546.68 973.46
  L 546.68 973.02"
/>
<path stroke="#808080" vector-effect="non-scaling-stroke" d="
  M 490.59 1119.54
  C 446.48 1132.45 401.07 1133.19 358.53 1114.73
  Q 357.50 1114.28 358.50 1114.80
  C 387.95 1130.01 419.41 1136.18 452.25 1130.00
  Q 472.38 1126.21 490.62 1119.65
  A 0.06 0.06 0.0 0 0 490.59 1119.54"
/>
</g>
<path fill="#ff0000" d="
  M 470.51 78.38
  L 410.25 78.29
  L 394.25 78.29
  L 389.78 78.49
  L 383.00 78.29
  L 381.03 78.28
  L 48.91 78.26
  A 0.39 0.39 0.0 0 0 48.53 78.72
  C 50.07 86.29 38.83 87.33 39.51 78.79
  Q 39.55 78.25 39.01 78.25
  L 23.16 78.25
  A 0.65 0.64 -90.0 0 1 22.52 77.60
  L 22.52 76.27
  Q 22.51 75.50 23.29 75.50
  L 39.01 75.50
  Q 39.53 75.50 39.51 74.98
  C 39.28 68.72 48.42 68.13 48.67 74.94
  Q 48.69 75.49 49.24 75.49
  L 392.00 75.45
  L 395.00 75.21
  C 415.12 75.68 435.20 75.39 455.32 75.41
  Q 666.00 75.59 876.74 75.47
  Q 877.28 75.47 877.32 74.93
  Q 879.23 49.23 897.65 33.85
  C 931.44 5.64 984.98 26.39 989.11 71.27
  C 992.36 106.55 963.26 135.78 927.92 132.50
  C 899.90 129.90 879.04 107.06 877.48 78.89
  Q 877.44 78.25 876.80 78.25
  L 472.77 78.25
  Q 472.33 78.25 471.93 78.41
  Q 471.24 78.68 470.51 78.38
  Z
  M 980.16 76.82
  A 46.76 46.76 0.0 0 0 933.40 30.06
  A 46.76 46.76 0.0 0 0 886.64 76.82
  A 46.76 46.76 0.0 0 0 933.40 123.58
  A 46.76 46.76 0.0 0 0 980.16 76.82
  Z"
/>
<path fill="#000000" d="
  M 934.28 91.75
  L 910.97 91.75
  A 0.72 0.72 0.0 0 1 910.25 91.03
  L 910.25 85.65
  A 0.72 0.72 0.0 0 1 910.38 85.23
  L 936.02 48.90
  A 0.72 0.72 0.0 0 1 936.59 48.60
  L 941.26 48.47
  A 0.72 0.72 0.0 0 1 942.00 49.19
  L 942.00 84.59
  A 0.72 0.72 0.0 0 0 942.72 85.31
  L 949.03 85.31
  A 0.72 0.72 0.0 0 1 949.75 86.03
  L 949.75 91.03
  A 0.72 0.72 0.0 0 1 949.03 91.75
  L 942.72 91.75
  A 0.72 0.72 0.0 0 0 942.00 92.47
  L 942.00 104.81
  A 0.72 0.72 0.0 0 1 941.27 105.53
  L 935.71 105.41
  A 0.72 0.72 0.0 0 1 935.00 104.69
  L 935.00 92.47
  A 0.72 0.72 0.0 0 0 934.28 91.75
  Z
  M 917.65 84.72
  A 0.35 0.35 0.0 0 0 917.93 85.26
  L 934.64 85.39
  A 0.35 0.35 0.0 0 0 934.99 85.04
  L 935.03 60.83
  A 0.35 0.35 0.0 0 0 934.39 60.63
  L 917.65 84.72
  Z"
/>
<path fill="#000000" d="
  M 395.00 75.21
  L 392.00 75.45
  Q 394.92 69.51 396.17 63.54
  Q 396.43 62.28 396.47 63.56
  Q 396.64 69.49 395.00 75.21
  Z"
/>
<path fill="#000000" d="
  M 381.03 78.28
  L 383.00 78.29
  L 375.60 90.46
  A 0.40 0.40 0.0 0 0 376.14 91.01
  Q 384.40 86.11 389.78 78.49
  L 394.25 78.29
  L 391.26 84.77
  Q 390.85 85.66 391.70 85.18
  Q 400.57 80.20 410.67 78.89
  Q 411.30 78.81 410.73 78.53
  L 410.25 78.29
  L 470.51 78.38
  C 459.02 82.26 444.99 83.03 432.79 84.36
  Q 432.07 84.44 432.77 84.63
  Q 434.22 85.04 435.23 84.98
  C 478.56 82.42 517.07 103.88 531.59 145.98
  Q 536.70 160.81 538.29 179.45
  Q 538.56 182.66 538.38 184.27
  Q 538.24 185.56 538.13 184.27
  C 534.95 146.86 511.85 117.91 477.71 103.54
  Q 476.02 102.83 477.55 103.84
  C 486.17 109.51 493.98 113.96 504.37 122.65
  Q 521.10 136.65 529.72 156.74
  C 529.80 156.92 530.14 157.27 529.98 157.52
  Q 529.80 157.81 529.66 157.50
  Q 520.51 138.15 502.89 125.97
  Q 501.35 124.91 502.61 126.29
  C 522.29 147.86 533.65 168.73 533.18 198.92
  Q 533.17 199.78 532.81 200.13
  Q 532.46 200.48 532.45 199.98
  Q 532.15 177.84 520.24 159.32
  Q 520.17 159.21 520.07 159.30
  Q 519.98 159.40 519.89 159.49
  Q 519.85 159.53 519.87 159.58
  Q 528.01 177.87 530.49 197.76
  C 530.87 200.82 531.95 203.88 532.00 207.13
  C 532.17 219.58 532.11 233.11 528.00 245.34
  Q 527.21 247.68 527.65 245.25
  L 529.58 234.50
  Q 529.66 234.02 529.17 234.00
  C 528.87 233.98 528.70 234.05 528.65 234.36
  Q 527.15 243.61 523.08 252.07
  Q 522.81 252.62 523.42 252.69
  C 529.34 253.37 535.42 253.85 538.24 259.99
  C 540.45 264.80 541.36 272.47 541.28 278.21
  Q 540.88 306.19 521.49 326.50
  C 517.72 330.45 511.36 330.18 505.24 329.95
  Q 504.70 329.92 504.53 330.44
  C 499.13 346.84 490.82 358.84 480.44 373.94
  Q 480.10 374.42 480.06 375.69
  Q 479.59 392.26 481.95 408.65
  C 482.61 413.25 486.75 415.97 489.77 417.76
  Q 514.37 432.27 541.68 443.84
  C 551.06 447.81 559.62 449.65 570.08 451.14
  C 583.03 452.98 593.74 455.60 606.56 459.96
  C 626.34 466.69 635.17 482.14 640.27 501.42
  Q 645.31 520.45 647.40 540.07
  C 654.83 609.80 668.90 678.59 683.90 747.02
  Q 688.12 766.23 694.05 784.98
  C 696.91 794.03 696.04 806.68 697.74 817.27
  C 702.42 846.27 706.70 875.04 705.75 904.52
  Q 705.52 911.63 704.16 924.44
  C 698.90 973.96 698.50 1028.11 695.03 1073.25
  C 694.01 1086.54 690.16 1098.87 686.29 1111.52
  C 681.82 1126.12 678.71 1142.63 675.43 1155.18
  Q 674.08 1160.35 670.39 1165.69
  Q 661.83 1178.14 652.61 1190.09
  Q 648.40 1195.56 642.02 1198.03
  Q 641.55 1198.21 641.26 1198.63
  C 636.17 1206.03 631.86 1212.20 623.44 1213.69
  Q 622.95 1213.78 622.59 1214.13
  C 613.70 1222.83 604.77 1232.06 594.93 1239.66
  C 592.95 1241.20 590.00 1242.29 587.78 1240.66
  C 583.56 1237.57 587.77 1227.64 589.99 1224.34
  A 0.53 0.53 0.0 0 0 589.51 1223.51
  C 585.60 1223.86 583.60 1221.31 584.64 1217.59
  C 586.53 1210.83 590.93 1208.83 595.68 1204.47
  Q 596.06 1204.13 596.14 1203.63
  C 597.49 1195.37 607.51 1190.44 612.91 1185.44
  Q 613.29 1185.08 613.43 1184.57
  L 620.66 1157.45
  A 0.45 0.45 0.0 0 0 619.99 1156.95
  C 615.04 1159.86 611.27 1163.61 609.64 1169.29
  C 607.47 1176.87 598.64 1193.25 588.89 1192.51
  C 581.26 1191.94 582.50 1183.54 584.71 1178.41
  C 587.83 1171.20 589.63 1163.33 593.25 1156.47
  C 597.95 1147.56 600.38 1138.96 603.96 1125.19
  Q 606.94 1113.72 613.00 1105.12
  C 617.70 1098.44 626.38 1091.15 633.04 1084.54
  C 644.48 1073.19 646.03 1058.72 645.30 1042.00
  Q 643.57 1002.99 636.83 964.57
  C 634.49 951.28 631.09 936.64 628.02 922.70
  C 621.01 890.81 621.04 862.65 621.87 825.99
  C 622.22 810.32 621.09 795.29 617.44 781.56
  Q 600.48 717.68 581.69 654.46
  A 0.23 0.23 0.0 0 0 581.24 654.48
  C 571.43 704.14 564.29 754.39 562.13 804.93
  C 560.62 840.09 561.77 874.79 568.80 908.03
  Q 575.34 938.89 578.96 970.25
  Q 576.55 968.48 573.50 968.46
  Q 570.01 940.78 564.40 913.47
  C 555.97 872.40 554.81 832.26 557.59 790.26
  Q 561.55 730.60 572.54 672.00
  A 0.21 0.20 61.8 0 0 572.15 671.88
  Q 561.59 697.46 549.75 722.26
  Q 549.06 723.69 549.63 722.21
  Q 553.90 711.13 558.06 700.06
  C 577.45 648.42 593.15 593.35 597.41 538.18
  C 597.59 535.82 597.44 533.08 597.54 530.50
  A 0.19 0.18 45.9 0 1 597.91 530.51
  C 598.81 568.27 594.78 604.83 583.49 640.61
  A 2.34 2.32 -44.8 0 0 583.48 641.93
  Q 603.44 708.21 621.24 775.01
  C 625.48 790.94 627.37 805.80 627.22 822.99
  C 627.05 841.82 626.47 861.11 627.42 879.68
  C 628.66 903.79 634.31 926.15 639.16 948.98
  C 645.31 977.93 648.79 1007.51 650.38 1037.06
  C 651.02 1049.06 650.96 1060.28 647.62 1071.70
  Q 647.45 1072.27 648.00 1072.50
  Q 668.03 1080.88 688.89 1074.57
  A 0.86 0.85 -6.4 0 0 689.50 1073.81
  C 693.48 1024.54 693.38 975.13 698.65 925.93
  Q 700.00 913.28 700.28 906.02
  C 701.42 875.81 696.97 846.67 692.30 816.94
  C 690.80 807.39 691.86 796.79 689.11 787.64
  Q 683.45 768.84 680.78 757.24
  Q 670.10 710.87 657.99 647.25
  C 650.45 607.57 646.57 578.61 641.55 535.17
  Q 638.86 511.96 631.24 491.03
  C 625.31 474.73 614.33 467.89 597.75 462.52
  Q 585.13 458.44 575.50 457.24
  C 560.64 455.39 550.61 453.45 538.83 448.38
  Q 522.07 441.19 505.71 432.86
  Q 505.26 432.63 504.79 432.81
  Q 421.67 465.51 338.66 432.63
  Q 338.22 432.45 337.79 432.68
  Q 313.66 445.87 287.65 454.68
  Q 283.84 455.98 279.18 456.46
  C 264.58 457.98 249.14 460.82 235.59 466.63
  C 212.29 476.62 206.71 507.33 203.75 530.00
  C 199.54 562.25 196.46 591.96 190.17 626.53
  Q 178.99 687.99 165.48 749.00
  Q 161.20 768.29 155.34 787.16
  C 153.35 793.55 153.58 800.55 153.11 807.17
  C 152.18 820.43 149.77 832.59 147.52 847.75
  C 143.63 873.96 142.83 898.85 145.60 924.69
  Q 148.94 955.76 150.30 987.00
  C 151.58 1016.45 152.32 1046.19 155.12 1075.54
  Q 155.17 1076.08 155.71 1076.18
  Q 176.82 1080.28 195.05 1069.50
  A 1.33 1.32 69.0 0 0 195.67 1068.09
  Q 193.06 1054.87 193.72 1041.06
  Q 195.57 1002.29 202.23 964.10
  C 204.59 950.61 207.99 935.86 211.08 921.77
  Q 217.69 891.63 217.51 860.74
  C 217.36 832.78 215.13 805.23 222.38 777.92
  Q 239.10 714.96 257.74 652.47
  A 2.32 2.30 43.6 0 0 257.70 651.02
  C 243.62 611.18 238.72 570.33 239.88 528.18
  Q 239.89 527.97 239.98 527.82
  Q 240.13 527.61 240.13 527.86
  C 240.63 559.70 246.95 591.98 255.11 622.68
  Q 268.51 673.09 287.89 721.52
  Q 289.17 724.70 287.69 721.61
  Q 277.75 700.75 268.77 679.59
  Q 268.74 679.51 268.66 679.55
  L 268.38 679.70
  Q 268.28 679.75 268.31 679.86
  Q 278.64 729.27 283.66 779.51
  C 287.48 817.71 288.27 856.09 282.75 894.17
  C 281.09 905.63 278.08 918.94 275.65 931.30
  Q 265.26 984.09 264.36 1038.04
  Q 264.35 1038.58 264.88 1038.67
  Q 288.67 1043.03 312.76 1045.16
  Q 404.56 1053.29 496.44 1046.14
  C 524.18 1043.99 551.81 1040.58 577.85 1033.20
  Q 578.35 1033.06 578.33 1032.54
  Q 577.12 1005.29 574.54 978.25
  Q 577.64 977.67 579.46 975.25
  C 584.05 1017.85 585.63 1065.27 585.24 1107.50
  Q 584.74 1161.68 577.85 1234.57
  Q 571.69 1299.82 560.93 1357.69
  C 557.40 1376.67 552.65 1395.68 548.69 1414.69
  Q 542.35 1445.02 541.29 1476.00
  C 540.26 1506.16 539.37 1532.21 542.22 1559.14
  C 546.15 1596.26 552.43 1635.10 545.80 1672.86
  Q 532.98 1745.84 517.13 1818.23
  C 512.99 1837.14 508.83 1857.70 505.73 1874.75
  C 504.13 1883.57 502.95 1893.55 503.52 1902.53
  C 505.25 1929.98 517.39 1954.30 536.04 1973.72
  Q 543.80 1981.80 551.53 1989.91
  Q 556.61 1995.25 558.35 1998.54
  C 564.15 2009.52 561.46 2023.82 555.01 2034.02
  C 546.58 2047.33 533.74 2053.04 517.83 2054.24
  C 499.05 2055.66 454.25 2050.90 447.22 2028.60
  Q 446.10 2025.05 446.44 2018.31
  C 447.21 2003.31 449.71 1988.13 448.93 1973.15
  C 448.19 1958.98 445.62 1941.67 444.68 1931.07
  Q 442.98 1912.08 446.05 1892.17
  C 448.31 1877.56 448.88 1861.49 448.74 1846.74
  Q 448.46 1814.80 447.25 1775.50
  Q 446.10 1737.92 438.08 1702.44
  C 431.75 1674.44 431.60 1645.29 435.00 1615.89
  C 438.19 1588.41 440.28 1567.13 439.20 1540.75
  C 434.35 1423.06 428.35 1304.45 426.08 1224.44
  Q 425.08 1189.52 424.08 1154.60
  Q 424.06 1154.00 423.46 1154.00
  L 420.21 1154.00
  Q 419.66 1154.00 419.65 1154.56
  C 417.80 1282.95 406.67 1410.12 404.31 1541.51
  C 403.89 1565.42 405.97 1589.55 409.00 1613.25
  Q 413.97 1652.21 407.67 1690.74
  Q 407.43 1692.22 403.78 1710.36
  Q 396.78 1745.19 396.12 1780.81
  C 395.39 1819.55 393.24 1854.53 396.85 1896.45
  C 398.75 1918.44 396.66 1939.57 394.65 1961.43
  C 393.10 1978.35 394.37 1993.95 395.44 2010.93
  Q 396.15 2022.27 396.08 2022.93
  C 395.18 2031.21 387.73 2037.09 380.65 2040.53
  Q 354.30 2053.37 324.28 2052.41
  C 291.80 2051.37 279.78 2021.05 290.57 1993.83
  Q 291.89 1990.51 296.71 1985.19
  Q 305.52 1975.48 313.75 1965.27
  C 333.48 1940.82 342.87 1908.79 337.95 1877.47
  C 333.22 1847.37 326.26 1817.56 319.94 1787.76
  Q 307.90 1731.01 297.94 1673.86
  C 289.59 1625.95 301.52 1578.94 303.21 1531.19
  Q 303.74 1516.01 302.28 1475.50
  Q 301.16 1444.65 294.84 1414.43
  C 289.35 1388.25 283.48 1364.31 278.65 1335.86
  C 270.40 1287.33 265.47 1237.54 262.35 1186.81
  C 258.23 1119.88 255.81 1051.88 261.76 987.75
  Q 264.99 952.97 273.88 912.51
  C 278.17 892.97 280.57 872.72 281.15 853.18
  C 283.00 790.88 273.33 726.46 259.84 665.25
  A 0.17 0.17 0.0 0 0 259.51 665.24
  Q 243.52 719.52 228.90 774.18
  Q 221.96 800.11 222.53 823.93
  Q 223.26 854.82 222.42 878.43
  C 221.62 900.82 216.05 924.56 211.22 947.04
  Q 200.58 996.66 199.05 1045.81
  Q 198.79 1054.10 200.43 1063.73
  C 203.85 1083.72 220.88 1090.28 231.59 1105.30
  C 241.76 1119.57 241.33 1136.46 249.21 1152.58
  C 251.02 1156.29 252.93 1159.62 254.21 1163.63
  Q 257.00 1172.38 260.61 1180.84
  C 264.31 1189.51 256.64 1196.29 248.89 1190.33
  Q 239.25 1182.92 235.55 1171.60
  C 233.22 1164.48 230.40 1160.28 223.99 1156.75
  Q 223.43 1156.44 223.59 1157.06
  Q 227.30 1170.75 231.07 1184.36
  C 231.79 1186.94 239.45 1192.08 241.75 1193.90
  C 245.73 1197.03 247.66 1199.50 248.42 1204.22
  Q 248.51 1204.73 248.95 1205.00
  C 253.37 1207.68 258.67 1212.40 259.80 1217.65
  C 260.52 1221.03 258.78 1224.14 254.98 1223.49
  A 0.56 0.55 77.7 0 0 254.43 1224.35
  C 256.79 1227.84 260.14 1236.23 257.31 1240.02
  C 254.18 1244.22 247.13 1238.24 243.68 1235.06
  Q 232.49 1224.77 221.83 1213.93
  Q 221.47 1213.57 220.97 1213.52
  C 212.72 1212.63 208.09 1205.94 203.49 1198.99
  Q 203.21 1198.56 202.75 1198.35
  C 194.68 1194.65 191.88 1190.18 185.28 1181.50
  C 176.67 1170.18 170.89 1163.57 167.99 1151.50
  C 163.62 1133.32 160.09 1116.67 153.73 1097.50
  Q 151.22 1089.92 149.66 1075.81
  Q 147.99 1060.70 146.58 1024.57
  C 145.25 990.76 143.89 956.87 140.15 923.24
  C 136.32 888.91 140.16 855.39 146.03 821.59
  C 147.70 811.99 147.91 802.30 148.89 792.55
  Q 149.35 788.00 150.91 783.15
  Q 155.45 769.02 157.99 757.75
  C 174.09 686.37 188.83 615.06 196.74 541.50
  C 198.74 522.98 202.20 502.05 210.48 484.22
  C 217.31 469.53 228.87 462.23 244.04 457.88
  Q 260.43 453.17 277.35 451.23
  Q 282.79 450.61 286.93 449.26
  C 308.23 442.33 328.76 431.96 348.24 420.98
  C 352.42 418.62 360.16 414.99 361.38 409.27
  C 363.68 398.46 363.77 386.29 363.80 375.25
  C 363.81 373.20 357.84 365.94 356.38 363.89
  Q 345.29 348.37 339.25 330.26
  Q 339.08 329.75 338.54 329.82
  C 326.79 331.27 322.68 328.12 316.17 319.10
  Q 299.24 295.64 303.46 267.00
  C 305.11 255.78 309.86 254.33 319.83 252.73
  Q 320.41 252.64 320.22 252.08
  C 314.42 235.50 310.43 218.74 310.25 201.10
  C 310.23 199.18 310.85 196.38 310.74 194.73
  Q 310.50 191.01 309.85 194.67
  Q 307.04 210.53 310.11 226.32
  Q 310.63 228.97 309.76 226.57
  Q 309.23 225.09 308.49 222.00
  C 304.27 204.44 303.92 183.55 312.52 167.13
  A 0.23 0.23 0.0 0 0 312.17 166.85
  Q 302.61 174.93 302.15 187.45
  Q 302.10 188.78 301.86 187.47
  C 299.48 174.51 308.65 161.53 319.12 155.03
  Q 319.84 154.58 319.00 154.65
  C 306.87 155.71 298.61 165.36 295.24 176.57
  Q 289.16 196.78 294.69 176.50
  C 298.65 161.94 305.88 148.71 322.30 147.71
  A 0.32 0.32 0.0 0 0 322.42 147.10
  Q 317.59 144.68 312.24 144.05
  Q 310.39 143.84 312.24 143.63
  Q 319.88 142.75 327.37 144.45
  A 0.55 0.55 0.0 0 0 327.97 143.64
  Q 326.99 141.90 326.25 140.04
  Q 325.77 138.82 326.62 139.81
  L 331.36 145.36
  A 0.54 0.54 0.0 0 0 332.25 144.75
  C 326.90 135.05 323.11 120.85 328.97 110.64
  Q 330.32 108.28 329.37 110.83
  C 326.16 119.46 328.66 127.71 333.49 135.22
  A 0.22 0.22 0.0 0 0 333.89 135.09
  Q 333.65 127.82 335.83 120.77
  Q 340.94 104.19 352.77 91.54
  Q 354.65 89.53 353.01 91.75
  Q 343.95 103.99 340.55 118.84
  Q 340.50 119.08 340.65 119.26
  Q 340.73 119.36 340.76 119.55
  A 0.43 0.31 -53.0 0 0 341.47 119.33
  Q 344.24 104.06 357.44 96.13
  Q 359.53 94.87 357.71 96.51
  C 353.87 99.96 346.01 109.59 346.29 115.30
  Q 346.34 116.36 346.74 115.38
  C 351.91 102.58 363.87 94.12 373.48 86.73
  Q 378.21 83.10 381.03 78.28
  Z
  M 333.09 265.55
  Q 335.25 300.44 346.42 333.52
  C 356.36 362.97 398.53 414.82 434.76 400.77
  C 463.38 389.67 489.16 359.39 498.54 330.31
  Q 509.01 297.84 510.79 265.56
  Q 510.82 265.06 510.84 265.56
  Q 512.28 295.24 505.05 323.97
  Q 504.93 324.44 505.41 324.51
  C 508.70 324.95 515.28 325.19 517.76 322.55
  Q 537.59 301.54 535.66 272.31
  Q 535.30 266.84 532.71 260.86
  Q 532.53 260.45 532.13 260.25
  Q 524.85 256.73 517.13 259.23
  Q 515.33 259.82 515.70 257.96
  C 517.16 250.59 517.62 244.26 515.29 236.88
  C 499.99 188.48 452.56 191.06 411.70 187.56
  C 389.04 185.62 366.73 180.88 353.23 161.31
  A 0.31 0.31 0.0 0 0 352.67 161.43
  Q 349.14 183.06 346.32 204.72
  C 344.03 222.37 340.35 242.18 330.48 256.96
  Q 329.87 257.86 328.43 257.37
  Q 327.80 257.16 327.96 257.80
  L 328.26 259.01
  Q 328.47 259.84 327.67 259.54
  Q 319.44 256.47 311.57 260.32
  Q 311.15 260.52 310.98 260.96
  C 303.28 281.24 310.62 305.16 324.39 320.87
  C 328.07 325.07 333.54 325.53 338.69 324.41
  Q 339.20 324.30 339.06 323.79
  C 333.81 304.86 332.59 285.08 333.05 265.55
  Q 333.06 265.07 333.09 265.55
  Z
  M 521.88 242.91
  L 523.05 243.03
  A 0.14 0.14 0.0 0 0 523.20 242.91
  L 523.23 242.71
  A 14.70 0.64 -84.0 0 0 524.13 228.02
  L 523.95 228.00
  A 14.70 0.64 -84.0 0 0 521.77 242.55
  L 521.75 242.75
  A 0.14 0.14 0.0 0 0 521.88 242.91
  Z
  M 481.65 418.19
  C 477.13 414.48 476.63 410.38 476.01 404.75
  Q 474.67 392.41 474.57 379.92
  A 0.34 0.33 -24.0 0 0 473.99 379.70
  C 461.67 392.96 441.37 408.04 422.60 408.63
  C 402.91 409.25 382.15 393.43 369.48 379.71
  A 0.32 0.32 0.0 0 0 368.92 379.93
  Q 369.04 394.67 366.96 409.19
  C 366.38 413.26 364.64 416.40 361.15 418.97
  Q 353.49 424.62 345.08 428.89
  A 0.27 0.27 0.0 0 0 345.11 429.38
  Q 421.13 457.86 497.41 429.91
  Q 499.40 429.18 497.49 428.26
  Q 488.78 424.03 481.65 418.19
  Z
  M 285.78 1099.05
  Q 286.72 1098.85 287.51 1099.00
  C 314.81 1104.26 335.44 1114.68 363.79 1127.65
  C 388.46 1138.94 412.83 1145.29 440.02 1141.03
  C 484.01 1134.15 518.64 1112.95 567.93 1095.44
  Q 582.16 1090.38 568.00 1095.70
  C 544.75 1104.42 528.73 1112.62 501.01 1125.75
  C 477.60 1136.84 453.37 1148.57 430.04 1152.08
  Q 429.53 1152.16 429.52 1152.68
  Q 429.45 1155.46 429.53 1158.25
  C 432.94 1282.97 438.74 1407.62 444.30 1532.26
  C 445.16 1551.60 445.24 1572.94 443.21 1590.44
  Q 439.22 1624.79 438.55 1633.57
  Q 436.04 1666.12 443.13 1700.49
  C 446.62 1717.45 449.88 1735.11 451.23 1751.00
  C 452.97 1771.29 452.86 1794.39 453.68 1816.49
  Q 454.93 1850.29 452.56 1884.06
  Q 452.30 1887.80 451.05 1894.99
  Q 449.03 1906.67 449.61 1919.94
  Q 449.63 1920.47 450.10 1920.23
  C 466.78 1911.67 481.59 1912.42 499.39 1917.21
  Q 499.99 1917.37 499.89 1916.75
  C 495.20 1890.20 502.00 1863.79 507.60 1837.57
  C 519.37 1782.39 530.99 1727.22 540.56 1671.61
  C 546.46 1637.36 541.80 1602.83 537.88 1569.32
  C 534.34 1539.13 535.05 1509.36 535.85 1479.06
  Q 536.62 1449.66 542.02 1420.76
  C 545.37 1402.83 552.35 1375.67 556.83 1350.68
  Q 568.88 1283.41 574.33 1215.25
  C 578.92 1157.78 581.47 1097.93 578.60 1039.05
  A 0.28 0.28 0.0 0 0 578.25 1038.80
  C 547.14 1047.15 514.50 1050.55 482.43 1052.58
  C 423.53 1056.32 363.56 1055.87 304.82 1049.88
  Q 284.68 1047.83 264.86 1044.24
  A 0.73 0.73 0.0 0 0 264.00 1044.94
  Q 262.49 1163.41 276.13 1280.52
  C 280.77 1320.41 288.21 1360.27 298.01 1403.24
  Q 306.55 1440.70 307.87 1484.18
  Q 308.93 1518.99 308.49 1533.44
  C 307.15 1577.63 294.98 1624.78 303.01 1671.54
  C 312.68 1727.83 324.41 1783.74 336.44 1839.56
  C 342.32 1866.84 347.06 1890.62 342.44 1916.05
  Q 342.33 1916.68 342.94 1916.50
  C 359.50 1911.72 376.78 1912.36 391.68 1921.53
  Q 392.14 1921.80 392.17 1921.27
  Q 392.72 1912.03 392.10 1904.94
  C 388.05 1858.91 389.21 1824.44 391.33 1768.24
  C 392.24 1744.14 396.05 1721.57 401.30 1696.02
  Q 406.68 1669.81 405.74 1639.98
  C 405.26 1624.70 403.00 1607.84 401.37 1591.89
  C 399.42 1572.80 398.70 1554.75 399.11 1535.56
  C 400.82 1455.27 404.34 1394.84 409.50 1297.75
  Q 413.37 1225.05 414.30 1152.28
  Q 414.31 1151.77 413.82 1151.64
  C 389.37 1144.66 367.18 1131.77 344.60 1120.37
  Q 318.07 1106.98 289.27 1099.72
  Q 287.88 1099.36 285.79 1099.23
  Q 285.15 1099.18 285.78 1099.05
  Z
  M 215.51 1145.04
  C 222.66 1149.14 231.76 1154.35 236.72 1161.03
  C 240.50 1166.13 241.06 1173.09 244.63 1178.22
  C 246.47 1180.87 251.41 1187.10 254.96 1187.26
  A 1.47 1.47 0.0 0 0 256.43 1185.36
  C 254.24 1178.32 251.24 1171.31 248.80 1164.42
  C 247.14 1159.73 243.85 1154.73 242.28 1150.45
  Q 239.46 1142.75 235.32 1126.94
  C 232.31 1115.45 228.82 1109.06 220.08 1100.50
  C 212.06 1092.65 203.02 1085.40 198.03 1074.73
  Q 197.80 1074.23 197.32 1074.51
  C 183.93 1082.37 171.82 1083.27 156.54 1082.00
  Q 155.99 1081.96 156.07 1082.51
  C 157.89 1096.12 163.41 1109.23 166.61 1122.62
  Q 170.15 1137.44 173.80 1152.23
  Q 175.48 1159.02 180.10 1165.40
  C 185.61 1173.03 196.80 1191.60 205.58 1193.09
  Q 206.10 1193.18 206.38 1193.63
  C 210.87 1200.89 215.49 1208.09 223.38 1208.40
  Q 223.91 1208.42 224.28 1208.80
  Q 237.55 1222.50 251.94 1235.04
  A 0.62 0.62 0.0 0 0 252.94 1234.40
  C 250.79 1227.14 246.30 1221.58 242.20 1215.40
  Q 241.72 1214.68 242.56 1214.92
  L 253.79 1218.20
  A 0.46 0.45 -8.4 0 0 254.30 1217.52
  Q 250.31 1211.43 243.77 1208.10
  Q 243.34 1207.88 243.33 1207.40
  Q 243.18 1200.57 237.33 1197.19
  Q 234.15 1195.36 226.57 1188.16
  Q 226.24 1187.84 226.12 1187.39
  L 215.13 1145.33
  Q 214.97 1144.73 215.51 1145.04
  Z
  M 602.20 1215.34
  C 598.12 1221.72 593.57 1227.08 591.37 1234.65
  A 0.42 0.42 0.0 0 0 592.07 1235.06
  C 592.52 1234.59 593.42 1234.28 593.90 1233.85
  Q 607.28 1221.98 619.79 1209.11
  Q 620.15 1208.73 620.67 1208.69
  C 629.43 1208.01 633.45 1200.40 638.06 1193.84
  Q 638.35 1193.43 638.83 1193.30
  Q 644.34 1191.85 648.16 1186.90
  Q 657.75 1174.47 663.81 1166.07
  C 667.58 1160.86 669.73 1156.46 671.14 1150.58
  C 675.44 1132.75 678.88 1116.29 684.96 1097.47
  C 686.76 1091.93 687.68 1086.81 688.58 1081.22
  A 0.62 0.61 87.2 0 0 687.82 1080.53
  Q 666.16 1086.21 645.74 1077.42
  Q 645.30 1077.23 645.04 1077.64
  C 634.29 1095.36 615.21 1102.59 609.67 1124.42
  C 606.69 1136.16 603.67 1147.51 598.24 1158.39
  C 594.14 1166.62 591.86 1175.78 588.06 1184.35
  A 1.92 1.92 0.0 0 0 589.98 1187.04
  C 595.58 1186.55 602.33 1174.41 603.93 1169.45
  C 605.69 1164.00 607.36 1160.33 611.08 1157.07
  Q 618.22 1150.83 628.88 1145.21
  Q 629.40 1144.93 629.25 1145.50
  L 618.14 1187.74
  Q 618.00 1188.30 617.56 1188.66
  Q 614.36 1191.33 604.55 1199.06
  Q 601.00 1201.87 601.31 1206.93
  Q 601.34 1207.45 600.91 1207.74
  C 596.90 1210.36 592.07 1213.21 590.20 1217.89
  Q 589.98 1218.43 590.54 1218.26
  L 601.86 1214.89
  Q 602.63 1214.66 602.20 1215.34
  Z
  M 389.89 2007.95
  C 387.11 1980.72 388.67 1957.94 391.46 1928.80
  Q 391.51 1928.28 391.10 1927.96
  C 377.08 1917.24 357.81 1917.09 341.66 1922.63
  Q 340.92 1922.89 340.72 1923.65
  C 333.74 1951.16 318.67 1968.88 300.06 1989.30
  C 297.56 1992.04 295.07 1995.56 295.28 1999.57
  C 297.57 2042.07 349.58 2031.84 374.04 2021.59
  C 378.51 2019.71 390.49 2013.82 389.89 2007.95
  Z
  M 454.40 1975.29
  C 454.65 1987.09 453.36 1999.16 452.20 2011.11
  Q 452.15 2011.61 452.39 2012.06
  C 461.31 2028.87 495.76 2033.12 512.31 2032.40
  C 532.09 2031.55 546.71 2023.22 552.46 2003.29
  Q 553.53 1999.57 550.72 1996.79
  C 528.57 1974.86 510.46 1955.51 501.44 1924.42
  A 1.15 1.12 3.6 0 0 500.78 1923.69
  C 485.33 1917.32 465.65 1916.77 451.18 1926.23
  Q 450.75 1926.51 450.81 1927.02
  Q 453.91 1951.09 454.40 1975.29
  Z
  M 503.49 2037.79
  C 486.87 2037.23 464.65 2032.65 452.30 2020.73
  Q 451.74 2020.18 451.70 2020.97
  C 450.68 2045.89 501.20 2050.02 517.15 2049.01
  C 538.39 2047.66 557.32 2033.36 556.17 2010.27
  Q 556.13 2009.54 555.82 2010.21
  C 545.31 2033.44 526.86 2038.59 503.49 2037.79
  Z
  M 293.97 2016.00
  C 293.46 2015.01 293.21 2013.77 292.70 2012.64
  Q 292.33 2011.81 292.28 2012.72
  C 291.09 2036.74 308.51 2047.88 330.50 2047.24
  Q 346.23 2046.78 361.35 2042.47
  C 369.46 2040.16 384.48 2034.49 389.22 2027.20
  Q 391.49 2023.71 390.26 2018.50
  Q 390.18 2018.15 389.90 2018.37
  C 372.88 2031.73 346.09 2036.63 325.20 2035.65
  Q 303.58 2034.63 293.97 2016.00
  Z"
/>
<rect fill="#ff0000" x="39.52" y="103.49" width="9.18" height="18.10" rx="4.35"/>
<rect fill="#ff0000" x="-4.59" y="-9.07" transform="translate(44.11,149.33) rotate(0.2)" width="9.18" height="18.14" rx="4.35"/>
<path fill="#ffffff" d="
  M 333.05 265.55
  C 332.59 285.08 333.81 304.86 339.06 323.79
  Q 339.20 324.30 338.69 324.41
  C 333.54 325.53 328.07 325.07 324.39 320.87
  C 310.62 305.16 303.28 281.24 310.98 260.96
  Q 311.15 260.52 311.57 260.32
  Q 319.44 256.47 327.67 259.54
  Q 328.47 259.84 328.26 259.01
  L 327.96 257.80
  Q 327.80 257.16 328.43 257.37
  Q 329.87 257.86 330.48 256.96
  C 340.35 242.18 344.03 222.37 346.32 204.72
  Q 349.14 183.06 352.67 161.43
  A 0.31 0.31 0.0 0 1 353.23 161.31
  C 366.73 180.88 389.04 185.62 411.70 187.56
  C 452.56 191.06 499.99 188.48 515.29 236.88
  C 517.62 244.26 517.16 250.59 515.70 257.96
  Q 515.33 259.82 517.13 259.23
  Q 524.85 256.73 532.13 260.25
  Q 532.53 260.45 532.71 260.86
  Q 535.30 266.84 535.66 272.31
  Q 537.59 301.54 517.76 322.55
  C 515.28 325.19 508.70 324.95 505.41 324.51
  Q 504.93 324.44 505.05 323.97
  Q 512.28 295.24 510.84 265.56
  Q 510.82 265.06 510.79 265.56
  Q 509.01 297.84 498.54 330.31
  C 489.16 359.39 463.38 389.67 434.76 400.77
  C 398.53 414.82 356.36 362.97 346.42 333.52
  Q 335.25 300.44 333.09 265.55
  Q 333.06 265.07 333.05 265.55
  Z
  M 344.45 241.63
  C 357.88 227.61 386.90 233.57 402.87 239.77
  A 0.72 0.72 0.0 0 0 403.85 239.06
  C 403.34 230.49 393.43 227.08 386.26 226.19
  C 371.51 224.37 353.44 228.83 344.20 241.42
  Q 342.74 243.41 344.45 241.63
  Z
  M 478.92 233.34
  C 486.30 233.69 492.11 236.17 497.81 240.90
  Q 498.61 241.57 497.97 240.74
  C 487.79 227.62 468.78 223.82 453.08 226.93
  C 446.88 228.16 441.15 230.93 438.98 237.38
  Q 437.81 240.89 441.22 239.47
  Q 458.40 232.36 478.92 233.34
  Z
  M 413.15 264.41
  C 410.61 260.51 407.08 256.71 403.70 253.58
  Q 402.84 252.78 403.56 253.72
  C 409.98 262.00 410.70 274.15 409.74 283.97
  Q 409.65 284.92 409.86 283.99
  Q 411.92 274.73 413.36 265.36
  Q 413.43 264.85 413.15 264.41
  Z
  M 460.39 260.58
  L 462.96 267.24
  Q 463.20 267.85 463.85 267.82
  L 479.29 267.26
  Q 480.00 267.24 480.31 266.61
  L 482.90 261.34
  Q 483.06 261.02 483.40 261.10
  Q 490.12 262.60 494.21 268.09
  Q 494.65 268.69 494.48 267.97
  C 489.21 245.38 457.25 255.93 444.64 262.99
  Q 443.46 263.65 444.76 263.25
  Q 452.11 261.02 459.76 260.20
  Q 460.22 260.15 460.39 260.58
  Z
  M 360.11 261.78
  L 362.64 266.99
  A 1.18 1.18 0.0 0 0 363.67 267.66
  L 379.07 268.00
  Q 379.69 268.02 379.92 267.43
  L 382.59 260.66
  Q 382.76 260.22 383.23 260.28
  Q 391.21 261.29 398.94 263.48
  Q 399.80 263.73 399.02 263.30
  Q 389.32 258.00 378.59 255.61
  C 366.16 252.84 352.89 254.55 348.38 268.36
  Q 348.06 269.34 348.69 268.53
  Q 352.87 263.14 359.54 261.51
  Q 359.93 261.42 360.11 261.78
  Z
  M 443.76 318.83
  C 431.57 323.14 418.11 323.42 405.78 319.43
  Q 405.19 319.24 405.65 319.66
  C 410.57 324.20 418.95 329.69 425.94 328.51
  C 432.35 327.43 439.02 322.73 443.84 318.98
  Q 444.25 318.66 443.76 318.83
  Z
  M 460.29 342.50
  L 444.00 343.79
  Q 434.36 343.08 425.01 345.23
  C 421.99 345.92 417.17 343.93 413.98 343.85
  Q 406.72 343.66 399.50 344.54
  L 388.50 344.29
  L 382.40 343.05
  Q 381.78 342.92 382.18 342.43
  L 384.98 339.00
  Q 385.38 338.52 384.86 338.17
  L 384.01 337.60
  Q 383.50 337.26 383.11 337.74
  L 377.04 345.25
  Q 376.67 345.71 377.17 346.04
  L 378.15 346.69
  Q 378.58 346.97 378.91 346.58
  L 381.33 343.69
  Q 381.72 343.22 382.25 343.54
  C 396.76 352.61 415.88 360.02 433.01 356.27
  Q 448.26 352.94 463.32 342.67
  Q 463.86 342.30 464.27 342.82
  L 467.22 346.59
  Q 467.57 347.04 468.04 346.73
  L 469.00 346.09
  Q 469.56 345.73 469.14 345.21
  L 463.05 337.58
  Q 462.64 337.07 462.16 337.51
  L 461.35 338.26
  Q 460.91 338.66 461.29 339.12
  L 462.93 341.13
  Q 463.41 341.71 462.68 341.89
  L 460.29 342.50
  Z
  M 439.46 362.20
  C 421.90 371.28 405.96 364.26 392.57 351.88
  Q 392.25 351.59 392.26 352.02
  Q 392.26 352.22 392.40 352.36
  C 398.21 358.13 418.37 373.69 426.85 370.42
  Q 442.89 364.22 454.25 351.12
  Q 455.93 349.18 454.06 350.95
  Q 445.37 359.15 439.46 362.20
  Z"
/>
<rect fill="#ff0000" x="-4.59" y="-9.08" transform="translate(44.10,186.10) rotate(0.1)" width="9.18" height="18.16" rx="4.35"/>
<rect fill="#ff0000" x="-4.59" y="-9.06" transform="translate(44.11,222.87) rotate(0.4)" width="9.18" height="18.12" rx="4.34"/>
<path fill="#000000" d="
  M 402.87 239.77
  C 386.90 233.57 357.88 227.61 344.45 241.63
  Q 342.74 243.41 344.20 241.42
  C 353.44 228.83 371.51 224.37 386.26 226.19
  C 393.43 227.08 403.34 230.49 403.85 239.06
  A 0.72 0.72 0.0 0 1 402.87 239.77
  Z"
/>
<path fill="#000000" d="
  M 497.81 240.90
  C 492.11 236.17 486.30 233.69 478.92 233.34
  Q 458.40 232.36 441.22 239.47
  Q 437.81 240.89 438.98 237.38
  C 441.15 230.93 446.88 228.16 453.08 226.93
  C 468.78 223.82 487.79 227.62 497.97 240.74
  Q 498.61 241.57 497.81 240.90
  Z"
/>
<rect fill="#ff0000" x="-4.59" y="-9.08" transform="translate(44.11,259.65) rotate(-0.2)" width="9.18" height="18.16" rx="4.35"/>
<path fill="#000000" d="
  M 403.70 253.58
  C 407.08 256.71 410.61 260.51 413.15 264.41
  Q 413.43 264.85 413.36 265.36
  Q 411.92 274.73 409.86 283.99
  Q 409.65 284.92 409.74 283.97
  C 410.70 274.15 409.98 262.00 403.56 253.72
  Q 402.84 252.78 403.70 253.58
  Z"
/>
<path fill="#000000" d="
  M 459.76 260.20
  Q 452.11 261.02 444.76 263.25
  Q 443.46 263.65 444.64 262.99
  C 457.25 255.93 489.21 245.38 494.48 267.97
  Q 494.65 268.69 494.21 268.09
  Q 490.12 262.60 483.40 261.10
  Q 483.06 261.02 482.90 261.34
  L 480.31 266.61
  Q 480.00 267.24 479.29 267.26
  L 463.85 267.82
  Q 463.20 267.85 462.96 267.24
  L 460.39 260.58
  Q 460.22 260.15 459.76 260.20
  Z"
/>
<path fill="#000000" d="
  M 359.54 261.51
  Q 352.87 263.14 348.69 268.53
  Q 348.06 269.34 348.38 268.36
  C 352.89 254.55 366.16 252.84 378.59 255.61
  Q 389.32 258.00 399.02 263.30
  Q 399.80 263.73 398.94 263.48
  Q 391.21 261.29 383.23 260.28
  Q 382.76 260.22 382.59 260.66
  L 379.92 267.43
  Q 379.69 268.02 379.07 268.00
  L 363.67 267.66
  A 1.18 1.18 0.0 0 1 362.64 266.99
  L 360.11 261.78
  Q 359.93 261.42 359.54 261.51
  Z"
/>
<rect fill="#ff0000" x="-4.58" y="-9.07" transform="translate(44.12,296.56) rotate(-0.1)" width="9.16" height="18.14" rx="4.34"/>
<path fill="#000000" d="
  M 405.78 319.43
  C 418.11 323.42 431.57 323.14 443.76 318.83
  Q 444.25 318.66 443.84 318.98
  C 439.02 322.73 432.35 327.43 425.94 328.51
  C 418.95 329.69 410.57 324.20 405.65 319.66
  Q 405.19 319.24 405.78 319.43
  Z"
/>
<rect fill="#ff0000" x="-4.59" y="-9.07" transform="translate(44.11,333.33) rotate(0.2)" width="9.18" height="18.14" rx="4.35"/>
<path fill="#000000" d="
  M 388.50 344.29
  Q 393.75 345.95 399.25 346.21
  L 417.25 347.79
  L 416.75 348.54
  L 397.51 347.02
  A 0.26 0.26 0.0 0 0 397.38 347.51
  C 414.74 355.39 430.39 357.38 447.54 347.31
  Q 448.10 346.98 447.45 347.03
  L 430.25 348.46
  L 430.50 347.79
  Q 443.37 347.15 456.03 344.44
  Q 458.73 344.51 460.29 342.50
  L 462.68 341.89
  Q 463.41 341.71 462.93 341.13
  L 461.29 339.12
  Q 460.91 338.66 461.35 338.26
  L 462.16 337.51
  Q 462.64 337.07 463.05 337.58
  L 469.14 345.21
  Q 469.56 345.73 469.00 346.09
  L 468.04 346.73
  Q 467.57 347.04 467.22 346.59
  L 464.27 342.82
  Q 463.86 342.30 463.32 342.67
  Q 448.26 352.94 433.01 356.27
  C 415.88 360.02 396.76 352.61 382.25 343.54
  Q 381.72 343.22 381.33 343.69
  L 378.91 346.58
  Q 378.58 346.97 378.15 346.69
  L 377.17 346.04
  Q 376.67 345.71 377.04 345.25
  L 383.11 337.74
  Q 383.50 337.26 384.01 337.60
  L 384.86 338.17
  Q 385.38 338.52 384.98 339.00
  L 382.18 342.43
  Q 381.78 342.92 382.40 343.05
  L 388.50 344.29
  Z"
/>
<path fill="#ff0000" d="
  M 460.29 342.50
  Q 458.73 344.51 456.03 344.44
  Q 454.01 343.28 451.01 344.29
  Q 448.28 345.20 444.00 344.21
  L 444.00 343.79
  L 460.29 342.50
  Z"
/>
<path fill="#000000" d="
  M 444.00 343.79
  L 444.00 344.21
  C 438.86 344.20 433.76 343.86 428.72 345.33
  Q 423.48 346.85 418.22 345.35
  C 412.49 343.72 405.82 344.48 400.00 345.21
  L 399.50 344.54
  Q 406.72 343.66 413.98 343.85
  C 417.17 343.93 421.99 345.92 425.01 345.23
  Q 434.36 343.08 444.00 343.79
  Z"
/>
<path fill="#ffffff" d="
  M 456.03 344.44
  Q 443.37 347.15 430.50 347.79
  L 417.25 347.79
  L 399.25 346.21
  L 400.00 345.21
  C 405.82 344.48 412.49 343.72 418.22 345.35
  Q 423.48 346.85 428.72 345.33
  C 433.76 343.86 438.86 344.20 444.00 344.21
  Q 448.28 345.20 451.01 344.29
  Q 454.01 343.28 456.03 344.44
  Z"
/>
<path fill="#ff0000" d="
  M 388.50 344.29
  L 399.50 344.54
  L 400.00 345.21
  L 399.25 346.21
  Q 393.75 345.95 388.50 344.29
  Z"
/>
<path fill="#ffffff" d="
  M 416.75 348.54
  Q 423.51 349.63 430.25 348.46
  L 447.45 347.03
  Q 448.10 346.98 447.54 347.31
  C 430.39 357.38 414.74 355.39 397.38 347.51
  A 0.26 0.26 0.0 0 1 397.51 347.02
  L 416.75 348.54
  Z"
/>
<path fill="#ff0000" d="
  M 417.25 347.79
  L 430.50 347.79
  L 430.25 348.46
  Q 423.51 349.63 416.75 348.54
  L 417.25 347.79
  Z"
/>
<path fill="#000000" d="
  M 392.57 351.88
  C 405.96 364.26 421.90 371.28 439.46 362.20
  Q 445.37 359.15 454.06 350.95
  Q 455.93 349.18 454.25 351.12
  Q 442.89 364.22 426.85 370.42
  C 418.37 373.69 398.21 358.13 392.40 352.36
  Q 392.26 352.22 392.26 352.02
  Q 392.25 351.59 392.57 351.88
  Z"
/>
<rect fill="#ff0000" x="-4.59" y="-9.08" transform="translate(44.11,370.11) rotate(-0.1)" width="9.18" height="18.16" rx="4.35"/>
<path fill="#ffffff" d="
  M 481.65 418.19
  Q 488.78 424.03 497.49 428.26
  Q 499.40 429.18 497.41 429.91
  Q 421.13 457.86 345.11 429.38
  A 0.27 0.27 0.0 0 1 345.08 428.89
  Q 353.49 424.62 361.15 418.97
  C 364.64 416.40 366.38 413.26 366.96 409.19
  Q 369.04 394.67 368.92 379.93
  A 0.32 0.32 0.0 0 1 369.48 379.71
  C 382.15 393.43 402.91 409.25 422.60 408.63
  C 441.37 408.04 461.67 392.96 473.99 379.70
  A 0.34 0.33 -24.0 0 1 474.57 379.92
  Q 474.67 392.41 476.01 404.75
  C 476.63 410.38 477.13 414.48 481.65 418.19
  Z"
/>
<rect fill="#ff0000" x="-4.59" y="-9.06" transform="translate(44.11,406.88) rotate(0.4)" width="9.18" height="18.12" rx="4.35"/>
<path fill="#ffffff" d="
  M 573.50 968.46
  Q 571.83 968.61 570.18 968.69
  C 563.37 969.02 563.31 977.72 570.83 977.64
  Q 572.73 977.62 574.54 978.25
  Q 577.12 1005.29 578.33 1032.54
  Q 578.35 1033.06 577.85 1033.20
  C 551.81 1040.58 524.18 1043.99 496.44 1046.14
  Q 404.56 1053.29 312.76 1045.16
  Q 288.67 1043.03 264.88 1038.67
  Q 264.35 1038.58 264.36 1038.04
  Q 265.26 984.09 275.65 931.30
  C 278.08 918.94 281.09 905.63 282.75 894.17
  C 288.27 856.09 287.48 817.71 283.66 779.51
  Q 278.64 729.27 268.31 679.86
  Q 268.28 679.75 268.38 679.70
  L 268.66 679.55
  Q 268.74 679.51 268.77 679.59
  Q 277.75 700.75 287.69 721.61
  Q 289.17 724.70 287.89 721.52
  Q 268.51 673.09 255.11 622.68
  C 246.95 591.98 240.63 559.70 240.13 527.86
  Q 240.13 527.61 239.98 527.82
  Q 239.89 527.97 239.88 528.18
  C 238.72 570.33 243.62 611.18 257.70 651.02
  A 2.32 2.30 43.6 0 1 257.74 652.47
  Q 239.10 714.96 222.38 777.92
  C 215.13 805.23 217.36 832.78 217.51 860.74
  Q 217.69 891.63 211.08 921.77
  C 207.99 935.86 204.59 950.61 202.23 964.10
  Q 195.57 1002.29 193.72 1041.06
  Q 193.06 1054.87 195.67 1068.09
  A 1.33 1.32 69.0 0 1 195.05 1069.50
  Q 176.82 1080.28 155.71 1076.18
  Q 155.17 1076.08 155.12 1075.54
  C 152.32 1046.19 151.58 1016.45 150.30 987.00
  Q 148.94 955.76 145.60 924.69
  C 142.83 898.85 143.63 873.96 147.52 847.75
  C 149.77 832.59 152.18 820.43 153.11 807.17
  C 153.58 800.55 153.35 793.55 155.34 787.16
  Q 161.20 768.29 165.48 749.00
  Q 178.99 687.99 190.17 626.53
  C 196.46 591.96 199.54 562.25 203.75 530.00
  C 206.71 507.33 212.29 476.62 235.59 466.63
  C 249.14 460.82 264.58 457.98 279.18 456.46
  Q 283.84 455.98 287.65 454.68
  Q 313.66 445.87 337.79 432.68
  Q 338.22 432.45 338.66 432.63
  Q 421.67 465.51 504.79 432.81
  Q 505.26 432.63 505.71 432.86
  Q 522.07 441.19 538.83 448.38
  C 550.61 453.45 560.64 455.39 575.50 457.24
  Q 585.13 458.44 597.75 462.52
  C 614.33 467.89 625.31 474.73 631.24 491.03
  Q 638.86 511.96 641.55 535.17
  C 646.57 578.61 650.45 607.57 657.99 647.25
  Q 670.10 710.87 680.78 757.24
  Q 683.45 768.84 689.11 787.64
  C 691.86 796.79 690.80 807.39 692.30 816.94
  C 696.97 846.67 701.42 875.81 700.28 906.02
  Q 700.00 913.28 698.65 925.93
  C 693.38 975.13 693.48 1024.54 689.50 1073.81
  A 0.86 0.85 -6.4 0 1 688.89 1074.57
  Q 668.03 1080.88 648.00 1072.50
  Q 647.45 1072.27 647.62 1071.70
  C 650.96 1060.28 651.02 1049.06 650.38 1037.06
  C 648.79 1007.51 645.31 977.93 639.16 948.98
  C 634.31 926.15 628.66 903.79 627.42 879.68
  C 626.47 861.11 627.05 841.82 627.22 822.99
  C 627.37 805.80 625.48 790.94 621.24 775.01
  Q 603.44 708.21 583.48 641.93
  A 2.34 2.32 -44.8 0 1 583.49 640.61
  C 594.78 604.83 598.81 568.27 597.91 530.51
  A 0.19 0.18 45.9 0 0 597.54 530.50
  C 597.44 533.08 597.59 535.82 597.41 538.18
  C 593.15 593.35 577.45 648.42 558.06 700.06
  Q 553.90 711.13 549.63 722.21
  Q 549.06 723.69 549.75 722.26
  Q 561.59 697.46 572.15 671.88
  A 0.21 0.20 61.8 0 1 572.54 672.00
  Q 561.55 730.60 557.59 790.26
  C 554.81 832.26 555.97 872.40 564.40 913.47
  Q 570.01 940.78 573.50 968.46
  Z
  M 274.9321 592.4349
  A 4.34 4.34 0.0 0 0 270.6378 588.0497
  L 261.1983 587.9508
  A 4.34 4.34 0.0 0 0 256.8131 592.2451
  L 256.8079 592.7451
  A 4.34 4.34 0.0 0 0 261.1022 597.1303
  L 270.5417 597.2292
  A 4.34 4.34 0.0 0 0 274.9269 592.9349
  L 274.9321 592.4349
  Z
  M 311.6881 592.2768
  A 4.31 4.31 0.0 0 0 307.3481 587.9970
  L 297.8684 588.0632
  A 4.31 4.31 0.0 0 0 293.5885 592.4032
  L 293.5919 592.8832
  A 4.31 4.31 0.0 0 0 297.9319 597.1630
  L 307.4116 597.0968
  A 4.31 4.31 0.0 0 0 311.6915 592.7568
  L 311.6881 592.2768
  Z
  M 348.4604 592.3458
  A 4.30 4.30 0.0 0 0 344.1679 588.0383
  L 334.6679 588.0217
  A 4.30 4.30 0.0 0 0 330.3605 592.3142
  L 330.3596 592.8142
  A 4.30 4.30 0.0 0 0 334.6521 597.1217
  L 344.1521 597.1383
  A 4.30 4.30 0.0 0 0 348.4595 592.8458
  L 348.4604 592.3458
  Z
  M 385.2291 592.2987
  A 4.34 4.34 0.0 0 0 380.8739 587.9738
  L 371.5940 588.0062
  A 4.34 4.34 0.0 0 0 367.2692 592.3613
  L 367.2709 592.8613
  A 4.34 4.34 0.0 0 0 371.6261 597.1862
  L 380.9060 597.1538
  A 4.34 4.34 0.0 0 0 385.2308 592.7987
  L 385.2291 592.2987
  Z
  M 422.1586 592.2826
  A 4.31 4.31 0.0 0 0 417.8261 587.9952
  L 408.3462 588.0449
  A 4.31 4.31 0.0 0 0 404.0589 592.3774
  L 404.0614 592.8574
  A 4.31 4.31 0.0 0 0 408.3939 597.1448
  L 417.8738 597.0951
  A 4.31 4.31 0.0 0 0 422.1611 592.7626
  L 422.1586 592.2826
  Z
  M 458.9118 592.4191
  A 4.34 4.34 0.0 0 0 454.6099 588.0414
  L 445.1702 587.9590
  A 4.34 4.34 0.0 0 0 440.7925 592.2609
  L 440.7882 592.7609
  A 4.34 4.34 0.0 0 0 445.0901 597.1386
  L 454.5298 597.2210
  A 4.34 4.34 0.0 0 0 458.9075 592.9191
  L 458.9118 592.4191
  Z
  M 495.6781 592.2768
  A 4.31 4.31 0.0 0 0 491.3381 587.9970
  L 481.8584 588.0632
  A 4.31 4.31 0.0 0 0 477.5785 592.4032
  L 477.5819 592.8832
  A 4.31 4.31 0.0 0 0 481.9219 597.1630
  L 491.4016 597.0968
  A 4.31 4.31 0.0 0 0 495.6815 592.7568
  L 495.6781 592.2768
  Z
  M 532.4504 592.3458
  A 4.30 4.30 0.0 0 0 528.1579 588.0383
  L 518.6579 588.0217
  A 4.30 4.30 0.0 0 0 514.3505 592.3142
  L 514.3496 592.8142
  A 4.30 4.30 0.0 0 0 518.6421 597.1217
  L 528.1421 597.1383
  A 4.30 4.30 0.0 0 0 532.4495 592.8458
  L 532.4504 592.3458
  Z
  M 569.2285 592.2630
  A 4.32 4.32 0.0 0 0 564.8860 587.9657
  L 555.5661 588.0145
  A 4.32 4.32 0.0 0 0 551.2688 592.3570
  L 551.2715 592.8770
  A 4.32 4.32 0.0 0 0 555.6140 597.1743
  L 564.9339 597.1255
  A 4.32 4.32 0.0 0 0 569.2312 592.7830
  L 569.2285 592.2630
  Z
  M 417.50 661.02
  C 457.79 659.73 492.12 660.69 529.45 661.47
  Q 532.99 661.54 529.48 661.16
  C 525.37 660.72 519.83 660.64 517.10 660.42
  Q 490.96 658.28 464.82 656.16
  C 437.79 653.98 410.87 653.95 383.85 656.08
  C 357.51 658.15 331.12 661.19 304.64 661.60
  Q 304.53 661.60 304.51 661.70
  Q 304.48 661.80 304.54 661.95
  Q 304.56 662.02 304.63 662.02
  Q 361.08 662.84 417.50 661.02
  Z
  M 335.18 669.81
  C 358.30 669.13 382.60 672.13 405.60 674.54
  C 421.05 676.15 436.49 677.02 452.25 677.66
  Q 485.49 679.01 518.71 681.07
  Q 519.17 681.10 518.72 681.01
  Q 515.11 680.26 511.47 679.67
  C 458.85 671.12 405.34 666.44 352.00 667.84
  Q 343.71 668.06 335.14 669.27
  A 0.27 0.27 0.0 0 0 335.18 669.81
  Z
  M 307.16 854.02
  A 4.25 4.25 0.0 0 0 302.91 849.77
  L 293.25 849.77
  A 4.25 4.25 0.0 0 0 289.00 854.02
  L 289.00 854.48
  A 4.25 4.25 0.0 0 0 293.25 858.73
  L 302.91 858.73
  A 4.25 4.25 0.0 0 0 307.16 854.48
  L 307.16 854.02
  Z
  M 343.9415 854.0835
  A 4.26 4.26 0.0 0 0 339.7113 849.7938
  L 330.0515 849.7264
  A 4.26 4.26 0.0 0 0 325.7619 853.9565
  L 325.7585 854.4365
  A 4.26 4.26 0.0 0 0 329.9887 858.7262
  L 339.6485 858.7936
  A 4.26 4.26 0.0 0 0 343.9381 854.5635
  L 343.9415 854.0835
  Z
  M 380.6915 854.0834
  A 4.26 4.26 0.0 0 0 376.4613 849.7938
  L 366.8215 849.7265
  A 4.26 4.26 0.0 0 0 362.5319 853.9566
  L 362.5285 854.4366
  A 4.26 4.26 0.0 0 0 366.7587 858.7262
  L 376.3985 858.7935
  A 4.26 4.26 0.0 0 0 380.6881 854.5634
  L 380.6915 854.0834
  Z
  M 417.4614 854.0834
  A 4.26 4.26 0.0 0 0 413.2312 849.7938
  L 403.5915 849.7265
  A 4.26 4.26 0.0 0 0 399.3018 853.9566
  L 399.2986 854.4166
  A 4.26 4.26 0.0 0 0 403.5288 858.7062
  L 413.1685 858.7735
  A 4.26 4.26 0.0 0 0 417.4582 854.5434
  L 417.4614 854.0834
  Z
  M 454.23 854.02
  A 4.25 4.25 0.0 0 0 449.98 849.77
  L 440.32 849.77
  A 4.25 4.25 0.0 0 0 436.07 854.02
  L 436.07 854.48
  A 4.25 4.25 0.0 0 0 440.32 858.73
  L 449.98 858.73
  A 4.25 4.25 0.0 0 0 454.23 854.48
  L 454.23 854.02
  Z
  M 491.1304 854.0560
  A 4.24 4.24 0.0 0 0 486.8978 849.8086
  L 477.0978 849.7915
  A 4.24 4.24 0.0 0 0 472.8504 854.0240
  L 472.8496 854.4440
  A 4.24 4.24 0.0 0 0 477.0822 858.6914
  L 486.8822 858.7085
  A 4.24 4.24 0.0 0 0 491.1296 854.4760
  L 491.1304 854.0560
  Z
  M 527.92 854.03
  A 4.27 4.27 0.0 0 0 523.65 849.76
  L 514.01 849.76
  A 4.27 4.27 0.0 0 0 509.74 854.03
  L 509.74 854.47
  A 4.27 4.27 0.0 0 0 514.01 858.74
  L 523.65 858.74
  A 4.27 4.27 0.0 0 0 527.92 854.47
  L 527.92 854.03
  Z
  M 556.02 854.27
  A 4.73 4.73 0.0 0 0 551.29 849.54
  A 4.73 4.73 0.0 0 0 546.56 854.27
  A 4.73 4.73 0.0 0 0 551.29 859.00
  A 4.73 4.73 0.0 0 0 556.02 854.27
  Z
  M 399.4408 972.9617
  A 4.31 4.31 0.0 0 0 395.1459 968.6366
  L 385.6259 968.6034
  A 4.31 4.31 0.0 0 0 381.3009 972.8983
  L 381.2992 973.3983
  A 4.31 4.31 0.0 0 0 385.5941 977.7234
  L 395.1141 977.7566
  A 4.31 4.31 0.0 0 0 399.4391 973.4617
  L 399.4408 972.9617
  Z
  M 436.1995 972.9142
  A 4.31 4.31 0.0 0 0 431.8820 968.6117
  L 422.3820 968.6283
  A 4.31 4.31 0.0 0 0 418.0796 972.9458
  L 418.0805 973.4458
  A 4.31 4.31 0.0 0 0 422.3980 977.7483
  L 431.8980 977.7317
  A 4.31 4.31 0.0 0 0 436.2004 973.4142
  L 436.1995 972.9142
  Z
  M 289.01 973.02
  A 4.26 4.26 0.0 0 0 284.75 968.76
  L 275.11 968.76
  A 4.26 4.26 0.0 0 0 270.85 973.02
  L 270.85 973.46
  A 4.26 4.26 0.0 0 0 275.11 977.72
  L 284.75 977.72
  A 4.26 4.26 0.0 0 0 289.01 973.46
  L 289.01 973.02
  Z
  M 325.9096 972.9842
  A 4.24 4.24 0.0 0 0 321.6622 968.7516
  L 311.9822 968.7685
  A 4.24 4.24 0.0 0 0 307.7496 973.0158
  L 307.7504 973.4958
  A 4.24 4.24 0.0 0 0 311.9978 977.7284
  L 321.6778 977.7115
  A 4.24 4.24 0.0 0 0 325.9104 973.4642
  L 325.9096 972.9842
  Z
  M 362.69 973.02
  A 4.26 4.26 0.0 0 0 358.43 968.76
  L 348.77 968.76
  A 4.26 4.26 0.0 0 0 344.51 973.02
  L 344.51 973.46
  A 4.26 4.26 0.0 0 0 348.77 977.72
  L 358.43 977.72
  A 4.26 4.26 0.0 0 0 362.69 973.46
  L 362.69 973.02
  Z
  M 473.0004 973.0358
  A 4.26 4.26 0.0 0 0 468.7478 968.7684
  L 459.1278 968.7516
  A 4.26 4.26 0.0 0 0 454.8604 973.0042
  L 454.8596 973.4442
  A 4.26 4.26 0.0 0 0 459.1122 977.7116
  L 468.7322 977.7284
  A 4.26 4.26 0.0 0 0 472.9996 973.4758
  L 473.0004 973.0358
  Z
  M 509.89 973.03
  A 4.24 4.24 0.0 0 0 505.65 968.79
  L 495.85 968.79
  A 4.24 4.24 0.0 0 0 491.61 973.03
  L 491.61 973.45
  A 4.24 4.24 0.0 0 0 495.85 977.69
  L 505.65 977.69
  A 4.24 4.24 0.0 0 0 509.89 973.45
  L 509.89 973.03
  Z
  M 546.68 973.02
  A 4.26 4.26 0.0 0 0 542.42 968.76
  L 532.76 968.76
  A 4.26 4.26 0.0 0 0 528.50 973.02
  L 528.50 973.46
  A 4.26 4.26 0.0 0 0 532.76 977.72
  L 542.42 977.72
  A 4.26 4.26 0.0 0 0 546.68 973.46
  L 546.68 973.02
  Z"
/>
<rect fill="#ff0000" x="-4.59" y="-9.07" transform="translate(44.11,443.66) rotate(-0.3)" width="9.18" height="18.14" rx="4.35"/>
<rect fill="#ff0000" x="-4.58" y="-9.07" transform="translate(44.12,480.56) rotate(-0.1)" width="9.16" height="18.14" rx="4.34"/>
<rect fill="#ff0000" x="-4.59" y="-9.07" transform="translate(44.11,517.33) rotate(0.2)" width="9.18" height="18.14" rx="4.35"/>
<path fill="#ff0000" d="
  M 876.76 594.00
  L 710.51 594.00
  A 0.77 0.77 0.0 0 1 709.74 593.16
  L 709.88 591.74
  Q 709.94 591.13 710.55 591.13
  L 877.00 591.13
  Q 877.46 591.13 877.48 590.68
  Q 878.89 564.17 899.24 548.24
  C 917.20 534.18 943.76 532.69 963.12 545.11
  C 986.69 560.22 995.86 589.59 984.50 615.44
  C 970.11 648.21 928.04 658.90 899.44 636.96
  Q 879.42 621.60 877.32 594.52
  Q 877.28 594.00 876.76 594.00
  Z
  M 980.17 592.55
  A 46.76 46.76 0.0 0 0 933.41 545.79
  A 46.76 46.76 0.0 0 0 886.65 592.55
  A 46.76 46.76 0.0 0 0 933.41 639.31
  A 46.76 46.76 0.0 0 0 980.17 592.55
  Z"
/>
<rect fill="#ff0000" x="39.52" y="545.04" width="9.18" height="18.16" rx="4.35"/>
<path fill="#000000" d="
  M 931.51 577.02
  Q 925.62 581.88 918.53 584.79
  A 0.52 0.52 0.0 0 1 917.81 584.29
  L 917.95 578.71
  Q 917.97 578.18 918.45 577.96
  Q 928.26 573.42 934.28 564.43
  Q 934.57 563.99 935.10 563.99
  L 938.35 564.01
  Q 939.00 564.02 939.00 564.67
  L 939.00 620.32
  Q 939.00 620.90 938.42 620.94
  L 932.79 621.28
  Q 932.00 621.33 932.00 620.54
  L 932.00 577.25
  A 0.30 0.30 0.0 0 0 931.51 577.02
  Z"
/>
<rect fill="#ff0000" x="39.53" y="581.81" width="9.16" height="18.14" rx="4.34"/>
<rect fill="#ff0000" x="-9.06" y="-4.59" transform="translate(265.87,592.59) rotate(0.6)" width="18.12" height="9.18" rx="4.34"/>
<rect fill="#ff0000" x="-9.05" y="-4.55" transform="translate(302.64,592.58) rotate(-0.4)" width="18.10" height="9.10" rx="4.31"/>
<rect fill="#ff0000" x="-9.05" y="-4.55" transform="translate(339.41,592.58) rotate(0.1)" width="18.10" height="9.10" rx="4.30"/>
<rect fill="#ff0000" x="-8.98" y="-4.59" transform="translate(376.25,592.58) rotate(-0.2)" width="17.96" height="9.18" rx="4.34"/>
<rect fill="#ff0000" x="-9.05" y="-4.55" transform="translate(413.11,592.57) rotate(-0.3)" width="18.10" height="9.10" rx="4.31"/>
<rect fill="#ff0000" x="-9.06" y="-4.59" transform="translate(449.85,592.59) rotate(0.5)" width="18.12" height="9.18" rx="4.34"/>
<rect fill="#ff0000" x="-9.05" y="-4.55" transform="translate(486.63,592.58) rotate(-0.4)" width="18.10" height="9.10" rx="4.31"/>
<rect fill="#ff0000" x="-9.05" y="-4.55" transform="translate(523.40,592.58) rotate(0.1)" width="18.10" height="9.10" rx="4.30"/>
<rect fill="#ff0000" x="-8.98" y="-4.58" transform="translate(560.25,592.57) rotate(-0.3)" width="17.96" height="9.16" rx="4.32"/>
<rect fill="#ff0000" x="-4.59" y="-9.07" transform="translate(44.11,627.66) rotate(-0.3)" width="9.18" height="18.14" rx="4.35"/>
<path fill="#000000" d="
  M 529.45 661.47
  C 492.12 660.69 457.79 659.73 417.50 661.02
  Q 361.08 662.84 304.63 662.02
  Q 304.56 662.02 304.54 661.95
  Q 304.48 661.80 304.51 661.70
  Q 304.53 661.60 304.64 661.60
  C 331.12 661.19 357.51 658.15 383.85 656.08
  C 410.87 653.95 437.79 653.98 464.82 656.16
  Q 490.96 658.28 517.10 660.42
  C 519.83 660.64 525.37 660.72 529.48 661.16
  Q 532.99 661.54 529.45 661.47
  Z"
/>
<rect fill="#ff0000" x="-4.58" y="-9.07" transform="translate(44.12,664.57) rotate(-0.1)" width="9.16" height="18.14" rx="4.34"/>
<path fill="#000000" d="
  M 405.60 674.54
  C 382.60 672.13 358.30 669.13 335.18 669.81
  A 0.27 0.27 0.0 0 1 335.14 669.27
  Q 343.71 668.06 352.00 667.84
  C 405.34 666.44 458.85 671.12 511.47 679.67
  Q 515.11 680.26 518.72 681.01
  Q 519.17 681.10 518.71 681.07
  Q 485.49 679.01 452.25 677.66
  C 436.49 677.02 421.05 676.15 405.60 674.54
  Z"
/>
<rect fill="#ff0000" x="-4.58" y="-9.07" transform="translate(44.11,701.33) rotate(-0.1)" width="9.16" height="18.14" rx="4.34"/>
<rect fill="#ff0000" x="-4.59" y="-9.08" transform="translate(44.10,738.12) rotate(-0.2)" width="9.18" height="18.16" rx="4.35"/>
<rect fill="#ff0000" x="-4.59" y="-9.06" transform="translate(44.11,774.88) rotate(-0.4)" width="9.18" height="18.12" rx="4.35"/>
<path fill="#ff0000" d="
  M 877.50 852.32
  C 878.73 825.56 897.91 803.31 924.29 799.05
  C 959.94 793.30 991.64 822.05 989.23 857.99
  C 986.73 895.48 948.51 920.07 913.17 906.44
  C 892.45 898.45 878.35 878.69 877.49 856.20
  Q 877.47 855.74 877.01 855.74
  L 733.36 855.75
  A 0.90 0.89 6.0 0 1 732.48 854.67
  L 732.77 853.37
  Q 732.90 852.75 733.54 852.75
  L 877.05 852.76
  Q 877.48 852.76 877.50 852.32
  Z
  M 980.16 854.26
  A 46.76 46.76 0.0 0 0 933.40 807.50
  A 46.76 46.76 0.0 0 0 886.64 854.26
  A 46.76 46.76 0.0 0 0 933.40 901.02
  A 46.76 46.76 0.0 0 0 980.16 854.26
  Z"
/>
<rect fill="#ff0000" x="-4.59" y="-9.07" transform="translate(44.11,811.67) rotate(-0.2)" width="9.18" height="18.14" rx="4.35"/>
<path fill="#000000" d="
  M 927.04 876.26
  L 951.71 876.22
  A 0.55 0.54 -90.0 0 1 952.25 876.77
  L 952.25 882.19
  Q 952.25 882.89 951.56 882.89
  L 916.03 882.81
  A 1.57 1.57 0.0 0 1 914.54 880.76
  C 918.63 867.95 931.25 860.85 939.59 852.34
  C 942.82 849.05 945.80 844.01 944.62 838.99
  C 941.93 827.51 923.50 829.42 923.23 842.33
  Q 923.22 842.87 922.68 842.81
  L 916.69 842.21
  Q 916.09 842.15 916.13 841.55
  C 917.50 820.52 950.62 820.34 952.08 840.45
  C 953.03 853.42 934.71 865.62 925.98 873.53
  Q 922.96 876.27 927.04 876.26
  Z"
/>
<rect fill="#ff0000" x="39.54" y="839.50" width="9.16" height="18.14" rx="4.34"/>
<rect fill="#ff0000" x="289.00" y="849.77" width="18.16" height="8.96" rx="4.25"/>
<rect fill="#ff0000" x="-9.09" y="-4.50" transform="translate(334.85,854.26) rotate(0.4)" width="18.18" height="9.00" rx="4.26"/>
<rect fill="#ff0000" x="-9.08" y="-4.50" transform="translate(371.61,854.26) rotate(0.4)" width="18.16" height="9.00" rx="4.26"/>
<rect fill="#ff0000" x="-9.08" y="-4.49" transform="translate(408.38,854.25) rotate(0.4)" width="18.16" height="8.98" rx="4.26"/>
<rect fill="#ff0000" x="436.07" y="849.77" width="18.16" height="8.96" rx="4.25"/>
<rect fill="#ff0000" x="-9.14" y="-4.45" transform="translate(481.99,854.25) rotate(0.1)" width="18.28" height="8.90" rx="4.24"/>
<rect fill="#ff0000" x="509.74" y="849.76" width="18.18" height="8.98" rx="4.27"/>
<circle fill="#ff0000" cx="551.29" cy="854.27" r="4.73"/>
<rect fill="#ff0000" x="-4.58" y="-9.07" transform="translate(44.11,885.34) rotate(0.1)" width="9.16" height="18.14" rx="4.34"/>
<rect fill="#ff0000" x="39.52" y="913.04" width="9.18" height="18.16" rx="4.35"/>
<path fill="#ff0000" d="
  M 877.44 971.25
  Q 878.80 946.86 896.46 931.20
  C 925.43 905.50 972.10 916.96 985.77 953.40
  C 994.88 977.69 986.24 1004.65 965.03 1019.32
  C 928.76 1044.40 879.23 1019.19 877.50 975.21
  Q 877.48 974.74 877.01 974.74
  L 723.48 974.76
  A 1.48 1.48 0.0 0 1 722.14 973.91
  C 721.48 972.50 722.40 971.77 723.75 971.77
  Q 800.32 971.69 876.88 971.78
  Q 877.41 971.78 877.44 971.25
  Z
  M 980.17 973.22
  A 46.76 46.76 0.0 0 0 933.41 926.46
  A 46.76 46.76 0.0 0 0 886.65 973.22
  A 46.76 46.76 0.0 0 0 933.41 1019.98
  A 46.76 46.76 0.0 0 0 980.17 973.22
  Z"
/>
<path fill="#000000" d="
  M 942.48 970.81
  C 948.19 972.37 951.36 976.88 951.87 982.76
  C 953.86 1005.55 918.26 1010.17 914.89 986.83
  Q 914.80 986.20 915.43 986.12
  L 921.24 985.35
  Q 921.81 985.28 921.94 985.84
  C 926.86 1007.47 953.07 991.82 942.21 977.65
  Q 938.20 972.41 929.65 973.89
  Q 928.56 974.08 928.71 972.98
  L 929.27 968.77
  Q 929.33 968.27 929.84 968.27
  C 934.53 968.29 940.85 966.28 941.78 961.00
  C 944.09 947.81 925.90 945.38 922.62 959.31
  Q 922.41 960.23 921.49 960.06
  L 916.27 959.11
  A 0.72 0.72 0.0 0 1 915.69 958.28
  C 916.93 951.35 921.46 946.32 928.34 944.65
  C 935.83 942.85 945.40 946.20 948.27 953.90
  C 950.71 960.43 948.40 966.46 942.37 969.95
  Q 941.38 970.52 942.48 970.81
  Z"
/>
<rect fill="#ff0000" x="-4.59" y="-9.07" transform="translate(44.11,958.89) rotate(-0.2)" width="9.18" height="18.14" rx="4.35"/>
<rect fill="#ff0000" x="-9.07" y="-4.56" transform="translate(390.37,973.18) rotate(0.2)" width="18.14" height="9.12" rx="4.31"/>
<rect fill="#ff0000" x="-9.06" y="-4.56" transform="translate(427.14,973.18) rotate(-0.1)" width="18.12" height="9.12" rx="4.31"/>
<path fill="#ff0000" d="
  M 573.50 968.46
  Q 576.55 968.48 578.96 970.25
  Q 580.34 972.60 579.46 975.25
  Q 577.64 977.67 574.54 978.25
  Q 572.73 977.62 570.83 977.64
  C 563.31 977.72 563.37 969.02 570.18 968.69
  Q 571.83 968.61 573.50 968.46
  Z"
/>
<rect fill="#ff0000" x="270.85" y="968.76" width="18.16" height="8.96" rx="4.26"/>
<rect fill="#ff0000" x="-9.08" y="-4.48" transform="translate(316.83,973.24) rotate(-0.1)" width="18.16" height="8.96" rx="4.24"/>
<rect fill="#ff0000" x="344.51" y="968.76" width="18.18" height="8.96" rx="4.26"/>
<rect fill="#ff0000" x="-9.07" y="-4.48" transform="translate(463.93,973.24) rotate(0.1)" width="18.14" height="8.96" rx="4.26"/>
<rect fill="#ff0000" x="491.61" y="968.79" width="18.28" height="8.90" rx="4.24"/>
<rect fill="#ff0000" x="528.50" y="968.76" width="18.18" height="8.96" rx="4.26"/>
<rect fill="#ff0000" x="39.52" y="986.60" width="9.18" height="18.14" rx="4.35"/>
<rect fill="#ff0000" x="-4.59" y="-9.07" transform="translate(44.12,1032.57) rotate(0.2)" width="9.18" height="18.14" rx="4.34"/>
<path fill="#ffffff" d="
  M 285.79 1099.23
  Q 287.88 1099.36 289.27 1099.72
  Q 318.07 1106.98 344.60 1120.37
  C 367.18 1131.77 389.37 1144.66 413.82 1151.64
  Q 414.31 1151.77 414.30 1152.28
  Q 413.37 1225.05 409.50 1297.75
  C 404.34 1394.84 400.82 1455.27 399.11 1535.56
  C 398.70 1554.75 399.42 1572.80 401.37 1591.89
  C 403.00 1607.84 405.26 1624.70 405.74 1639.98
  Q 406.68 1669.81 401.30 1696.02
  C 396.05 1721.57 392.24 1744.14 391.33 1768.24
  C 389.21 1824.44 388.05 1858.91 392.10 1904.94
  Q 392.72 1912.03 392.17 1921.27
  Q 392.14 1921.80 391.68 1921.53
  C 376.78 1912.36 359.50 1911.72 342.94 1916.50
  Q 342.33 1916.68 342.44 1916.05
  C 347.06 1890.62 342.32 1866.84 336.44 1839.56
  C 324.41 1783.74 312.68 1727.83 303.01 1671.54
  C 294.98 1624.78 307.15 1577.63 308.49 1533.44
  Q 308.93 1518.99 307.87 1484.18
  Q 306.55 1440.70 298.01 1403.24
  C 288.21 1360.27 280.77 1320.41 276.13 1280.52
  Q 262.49 1163.41 264.00 1044.94
  A 0.73 0.73 0.0 0 1 264.86 1044.24
  Q 284.68 1047.83 304.82 1049.88
  C 363.56 1055.87 423.53 1056.32 482.43 1052.58
  C 514.50 1050.55 547.14 1047.15 578.25 1038.80
  A 0.28 0.28 0.0 0 1 578.60 1039.05
  C 581.47 1097.93 578.92 1157.78 574.33 1215.25
  Q 568.88 1283.41 556.83 1350.68
  C 552.35 1375.67 545.37 1402.83 542.02 1420.76
  Q 536.62 1449.66 535.85 1479.06
  C 535.05 1509.36 534.34 1539.13 537.88 1569.32
  C 541.80 1602.83 546.46 1637.36 540.56 1671.61
  C 530.99 1727.22 519.37 1782.39 507.60 1837.57
  C 502.00 1863.79 495.20 1890.20 499.89 1916.75
  Q 499.99 1917.37 499.39 1917.21
  C 481.59 1912.42 466.78 1911.67 450.10 1920.23
  Q 449.63 1920.47 449.61 1919.94
  Q 449.03 1906.67 451.05 1894.99
  Q 452.30 1887.80 452.56 1884.06
  Q 454.93 1850.29 453.68 1816.49
  C 452.86 1794.39 452.97 1771.29 451.23 1751.00
  C 449.88 1735.11 446.62 1717.45 443.13 1700.49
  Q 436.04 1666.12 438.55 1633.57
  Q 439.22 1624.79 443.21 1590.44
  C 445.24 1572.94 445.16 1551.60 444.30 1532.26
  C 438.74 1407.62 432.94 1282.97 429.53 1158.25
  Q 429.45 1155.46 429.52 1152.68
  Q 429.53 1152.16 430.04 1152.08
  C 453.37 1148.57 477.60 1136.84 501.01 1125.75
  C 528.73 1112.62 544.75 1104.42 568.00 1095.70
  Q 582.16 1090.38 567.93 1095.44
  C 518.64 1112.95 484.01 1134.15 440.02 1141.03
  C 412.83 1145.29 388.46 1138.94 363.79 1127.65
  C 335.44 1114.68 314.81 1104.26 287.51 1099.00
  Q 286.72 1098.85 285.78 1099.05
  Q 285.15 1099.18 285.79 1099.23
  Z
  M 490.59 1119.54
  C 446.48 1132.45 401.07 1133.19 358.53 1114.73
  Q 357.50 1114.28 358.50 1114.80
  C 387.95 1130.01 419.41 1136.18 452.25 1130.00
  Q 472.38 1126.21 490.62 1119.65
  A 0.06 0.06 0.0 0 0 490.59 1119.54
  Z"
/>
<rect fill="#ff0000" x="-4.58" y="-9.07" transform="translate(44.11,1069.35) rotate(-0.1)" width="9.16" height="18.14" rx="4.34"/>
<path fill="#ffffff" d="
  M 215.13 1145.33
  L 226.12 1187.39
  Q 226.24 1187.84 226.57 1188.16
  Q 234.15 1195.36 237.33 1197.19
  Q 243.18 1200.57 243.33 1207.40
  Q 243.34 1207.88 243.77 1208.10
  Q 250.31 1211.43 254.30 1217.52
  A 0.46 0.45 -8.4 0 1 253.79 1218.20
  L 242.56 1214.92
  Q 241.72 1214.68 242.20 1215.40
  C 246.30 1221.58 250.79 1227.14 252.94 1234.40
  A 0.62 0.62 0.0 0 1 251.94 1235.04
  Q 237.55 1222.50 224.28 1208.80
  Q 223.91 1208.42 223.38 1208.40
  C 215.49 1208.09 210.87 1200.89 206.38 1193.63
  Q 206.10 1193.18 205.58 1193.09
  C 196.80 1191.60 185.61 1173.03 180.10 1165.40
  Q 175.48 1159.02 173.80 1152.23
  Q 170.15 1137.44 166.61 1122.62
  C 163.41 1109.23 157.89 1096.12 156.07 1082.51
  Q 155.99 1081.96 156.54 1082.00
  C 171.82 1083.27 183.93 1082.37 197.32 1074.51
  Q 197.80 1074.23 198.03 1074.73
  C 203.02 1085.40 212.06 1092.65 220.08 1100.50
  C 228.82 1109.06 232.31 1115.45 235.32 1126.94
  Q 239.46 1142.75 242.28 1150.45
  C 243.85 1154.73 247.14 1159.73 248.80 1164.42
  C 251.24 1171.31 254.24 1178.32 256.43 1185.36
  A 1.47 1.47 0.0 0 1 254.96 1187.26
  C 251.41 1187.10 246.47 1180.87 244.63 1178.22
  C 241.06 1173.09 240.50 1166.13 236.72 1161.03
  C 231.76 1154.35 222.66 1149.14 215.51 1145.04
  Q 214.97 1144.73 215.13 1145.33
  Z"
/>
<path fill="#ffffff" d="
  M 601.86 1214.89
  L 590.54 1218.26
  Q 589.98 1218.43 590.20 1217.89
  C 592.07 1213.21 596.90 1210.36 600.91 1207.74
  Q 601.34 1207.45 601.31 1206.93
  Q 601.00 1201.87 604.55 1199.06
  Q 614.36 1191.33 617.56 1188.66
  Q 618.00 1188.30 618.14 1187.74
  L 629.25 1145.50
  Q 629.40 1144.93 628.88 1145.21
  Q 618.22 1150.83 611.08 1157.07
  C 607.36 1160.33 605.69 1164.00 603.93 1169.45
  C 602.33 1174.41 595.58 1186.55 589.98 1187.04
  A 1.92 1.92 0.0 0 1 588.06 1184.35
  C 591.86 1175.78 594.14 1166.62 598.24 1158.39
  C 603.67 1147.51 606.69 1136.16 609.67 1124.42
  C 615.21 1102.59 634.29 1095.36 645.04 1077.64
  Q 645.30 1077.23 645.74 1077.42
  Q 666.16 1086.21 687.82 1080.53
  A 0.62 0.61 87.2 0 1 688.58 1081.22
  C 687.68 1086.81 686.76 1091.93 684.96 1097.47
  C 678.88 1116.29 675.44 1132.75 671.14 1150.58
  C 669.73 1156.46 667.58 1160.86 663.81 1166.07
  Q 657.75 1174.47 648.16 1186.90
  Q 644.34 1191.85 638.83 1193.30
  Q 638.35 1193.43 638.06 1193.84
  C 633.45 1200.40 629.43 1208.01 620.67 1208.69
  Q 620.15 1208.73 619.79 1209.11
  Q 607.28 1221.98 593.90 1233.85
  C 593.42 1234.28 592.52 1234.59 592.07 1235.06
  A 0.42 0.42 0.0 0 1 591.37 1234.65
  C 593.57 1227.08 598.12 1221.72 602.20 1215.34
  Q 602.63 1214.66 601.86 1214.89
  Z"
/>
<rect fill="#ff0000" x="-4.59" y="-9.08" transform="translate(44.10,1106.13) rotate(-0.2)" width="9.18" height="18.16" rx="4.35"/>
<path fill="#000000" d="
  M 358.53 1114.73
  C 401.07 1133.19 446.48 1132.45 490.59 1119.54
  A 0.06 0.06 0.0 0 1 490.62 1119.65
  Q 472.38 1126.21 452.25 1130.00
  C 419.41 1136.18 387.95 1130.01 358.50 1114.80
  Q 357.50 1114.28 358.53 1114.73
  Z"
/>
<rect fill="#ff0000" x="-4.59" y="-9.07" transform="translate(44.10,1142.89) rotate(-0.2)" width="9.18" height="18.14" rx="4.35"/>
<rect fill="#ff0000" x="39.52" y="1170.60" width="9.18" height="18.14" rx="4.35"/>
<rect fill="#ff0000" x="-4.59" y="-9.08" transform="translate(44.11,1216.58) rotate(0.2)" width="9.18" height="18.16" rx="4.34"/>
<rect fill="#ff0000" x="-4.58" y="-9.07" transform="translate(44.11,1253.35) rotate(0.2)" width="9.16" height="18.14" rx="4.34"/>
<rect fill="#ff0000" x="39.52" y="1281.05" width="9.16" height="18.16" rx="4.34"/>
<rect fill="#ff0000" x="-4.59" y="-9.07" transform="translate(44.10,1326.90) rotate(-0.2)" width="9.18" height="18.14" rx="4.35"/>
<rect fill="#ff0000" x="-4.56" y="-9.13" transform="translate(44.11,1363.75) rotate(-0.1)" width="9.12" height="18.26" rx="4.34"/>
<rect fill="#ff0000" x="-4.59" y="-9.08" transform="translate(44.11,1400.58) rotate(0.2)" width="9.18" height="18.16" rx="4.34"/>
<rect fill="#ff0000" x="39.52" y="1428.28" width="9.16" height="18.16" rx="4.34"/>
<rect fill="#ff0000" x="39.53" y="1465.05" width="9.16" height="18.16" rx="4.34"/>
<rect fill="#ff0000" x="-4.59" y="-9.07" transform="translate(44.11,1510.90) rotate(-0.2)" width="9.18" height="18.14" rx="4.35"/>
<rect fill="#ff0000" x="39.52" y="1538.75" width="9.18" height="18.14" rx="4.35"/>
<rect fill="#ff0000" x="-4.59" y="-9.08" transform="translate(44.11,1584.59) rotate(0.2)" width="9.18" height="18.16" rx="4.34"/>
<rect fill="#ff0000" x="-4.59" y="-9.07" transform="translate(44.10,1621.36) rotate(0.2)" width="9.18" height="18.14" rx="4.34"/>
<rect fill="#ff0000" x="39.53" y="1649.06" width="9.16" height="18.14" rx="4.34"/>
<rect fill="#ff0000" x="-4.56" y="-9.13" transform="translate(44.10,1694.97) rotate(-0.2)" width="9.12" height="18.26" rx="4.33"/>
<rect fill="#ff0000" x="-4.59" y="-9.07" transform="translate(44.11,1731.82) rotate(-0.1)" width="9.18" height="18.14" rx="4.35"/>
<rect fill="#ff0000" x="39.53" y="1759.51" width="9.16" height="18.16" rx="4.34"/>
<rect fill="#ff0000" x="39.52" y="1796.28" width="9.16" height="18.16" rx="4.34"/>
<rect fill="#ff0000" x="39.53" y="1833.06" width="9.16" height="18.14" rx="4.34"/>
<rect fill="#ff0000" x="-4.56" y="-9.13" transform="translate(44.11,1878.98) rotate(-0.2)" width="9.12" height="18.26" rx="4.33"/>
<rect fill="#ff0000" x="39.52" y="1906.75" width="9.18" height="18.14" rx="4.35"/>
<path fill="#ffffff" d="
  M 391.46 1928.80
  C 388.67 1957.94 387.11 1980.72 389.89 2007.95
  C 390.49 2013.82 378.51 2019.71 374.04 2021.59
  C 349.58 2031.84 297.57 2042.07 295.28 1999.57
  C 295.07 1995.56 297.56 1992.04 300.06 1989.30
  C 318.67 1968.88 333.74 1951.16 340.72 1923.65
  Q 340.92 1922.89 341.66 1922.63
  C 357.81 1917.09 377.08 1917.24 391.10 1927.96
  Q 391.51 1928.28 391.46 1928.80
  Z"
/>
<path fill="#ffffff" d="
  M 454.40 1975.29
  Q 453.91 1951.09 450.81 1927.02
  Q 450.75 1926.51 451.18 1926.23
  C 465.65 1916.77 485.33 1917.32 500.78 1923.69
  A 1.15 1.12 3.6 0 1 501.44 1924.42
  C 510.46 1955.51 528.57 1974.86 550.72 1996.79
  Q 553.53 1999.57 552.46 2003.29
  C 546.71 2023.22 532.09 2031.55 512.31 2032.40
  C 495.76 2033.12 461.31 2028.87 452.39 2012.06
  Q 452.15 2011.61 452.20 2011.11
  C 453.36 1999.16 454.65 1987.09 454.40 1975.29
  Z"
/>
<rect fill="#ff0000" x="-4.59" y="-9.08" transform="translate(44.11,1952.60) rotate(0.2)" width="9.18" height="18.16" rx="4.34"/>
<rect fill="#ff0000" x="-4.58" y="-9.07" transform="translate(44.10,1989.37) rotate(0.2)" width="9.16" height="18.14" rx="4.34"/>
<path fill="#ffffff" d="
  M 452.30 2020.73
  C 464.65 2032.65 486.87 2037.23 503.49 2037.79
  C 526.86 2038.59 545.31 2033.44 555.82 2010.21
  Q 556.13 2009.54 556.17 2010.27
  C 557.32 2033.36 538.39 2047.66 517.15 2049.01
  C 501.20 2050.02 450.68 2045.89 451.70 2020.97
  Q 451.74 2020.18 452.30 2020.73
  Z"
/>
<path fill="#ffffff" d="
  M 293.97 2016.00
  Q 303.58 2034.63 325.20 2035.65
  C 346.09 2036.63 372.88 2031.73 389.90 2018.37
  Q 390.18 2018.15 390.26 2018.50
  Q 391.49 2023.71 389.22 2027.20
  C 384.48 2034.49 369.46 2040.16 361.35 2042.47
  Q 346.23 2046.78 330.50 2047.24
  C 308.51 2047.88 291.09 2036.74 292.28 2012.72
  Q 292.33 2011.81 292.70 2012.64
  C 293.21 2013.77 293.46 2015.01 293.97 2016.00
  Z"
/>
<rect fill="#ff0000" x="39.53" y="2017.06" width="9.16" height="18.14" rx="4.34"/>
</svg>
