<svg width="963" height="918" viewBox="0 0 963 918" fill="none" xmlns="http://www.w3.org/2000/svg">
<ellipse cx="481.5" cy="459" rx="481.5" ry="459" fill="#2EABE0"/>
<path d="M751.64 676.22L645.661 196.928C645.16 194.662 643.7 192.725 641.66 191.619L532.01 132.182C530.51 131.37 528.791 131.057 527.102 131.29L144.77 184.091C140.193 184.723 137.103 189.091 138.031 193.619L256.967 773.974C257.85 778.281 262.042 781.07 266.355 780.22L745.38 685.793C749.784 684.925 752.61 680.604 751.64 676.22Z" fill="#F0F0F0" stroke="black" stroke-width="13"/>
<line y1="-4.5" x2="400.064" y2="-4.5" transform="matrix(0.989679 -0.143303 0.141776 0.989899 221.391 335.952)" stroke="black" stroke-width="9"/>
<line y1="-4.5" x2="326.119" y2="-4.5" transform="matrix(0.989885 -0.141856 0.140345 0.990105 228.211 383.592)" stroke="black" stroke-width="9"/>
<line y1="-4.5" x2="383.001" y2="-4.5" transform="matrix(0.989679 -0.143303 0.141776 0.989899 234.898 430.29)" stroke="black" stroke-width="9"/>
<line y1="-4.5" x2="395.325" y2="-4.5" transform="matrix(0.989338 -0.14566 0.144109 0.989558 241.664 477.458)" stroke="black" stroke-width="9"/>
<line y1="-4.5" x2="395.325" y2="-4.5" transform="matrix(0.989338 -0.14566 0.144109 0.989558 250.562 526.231)" stroke="black" stroke-width="9"/>
<path d="M533.338 228.04L529.006 139.057C528.893 136.734 531.353 135.171 533.408 136.261L639.091 192.303C641.431 193.544 641.132 196.988 638.612 197.807L537.261 230.748C535.381 231.359 533.434 230.015 533.338 228.04Z" fill="#F0F0F0" stroke="black" stroke-width="10"/>
<path d="M845.501 643.227C845.501 727.54 773.989 796.373 685.165 796.373C596.34 796.373 524.828 727.54 524.828 643.227C524.828 558.914 596.34 490.082 685.165 490.082C773.989 490.082 845.501 558.914 845.501 643.227Z" fill="#36DE8A" stroke="black" stroke-width="13"/>
<path d="M582.773 643.709L787.567 646.603" stroke="black" stroke-width="23" stroke-linecap="round"/>
<path d="M687.055 556.971L685.159 728.565" stroke="black" stroke-width="23" stroke-linecap="round"/>
</svg>
