<svg xmlns="http://www.w3.org/2000/svg" xmlns:xlink="http://www.w3.org/1999/xlink" version="1.1" width="1080"
     height="1080" viewBox="0 0 1080 1080">

<defs>
</defs>
  <g transform="matrix(1 0 0 1 540 540)" id="7db664c3-643b-4ae6-b5e0-06313901d458">
    <rect
      style="stroke: none; stroke-width: 1; stroke-dasharray: none; stroke-linecap: butt; stroke-dashoffset: 0; stroke-linejoin: miter; stroke-miterlimit: 4; fill: rgb(255,255,255); fill-rule: nonzero; opacity: 1; visibility: hidden;"
      vector-effect="non-scaling-stroke" x="-540" y="-540" rx="0" ry="0" width="1080" height="1080"/>
  </g>

  <g transform="matrix(47.77 0 0 47.77 540 540)" id="ed8c1344-39be-48b5-b537-0f23e812b8b5">
    <path
      style="stroke: rgb(0,0,0); stroke-width: 0; stroke-dasharray: none; stroke-linecap: butt; stroke-dashoffset: 0; stroke-linejoin: miter; stroke-miterlimit: 4; fill: rgb(255,255,255); fill-rule: nonzero; opacity: 1;"
      vector-effect="non-scaling-stroke" transform=" translate(-12, -12)"
      d="M 6 6 C 6 3.790861000676826 7.790861000676826 2 10 2 L 14 2 C 16.209138999323173 2 18 3.7908610006768253 18 5.999999999999999 L 18 8 L 22 8 C 22.293801250428583 8.000135242950611 22.57267824249341 8.129464782823344 22.762577743783172 8.353646344183671 C 22.952477245072934 8.577827905543998 23.03418344130281 8.874176693434995 22.986 9.164 L 21.404 18.658 C 21.08246326065008 20.586003720079933 19.414631340203194 21.99926291838964 17.46 22 L 6.54 22 C 4.584990502873861 21.999751548762 2.9165990490870954 20.586376583348724 2.5950000000000006 18.658 L 1.014 9.164 C 0.965816558697188 8.874176693434995 1.0475227549270671 8.577827905543998 1.2374222562168287 8.353646344183671 C 1.4273217575065904 8.129464782823344 1.706198749571417 8.000135242950611 1.9999999999999996 8 L 6 8 L 6 6 Z M 8 8 L 13 8 C 13.552284749830793 8 14 8.447715250169207 14 9 C 14 9.552284749830793 13.552284749830793 10 13 10 L 3.18 10 L 4.569 18.329 C 4.729705900811769 19.29262917134778 5.563062523945817 19.99914308167604 6.539999999999999 20 L 17.46 20 C 18.437315670101597 19.99963145919482 19.27123163032504 19.29300186003997 19.432000000000002 18.329 L 20.82 10 L 17 10 C 16.447715250169207 10 16 9.552284749830793 16 9 L 16 6 C 16 4.8954305003384135 15.104569499661586 4 14 4 L 10 4 C 8.895430500338414 4 8 4.8954305003384135 8 6 L 8 8 Z"
      stroke-linecap="round"/>
  </g>
</svg>
