<?xml version="1.0" encoding="UTF-8" standalone="no"?>
<svg width="800px" height="800px" viewBox="0 0 24 24" version="1.1" xmlns="http://www.w3.org/2000/svg"
     xmlns:xlink="http://www.w3.org/1999/xlink" xmlns:sketch="http://www.bohemiancoding.com/sketch/ns">
  <title>trash</title>
  <path fill="currentColor" d="M8.995 4.002a1 1 0 0 0-1 1v1h5a1 1 0 1 1 0 2h-7v11a1 1 0 0 0 1 1h10a1 1 0 0 0 1-1v-11h-1a1 1 0 0 1-1-1v-2a1 1 0 0 0-1-1h-6Zm11 4v11a3 3 0 0 1-3 3h-10a3 3 0 0 1-3-3v-11h-1a1 1 0 0 1 0-2h3v-1a3 3 0 0 1 3-3h6a3 3 0 0 1 3 3v1h3a1 1 0 1 1 0 2h-1Zm-10 3a1 1 0 0 1 1 1v4a1 1 0 1 1-2 0v-4a1 1 0 0 1 1-1Zm4 0a1 1 0 0 1 1 1v4a1 1 0 1 1-2 0v-4a1 1 0 0 1 1-1Z"></path>
</svg>
