<?xml version="1.0" encoding="UTF-8"?>
<!DOCTYPE svg PUBLIC "-//W3C//DTD SVG 1.1//EN" "http://www.w3.org/Graphics/SVG/1.1/DTD/svg11.dtd">
<!-- Creator: CorelDRAW 2018 (64-Bit) -->
<svg xmlns="http://www.w3.org/2000/svg" xml:space="preserve" width="480px" height="351px" version="1.1" style="shape-rendering:geometricPrecision; text-rendering:geometricPrecision; image-rendering:optimizeQuality; fill-rule:evenodd; clip-rule:evenodd"
viewBox="0 0 480 351"
 xmlns:xlink="http://www.w3.org/1999/xlink">
 <defs>
  <style type="text/css">
   <![CDATA[
    .fil2 {fill:#FF0000}
    .fil0 {fill:#FF0000;fill-rule:nonzero}
    .fil4 {fill:#FF0000;fill-rule:nonzero}
    .fil1 {fill:#FF0000;fill-rule:nonzero}
    .fil5 {fill:#FEFEFE;fill-rule:nonzero}
    .fil3 {fill:#FF0000;fill-rule:nonzero}
   ]]>
  </style>
  <linearGradient id="id0" gradientUnits="userSpaceOnUse" x1="280.14" y1="78.94" x2="348.35" y2="340.5">
   <stop offset="0" style="stop-opacity:1; stop-color:#0695F5"/>
   <stop offset="1" style="stop-opacity:1; stop-color:#0054DA"/>
  </linearGradient>
 </defs>
 <g id="Слой_x0020_1">
  <metadata id="CorelCorpID_0Corel-Layer"/>
  <g id="_2185216744128">
   <path class="fil2" d="M24.72 298.75l190.53 0c13.59,0 24.72,11.13 24.72,24.72l0 0c0,13.6 -11.13,24.72 -24.72,24.72l-190.53 0c-13.59,0 -24.72,-11.12 -24.72,-24.72l0 0c0,-13.59 11.13,-24.72 24.72,-24.72z"/>
   <path class="fil2" d="M133.45 70.06l68.03 0c13.6,0 24.72,11.13 24.72,24.72l0 0c0,13.6 -11.12,24.72 -24.72,24.72l-68.03 0c-13.6,0 -24.72,-11.12 -24.72,-24.72l0 0c0,-13.59 11.12,-24.72 24.72,-24.72z"/>
   <path class="fil3" d="M314.19 70.06l-106.09 0c-7.08,0 -13.71,2.38 -18.69,6.23 -4.99,3.86 -8.34,9.18 -8.84,15.05l-5.28 61.45c15.04,2.54 26.88,15.78 26.88,31.52l0 0c0,17.54 -14.37,32.73 -31.88,31.89l-0.45 -0.02 -8.85 103.07c-0.06,0.77 -0.1,1.56 -0.1,2.36 0,7.14 2.83,13.59 7.54,18.34 4.67,4.71 11.2,7.77 18.67,8.19 0.58,0.04 1.19,0.05 1.82,0.05l250.66 0c0.63,0 1.24,-0.01 1.81,-0.05 7.49,-0.42 14.04,-3.49 18.73,-8.2 4.73,-4.77 7.57,-11.22 7.57,-18.37 0,-0.79 -0.04,-1.58 -0.1,-2.35l-19.67 -227.85c-0.5,-5.88 -3.86,-11.2 -8.87,-15.06 -5,-3.86 -11.66,-6.25 -18.75,-6.25l-106.11 0z"/>
   <path class="fil4" d="M314.29 0c19.35,0 36.86,7.84 49.54,20.52 12.68,12.68 20.52,30.2 20.52,49.54l-17.71 0c0,-14.45 -5.86,-27.54 -15.33,-37.02 -9.48,-9.47 -22.56,-15.33 -37.02,-15.33 -14.46,0 -27.54,5.86 -37.02,15.33 -9.47,9.48 -15.33,22.57 -15.33,37.02l-17.71 0c0,-19.34 7.84,-36.86 20.52,-49.54 12.68,-12.68 30.19,-20.52 49.54,-20.52z"/>
   <path class="fil5" d="M320.85 285.72c-22.28,0 -40.71,-7.36 -55.3,-22.1 -14.59,-14.73 -21.89,-33.09 -21.89,-55.08 0,-21.99 7.3,-40.36 21.89,-55.09 14.59,-14.73 33.02,-22.1 55.3,-22.1 13.39,0 25.79,3.18 37.21,9.52 11.42,6.34 20.37,14.87 26.86,25.59l-32.78 18.82c-2.82,-5.22 -7.01,-9.34 -12.58,-12.37 -5.57,-3.03 -11.81,-4.55 -18.71,-4.55 -11.85,0 -21.4,3.7 -28.66,11.1 -7.26,7.4 -10.89,17.1 -10.89,29.08 0,11.98 3.63,21.67 10.89,29.07 7.26,7.41 16.81,11.11 28.66,11.11 6.9,0 13.14,-1.52 18.71,-4.55 5.57,-3.03 9.76,-7.23 12.58,-12.58l32.78 19.03c-6.49,10.85 -15.4,19.42 -26.75,25.69 -11.35,6.28 -23.79,9.41 -37.32,9.41z"/>
   <path class="fil2" d="M65.44 70.06l15.98 0c9.18,0 16.7,7.52 16.7,16.7l0 0c0,9.19 -7.52,16.71 -16.7,16.71l-15.98 0c-9.18,0 -16.7,-7.52 -16.7,-16.71l0 0c0,-9.18 7.52,-16.7 16.7,-16.7z"/>
   <path class="fil2" d="M102.22 159.1l68.04 0c13.59,0 24.72,11.12 24.72,24.72l0 0c0,13.59 -11.13,24.72 -24.72,24.72l-68.04 0c-13.59,0 -24.72,-11.13 -24.72,-24.72l0 0c0,-13.6 11.13,-24.72 24.72,-24.72z"/>
   <path class="fil2" d="M111.98 252.11l15.97 0c9.19,0 16.7,7.52 16.7,16.71l0 0c0,9.18 -7.51,16.7 -16.7,16.7l-15.97 0c-9.19,0 -16.7,-7.52 -16.7,-16.7l0 0c0,-9.19 7.51,-16.71 16.7,-16.71z"/>
  </g>
 </g>
</svg>
