<svg width="86" height="86" viewBox="0 0 86 86" fill="none" xmlns="http://www.w3.org/2000/svg">
  <g clip-path="url(#clip0_3_497)">
    <path d="M21.6426 42.9922L10.4164 49.4648L0 67.5024L42.4913 42.9922H21.6426Z" fill="#874691"/>
    <path d="M53.7176 24.5103L42.4914 30.9829L32.075 49.0205L74.5504 24.5103H53.7176Z" fill="#DA1844"/>
    <path d="M42.4914 18.0376L32.075 0V36.9795V49.0205V86L42.4914 67.9624V18.0376Z" fill="#F9B229"/>
    <path d="M32.075 0L42.4914 18.0376L53.7176 24.5102H74.5504L32.075 0Z" fill="#F07F1A"/>
    <path d="M32.075 36.9795V86L42.4914 67.9623V55.0013L32.075 36.9795Z" fill="#72B22C"/>
    <path d="M53.7176 61.4897L42.4914 67.9624L32.075 86L74.5504 61.4897H53.7176Z" fill="#00743E"/>
    <path d="M0 18.4819V67.5024L10.4164 49.4648V36.5196L0 18.4819Z" fill="#5F5A94"/>
    <path d="M32.0749 36.9796V36.9955L0 18.4819L10.4164 36.5196L53.7176 61.4899H74.5504L32.0749 36.9796Z" fill="#0D90CD"/>
  </g>
  <defs>
    <clipPath id="clip0_3_497">
      <rect width="86" height="86" fill="white"/>
    </clipPath>
  </defs>
</svg>
