<?xml version="1.0" encoding="UTF-8" standalone="no"?>
<!DOCTYPE svg PUBLIC "-//W3C//DTD SVG 1.1//EN" "http://www.w3.org/Graphics/SVG/1.1/DTD/svg11.dtd">
<svg xmlns="http://www.w3.org/2000/svg" version="1.1" viewBox="0.00 0.00 1175.00 1782.00">
<g stroke-width="2.00" fill="none" stroke-linecap="butt">
<path stroke="#800000" vector-effect="non-scaling-stroke" d="
  M 1049.96 518.25
  L 1049.93 596.99"
/>
<path stroke="#800000" vector-effect="non-scaling-stroke" d="
  M 79.27 591.24
  Q 78.66 555.13 79.19 519.01"
/>
<path stroke="#800000" vector-effect="non-scaling-stroke" d="
  M 81.25 494.71
  C 84.55 498.82 90.60 497.52 95.25 497.54"
/>
<path stroke="#808080" vector-effect="non-scaling-stroke" d="
  M 95.25 497.54
  C 89.94 568.62 95.09 639.03 108.11 709.00
  Q 108.27 709.87 107.57 709.33
  Q 96.00 700.43 85.19 690.79
  Q 80.86 686.93 75.47 687.30
  C 48.13 689.21 44.69 712.99 46.14 734.94
  C 47.70 758.54 44.17 784.65 46.00 807.50
  Q 49.20 847.73 52.27 887.96
  Q 52.69 893.48 52.27 900.03
  Q 50.64 924.94 53.99 949.61
  C 55.74 962.48 59.69 978.00 62.24 992.20
  Q 63.09 996.98 64.83 1000.98
  Q 73.45 1020.85 84.74 1037.02
  Q 99.85 1058.68 126.95 1054.12
  Q 127.38 1054.05 127.33 1053.62
  C 122.08 1009.82 119.44 965.63 117.84 921.56
  Q 116.49 884.29 112.68 808.56
  Q 112.63 807.74 112.78 808.55
  C 134.94 928.97 148.28 1050.62 160.46 1173.30
  Q 161.51 1183.92 163.48 1193.05
  C 171.20 1228.88 181.42 1264.13 196.73 1297.51
  C 208.26 1322.65 226.02 1344.34 245.94 1363.06
  Q 280.33 1395.39 321.76 1421.73
  C 389.06 1464.53 466.15 1499.06 545.51 1506.91
  C 580.91 1510.42 616.27 1506.50 651.27 1497.60
  C 720.81 1479.93 788.01 1447.03 846.62 1405.90
  Q 879.44 1382.86 907.41 1354.18
  C 919.47 1341.82 931.18 1327.40 938.25 1311.75
  Q 946.24 1294.04 952.62 1272.71
  C 967.11 1224.32 974.83 1174.04 980.41 1123.93
  C 985.41 1079.19 990.90 1034.60 994.98 989.75
  C 1000.40 930.15 1005.71 870.52 1009.69 810.80
  C 1010.15 803.85 1010.63 791.79 1011.44 782.30
  Q 1011.51 781.43 1011.62 782.30
  Q 1028.01 917.41 1009.56 1052.24
  Q 1009.50 1052.69 1009.95 1052.69
  Q 1034.01 1052.59 1047.19 1033.45
  Q 1057.01 1019.18 1064.93 1001.37
  Q 1066.67 997.45 1067.53 992.79
  C 1070.18 978.24 1074.19 962.46 1075.98 949.10
  Q 1079.26 924.61 1077.66 899.91
  Q 1077.22 893.19 1077.63 887.58
  Q 1080.77 844.74 1082.79 822.31
  Q 1085.26 794.79 1083.91 768.74
  Q 1083.23 755.57 1083.29 749.64
  C 1083.49 731.40 1088.70 700.24 1067.41 690.62
  Q 1059.36 686.98 1054.25 687.21
  C 1047.61 687.50 1043.67 691.58 1038.02 696.79
  Q 1032.27 702.08 1022.32 709.14
  Q 1021.73 709.56 1021.86 708.85
  C 1035.53 633.85 1039.92 558.39 1032.20 482.51
  C 1023.33 395.28 996.64 306.60 947.71 233.19
  C 888.79 144.79 802.73 83.51 698.82 58.26
  C 626.34 40.65 549.84 39.14 476.33 50.91
  C 365.24 68.69 264.78 123.92 196.94 213.96
  C 137.70 292.57 105.61 388.02 96.46 485.75"
/>
<path stroke="#800000" vector-effect="non-scaling-stroke" d="
  M 96.46 485.75
  Q 91.36 485.97 86.25 486.20
  C 83.94 486.30 83.54 487.16 81.79 488.25"
/>
<path stroke="#ff8080" vector-effect="non-scaling-stroke" d="
  M 95.25 497.54
  Q 99.23 497.65 100.26 497.26
  C 107.04 494.68 103.73 485.70 96.46 485.75"
/>
<path stroke="#808080" vector-effect="non-scaling-stroke" d="
  M 658.01 1510.76
  C 611.85 1523.03 565.28 1526.32 518.25 1517.99
  Q 479.87 1511.19 441.28 1497.16
  C 365.28 1469.52 291.88 1426.85 233.15 1370.90
  Q 232.80 1370.56 232.81 1371.05
  C 234.73 1429.23 234.66 1491.34 218.25 1547.87
  C 210.34 1575.14 196.86 1599.74 172.07 1615.07
  C 139.29 1635.36 102.05 1650.15 66.16 1663.88
  A 0.25 0.25 0.0 0 0 66.15 1664.35
  C 167.43 1707.16 277.82 1730.53 386.75 1742.47
  C 541.85 1759.46 700.73 1755.63 854.43 1728.18
  C 936.78 1713.47 1018.15 1690.90 1094.53 1656.42
  A 0.26 0.25 44.1 0 0 1094.52 1655.95
  C 1061.04 1641.69 1027.53 1626.68 995.95 1608.55
  C 980.54 1599.71 962.93 1587.96 950.93 1573.29
  C 938.80 1558.45 930.10 1537.15 924.75 1518.99
  C 910.65 1471.13 909.99 1422.72 910.02 1373.17
  Q 910.02 1372.48 909.52 1372.95
  C 839.42 1437.97 750.37 1486.19 658.01 1510.76"
/>
<path stroke="#ff8080" vector-effect="non-scaling-stroke" d="
  M 150.1489 491.4501
  A 5.43 5.43 0.0 0 0 144.7000 486.0391
  L 132.6801 486.0810
  A 5.43 5.43 0.0 0 0 127.2691 491.5299
  L 127.2711 492.1099
  A 5.43 5.43 0.0 0 0 132.7200 497.5209
  L 144.7399 497.4790
  A 5.43 5.43 0.0 0 0 150.1509 492.0301
  L 150.1489 491.4501"
/>
<path stroke="#ff8080" vector-effect="non-scaling-stroke" d="
  M 196.4509 491.5299
  A 5.42 5.42 0.0 0 0 191.0499 486.0910
  L 179.0100 486.0490
  A 5.42 5.42 0.0 0 0 173.5711 491.4501
  L 173.5691 492.0301
  A 5.42 5.42 0.0 0 0 178.9701 497.4690
  L 191.0100 497.5110
  A 5.42 5.42 0.0 0 0 196.4489 492.1099
  L 196.4509 491.5299"
/>
<path stroke="#ff8080" vector-effect="non-scaling-stroke" d="
  M 242.7505 491.5099
  A 5.44 5.44 0.0 0 0 237.3200 486.0604
  L 225.4400 486.0396
  A 5.44 5.44 0.0 0 0 219.9905 491.4701
  L 219.9895 492.0701
  A 5.44 5.44 0.0 0 0 225.4200 497.5196
  L 237.3000 497.5404
  A 5.44 5.44 0.0 0 0 242.7495 492.1099
  L 242.7505 491.5099"
/>
<path stroke="#ff8080" vector-effect="non-scaling-stroke" d="
  M 289.1905 491.5200
  A 5.43 5.43 0.0 0 0 283.7700 486.0805
  L 271.7300 486.0595
  A 5.43 5.43 0.0 0 0 266.2905 491.4800
  L 266.2895 492.0400
  A 5.43 5.43 0.0 0 0 271.7100 497.4795
  L 283.7500 497.5005
  A 5.43 5.43 0.0 0 0 289.1895 492.0800
  L 289.1905 491.5200"
/>
<path stroke="#ff8080" vector-effect="non-scaling-stroke" d="
  M 335.4709 491.5299
  A 5.42 5.42 0.0 0 0 330.0699 486.0910
  L 318.0500 486.0491
  A 5.42 5.42 0.0 0 0 312.6111 491.4501
  L 312.6091 492.0301
  A 5.42 5.42 0.0 0 0 318.0101 497.4690
  L 330.0300 497.5109
  A 5.42 5.42 0.0 0 0 335.4689 492.1099
  L 335.4709 491.5299"
/>
<path stroke="#ff8080" vector-effect="non-scaling-stroke" d="
  M 381.8995 491.4700
  A 5.43 5.43 0.0 0 0 376.4600 486.0495
  L 364.4400 486.0705
  A 5.43 5.43 0.0 0 0 359.0195 491.5100
  L 359.0205 492.0900
  A 5.43 5.43 0.0 0 0 364.4600 497.5105
  L 376.4800 497.4895
  A 5.43 5.43 0.0 0 0 381.9005 492.0500
  L 381.8995 491.4700"
/>
<path stroke="#ff8080" vector-effect="non-scaling-stroke" d="
  M 428.21 491.49
  A 5.42 5.42 0.0 0 0 422.79 486.07
  L 410.73 486.07
  A 5.42 5.42 0.0 0 0 405.31 491.49
  L 405.31 492.07
  A 5.42 5.42 0.0 0 0 410.73 497.49
  L 422.79 497.49
  A 5.42 5.42 0.0 0 0 428.21 492.07
  L 428.21 491.49"
/>
<path stroke="#ff8080" vector-effect="non-scaling-stroke" d="
  M 474.5005 491.5198
  A 5.44 5.44 0.0 0 0 469.0700 486.0704
  L 457.2100 486.0497
  A 5.44 5.44 0.0 0 0 451.7605 491.4802
  L 451.7595 492.0602
  A 5.44 5.44 0.0 0 0 457.1900 497.5096
  L 469.0500 497.5303
  A 5.44 5.44 0.0 0 0 474.4995 492.0998
  L 474.5005 491.5198"
/>
<path stroke="#ff8080" vector-effect="non-scaling-stroke" d="
  M 520.9395 491.4600
  A 5.43 5.43 0.0 0 0 515.5000 486.0395
  L 503.4600 486.0605
  A 5.43 5.43 0.0 0 0 498.0395 491.5000
  L 498.0405 492.0800
  A 5.43 5.43 0.0 0 0 503.4800 497.5005
  L 515.5200 497.4795
  A 5.43 5.43 0.0 0 0 520.9405 492.0400
  L 520.9395 491.4600"
/>
<path stroke="#ff8080" vector-effect="non-scaling-stroke" d="
  M 567.2109 491.5299
  A 5.42 5.42 0.0 0 0 561.8099 486.0910
  L 549.7900 486.0491
  A 5.42 5.42 0.0 0 0 544.3511 491.4501
  L 544.3491 492.0301
  A 5.42 5.42 0.0 0 0 549.7501 497.4690
  L 561.7700 497.5109
  A 5.42 5.42 0.0 0 0 567.2089 492.1099
  L 567.2109 491.5299"
/>
<path stroke="#ff8080" vector-effect="non-scaling-stroke" d="
  M 613.6495 491.4800
  A 5.43 5.43 0.0 0 0 608.2100 486.0595
  L 596.1900 486.0805
  A 5.43 5.43 0.0 0 0 590.7695 491.5200
  L 590.7705 492.0800
  A 5.43 5.43 0.0 0 0 596.2100 497.5005
  L 608.2300 497.4795
  A 5.43 5.43 0.0 0 0 613.6505 492.0400
  L 613.6495 491.4800"
/>
<path stroke="#ff8080" vector-effect="non-scaling-stroke" d="
  M 659.9509 491.5299
  A 5.42 5.42 0.0 0 0 654.5499 486.0910
  L 642.5100 486.0490
  A 5.42 5.42 0.0 0 0 637.0711 491.4501
  L 637.0691 492.0301
  A 5.42 5.42 0.0 0 0 642.4701 497.4690
  L 654.5100 497.5110
  A 5.42 5.42 0.0 0 0 659.9489 492.1099
  L 659.9509 491.5299"
/>
<path stroke="#ff8080" vector-effect="non-scaling-stroke" d="
  M 706.26 491.50
  A 5.43 5.43 0.0 0 0 700.83 486.07
  L 688.81 486.07
  A 5.43 5.43 0.0 0 0 683.38 491.50
  L 683.38 492.06
  A 5.43 5.43 0.0 0 0 688.81 497.49
  L 700.83 497.49
  A 5.43 5.43 0.0 0 0 706.26 492.06
  L 706.26 491.50"
/>
<path stroke="#ff8080" vector-effect="non-scaling-stroke" d="
  M 752.69 491.49
  A 5.43 5.43 0.0 0 0 747.26 486.06
  L 735.22 486.06
  A 5.43 5.43 0.0 0 0 729.79 491.49
  L 729.79 492.07
  A 5.43 5.43 0.0 0 0 735.22 497.50
  L 747.26 497.50
  A 5.43 5.43 0.0 0 0 752.69 492.07
  L 752.69 491.49"
/>
<path stroke="#ff8080" vector-effect="non-scaling-stroke" d="
  M 798.9709 491.5299
  A 5.42 5.42 0.0 0 0 793.5699 486.0910
  L 781.5500 486.0491
  A 5.42 5.42 0.0 0 0 776.1111 491.4501
  L 776.1091 492.0301
  A 5.42 5.42 0.0 0 0 781.5101 497.4690
  L 793.5300 497.5109
  A 5.42 5.42 0.0 0 0 798.9689 492.1099
  L 798.9709 491.5299"
/>
<path stroke="#ff8080" vector-effect="non-scaling-stroke" d="
  M 845.3995 491.4800
  A 5.43 5.43 0.0 0 0 839.9600 486.0595
  L 827.9400 486.0805
  A 5.43 5.43 0.0 0 0 822.5195 491.5200
  L 822.5205 492.0800
  A 5.43 5.43 0.0 0 0 827.9600 497.5005
  L 839.9800 497.4795
  A 5.43 5.43 0.0 0 0 845.4005 492.0400
  L 845.3995 491.4800"
/>
<path stroke="#ff8080" vector-effect="non-scaling-stroke" d="
  M 891.6905 491.5199
  A 5.42 5.42 0.0 0 0 886.2799 486.0905
  L 874.2600 486.0695
  A 5.42 5.42 0.0 0 0 868.8305 491.4801
  L 868.8295 492.0401
  A 5.42 5.42 0.0 0 0 874.2401 497.4695
  L 886.2600 497.4905
  A 5.42 5.42 0.0 0 0 891.6895 492.0799
  L 891.6905 491.5199"
/>
<path stroke="#ff8080" vector-effect="non-scaling-stroke" d="
  M 938.1195 491.4801
  A 5.42 5.42 0.0 0 0 932.6900 486.0695
  L 920.6700 486.0905
  A 5.42 5.42 0.0 0 0 915.2595 491.5199
  L 915.2605 492.0999
  A 5.42 5.42 0.0 0 0 920.6900 497.5105
  L 932.7100 497.4895
  A 5.42 5.42 0.0 0 0 938.1205 492.0601
  L 938.1195 491.4801"
/>
<path stroke="#ff8080" vector-effect="non-scaling-stroke" d="
  M 984.4295 491.4700
  A 5.43 5.43 0.0 0 0 978.9900 486.0495
  L 966.9700 486.0705
  A 5.43 5.43 0.0 0 0 961.5495 491.5100
  L 961.5505 492.0900
  A 5.43 5.43 0.0 0 0 966.9900 497.5105
  L 979.0100 497.4895
  A 5.43 5.43 0.0 0 0 984.4305 492.0500
  L 984.4295 491.4700"
/>
<path stroke="#ff8080" vector-effect="non-scaling-stroke" d="
  M 1030.7105 491.5199
  A 5.42 5.42 0.0 0 0 1025.2999 486.0905
  L 1013.2800 486.0695
  A 5.42 5.42 0.0 0 0 1007.8505 491.4801
  L 1007.8495 492.0401
  A 5.42 5.42 0.0 0 0 1013.2601 497.4695
  L 1025.2800 497.4905
  A 5.42 5.42 0.0 0 0 1030.7095 492.0799
  L 1030.7105 491.5199"
/>
</g>
<path fill="#000000" d="
  M 1049.96 518.25
  L 1049.93 596.99
  Q 1049.23 601.08 1049.05 605.22
  C 1048.06 628.47 1045.33 651.92 1042.03 674.97
  A 0.31 0.30 -7.8 0 0 1042.46 675.29
  C 1048.19 672.71 1053.41 672.33 1059.87 673.36
  C 1093.64 678.74 1099.95 707.31 1098.11 736.79
  Q 1097.20 751.30 1097.74 758.26
  C 1101.06 801.03 1095.46 841.32 1092.18 887.72
  Q 1091.76 893.61 1092.18 900.79
  C 1093.55 924.10 1091.81 946.52 1086.94 969.34
  Q 1083.97 983.21 1081.49 997.17
  Q 1080.69 1001.67 1078.99 1005.51
  Q 1070.88 1023.79 1061.21 1038.69
  C 1048.43 1058.41 1031.27 1066.75 1008.20 1067.57
  A 1.00 0.98 -86.1 0 0 1007.25 1068.41
  Q 1001.77 1102.98 994.54 1135.95
  Q 992.71 1144.32 991.66 1152.17
  C 986.30 1192.13 979.68 1231.26 969.79 1266.26
  C 960.22 1300.11 949.32 1329.83 925.86 1355.55
  C 925.30 1356.17 925.24 1357.00 925.21 1357.76
  C 923.66 1396.68 924.03 1435.55 929.66 1474.17
  C 934.03 1504.11 943.24 1537.23 959.89 1561.59
  Q 963.08 1566.24 969.13 1571.89
  C 981.94 1583.83 998.13 1593.61 1013.94 1602.06
  C 1051.63 1622.18 1089.71 1638.55 1128.53 1654.54
  A 0.72 0.71 -47.3 0 1 1128.58 1655.84
  C 1053.96 1693.94 972.91 1719.09 890.92 1735.86
  Q 790.78 1756.35 688.77 1763.23
  Q 533.80 1773.69 379.49 1756.33
  C 259.44 1742.83 139.07 1715.08 29.27 1663.66
  A 0.57 0.57 0.0 0 1 29.31 1662.61
  C 63.58 1649.78 98.01 1636.31 131.30 1620.86
  Q 149.56 1612.39 166.46 1601.47
  C 192.26 1584.78 203.32 1553.48 209.42 1524.93
  C 215.35 1497.11 217.78 1468.58 218.55 1440.18
  Q 219.70 1397.65 217.70 1355.15
  Q 217.68 1354.63 217.33 1354.24
  C 197.07 1331.26 184.13 1308.58 173.15 1279.03
  C 147.97 1211.19 139.27 1140.22 128.90 1069.60
  Q 128.82 1069.09 128.32 1068.96
  C 127.09 1068.64 125.80 1069.24 124.79 1069.24
  C 120.24 1069.23 115.22 1069.48 111.05 1068.98
  C 78.12 1065.02 63.56 1032.84 51.38 1006.60
  Q 49.51 1002.57 48.62 998.05
  C 46.53 987.48 45.01 979.47 42.24 966.36
  C 37.54 944.17 36.70 922.33 37.69 899.70
  Q 38.04 891.69 37.51 884.79
  Q 35.90 863.82 32.02 815.25
  Q 29.82 787.72 32.14 758.82
  C 32.51 754.16 32.32 747.99 31.95 742.07
  C 30.24 714.76 31.60 684.86 62.99 675.02
  Q 75.77 671.01 87.23 674.83
  Q 87.73 675.00 87.66 674.48
  Q 81.55 633.05 79.27 591.24
  Q 78.66 555.13 79.19 519.01
  L 81.25 494.71
  C 84.55 498.82 90.60 497.52 95.25 497.54
  C 89.94 568.62 95.09 639.03 108.11 709.00
  Q 108.27 709.87 107.57 709.33
  Q 96.00 700.43 85.19 690.79
  Q 80.86 686.93 75.47 687.30
  C 48.13 689.21 44.69 712.99 46.14 734.94
  C 47.70 758.54 44.17 784.65 46.00 807.50
  Q 49.20 847.73 52.27 887.96
  Q 52.69 893.48 52.27 900.03
  Q 50.64 924.94 53.99 949.61
  C 55.74 962.48 59.69 978.00 62.24 992.20
  Q 63.09 996.98 64.83 1000.98
  Q 73.45 1020.85 84.74 1037.02
  Q 99.85 1058.68 126.95 1054.12
  Q 127.38 1054.05 127.33 1053.62
  C 122.08 1009.82 119.44 965.63 117.84 921.56
  Q 116.49 884.29 112.68 808.56
  Q 112.63 807.74 112.78 808.55
  C 134.94 928.97 148.28 1050.62 160.46 1173.30
  Q 161.51 1183.92 163.48 1193.05
  C 171.20 1228.88 181.42 1264.13 196.73 1297.51
  C 208.26 1322.65 226.02 1344.34 245.94 1363.06
  Q 280.33 1395.39 321.76 1421.73
  C 389.06 1464.53 466.15 1499.06 545.51 1506.91
  C 580.91 1510.42 616.27 1506.50 651.27 1497.60
  C 720.81 1479.93 788.01 1447.03 846.62 1405.90
  Q 879.44 1382.86 907.41 1354.18
  C 919.47 1341.82 931.18 1327.40 938.25 1311.75
  Q 946.24 1294.04 952.62 1272.71
  C 967.11 1224.32 974.83 1174.04 980.41 1123.93
  C 985.41 1079.19 990.90 1034.60 994.98 989.75
  C 1000.40 930.15 1005.71 870.52 1009.69 810.80
  C 1010.15 803.85 1010.63 791.79 1011.44 782.30
  Q 1011.51 781.43 1011.62 782.30
  Q 1028.01 917.41 1009.56 1052.24
  Q 1009.50 1052.69 1009.95 1052.69
  Q 1034.01 1052.59 1047.19 1033.45
  Q 1057.01 1019.18 1064.93 1001.37
  Q 1066.67 997.45 1067.53 992.79
  C 1070.18 978.24 1074.19 962.46 1075.98 949.10
  Q 1079.26 924.61 1077.66 899.91
  Q 1077.22 893.19 1077.63 887.58
  Q 1080.77 844.74 1082.79 822.31
  Q 1085.26 794.79 1083.91 768.74
  Q 1083.23 755.57 1083.29 749.64
  C 1083.49 731.40 1088.70 700.24 1067.41 690.62
  Q 1059.36 686.98 1054.25 687.21
  C 1047.61 687.50 1043.67 691.58 1038.02 696.79
  Q 1032.27 702.08 1022.32 709.14
  Q 1021.73 709.56 1021.86 708.85
  C 1035.53 633.85 1039.92 558.39 1032.20 482.51
  C 1023.33 395.28 996.64 306.60 947.71 233.19
  C 888.79 144.79 802.73 83.51 698.82 58.26
  C 626.34 40.65 549.84 39.14 476.33 50.91
  C 365.24 68.69 264.78 123.92 196.94 213.96
  C 137.70 292.57 105.61 388.02 96.46 485.75
  Q 91.36 485.97 86.25 486.20
  C 83.94 486.30 83.54 487.16 81.79 488.25
  C 93.06 353.76 149.09 219.45 254.97 132.88
  C 361.91 45.44 501.94 17.79 636.75 32.53
  C 740.03 43.82 835.74 86.35 908.79 161.57
  C 1000.32 255.83 1043.48 389.01 1049.42 517.92
  Q 1049.43 518.16 1049.66 518.23
  Q 1049.79 518.27 1049.96 518.25
  Z
  M 658.01 1510.76
  C 611.85 1523.03 565.28 1526.32 518.25 1517.99
  Q 479.87 1511.19 441.28 1497.16
  C 365.28 1469.52 291.88 1426.85 233.15 1370.90
  Q 232.80 1370.56 232.81 1371.05
  C 234.73 1429.23 234.66 1491.34 218.25 1547.87
  C 210.34 1575.14 196.86 1599.74 172.07 1615.07
  C 139.29 1635.36 102.05 1650.15 66.16 1663.88
  A 0.25 0.25 0.0 0 0 66.15 1664.35
  C 167.43 1707.16 277.82 1730.53 386.75 1742.47
  C 541.85 1759.46 700.73 1755.63 854.43 1728.18
  C 936.78 1713.47 1018.15 1690.90 1094.53 1656.42
  A 0.26 0.25 44.1 0 0 1094.52 1655.95
  C 1061.04 1641.69 1027.53 1626.68 995.95 1608.55
  C 980.54 1599.71 962.93 1587.96 950.93 1573.29
  C 938.80 1558.45 930.10 1537.15 924.75 1518.99
  C 910.65 1471.13 909.99 1422.72 910.02 1373.17
  Q 910.02 1372.48 909.52 1372.95
  C 839.42 1437.97 750.37 1486.19 658.01 1510.76
  Z"
/>
<path fill="#ffffff" d="
  M 95.25 497.54
  Q 99.23 497.65 100.26 497.26
  C 107.04 494.68 103.73 485.70 96.46 485.75
  C 105.61 388.02 137.70 292.57 196.94 213.96
  C 264.78 123.92 365.24 68.69 476.33 50.91
  C 549.84 39.14 626.34 40.65 698.82 58.26
  C 802.73 83.51 888.79 144.79 947.71 233.19
  C 996.64 306.60 1023.33 395.28 1032.20 482.51
  C 1039.92 558.39 1035.53 633.85 1021.86 708.85
  Q 1021.73 709.56 1022.32 709.14
  Q 1032.27 702.08 1038.02 696.79
  C 1043.67 691.58 1047.61 687.50 1054.25 687.21
  Q 1059.36 686.98 1067.41 690.62
  C 1088.70 700.24 1083.49 731.40 1083.29 749.64
  Q 1083.23 755.57 1083.91 768.74
  Q 1085.26 794.79 1082.79 822.31
  Q 1080.77 844.74 1077.63 887.58
  Q 1077.22 893.19 1077.66 899.91
  Q 1079.26 924.61 1075.98 949.10
  C 1074.19 962.46 1070.18 978.24 1067.53 992.79
  Q 1066.67 997.45 1064.93 1001.37
  Q 1057.01 1019.18 1047.19 1033.45
  Q 1034.01 1052.59 1009.95 1052.69
  Q 1009.50 1052.69 1009.56 1052.24
  Q 1028.01 917.41 1011.62 782.30
  Q 1011.51 781.43 1011.44 782.30
  C 1010.63 791.79 1010.15 803.85 1009.69 810.80
  C 1005.71 870.52 1000.40 930.15 994.98 989.75
  C 990.90 1034.60 985.41 1079.19 980.41 1123.93
  C 974.83 1174.04 967.11 1224.32 952.62 1272.71
  Q 946.24 1294.04 938.25 1311.75
  C 931.18 1327.40 919.47 1341.82 907.41 1354.18
  Q 879.44 1382.86 846.62 1405.90
  C 788.01 1447.03 720.81 1479.93 651.27 1497.60
  C 616.27 1506.50 580.91 1510.42 545.51 1506.91
  C 466.15 1499.06 389.06 1464.53 321.76 1421.73
  Q 280.33 1395.39 245.94 1363.06
  C 226.02 1344.34 208.26 1322.65 196.73 1297.51
  C 181.42 1264.13 171.20 1228.88 163.48 1193.05
  Q 161.51 1183.92 160.46 1173.30
  C 148.28 1050.62 134.94 928.97 112.78 808.55
  Q 112.63 807.74 112.68 808.56
  Q 116.49 884.29 117.84 921.56
  C 119.44 965.63 122.08 1009.82 127.33 1053.62
  Q 127.38 1054.05 126.95 1054.12
  Q 99.85 1058.68 84.74 1037.02
  Q 73.45 1020.85 64.83 1000.98
  Q 63.09 996.98 62.24 992.20
  C 59.69 978.00 55.74 962.48 53.99 949.61
  Q 50.64 924.94 52.27 900.03
  Q 52.69 893.48 52.27 887.96
  Q 49.20 847.73 46.00 807.50
  C 44.17 784.65 47.70 758.54 46.14 734.94
  C 44.69 712.99 48.13 689.21 75.47 687.30
  Q 80.86 686.93 85.19 690.79
  Q 96.00 700.43 107.57 709.33
  Q 108.27 709.87 108.11 709.00
  C 95.09 639.03 89.94 568.62 95.25 497.54
  Z
  M 150.1489 491.4501
  A 5.43 5.43 0.0 0 0 144.7000 486.0391
  L 132.6801 486.0810
  A 5.43 5.43 0.0 0 0 127.2691 491.5299
  L 127.2711 492.1099
  A 5.43 5.43 0.0 0 0 132.7200 497.5209
  L 144.7399 497.4790
  A 5.43 5.43 0.0 0 0 150.1509 492.0301
  L 150.1489 491.4501
  Z
  M 196.4509 491.5299
  A 5.42 5.42 0.0 0 0 191.0499 486.0910
  L 179.0100 486.0490
  A 5.42 5.42 0.0 0 0 173.5711 491.4501
  L 173.5691 492.0301
  A 5.42 5.42 0.0 0 0 178.9701 497.4690
  L 191.0100 497.5110
  A 5.42 5.42 0.0 0 0 196.4489 492.1099
  L 196.4509 491.5299
  Z
  M 242.7505 491.5099
  A 5.44 5.44 0.0 0 0 237.3200 486.0604
  L 225.4400 486.0396
  A 5.44 5.44 0.0 0 0 219.9905 491.4701
  L 219.9895 492.0701
  A 5.44 5.44 0.0 0 0 225.4200 497.5196
  L 237.3000 497.5404
  A 5.44 5.44 0.0 0 0 242.7495 492.1099
  L 242.7505 491.5099
  Z
  M 289.1905 491.5200
  A 5.43 5.43 0.0 0 0 283.7700 486.0805
  L 271.7300 486.0595
  A 5.43 5.43 0.0 0 0 266.2905 491.4800
  L 266.2895 492.0400
  A 5.43 5.43 0.0 0 0 271.7100 497.4795
  L 283.7500 497.5005
  A 5.43 5.43 0.0 0 0 289.1895 492.0800
  L 289.1905 491.5200
  Z
  M 335.4709 491.5299
  A 5.42 5.42 0.0 0 0 330.0699 486.0910
  L 318.0500 486.0491
  A 5.42 5.42 0.0 0 0 312.6111 491.4501
  L 312.6091 492.0301
  A 5.42 5.42 0.0 0 0 318.0101 497.4690
  L 330.0300 497.5109
  A 5.42 5.42 0.0 0 0 335.4689 492.1099
  L 335.4709 491.5299
  Z
  M 381.8995 491.4700
  A 5.43 5.43 0.0 0 0 376.4600 486.0495
  L 364.4400 486.0705
  A 5.43 5.43 0.0 0 0 359.0195 491.5100
  L 359.0205 492.0900
  A 5.43 5.43 0.0 0 0 364.4600 497.5105
  L 376.4800 497.4895
  A 5.43 5.43 0.0 0 0 381.9005 492.0500
  L 381.8995 491.4700
  Z
  M 428.21 491.49
  A 5.42 5.42 0.0 0 0 422.79 486.07
  L 410.73 486.07
  A 5.42 5.42 0.0 0 0 405.31 491.49
  L 405.31 492.07
  A 5.42 5.42 0.0 0 0 410.73 497.49
  L 422.79 497.49
  A 5.42 5.42 0.0 0 0 428.21 492.07
  L 428.21 491.49
  Z
  M 474.5005 491.5198
  A 5.44 5.44 0.0 0 0 469.0700 486.0704
  L 457.2100 486.0497
  A 5.44 5.44 0.0 0 0 451.7605 491.4802
  L 451.7595 492.0602
  A 5.44 5.44 0.0 0 0 457.1900 497.5096
  L 469.0500 497.5303
  A 5.44 5.44 0.0 0 0 474.4995 492.0998
  L 474.5005 491.5198
  Z
  M 520.9395 491.4600
  A 5.43 5.43 0.0 0 0 515.5000 486.0395
  L 503.4600 486.0605
  A 5.43 5.43 0.0 0 0 498.0395 491.5000
  L 498.0405 492.0800
  A 5.43 5.43 0.0 0 0 503.4800 497.5005
  L 515.5200 497.4795
  A 5.43 5.43 0.0 0 0 520.9405 492.0400
  L 520.9395 491.4600
  Z
  M 567.2109 491.5299
  A 5.42 5.42 0.0 0 0 561.8099 486.0910
  L 549.7900 486.0491
  A 5.42 5.42 0.0 0 0 544.3511 491.4501
  L 544.3491 492.0301
  A 5.42 5.42 0.0 0 0 549.7501 497.4690
  L 561.7700 497.5109
  A 5.42 5.42 0.0 0 0 567.2089 492.1099
  L 567.2109 491.5299
  Z
  M 613.6495 491.4800
  A 5.43 5.43 0.0 0 0 608.2100 486.0595
  L 596.1900 486.0805
  A 5.43 5.43 0.0 0 0 590.7695 491.5200
  L 590.7705 492.0800
  A 5.43 5.43 0.0 0 0 596.2100 497.5005
  L 608.2300 497.4795
  A 5.43 5.43 0.0 0 0 613.6505 492.0400
  L 613.6495 491.4800
  Z
  M 659.9509 491.5299
  A 5.42 5.42 0.0 0 0 654.5499 486.0910
  L 642.5100 486.0490
  A 5.42 5.42 0.0 0 0 637.0711 491.4501
  L 637.0691 492.0301
  A 5.42 5.42 0.0 0 0 642.4701 497.4690
  L 654.5100 497.5110
  A 5.42 5.42 0.0 0 0 659.9489 492.1099
  L 659.9509 491.5299
  Z
  M 706.26 491.50
  A 5.43 5.43 0.0 0 0 700.83 486.07
  L 688.81 486.07
  A 5.43 5.43 0.0 0 0 683.38 491.50
  L 683.38 492.06
  A 5.43 5.43 0.0 0 0 688.81 497.49
  L 700.83 497.49
  A 5.43 5.43 0.0 0 0 706.26 492.06
  L 706.26 491.50
  Z
  M 752.69 491.49
  A 5.43 5.43 0.0 0 0 747.26 486.06
  L 735.22 486.06
  A 5.43 5.43 0.0 0 0 729.79 491.49
  L 729.79 492.07
  A 5.43 5.43 0.0 0 0 735.22 497.50
  L 747.26 497.50
  A 5.43 5.43 0.0 0 0 752.69 492.07
  L 752.69 491.49
  Z
  M 798.9709 491.5299
  A 5.42 5.42 0.0 0 0 793.5699 486.0910
  L 781.5500 486.0491
  A 5.42 5.42 0.0 0 0 776.1111 491.4501
  L 776.1091 492.0301
  A 5.42 5.42 0.0 0 0 781.5101 497.4690
  L 793.5300 497.5109
  A 5.42 5.42 0.0 0 0 798.9689 492.1099
  L 798.9709 491.5299
  Z
  M 845.3995 491.4800
  A 5.43 5.43 0.0 0 0 839.9600 486.0595
  L 827.9400 486.0805
  A 5.43 5.43 0.0 0 0 822.5195 491.5200
  L 822.5205 492.0800
  A 5.43 5.43 0.0 0 0 827.9600 497.5005
  L 839.9800 497.4795
  A 5.43 5.43 0.0 0 0 845.4005 492.0400
  L 845.3995 491.4800
  Z
  M 891.6905 491.5199
  A 5.42 5.42 0.0 0 0 886.2799 486.0905
  L 874.2600 486.0695
  A 5.42 5.42 0.0 0 0 868.8305 491.4801
  L 868.8295 492.0401
  A 5.42 5.42 0.0 0 0 874.2401 497.4695
  L 886.2600 497.4905
  A 5.42 5.42 0.0 0 0 891.6895 492.0799
  L 891.6905 491.5199
  Z
  M 938.1195 491.4801
  A 5.42 5.42 0.0 0 0 932.6900 486.0695
  L 920.6700 486.0905
  A 5.42 5.42 0.0 0 0 915.2595 491.5199
  L 915.2605 492.0999
  A 5.42 5.42 0.0 0 0 920.6900 497.5105
  L 932.7100 497.4895
  A 5.42 5.42 0.0 0 0 938.1205 492.0601
  L 938.1195 491.4801
  Z
  M 984.4295 491.4700
  A 5.43 5.43 0.0 0 0 978.9900 486.0495
  L 966.9700 486.0705
  A 5.43 5.43 0.0 0 0 961.5495 491.5100
  L 961.5505 492.0900
  A 5.43 5.43 0.0 0 0 966.9900 497.5105
  L 979.0100 497.4895
  A 5.43 5.43 0.0 0 0 984.4305 492.0500
  L 984.4295 491.4700
  Z
  M 1030.7105 491.5199
  A 5.42 5.42 0.0 0 0 1025.2999 486.0905
  L 1013.2800 486.0695
  A 5.42 5.42 0.0 0 0 1007.8505 491.4801
  L 1007.8495 492.0401
  A 5.42 5.42 0.0 0 0 1013.2601 497.4695
  L 1025.2800 497.4905
  A 5.42 5.42 0.0 0 0 1030.7095 492.0799
  L 1030.7105 491.5199
  Z"
/>
<path fill="#ff0000" d="
  M 79.19 519.01
  Q 78.66 555.13 79.27 591.24
  Q 78.68 595.51 78.80 599.75
  Q 79.18 613.15 78.96 626.54
  C 78.92 628.92 78.29 630.40 75.77 630.57
  A 2.37 2.37 0.0 0 1 73.25 628.21
  Q 73.25 492.83 73.25 357.18
  C 73.25 351.71 78.99 351.97 78.99 356.94
  Q 79.01 429.70 78.99 502.46
  C 78.99 506.86 78.62 513.41 79.19 519.01
  Z"
/>
<path fill="#ff0000" d="
  M 1049.93 596.99
  L 1049.96 518.25
  Q 1050.04 437.94 1049.99 357.62
  C 1049.98 354.72 1050.69 352.88 1053.97 353.28
  A 2.02 2.02 0.0 0 1 1055.75 355.29
  L 1055.75 628.04
  A 2.27 2.25 80.9 0 1 1054.20 630.19
  C 1051.08 631.23 1050.01 629.06 1050.01 626.32
  Q 1050.04 611.67 1049.93 596.99
  Z"
/>
<path fill="#ff0000" d="
  M 96.46 485.75
  C 103.73 485.70 107.04 494.68 100.26 497.26
  Q 99.23 497.65 95.25 497.54
  C 90.60 497.52 84.55 498.82 81.25 494.71
  Q 80.05 491.33 81.79 488.25
  C 83.54 487.16 83.94 486.30 86.25 486.20
  Q 91.36 485.97 96.46 485.75
  Z"
/>
<rect fill="#ff0000" x="-11.44" y="-5.72" transform="translate(138.71,491.78) rotate(-0.2)" width="22.88" height="11.44" rx="5.43"/>
<rect fill="#ff0000" x="-11.44" y="-5.71" transform="translate(185.01,491.78) rotate(0.2)" width="22.88" height="11.42" rx="5.42"/>
<rect fill="#ff0000" x="-11.38" y="-5.74" transform="translate(231.37,491.79) rotate(0.1)" width="22.76" height="11.48" rx="5.44"/>
<rect fill="#ff0000" x="-11.45" y="-5.71" transform="translate(277.74,491.78) rotate(0.1)" width="22.90" height="11.42" rx="5.43"/>
<rect fill="#ff0000" x="-11.43" y="-5.71" transform="translate(324.04,491.78) rotate(0.2)" width="22.86" height="11.42" rx="5.42"/>
<rect fill="#ff0000" x="-11.44" y="-5.72" transform="translate(370.46,491.78) rotate(-0.1)" width="22.88" height="11.44" rx="5.43"/>
<rect fill="#ff0000" x="405.31" y="486.07" width="22.90" height="11.42" rx="5.42"/>
<rect fill="#ff0000" x="-11.37" y="-5.73" transform="translate(463.13,491.79) rotate(0.1)" width="22.74" height="11.46" rx="5.44"/>
<rect fill="#ff0000" x="-11.45" y="-5.72" transform="translate(509.49,491.77) rotate(-0.1)" width="22.90" height="11.44" rx="5.43"/>
<rect fill="#ff0000" x="-11.43" y="-5.71" transform="translate(555.78,491.78) rotate(0.2)" width="22.86" height="11.42" rx="5.42"/>
<rect fill="#ff0000" x="-11.44" y="-5.71" transform="translate(602.21,491.78) rotate(-0.1)" width="22.88" height="11.42" rx="5.43"/>
<rect fill="#ff0000" x="-11.44" y="-5.71" transform="translate(648.51,491.78) rotate(0.2)" width="22.88" height="11.42" rx="5.42"/>
<rect fill="#ff0000" x="683.38" y="486.07" width="22.88" height="11.42" rx="5.43"/>
<rect fill="#ff0000" x="729.79" y="486.06" width="22.90" height="11.44" rx="5.43"/>
<rect fill="#ff0000" x="-11.43" y="-5.71" transform="translate(787.54,491.78) rotate(0.2)" width="22.86" height="11.42" rx="5.42"/>
<rect fill="#ff0000" x="-11.44" y="-5.71" transform="translate(833.96,491.78) rotate(-0.1)" width="22.88" height="11.42" rx="5.43"/>
<rect fill="#ff0000" x="-11.43" y="-5.70" transform="translate(880.26,491.78) rotate(0.1)" width="22.86" height="11.40" rx="5.42"/>
<rect fill="#ff0000" x="-11.43" y="-5.71" transform="translate(926.69,491.79) rotate(-0.1)" width="22.86" height="11.42" rx="5.42"/>
<rect fill="#ff0000" x="-11.44" y="-5.72" transform="translate(972.99,491.78) rotate(-0.1)" width="22.88" height="11.44" rx="5.43"/>
<rect fill="#ff0000" x="-11.43" y="-5.70" transform="translate(1019.28,491.78) rotate(0.1)" width="22.86" height="11.40" rx="5.42"/>
<path fill="#ffffff" d="
  M 518.25 1517.99
  C 565.28 1526.32 611.85 1523.03 658.01 1510.76
  C 750.37 1486.19 839.42 1437.97 909.52 1372.95
  Q 910.02 1372.48 910.02 1373.17
  C 909.99 1422.72 910.65 1471.13 924.75 1518.99
  C 930.10 1537.15 938.80 1558.45 950.93 1573.29
  C 962.93 1587.96 980.54 1599.71 995.95 1608.55
  C 1027.53 1626.68 1061.04 1641.69 1094.52 1655.95
  A 0.26 0.25 44.1 0 1 1094.53 1656.42
  C 1018.15 1690.90 936.78 1713.47 854.43 1728.18
  C 700.73 1755.63 541.85 1759.46 386.75 1742.47
  C 277.82 1730.53 167.43 1707.16 66.15 1664.35
  A 0.25 0.25 0.0 0 1 66.16 1663.88
  C 102.05 1650.15 139.29 1635.36 172.07 1615.07
  C 196.86 1599.74 210.34 1575.14 218.25 1547.87
  C 234.66 1491.34 234.73 1429.23 232.81 1371.05
  Q 232.80 1370.56 233.15 1370.90
  C 291.88 1426.85 365.28 1469.52 441.28 1497.16
  Q 479.87 1511.19 518.25 1517.99
  Z"
/>
</svg>
