<?xml version="1.0" encoding="UTF-8" standalone="no"?>
<!DOCTYPE svg PUBLIC "-//W3C//DTD SVG 1.1//EN" "http://www.w3.org/Graphics/SVG/1.1/DTD/svg11.dtd">
<svg xmlns="http://www.w3.org/2000/svg" version="1.1" viewBox="0.00 0.00 1448.00 1448.00">
<g stroke-width="2.00" fill="none" stroke-linecap="butt">
<path stroke="#800000" vector-effect="non-scaling-stroke" d="
  M 1140.00 863.96
  L 1130.75 863.96"
/>
<path stroke="#800000" vector-effect="non-scaling-stroke" d="
  M 936.71 872.25
  C 938.52 871.48 940.80 871.09 942.09 869.71
  C 946.38 865.09 941.27 858.72 935.50 861.21"
/>
<path stroke="#800000" vector-effect="non-scaling-stroke" d="
  M 965.25 1000.96
  L 956.00 1000.71"
/>
<path stroke="#800000" vector-effect="non-scaling-stroke" d="
  M 931.17 1000.94
  L 930.27 1003.63"
/>
<path stroke="#800000" vector-effect="non-scaling-stroke" d="
  M 1162.00 1004.54
  L 1152.75 1004.54"
/>
<path stroke="#800000" vector-effect="non-scaling-stroke" d="
  M 965.85 1004.55
  L 956.53 1004.49"
/>
<path stroke="#800000" vector-effect="non-scaling-stroke" d="
  M 1140.75 867.79
  L 1131.50 867.79"
/>
<path stroke="#800000" vector-effect="non-scaling-stroke" d="
  M 1161.78 1001.00
  L 1152.49 1000.86"
/>
<path stroke="#800000" vector-effect="non-scaling-stroke" d="
  M 388.75 924.21
  L 382.00 923.96"
/>
<path stroke="#800000" vector-effect="non-scaling-stroke" d="
  M 120.50 886.46
  C 116.15 886.53 112.82 891.00 115.25 894.74
  C 116.76 897.07 120.67 897.96 123.34 898.98"
/>
<path stroke="#800000" vector-effect="non-scaling-stroke" d="
  M 375.75 934.54
  L 382.25 935.04"
/>
<path stroke="#800000" vector-effect="non-scaling-stroke" d="
  M 232.22 1024.57
  Q 231.24 1024.53 227.50 1023.75
  C 221.61 1022.53 219.39 1030.55 224.25 1033.97"
/>
<path stroke="#800000" vector-effect="non-scaling-stroke" d="
  M 919.00 1007.26
  Q 927.59 1004.64 922.75 997.04"
/>
<path stroke="#800000" vector-effect="non-scaling-stroke" d="
  M 854.29 884.25
  Q 850.73 884.99 847.79 887.00"
/>
<path stroke="#800000" vector-effect="non-scaling-stroke" d="
  M 846.71 890.00
  Q 846.64 894.67 851.04 896.00"
/>
<path stroke="#800000" vector-effect="non-scaling-stroke" d="
  M 437.19 930.95
  L 435.28 926.30"
/>
</g>
<path fill="#000000" d="
  M 1140.00 863.96
  L 1130.75 863.96
  Q 1129.32 854.20 1125.80 831.74
  C 1119.54 791.71 1115.85 752.04 1115.57 708.44
  C 1115.37 677.08 1115.57 651.66 1113.45 625.84
  Q 1108.55 566.10 1089.85 509.04
  C 1081.37 483.17 1068.74 455.77 1048.42 436.93
  C 1027.99 417.99 1002.07 411.01 974.24 406.03
  C 954.73 402.54 934.35 399.71 916.22 393.27
  A 0.67 0.66 -63.2 0 0 915.44 393.53
  C 901.04 414.98 889.28 437.44 879.72 461.29
  Q 855.79 520.96 841.27 583.65
  Q 831.94 623.93 830.55 665.25
  Q 828.77 718.11 850.89 765.21
  C 871.02 808.08 900.33 847.26 937.28 877.08
  A 0.26 0.26 0.0 0 0 937.70 876.88
  Q 937.70 874.47 936.71 872.25
  C 938.52 871.48 940.80 871.09 942.09 869.71
  C 946.38 865.09 941.27 858.72 935.50 861.21
  Q 928.12 808.40 920.44 755.64
  C 917.84 737.79 916.56 727.18 910.71 714.06
  Q 903.81 698.61 888.43 667.62
  C 884.70 660.10 892.84 656.43 895.31 661.19
  Q 903.96 677.81 919.53 712.13
  Q 924.34 722.74 926.17 733.56
  Q 929.09 750.90 932.32 773.74
  C 943.04 849.48 952.77 925.48 965.25 1000.96
  L 956.00 1000.71
  L 948.03 950.68
  Q 947.88 949.72 947.58 950.64
  L 931.17 1000.94
  L 930.27 1003.63
  Q 909.89 1065.13 891.55 1127.27
  Q 883.01 1156.21 877.51 1181.75
  C 872.67 1204.16 870.77 1227.15 875.18 1250.17
  Q 878.10 1265.41 882.47 1280.38
  A 0.49 0.48 -8.0 0 1 882.00 1281.00
  L 121.24 1281.00
  A 0.82 0.81 6.9 0 1 120.44 1279.99
  Q 135.98 1215.94 141.56 1150.31
  C 146.62 1090.93 149.52 1040.36 152.15 985.25
  Q 152.18 984.74 151.93 984.30
  C 128.80 942.17 105.24 899.29 110.48 849.49
  Q 113.02 825.29 120.68 798.59
  Q 120.82 798.10 120.68 797.61
  C 119.92 794.83 121.90 793.39 122.52 791.20
  Q 126.38 777.54 130.42 763.96
  Q 131.07 761.75 130.70 759.48
  Q 127.16 737.77 125.58 725.68
  Q 115.40 647.79 123.06 569.59
  C 126.95 529.82 136.98 490.83 168.33 463.20
  C 217.60 419.78 284.92 414.47 344.29 395.64
  Q 372.39 386.72 394.02 366.79
  C 419.65 343.17 438.31 317.98 445.88 283.17
  C 453.51 248.10 454.77 211.61 456.55 175.89
  Q 456.58 175.27 457.20 175.24
  L 725.12 163.60
  Q 725.70 163.58 725.73 164.16
  Q 727.33 205.41 733.34 246.24
  C 736.85 270.10 741.33 296.08 762.27 311.01
  Q 779.17 323.05 801.20 333.37
  Q 842.56 352.75 884.62 370.59
  Q 885.07 370.79 885.56 370.71
  Q 886.60 370.56 887.23 371.37
  Q 887.56 371.79 888.05 372.01
  C 907.08 380.82 925.80 388.36 944.25 391.49
  C 966.65 395.28 989.32 398.98 1011.10 405.55
  C 1069.14 423.06 1092.46 479.30 1106.45 532.63
  C 1114.96 565.04 1120.74 598.01 1122.90 631.07
  C 1125.02 663.61 1124.40 697.82 1125.28 731.18
  C 1126.47 776.05 1132.91 819.74 1140.00 863.96
  Z
  M 878.50 378.88
  A 0.66 0.66 0.0 0 0 878.28 377.82
  C 845.33 363.55 812.58 349.60 779.94 332.56
  C 767.15 325.87 753.49 317.34 744.50 306.60
  C 736.30 296.80 731.93 284.60 729.14 272.42
  C 721.79 240.37 718.75 206.62 717.15 173.83
  A 0.84 0.83 -2.4 0 0 716.28 173.04
  L 465.84 183.92
  A 0.83 0.83 0.0 0 0 465.04 184.72
  Q 463.74 221.58 459.37 257.98
  C 455.11 293.46 445.10 324.74 421.05 352.05
  C 401.34 374.43 380.45 392.36 352.16 402.40
  Q 351.67 402.58 351.37 403.01
  C 316.93 452.91 288.83 509.83 266.30 567.27
  C 255.52 594.76 246.28 623.83 242.48 653.19
  C 240.33 669.77 245.59 682.30 254.68 696.31
  C 274.82 727.34 380.32 877.03 418.19 867.19
  C 429.80 864.18 442.59 855.07 452.59 848.28
  Q 558.44 776.46 663.62 703.64
  Q 688.96 686.10 713.72 667.72
  Q 731.17 654.77 744.32 642.07
  C 761.13 625.84 771.31 604.84 779.47 582.95
  Q 798.19 532.70 815.11 481.83
  C 826.19 448.53 840.79 418.61 865.22 392.98
  Q 871.33 386.58 878.50 378.88
  Z
  M 388.75 924.21
  L 382.00 923.96
  Q 386.97 915.63 391.17 906.88
  C 392.65 903.79 394.12 901.18 390.96 899.03
  C 358.66 877.06 327.34 854.77 300.03 826.59
  Q 259.76 785.02 228.97 735.98
  C 224.42 728.74 218.14 717.71 212.43 708.74
  C 211.07 706.59 210.16 704.79 207.52 704.11
  Q 206.99 703.98 206.52 704.25
  Q 201.19 707.29 196.57 711.32
  C 171.94 732.75 152.21 757.64 134.25 784.77
  Q 133.36 786.12 132.92 787.68
  C 123.70 820.06 115.72 852.31 120.50 886.46
  C 116.15 886.53 112.82 891.00 115.25 894.74
  C 116.76 897.07 120.67 897.96 123.34 898.98
  C 129.06 921.10 139.68 942.92 150.79 962.79
  C 165.67 989.40 188.16 1007.26 216.58 1017.65
  Q 217.00 1017.81 217.70 1018.32
  Q 218.09 1018.60 218.57 1018.61
  C 283.27 1020.67 343.53 992.50 375.75 934.54
  L 382.25 935.04
  C 350.66 991.68 296.57 1021.90 232.22 1024.57
  Q 231.24 1024.53 227.50 1023.75
  C 221.61 1022.53 219.39 1030.55 224.25 1033.97
  Q 224.42 1040.38 225.73 1046.70
  Q 225.83 1047.16 226.28 1047.28
  C 270.44 1059.57 315.85 1065.43 362.08 1069.31
  C 475.63 1078.83 588.90 1077.38 703.06 1065.34
  Q 756.86 1059.66 815.82 1047.35
  C 850.06 1040.20 883.69 1030.13 915.91 1016.48
  Q 916.37 1016.28 916.58 1015.83
  Q 918.43 1011.69 919.00 1007.26
  Q 927.59 1004.64 922.75 997.04
  Q 933.87 963.43 944.80 929.77
  Q 945.48 927.68 944.22 924.76
  Q 944.03 924.32 943.59 924.13
  C 911.02 910.43 880.43 894.40 857.21 865.83
  A 0.18 0.18 0.0 0 0 856.89 865.92
  L 854.29 884.25
  Q 850.73 884.99 847.79 887.00
  Q 850.76 873.03 851.49 858.82
  Q 851.51 858.32 851.25 857.90
  Q 833.63 829.37 820.44 798.52
  Q 802.80 757.30 785.12 716.11
  C 781.88 708.55 772.66 685.84 765.90 683.42
  C 756.12 679.92 706.88 715.09 696.36 722.39
  C 609.20 782.81 522.08 843.21 434.00 902.21
  A 0.79 0.78 65.8 0 0 433.68 903.07
  C 445.13 944.73 467.95 980.48 504.29 1004.25
  C 545.13 1030.96 599.16 1039.04 647.19 1037.45
  C 730.88 1034.67 824.19 973.50 846.71 890.00
  Q 846.64 894.67 851.04 896.00
  C 826.74 975.70 738.31 1037.06 657.01 1042.75
  C 611.12 1045.96 556.96 1039.39 515.31 1017.43
  Q 461.03 988.82 437.19 930.95
  L 435.28 926.30
  Q 430.45 913.74 427.01 900.66
  A 0.89 0.88 -24.1 0 1 427.38 899.70
  C 519.05 838.15 609.73 775.37 700.51 712.54
  Q 725.69 695.11 745.77 683.76
  C 751.16 680.71 764.21 674.40 770.22 678.78
  C 778.04 684.46 784.08 699.64 788.11 708.81
  Q 803.59 744.03 818.57 779.47
  C 828.10 802.03 838.16 824.74 850.68 845.83
  C 872.20 882.10 905.11 901.98 943.16 917.45
  A 0.17 0.17 0.0 0 0 943.39 917.27
  L 939.56 890.26
  A 0.52 0.52 0.0 0 0 939.35 889.91
  C 893.55 855.84 858.53 807.98 836.92 755.52
  C 813.69 699.15 819.88 634.84 833.60 576.92
  Q 848.18 515.40 871.76 456.82
  C 881.18 433.40 892.79 411.20 906.81 390.17
  A 0.26 0.26 0.0 0 0 906.69 389.78
  L 888.50 382.26
  Q 888.02 382.06 887.65 382.44
  C 877.76 392.64 866.93 403.33 858.84 414.14
  C 842.07 436.54 830.83 462.33 822.24 488.50
  Q 805.59 539.24 786.52 589.12
  Q 779.49 607.50 773.45 618.69
  C 760.73 642.27 738.80 660.44 717.17 676.41
  Q 695.19 692.65 672.73 708.22
  Q 579.79 772.66 486.32 836.33
  Q 459.28 854.75 442.06 865.74
  C 433.13 871.45 422.03 877.68 411.12 876.53
  C 399.45 875.30 384.80 865.24 375.96 857.78
  C 361.25 845.37 347.85 831.85 335.23 817.16
  Q 294.43 769.68 255.04 713.22
  C 243.01 695.97 230.74 676.96 232.96 655.49
  C 236.20 624.18 247.52 589.54 259.69 559.19
  C 280.70 506.78 305.71 454.92 337.23 407.94
  A 0.37 0.37 0.0 0 0 336.82 407.38
  L 318.49 412.41
  Q 317.97 412.55 317.71 413.02
  C 289.27 465.54 259.99 521.15 237.59 577.80
  C 222.38 616.27 208.85 654.54 187.02 689.99
  C 172.49 713.57 157.73 737.02 143.36 760.70
  Q 140.15 765.99 143.80 760.99
  C 158.57 740.73 173.52 723.83 191.59 707.94
  C 198.57 701.80 209.28 692.46 216.12 703.67
  Q 224.54 717.47 232.99 731.24
  C 255.50 767.95 282.78 801.74 313.55 831.82
  C 337.01 854.76 363.72 873.06 390.51 891.75
  C 397.07 896.33 401.32 900.12 397.17 908.11
  Q 392.98 916.18 388.75 924.21
  Z
  M 128.84 630.99
  Q 128.29 691.15 138.49 750.44
  A 0.25 0.25 0.0 0 0 138.94 750.53
  Q 162.46 713.05 185.00 675.07
  C 203.23 644.35 213.02 616.00 227.57 578.32
  C 248.55 523.99 277.05 468.89 305.80 416.20
  A 0.36 0.36 0.0 0 0 305.40 415.68
  C 268.72 424.20 231.72 433.99 199.15 452.10
  Q 153.96 477.24 140.14 525.82
  C 130.54 559.60 129.15 596.10 128.84 630.99
  Z
  M 160.83 993.13
  C 158.62 1033.22 156.94 1070.87 152.87 1124.43
  C 148.81 1177.74 142.87 1222.88 131.72 1271.33
  A 0.55 0.54 -83.6 0 0 132.25 1272.00
  L 268.70 1272.00
  A 0.56 0.56 0.0 0 0 269.26 1271.41
  C 265.89 1217.11 246.97 1166.23 230.77 1113.24
  Q 218.44 1072.89 214.42 1033.07
  Q 214.14 1030.26 212.42 1026.19
  Q 212.20 1025.68 211.68 1025.48
  Q 183.01 1014.54 161.26 992.96
  A 0.25 0.25 0.0 0 0 160.83 993.13
  Z
  M 870.79 1271.30
  C 861.96 1241.53 861.86 1213.19 868.13 1182.82
  Q 872.61 1161.14 875.43 1150.98
  Q 892.55 1089.28 912.80 1028.28
  A 0.33 0.32 -1.8 0 0 912.37 1027.88
  Q 884.28 1039.11 854.88 1046.98
  C 781.55 1066.61 706.78 1075.89 630.25 1080.75
  Q 497.62 1089.18 367.32 1078.86
  C 320.46 1075.15 273.06 1069.07 227.54 1057.06
  A 0.70 0.69 1.9 0 0 226.68 1057.86
  C 240.40 1131.07 274.13 1197.32 278.30 1271.36
  Q 278.34 1272.00 278.98 1272.00
  L 870.26 1272.00
  A 0.55 0.55 0.0 0 0 870.79 1271.30
  Z"
/>
<path fill="#ff0000" d="
  M 1352.05 865.86
  A 57.87 57.87 0.0 0 1 1294.18 923.73
  A 57.87 57.87 0.0 0 1 1236.31 865.86
  A 57.87 57.87 0.0 0 1 1294.18 807.99
  A 57.87 57.87 0.0 0 1 1352.05 865.86
  Z
  M 1344.82 865.85
  A 50.64 50.64 0.0 0 0 1294.18 815.21
  A 50.64 50.64 0.0 0 0 1243.54 865.85
  A 50.64 50.64 0.0 0 0 1294.18 916.49
  A 50.64 50.64 0.0 0 0 1344.82 865.85
  Z"
/>
<path fill="#000000" d="
  M 1288.90 853.70
  Q 1283.34 858.67 1276.28 861.19
  A 0.73 0.73 0.0 0 1 1275.30 860.50
  L 1275.34 851.90
  Q 1275.34 851.42 1275.79 851.25
  Q 1286.38 847.35 1291.69 837.40
  Q 1291.90 837.00 1292.36 837.00
  L 1299.88 837.00
  Q 1300.50 837.00 1300.50 837.63
  L 1300.50 894.25
  Q 1300.50 894.75 1300.00 894.75
  L 1290.24 894.75
  A 0.76 0.75 90.0 0 1 1289.49 893.99
  L 1289.52 853.98
  Q 1289.52 853.14 1288.90 853.70
  Z"
/>
<path fill="#ff0000" d="
  M 936.71 872.25
  C 928.84 872.73 927.90 862.83 935.50 861.21
  C 941.27 858.72 946.38 865.09 942.09 869.71
  C 940.80 871.09 938.52 871.48 936.71 872.25
  Z"
/>
<path fill="#ff0000" d="
  M 1130.75 863.96
  L 1140.00 863.96
  Q 1181.37 864.04 1222.75 863.99
  Q 1224.89 863.98 1224.35 866.61
  Q 1224.25 867.08 1223.82 867.28
  Q 1222.79 867.76 1221.25 867.76
  Q 1181.00 867.71 1140.75 867.79
  L 1131.50 867.79
  L 957.98 867.76
  A 1.70 1.69 -3.2 0 1 956.29 866.26
  C 956.12 864.89 957.03 863.99 958.43 863.99
  Q 1044.59 864.04 1130.75 863.96
  Z"
/>
<path fill="#000000" d="
  M 1131.50 867.79
  L 1140.75 867.79
  Q 1151.95 934.28 1161.78 1001.00
  L 1152.49 1000.86
  Q 1142.88 934.00 1131.50 867.79
  Z"
/>
<rect fill="#ff0000" x="-10.75" y="-5.40" transform="translate(899.37,878.34) rotate(-16.5)" width="21.50" height="10.80" rx="5.14"/>
<path fill="#ff0000" d="
  M 851.04 896.00
  Q 846.64 894.67 846.71 890.00
  L 847.79 887.00
  Q 850.73 884.99 854.29 884.25
  Q 857.83 883.76 861.25 882.79
  C 867.70 880.97 871.69 891.10 862.84 893.54
  Q 857.02 895.15 851.04 896.00
  Z"
/>
<path fill="#ff0000" d="
  M 120.50 886.46
  Q 126.13 888.38 131.83 890.16
  C 136.43 891.59 136.85 898.18 132.53 900.18
  C 129.82 901.42 126.24 899.76 123.34 898.98
  C 120.67 897.96 116.76 897.07 115.25 894.74
  C 112.82 891.00 116.15 886.53 120.50 886.46
  Z"
/>
<rect fill="#ff0000" x="-10.75" y="-5.40" transform="translate(814.88,898.42) rotate(-11.2)" width="21.50" height="10.80" rx="5.13"/>
<rect fill="#ff0000" x="-10.76" y="-5.39" transform="translate(166.93,905.11) rotate(13.1)" width="21.52" height="10.78" rx="5.14"/>
<rect fill="#ff0000" x="-10.73" y="-5.40" transform="translate(772.13,906.09) rotate(-9.3)" width="21.46" height="10.80" rx="5.12"/>
<rect fill="#ff0000" x="-10.74" y="-5.39" transform="translate(729.18,912.51) rotate(-7.5)" width="21.48" height="10.78" rx="5.11"/>
<rect fill="#ff0000" x="-10.76" y="-5.39" transform="translate(209.56,913.47) rotate(9.7)" width="21.52" height="10.78" rx="5.12"/>
<rect fill="#ff0000" x="-10.73" y="-5.39" transform="translate(686.04,917.85) rotate(-6.0)" width="21.46" height="10.78" rx="5.11"/>
<rect fill="#ff0000" x="-10.73" y="-5.40" transform="translate(252.53,919.69) rotate(7.2)" width="21.46" height="10.80" rx="5.12"/>
<rect fill="#ff0000" x="-10.72" y="-5.40" transform="translate(642.80,922.19) rotate(-5.2)" width="21.44" height="10.80" rx="5.11"/>
<rect fill="#ff0000" x="-10.71" y="-5.40" transform="translate(295.75,924.25) rotate(4.9)" width="21.42" height="10.80" rx="5.12"/>
<rect fill="#ff0000" x="-10.71" y="-5.40" transform="translate(599.51,925.60) rotate(-3.6)" width="21.42" height="10.80" rx="5.11"/>
<rect fill="#ff0000" x="-10.72" y="-5.42" transform="translate(339.03,927.45) rotate(3.3)" width="21.44" height="10.84" rx="5.13"/>
<rect fill="#ff0000" x="-10.75" y="-5.40" transform="translate(556.15,928.13) rotate(-2.7)" width="21.50" height="10.80" rx="5.13"/>
<path fill="#ff0000" d="
  M 382.00 923.96
  L 388.75 924.21
  C 393.15 925.63 395.17 931.26 391.24 933.94
  C 388.90 935.54 385.17 935.01 382.25 935.04
  L 375.75 934.54
  C 370.47 932.99 370.33 926.07 375.18 924.29
  C 377.17 923.56 379.70 924.10 382.00 923.96
  Z"
/>
<rect fill="#ff0000" x="-10.68" y="-5.41" transform="translate(512.76,929.80) rotate(-1.4)" width="21.36" height="10.82" rx="5.11"/>
<path fill="#ff0000" d="
  M 435.28 926.30
  L 437.19 930.95
  Q 435.34 935.76 432.19 935.93
  C 426.03 936.26 417.20 936.88 415.55 932.80
  C 413.96 928.89 416.50 925.23 420.76 924.98
  Q 427.39 924.58 435.28 926.30
  Z"
/>
<rect fill="#ff0000" x="-10.71" y="-5.36" transform="translate(469.28,930.62) rotate(-0.4)" width="21.42" height="10.72" rx="5.07"/>
<path fill="#ff0000" d="
  M 1352.04 1002.74
  A 57.86 57.86 0.0 0 1 1294.18 1060.60
  A 57.86 57.86 0.0 0 1 1236.32 1002.74
  A 57.86 57.86 0.0 0 1 1294.18 944.88
  A 57.86 57.86 0.0 0 1 1352.04 1002.74
  Z
  M 1344.83 1002.72
  A 50.64 50.64 0.0 0 0 1294.19 952.08
  A 50.64 50.64 0.0 0 0 1243.55 1002.72
  A 50.64 50.64 0.0 0 0 1294.19 1053.36
  A 50.64 50.64 0.0 0 0 1344.83 1002.72
  Z"
/>
<path fill="#000000" d="
  M 1292.25 1021.50
  L 1312.62 1021.50
  Q 1313.50 1021.50 1313.50 1022.37
  L 1313.50 1030.76
  A 0.76 0.75 -0.0 0 1 1312.74 1031.51
  L 1276.36 1031.52
  Q 1274.59 1031.52 1275.05 1029.81
  C 1278.46 1017.18 1289.02 1008.54 1298.33 999.34
  C 1311.95 985.88 1288.86 974.37 1287.28 991.41
  Q 1287.23 991.97 1286.67 991.91
  L 1276.94 990.97
  Q 1276.35 990.91 1276.39 990.33
  C 1278.13 966.97 1315.31 969.00 1313.36 991.60
  C 1312.22 1004.75 1300.40 1010.20 1291.87 1020.71
  Q 1291.22 1021.50 1292.25 1021.50
  Z"
/>
<path fill="#ff0000" d="
  M 922.75 997.04
  Q 927.59 1004.64 919.00 1007.26
  C 917.38 1007.67 915.74 1008.58 914.19 1008.50
  C 910.58 1008.31 908.02 1004.24 909.48 1001.01
  C 911.22 997.18 919.32 994.96 922.75 997.04
  Z"
/>
<path fill="#ff0000" d="
  M 956.00 1000.71
  L 965.25 1000.96
  L 1152.49 1000.86
  L 1161.78 1001.00
  L 1223.25 1001.00
  A 1.12 1.11 -9.0 0 1 1224.31 1001.76
  C 1224.87 1003.49 1224.39 1004.50 1222.48 1004.50
  Q 1192.24 1004.47 1162.00 1004.54
  L 1152.75 1004.54
  L 965.85 1004.55
  L 956.53 1004.49
  C 951.52 1004.50 933.34 1005.66 930.27 1003.63
  L 931.17 1000.94
  L 956.00 1000.71
  Z"
/>
<path fill="#000000" d="
  M 956.53 1004.49
  L 965.85 1004.55
  L 1008.26 1274.63
  A 0.74 0.74 0.0 0 0 1008.99 1275.25
  L 1183.25 1275.25
  A 0.49 0.48 86.8 0 0 1183.73 1274.71
  Q 1173.10 1171.52 1161.12 1068.68
  Q 1157.38 1036.55 1152.75 1004.54
  L 1162.00 1004.54
  C 1174.65 1097.33 1184.13 1190.50 1193.85 1283.88
  A 0.34 0.33 87.6 0 1 1193.52 1284.25
  L 1001.22 1284.25
  Q 1000.58 1284.25 1000.48 1283.62
  L 956.53 1004.49
  Z"
/>
<rect fill="#ff0000" x="-10.74" y="-5.40" transform="translate(878.35,1014.85) rotate(-16.5)" width="21.48" height="10.80" rx="5.14"/>
<rect fill="#ff0000" x="-10.75" y="-5.39" transform="translate(836.23,1025.49) rotate(-12.8)" width="21.50" height="10.78" rx="5.12"/>
<path fill="#ff0000" d="
  M 232.22 1024.57
  Q 235.91 1026.23 239.50 1027.00
  C 243.75 1027.91 243.55 1035.97 238.69 1037.06
  C 235.21 1037.85 228.02 1035.04 224.25 1033.97
  C 219.39 1030.55 221.61 1022.53 227.50 1023.75
  Q 231.24 1024.53 232.22 1024.57
  Z"
/>
<rect fill="#ff0000" x="-10.72" y="-5.39" transform="translate(793.63,1033.93) rotate(-10.0)" width="21.44" height="10.78" rx="5.12"/>
<rect fill="#ff0000" x="-10.74" y="-5.38" transform="translate(274.41,1039.87) rotate(9.7)" width="21.48" height="10.76" rx="5.12"/>
<rect fill="#ff0000" x="-10.75" y="-5.39" transform="translate(750.73,1040.63) rotate(-8.0)" width="21.50" height="10.78" rx="5.12"/>
<rect fill="#ff0000" x="-10.71" y="-5.40" transform="translate(707.56,1045.94) rotate(-5.8)" width="21.42" height="10.80" rx="5.13"/>
<rect fill="#ff0000" x="-10.76" y="-5.39" transform="translate(317.37,1046.17) rotate(6.9)" width="21.52" height="10.78" rx="5.12"/>
<rect fill="#ff0000" x="-10.76" y="-5.39" transform="translate(664.35,1050.02) rotate(-4.7)" width="21.52" height="10.78" rx="5.11"/>
<rect fill="#ff0000" x="-10.76" y="-5.39" transform="translate(360.60,1050.58) rotate(5.1)" width="21.52" height="10.78" rx="5.12"/>
<rect fill="#ff0000" x="-10.71" y="-5.40" transform="translate(621.00,1053.03) rotate(-3.3)" width="21.42" height="10.80" rx="5.11"/>
<rect fill="#ff0000" x="-10.71" y="-5.41" transform="translate(403.95,1053.58) rotate(2.7)" width="21.42" height="10.82" rx="5.11"/>
<rect fill="#ff0000" x="-10.75" y="-5.38" transform="translate(577.62,1055.04) rotate(-1.8)" width="21.50" height="10.76" rx="5.09"/>
<rect fill="#ff0000" x="-10.75" y="-5.40" transform="translate(447.35,1055.42) rotate(1.5)" width="21.50" height="10.80" rx="5.12"/>
<rect fill="#ff0000" x="-10.69" y="-5.44" transform="translate(490.76,1056.23) rotate(0.6)" width="21.38" height="10.88" rx="5.14"/>
<rect fill="#ff0000" x="-10.71" y="-5.37" transform="translate(534.23,1056.12) rotate(-0.5)" width="21.42" height="10.74" rx="5.08"/>
</svg>
