<svg xmlns="http://www.w3.org/2000/svg" viewBox="0 0 40 40"><defs><style>.cls-1{fill:#f7931e;}.cls-2{fill:#fff;}</style></defs><g id="Layer_2" data-name="Layer 2"><g id="Layer_2-2" data-name="Layer 2"><rect class="cls-1" width="40" height="40" rx="6"/><path class="cls-2" d="M20.1,8a6.22,6.22,0,1,0,6.22,6.22A6.22,6.22,0,0,0,20.1,8Zm0,8.79a2.57,2.57,0,1,1,2.57-2.57A2.57,2.57,0,0,1,20.1,16.79Z"/><path class="cls-2" d="M22.3,25.39a10.21,10.21,0,0,0,4.06-1.75A1.69,1.69,0,1,0,24.24,21,7.32,7.32,0,0,1,20,22.23,7.53,7.53,0,0,1,15.76,21a1.69,1.69,0,0,0-2.12,2.64,10.53,10.53,0,0,0,4.2,1.77l-3.57,3.73a1.69,1.69,0,0,0,0,2.39,1.72,1.72,0,0,0,1.18.47,1.65,1.65,0,0,0,1.21-.52L20,28l3.65,3.56a1.69,1.69,0,0,0,2.39-2.4Z"/><path class="cls-2" d="M20,22.23Z"/></g></g></svg>