<?xml version="1.0" encoding="UTF-8" standalone="no"?>
<!DOCTYPE svg PUBLIC "-//W3C//DTD SVG 1.1//EN" "http://www.w3.org/Graphics/SVG/1.1/DTD/svg11.dtd">
<svg xmlns="http://www.w3.org/2000/svg" version="1.1" viewBox="0.00 0.00 1524.00 1375.00">
<g stroke-width="2.00" fill="none" stroke-linecap="butt">
<path stroke="#808080" vector-effect="non-scaling-stroke" d="
  M 341.48 698.03
  C 312.37 712.46 271.70 640.12 262.90 621.96
  C 244.56 584.12 226.27 547.76 204.54 510.45
  Q 152.20 420.61 111.36 351.89
  C 101.22 334.83 89.89 319.40 72.10 309.89
  C 63.31 305.19 51.95 303.35 43.21 308.61
  C 23.85 320.28 27.81 354.50 32.37 372.33
  C 40.97 405.94 54.60 438.52 69.72 471.12
  Q 90.56 516.10 111.65 560.96
  Q 117.97 574.41 125.57 587.18
  C 145.79 621.14 168.30 653.74 189.86 686.86
  C 201.38 704.55 213.03 722.57 218.38 743.23
  C 222.59 759.46 225.63 778.86 228.44 796.52
  Q 228.52 797.00 229.01 797.00
  L 899.55 797.00
  Q 900.04 797.00 899.97 796.51
  Q 894.67 760.54 892.40 724.26
  C 889.05 670.88 898.25 623.51 912.55 570.94
  C 922.96 532.69 934.79 494.86 946.48 456.99
  C 958.67 417.49 963.90 377.56 972.89 337.74
  C 983.65 290.02 1004.80 244.78 1007.01 195.26
  C 1008.01 172.74 1004.74 148.12 981.82 137.92
  C 936.51 117.76 901.34 234.54 893.46 261.35
  Q 871.83 334.96 845.24 406.93
  C 837.53 427.81 830.94 448.66 826.10 470.42
  C 819.85 498.49 814.37 525.55 805.96 554.23
  C 798.24 580.54 784.83 609.69 761.22 624.18
  Q 750.68 630.65 738.90 628.79
  C 715.94 625.17 705.02 596.84 701.27 577.10
  C 699.46 567.60 700.88 558.87 702.23 549.00
  Q 708.60 502.12 714.76 455.22
  C 718.77 424.73 721.65 397.13 721.80 368.12
  C 721.83 362.73 722.85 357.49 722.75 352.05
  Q 722.54 340.90 722.03 329.75
  C 720.40 294.28 725.91 252.11 729.56 213.81
  C 732.39 184.21 732.67 154.94 732.59 123.82
  C 732.51 87.67 727.79 26.70 679.89 22.63
  C 657.35 20.72 643.78 35.76 636.36 55.35
  C 620.82 96.39 622.99 140.39 617.80 183.19
  Q 611.50 235.10 605.13 287.01
  C 603.16 303.11 601.48 319.89 599.54 336.34
  C 597.96 349.65 594.77 362.53 591.83 375.63
  Q 590.45 381.78 590.09 387.99
  C 587.81 426.55 587.09 463.47 584.55 501.18
  C 582.77 527.73 579.18 557.69 570.45 584.20
  C 563.84 604.30 547.19 634.14 520.83 618.88
  C 499.86 606.74 486.91 574.26 480.36 551.92
  C 462.67 491.59 452.34 429.19 433.36 369.29
  Q 422.44 334.85 416.06 299.24
  Q 408.98 259.75 401.76 220.30
  C 395.26 184.74 383.58 145.79 362.88 114.36
  Q 354.32 101.37 342.69 93.33
  C 329.23 84.01 309.85 85.13 299.82 99.09
  C 288.74 114.51 286.04 137.85 285.81 156.51
  C 285.43 187.05 288.87 216.92 296.20 246.54
  C 309.54 300.40 319.33 354.79 326.30 409.83
  C 331.31 449.44 341.60 485.64 351.03 528.44
  C 359.29 565.90 363.99 601.19 362.07 639.31
  C 361.22 656.20 358.50 689.60 341.48 698.03"
/>
<path stroke="#808080" vector-effect="non-scaling-stroke" d="
  M 445.47 838.25
  L 443.88 838.25
  Q 443.25 838.25 443.25 837.63
  L 443.25 806.25
  Q 443.25 805.75 442.75 805.75
  L 434.26 805.75
  Q 433.76 805.75 433.76 806.24
  L 433.72 837.76
  Q 433.72 838.25 433.24 838.25
  L 431.50 838.25
  Q 431.00 838.25 431.00 837.75
  L 431.00 806.72
  A 0.79 0.79 0.0 0 0 430.21 805.93
  L 421.76 805.97
  A 0.51 0.51 0.0 0 0 421.25 806.48
  L 421.25 837.75
  Q 421.25 838.25 420.75 838.25
  L 419.00 838.25
  Q 418.50 838.25 418.50 837.75
  L 418.50 806.37
  Q 418.50 805.75 417.87 805.75
  L 409.90 805.76
  Q 409.25 805.76 409.25 806.41
  L 409.25 868.25
  Q 409.25 868.75 408.75 868.75
  L 407.13 868.75
  Q 406.50 868.75 406.50 868.13
  L 406.50 806.49
  Q 406.50 805.98 405.99 805.98
  L 397.79 805.90
  A 0.31 0.31 0.0 0 0 397.48 806.21
  L 397.51 837.62
  Q 397.51 838.25 396.88 838.25
  L 395.18 838.25
  Q 394.61 838.25 394.61 837.68
  L 394.50 806.17
  A 0.33 0.32 89.1 0 0 394.18 805.85
  L 385.52 805.72
  A 0.51 0.51 0.0 0 0 385.00 806.23
  L 385.00 837.50
  Q 385.00 838.25 384.25 838.25
  L 382.75 838.25
  Q 382.25 838.25 382.25 837.75
  L 382.25 806.25
  Q 382.25 805.75 381.75 805.75
  L 373.12 805.75
  Q 372.50 805.75 372.50 806.38
  L 372.50 837.75
  Q 372.50 838.25 372.00 838.25
  L 370.38 838.25
  Q 369.75 838.25 369.75 837.62
  L 369.75 806.50
  Q 369.75 805.75 369.00 805.75
  L 360.75 805.75
  Q 360.25 805.75 360.25 806.25
  L 360.25 837.75
  Q 360.25 838.25 359.75 838.25
  L 358.00 838.25
  Q 357.50 838.25 357.50 837.75
  L 357.50 806.25
  A 0.50 0.50 0.0 0 0 357.00 805.75
  L 348.77 805.75
  A 0.49 0.48 -0.0 0 0 348.28 806.23
  L 348.17 868.16
  Q 348.17 868.75 347.58 868.75
  L 346.21 868.75
  Q 345.66 868.75 345.66 868.21
  L 345.45 806.35
  Q 345.45 805.75 344.85 805.75
  L 336.87 805.75
  Q 336.25 805.75 336.25 806.38
  L 336.25 837.63
  Q 336.25 838.25 335.63 838.25
  L 334.13 838.25
  Q 333.50 838.25 333.50 837.63
  L 333.50 806.50
  Q 333.50 805.75 332.75 805.75
  L 324.50 805.75
  Q 324.00 805.75 324.00 806.25
  L 324.00 837.63
  Q 324.00 838.25 323.37 838.25
  L 321.88 838.25
  Q 321.25 838.25 321.25 837.63
  L 321.25 806.25
  Q 321.25 805.75 320.75 805.75
  L 312.00 805.75
  A 0.50 0.50 0.0 0 0 311.50 806.25
  L 311.50 837.62
  Q 311.50 838.25 310.88 838.25
  L 309.25 838.25
  Q 308.75 838.25 308.75 837.75
  L 308.75 806.50
  Q 308.75 805.75 308.00 805.75
  L 299.75 805.75
  Q 299.25 805.75 299.25 806.25
  L 299.25 837.63
  Q 299.25 838.25 298.62 838.25
  L 297.12 838.25
  Q 296.50 838.25 296.50 837.63
  L 296.50 806.37
  Q 296.50 805.75 295.88 805.75
  L 287.89 805.75
  Q 287.28 805.75 287.28 806.36
  L 287.03 868.24
  Q 287.02 868.75 286.51 868.75
  L 285.00 868.75
  Q 284.50 868.75 284.50 868.25
  L 284.50 806.25
  A 0.50 0.50 0.0 0 0 284.00 805.75
  L 276.27 805.75
  Q 275.30 805.75 275.30 806.73
  L 275.15 837.55
  Q 275.15 838.25 274.45 838.25
  L 273.50 838.25
  A 1.00 1.00 0.0 0 1 272.50 837.25
  L 272.50 806.34
  Q 272.50 805.67 271.84 805.69
  L 263.29 805.90
  Q 262.75 805.92 262.75 806.46
  L 262.75 837.50
  Q 262.75 838.19 262.06 838.19
  L 260.81 838.19
  Q 260.25 838.19 260.25 837.63
  L 260.25 806.50
  A 0.75 0.75 0.0 0 0 259.50 805.75
  L 250.90 805.76
  A 0.40 0.40 0.0 0 0 250.50 806.16
  L 250.50 837.50
  Q 250.50 838.25 249.75 838.25
  L 248.38 838.25
  Q 247.75 838.25 247.75 837.63
  L 247.75 806.35
  Q 247.75 805.69 247.10 805.71
  L 238.71 805.88
  Q 238.25 805.89 238.24 806.35
  L 238.10 837.58
  Q 238.10 838.25 237.42 838.25
  L 235.87 838.25
  Q 235.25 838.25 235.25 837.62
  L 235.25 806.21
  Q 235.25 805.66 234.70 805.68
  L 226.76 805.95
  Q 226.25 805.97 226.25 806.48
  L 226.25 868.13
  Q 226.25 868.75 225.62 868.75
  L 224.03 868.75
  Q 223.57 868.75 223.57 868.28
  L 223.20 806.47
  Q 223.19 806.00 222.72 806.00
  L 221.75 806.00
  Q 221.25 806.00 221.25 806.50
  L 221.25 920.50
  Q 221.25 921.00 221.75 921.00
  L 965.82 921.00
  Q 966.46 921.00 966.46 920.36
  L 966.27 806.66
  Q 966.27 805.99 965.60 805.99
  L 959.31 806.00
  Q 958.87 806.01 958.86 806.44
  L 958.72 868.29
  Q 958.72 868.75 958.27 868.75
  L 956.62 868.75
  Q 956.00 868.75 956.00 868.13
  L 956.00 806.46
  Q 956.00 805.92 955.46 805.92
  L 947.52 806.03
  Q 947.08 806.04 947.07 806.48
  L 946.71 837.65
  Q 946.70 838.25 946.10 838.25
  L 944.75 838.25
  Q 944.25 838.25 944.25 837.75
  L 944.25 806.45
  A 0.62 0.61 90.0 0 0 943.64 805.83
  L 935.02 805.72
  A 0.52 0.51 0.0 0 0 934.50 806.23
  L 934.50 837.62
  Q 934.50 838.25 933.87 838.25
  L 932.38 838.25
  Q 931.75 838.25 931.75 837.63
  L 931.75 806.34
  Q 931.75 805.69 931.09 805.70
  L 923.05 805.87
  Q 922.30 805.89 922.29 806.64
  L 921.99 837.76
  Q 921.98 838.25 921.49 838.25
  L 920.16 838.25
  Q 919.56 838.25 919.56 837.66
  L 919.25 806.31
  Q 919.25 805.95 918.88 805.95
  L 910.15 805.95
  Q 909.75 805.95 909.75 806.35
  L 909.75 837.75
  Q 909.75 838.25 909.25 838.25
  L 907.50 838.25
  Q 907.00 838.25 907.00 837.75
  L 907.00 806.36
  Q 907.00 805.73 906.36 805.74
  L 898.26 805.96
  Q 897.75 805.98 897.75 806.49
  L 897.75 868.25
  Q 897.75 868.75 897.25 868.75
  L 895.50 868.75
  Q 895.00 868.75 895.00 868.25
  L 895.00 806.48
  Q 895.00 805.95 894.48 805.95
  L 886.30 805.96
  Q 885.75 805.96 885.75 806.51
  L 885.75 837.75
  Q 885.75 838.25 885.25 838.25
  L 883.91 838.25
  Q 883.32 838.25 883.31 837.66
  L 882.98 806.66
  Q 882.97 806.04 882.35 806.02
  L 874.12 805.77
  Q 873.50 805.75 873.50 806.38
  L 873.50 837.63
  Q 873.50 838.25 872.87 838.25
  L 871.38 838.25
  Q 870.75 838.25 870.75 837.63
  L 870.75 806.37
  Q 870.75 805.75 870.12 805.75
  L 861.65 805.76
  Q 861.00 805.76 861.00 806.41
  L 861.00 837.63
  Q 861.00 838.25 860.37 838.25
  L 858.93 838.25
  Q 858.29 838.25 858.29 837.62
  L 858.32 806.28
  Q 858.32 805.75 857.78 805.75
  L 849.24 805.75
  Q 848.72 805.75 848.72 806.27
  L 848.64 837.68
  Q 848.64 838.25 848.07 838.25
  L 846.62 838.25
  Q 846.00 838.25 846.00 837.62
  L 846.00 806.36
  Q 846.00 805.71 845.36 805.72
  L 837.40 805.83
  Q 836.89 805.83 836.88 806.35
  L 836.18 868.04
  Q 836.17 868.50 835.71 868.50
  L 834.95 868.50
  Q 834.26 868.50 834.28 867.80
  C 834.77 853.41 833.97 838.39 834.01 824.80
  Q 834.04 815.55 833.98 806.27
  Q 833.98 805.75 833.46 805.75
  L 825.25 805.75
  Q 824.75 805.75 824.75 806.25
  L 824.75 837.48
  Q 824.75 838.04 824.21 838.18
  Q 822.14 838.74 822.13 836.99
  Q 822.06 821.66 821.95 806.25
  Q 821.94 805.75 821.45 805.75
  L 813.00 805.75
  A 0.56 0.56 0.0 0 0 812.44 806.30
  Q 812.35 821.58 812.56 836.40
  C 812.58 838.08 811.78 838.92 810.13 838.08
  Q 809.75 837.89 809.75 837.47
  L 809.75 806.25
  A 0.50 0.50 0.0 0 0 809.25 805.75
  L 800.40 805.76
  A 0.40 0.40 0.0 0 0 800.00 806.16
  L 800.00 837.62
  Q 800.00 838.25 799.37 838.25
  L 797.88 838.25
  Q 797.25 838.25 797.25 837.63
  L 797.25 806.25
  Q 797.25 805.75 796.75 805.75
  L 788.22 805.75
  Q 787.63 805.75 787.63 806.34
  L 787.46 837.65
  Q 787.46 838.25 786.85 838.25
  L 785.30 838.25
  Q 784.79 838.25 784.79 837.74
  L 784.73 806.60
  Q 784.73 806.02 784.16 806.02
  L 776.17 805.91
  Q 775.75 805.91 775.75 806.33
  L 775.75 868.13
  Q 775.75 868.75 775.12 868.75
  L 773.50 868.75
  Q 773.00 868.75 773.00 868.25
  L 773.00 806.49
  Q 773.00 805.93 772.43 805.93
  L 764.23 806.03
  Q 763.75 806.04 763.75 806.52
  L 763.75 837.62
  Q 763.75 838.25 763.13 838.25
  L 761.63 838.25
  Q 761.00 838.25 761.00 837.62
  L 761.00 806.49
  Q 761.00 805.98 760.49 805.97
  L 751.78 805.76
  A 0.52 0.52 0.0 0 0 751.25 806.28
  L 751.25 837.75
  Q 751.25 838.25 750.75 838.25
  L 749.13 838.25
  Q 748.50 838.25 748.50 837.62
  L 748.50 806.50
  Q 748.50 805.75 747.75 805.75
  L 739.63 805.75
  Q 739.00 805.75 739.00 806.38
  L 739.00 837.62
  Q 739.00 838.25 738.37 838.25
  L 736.87 838.25
  Q 736.25 838.25 736.25 837.62
  L 736.25 806.24
  Q 736.25 805.72 735.74 805.73
  L 727.09 805.82
  Q 726.50 805.83 726.50 806.41
  L 726.50 837.63
  Q 726.50 838.27 725.86 838.26
  L 724.39 838.23
  Q 723.75 838.21 723.75 837.58
  L 723.75 806.45
  Q 723.75 805.90 723.20 805.91
  L 715.26 806.02
  Q 714.71 806.02 714.72 806.57
  C 714.89 827.13 714.16 847.91 714.56 868.15
  Q 714.57 868.77 713.96 868.76
  L 712.41 868.73
  Q 711.80 868.72 711.83 868.10
  Q 712.54 854.48 712.12 840.86
  C 711.72 828.06 711.78 817.88 711.74 806.36
  Q 711.74 805.88 711.26 805.88
  L 703.26 805.82
  Q 702.83 805.82 702.83 806.25
  L 702.47 837.64
  Q 702.46 838.25 701.86 838.25
  L 700.62 838.25
  Q 700.00 838.25 700.00 837.63
  L 700.00 806.37
  Q 700.00 805.75 699.37 805.75
  L 690.65 805.76
  A 0.40 0.40 0.0 0 0 690.25 806.16
  L 690.25 837.75
  Q 690.25 838.25 689.75 838.25
  L 688.00 838.25
  Q 687.50 838.25 687.50 837.75
  L 687.50 806.42
  Q 687.50 805.85 686.92 805.86
  L 678.32 806.06
  Q 677.96 806.06 677.96 806.43
  L 677.99 837.63
  Q 677.99 838.25 677.37 838.25
  L 675.90 838.25
  Q 675.25 838.25 675.25 837.59
  L 675.25 806.25
  Q 675.25 805.75 674.75 805.75
  L 666.00 805.75
  A 0.50 0.50 0.0 0 0 665.50 806.25
  L 665.50 837.75
  Q 665.50 838.25 665.00 838.25
  L 663.38 838.25
  Q 662.75 838.25 662.75 837.63
  L 662.75 806.48
  Q 662.75 805.95 662.23 805.95
  L 653.92 805.92
  A 0.42 0.42 0.0 0 0 653.50 806.34
  L 653.50 868.25
  Q 653.50 868.75 653.00 868.75
  L 651.25 868.75
  Q 650.75 868.75 650.75 868.25
  L 650.75 806.47
  Q 650.75 805.94 650.22 805.94
  L 642.14 805.94
  Q 641.71 805.94 641.71 806.37
  L 641.52 837.62
  Q 641.51 838.25 640.88 838.25
  L 639.38 838.25
  Q 638.75 838.25 638.75 837.62
  L 638.75 806.50
  Q 638.75 805.75 638.00 805.75
  L 629.87 805.75
  Q 629.25 805.75 629.25 806.38
  L 629.25 837.62
  Q 629.25 838.25 628.63 838.25
  L 627.13 838.25
  Q 626.50 838.25 626.50 837.62
  L 626.50 806.50
  Q 626.50 805.75 625.75 805.75
  L 617.25 805.75
  Q 616.75 805.75 616.75 806.25
  L 616.75 837.63
  Q 616.75 838.25 616.12 838.25
  L 614.63 838.25
  Q 614.00 838.25 614.00 837.63
  L 614.00 806.25
  Q 614.00 805.75 613.50 805.75
  L 605.01 805.75
  A 0.48 0.48 0.0 0 0 604.53 806.23
  Q 604.50 821.73 604.31 837.25
  Q 604.29 838.69 602.23 838.18
  A 0.63 0.63 0.0 0 1 601.75 837.57
  L 601.75 806.50
  Q 601.75 805.75 601.00 805.75
  L 593.17 805.75
  Q 592.59 805.75 592.58 806.33
  L 592.26 868.19
  Q 592.26 868.90 591.57 868.72
  L 590.61 868.47
  Q 590.13 868.35 590.13 867.85
  L 589.65 806.20
  Q 589.65 805.75 589.20 805.75
  L 581.00 805.75
  A 0.50 0.50 0.0 0 0 580.50 806.25
  L 580.50 837.63
  Q 580.50 838.25 579.87 838.25
  L 578.38 838.25
  Q 577.75 838.25 577.75 837.63
  L 577.75 806.25
  Q 577.75 805.75 577.25 805.75
  L 568.75 805.75
  A 0.50 0.50 0.0 0 0 568.25 806.25
  L 568.25 837.63
  Q 568.25 838.25 567.62 838.25
  L 566.28 838.25
  Q 565.50 838.25 565.50 837.47
  L 565.50 806.50
  A 0.75 0.75 0.0 0 0 564.75 805.75
  L 556.25 805.75
  Q 555.75 805.75 555.75 806.25
  L 555.75 837.75
  Q 555.75 838.25 555.25 838.25
  L 553.50 838.25
  Q 553.00 838.25 553.00 837.75
  L 553.00 806.50
  Q 553.00 805.75 552.25 805.75
  L 543.94 805.75
  A 0.50 0.50 0.0 0 0 543.44 806.25
  L 543.35 837.70
  Q 543.35 838.25 542.80 838.25
  L 541.14 838.25
  Q 540.53 838.25 540.53 837.64
  L 540.59 806.32
  Q 540.59 805.75 540.01 805.75
  L 532.13 805.75
  Q 531.52 805.75 531.52 806.37
  L 531.45 868.15
  Q 531.44 868.75 530.85 868.75
  L 529.25 868.75
  Q 528.75 868.75 528.75 868.25
  L 528.75 806.25
  A 0.50 0.50 0.0 0 0 528.25 805.75
  L 519.90 805.76
  A 0.40 0.40 0.0 0 0 519.50 806.16
  L 519.50 837.75
  Q 519.50 838.25 519.00 838.25
  L 517.50 838.25
  Q 516.75 838.25 516.75 837.50
  L 516.75 806.50
  Q 516.75 805.75 516.00 805.75
  L 507.66 805.75
  Q 507.00 805.75 507.00 806.41
  L 507.00 837.65
  Q 507.00 838.31 506.34 838.27
  L 504.98 838.19
  Q 504.38 838.15 504.38 837.55
  L 504.35 806.30
  Q 504.35 805.75 503.80 805.75
  L 495.25 805.75
  Q 494.75 805.75 494.75 806.25
  L 494.75 837.65
  Q 494.75 838.37 494.03 838.25
  L 492.57 838.00
  Q 492.00 837.90 492.00 837.32
  L 492.00 806.39
  Q 492.00 805.72 491.33 805.73
  L 482.80 805.83
  Q 482.25 805.84 482.25 806.39
  L 482.25 837.75
  Q 482.25 838.25 481.75 838.25
  L 480.13 838.25
  Q 479.50 838.25 479.50 837.62
  L 479.50 806.48
  Q 479.50 805.95 478.98 805.95
  L 471.20 805.86
  Q 470.54 805.85 470.53 806.51
  Q 470.30 819.09 470.22 831.15
  C 470.16 840.15 469.37 855.69 470.28 868.10
  Q 470.33 868.75 469.68 868.75
  L 468.36 868.75
  Q 467.97 868.75 467.97 868.36
  L 467.58 806.41
  Q 467.57 805.75 466.91 805.75
  L 459.14 805.75
  Q 458.53 805.75 458.53 806.36
  L 458.44 837.66
  Q 458.44 838.25 457.85 838.25
  L 456.37 838.25
  Q 455.75 838.25 455.75 837.63
  L 455.75 806.37
  Q 455.75 805.75 455.12 805.75
  L 446.65 805.76
  Q 446.00 805.76 446.00 806.41
  L 446.00 837.72
  Q 446.00 838.25 445.47 838.25"
/>
<path stroke="#808080" vector-effect="non-scaling-stroke" d="
  M 525.76 1229.75
  A 0.30 0.30 0.0 0 1 525.35 1229.67
  L 450.28 1121.27
  A 0.57 0.57 0.0 0 1 450.42 1120.47
  L 725.39 930.10
  A 0.19 0.19 0.0 0 0 725.28 929.75
  L 258.51 929.75
  Q 258.02 929.75 258.05 930.24
  C 259.38 949.96 258.02 973.57 259.33 986.94
  C 262.30 1017.08 262.61 1047.43 263.68 1077.68
  C 265.21 1120.67 272.06 1163.24 280.21 1205.41
  C 285.87 1234.72 294.69 1265.18 310.49 1291.28
  C 332.84 1328.20 367.52 1343.50 409.81 1345.66
  C 457.38 1348.09 507.87 1338.00 552.72 1330.58
  Q 572.13 1327.37 591.75 1326.83
  C 609.13 1326.35 627.28 1328.76 644.57 1331.41
  Q 671.20 1335.51 697.83 1339.58
  C 726.08 1343.91 758.61 1347.41 788.63 1343.37
  C 804.76 1341.20 820.02 1335.58 833.96 1327.71
  C 861.14 1312.37 886.94 1292.16 910.44 1271.94
  C 939.77 1246.70 973.66 1215.47 1006.95 1188.74
  C 1022.50 1176.26 1040.58 1166.05 1057.78 1156.00
  C 1101.11 1130.68 1144.92 1105.87 1187.15 1078.73
  C 1199.19 1070.99 1211.44 1064.94 1223.95 1058.44
  C 1234.86 1052.77 1246.82 1048.10 1258.34 1042.87
  Q 1261.23 1041.55 1263.59 1039.34
  C 1277.39 1026.42 1291.19 1012.91 1306.23 1001.48
  Q 1324.82 987.35 1343.91 973.89
  C 1356.27 965.17 1369.30 957.12 1383.73 952.02
  C 1412.64 941.81 1440.64 931.81 1467.53 916.82
  C 1476.42 911.87 1492.29 900.78 1494.86 890.62
  C 1499.40 872.63 1461.99 856.60 1449.37 852.76
  C 1414.55 842.13 1370.30 838.44 1335.93 852.81
  C 1284.75 874.22 1228.19 896.44 1148.30 928.36
  Q 1099.92 947.69 1053.52 962.30
  C 1040.16 966.50 1023.03 971.38 1008.52 971.93
  C 986.40 972.78 965.84 951.10 953.42 934.73
  Q 952.80 933.92 951.95 934.50
  L 525.76 1229.75"
/>
<path stroke="#808080" vector-effect="non-scaling-stroke" d="
  M 652.73 1029.69
  L 634.97 1004.05
  Q 634.65 1003.59 634.19 1003.91
  L 627.19 1008.76
  Q 626.73 1009.08 627.05 1009.54
  L 644.72 1034.99
  Q 645.13 1035.59 644.55 1036.03
  L 643.35 1036.94
  Q 642.92 1037.28 642.60 1036.82
  L 624.82 1011.14
  Q 624.46 1010.62 623.93 1010.99
  L 617.41 1015.58
  Q 616.95 1015.90 617.27 1016.37
  L 652.32 1066.99
  Q 652.72 1067.56 652.13 1067.93
  L 650.94 1068.68
  Q 650.39 1069.03 650.01 1068.49
  L 615.01 1018.00
  Q 614.64 1017.47 614.10 1017.84
  L 607.54 1022.31
  Q 607.07 1022.64 607.39 1023.11
  L 625.21 1048.81
  Q 625.53 1049.27 625.05 1049.57
  L 623.63 1050.47
  Q 623.17 1050.76 622.87 1050.32
  L 605.21 1024.78
  Q 604.86 1024.27 604.34 1024.61
  L 597.32 1029.39
  Q 596.90 1029.68 597.19 1030.10
  L 614.96 1055.82
  Q 615.27 1056.27 614.83 1056.61
  L 613.54 1057.59
  Q 613.08 1057.94 612.75 1057.46
  L 594.99 1031.77
  Q 594.66 1031.29 594.18 1031.62
  L 587.20 1036.50
  Q 586.74 1036.82 587.06 1037.28
  L 604.79 1062.84
  Q 605.18 1063.40 604.61 1063.77
  L 603.40 1064.56
  Q 602.85 1064.91 602.48 1064.37
  L 584.83 1038.90
  Q 584.47 1038.37 583.94 1038.73
  L 577.12 1043.47
  Q 576.57 1043.86 576.95 1044.41
  L 594.54 1069.84
  Q 594.91 1070.38 594.38 1070.78
  L 593.22 1071.63
  Q 592.71 1072.01 592.35 1071.49
  L 574.57 1045.83
  Q 574.27 1045.41 573.84 1045.70
  L 567.19 1050.31
  Q 566.72 1050.63 567.04 1051.09
  L 602.18 1101.82
  Q 602.57 1102.39 601.96 1102.73
  L 600.67 1103.43
  Q 600.13 1103.73 599.77 1103.22
  L 564.78 1052.68
  Q 564.46 1052.22 563.99 1052.54
  L 557.32 1057.14
  Q 556.91 1057.43 557.19 1057.85
  L 574.91 1083.45
  Q 575.30 1084.00 574.76 1084.41
  L 573.55 1085.33
  Q 573.08 1085.69 572.75 1085.20
  L 554.95 1059.44
  A 0.54 0.53 -34.6 0 0 554.21 1059.31
  L 547.18 1064.16
  Q 546.72 1064.48 547.04 1064.95
  L 564.82 1090.60
  Q 565.11 1091.03 564.70 1091.34
  L 563.47 1092.30
  Q 562.92 1092.73 562.52 1092.15
  L 544.77 1066.53
  Q 544.43 1066.05 543.95 1066.38
  L 537.02 1071.21
  Q 536.52 1071.55 536.87 1072.06
  L 554.54 1097.53
  Q 554.91 1098.07 554.39 1098.47
  L 553.21 1099.36
  Q 552.72 1099.74 552.36 1099.23
  L 534.60 1073.63
  Q 534.25 1073.12 533.74 1073.47
  L 526.88 1078.24
  Q 526.35 1078.61 526.71 1079.14
  L 544.43 1104.69
  Q 544.73 1105.12 544.31 1105.44
  L 543.03 1106.40
  Q 542.51 1106.80 542.13 1106.26
  L 524.34 1080.56
  Q 524.04 1080.14 523.62 1080.43
  L 516.81 1085.21
  A 0.35 0.34 56.3 0 0 516.72 1085.69
  L 551.90 1136.46
  Q 552.26 1136.98 551.78 1137.38
  L 550.70 1138.31
  Q 550.13 1138.80 549.71 1138.18
  L 514.62 1087.52
  A 0.65 0.65 0.0 0 0 513.71 1087.35
  L 507.32 1091.80
  A 0.74 0.74 0.0 0 0 507.13 1092.83
  L 524.75 1118.21
  Q 525.09 1118.70 524.61 1119.06
  L 523.27 1120.05
  Q 522.85 1120.36 522.55 1119.93
  L 504.80 1094.31
  Q 504.48 1093.85 504.01 1094.16
  L 498.32 1097.92
  Q 497.89 1098.20 498.18 1098.62
  L 563.23 1192.60
  A 0.40 0.40 0.0 0 0 563.79 1192.70
  L 942.80 930.18
  Q 943.42 929.75 942.67 929.75
  L 795.26 929.75
  Q 794.64 929.75 794.96 930.28
  L 795.44 931.08
  Q 795.80 931.67 795.17 931.94
  L 793.88 932.51
  Q 793.30 932.77 792.95 932.24
  L 791.64 930.29
  Q 791.28 929.75 790.63 929.75
  L 780.84 929.75
  Q 780.09 929.75 780.52 930.36
  L 802.95 962.72
  Q 803.27 963.18 802.82 963.52
  L 801.53 964.49
  Q 801.03 964.87 800.67 964.35
  L 777.03 930.18
  Q 776.74 929.75 776.22 929.75
  L 766.04 929.75
  Q 765.53 929.75 765.82 930.17
  L 775.74 944.40
  Q 776.07 944.88 775.60 945.24
  L 774.32 946.22
  Q 773.84 946.59 773.50 946.09
  L 762.51 930.17
  Q 762.22 929.75 761.71 929.75
  L 751.03 929.75
  Q 750.51 929.75 750.80 930.18
  L 765.57 951.50
  Q 765.96 952.07 765.38 952.43
  L 764.17 953.20
  Q 763.61 953.55 763.23 953.01
  L 747.69 930.55
  Q 747.37 930.09 746.83 929.95
  Q 741.46 928.61 737.78 932.24
  Q 737.41 932.61 737.71 933.04
  L 755.34 958.50
  Q 755.76 959.10 755.15 959.50
  L 753.86 960.33
  Q 753.42 960.61 753.13 960.19
  L 735.38 934.54
  Q 735.04 934.05 734.55 934.39
  L 727.58 939.25
  Q 727.15 939.55 727.44 939.98
  L 745.17 965.57
  Q 745.55 966.12 745.00 966.49
  L 743.80 967.30
  Q 743.27 967.66 742.90 967.13
  L 725.19 941.58
  Q 724.89 941.15 724.46 941.44
  L 717.71 946.02
  A 0.50 0.50 0.0 0 0 717.58 946.71
  L 752.74 997.50
  Q 753.08 997.99 752.59 998.34
  L 751.30 999.24
  Q 750.82 999.58 750.48 999.09
  L 715.38 948.40
  Q 715.04 947.92 714.57 948.25
  L 708.02 952.82
  A 0.62 0.62 0.0 0 0 707.86 953.68
  L 725.52 979.14
  Q 725.88 979.67 725.36 980.05
  L 724.10 980.96
  Q 723.65 981.29 723.33 980.83
  L 705.58 955.26
  Q 705.20 954.72 704.66 955.09
  L 697.78 959.83
  Q 697.27 960.18 697.63 960.68
  L 715.39 986.28
  Q 715.74 986.80 715.21 987.13
  L 713.85 987.99
  Q 713.38 988.29 713.06 987.82
  L 695.34 962.21
  Q 695.04 961.78 694.61 962.08
  L 687.57 966.96
  Q 687.13 967.26 687.44 967.70
  L 705.13 993.24
  Q 705.50 993.77 704.98 994.15
  L 703.73 995.08
  Q 703.28 995.41 702.96 994.95
  L 685.30 969.45
  Q 684.88 968.84 684.26 969.26
  L 677.34 973.97
  A 0.52 0.51 55.5 0 0 677.21 974.69
  L 694.98 1000.35
  Q 695.23 1000.71 694.91 1001.01
  L 693.64 1002.19
  Q 693.18 1002.61 692.83 1002.10
  L 675.04 976.40
  Q 674.69 975.88 674.17 976.24
  L 667.64 980.74
  Q 667.11 981.10 667.47 981.62
  L 702.56 1032.26
  Q 702.95 1032.82 702.37 1033.19
  L 701.16 1033.95
  Q 700.60 1034.31 700.22 1033.76
  L 665.18 983.15
  Q 664.84 982.67 664.36 983.01
  L 657.72 987.62
  Q 657.29 987.91 657.59 988.34
  L 675.35 1013.96
  Q 675.76 1014.56 675.14 1014.93
  L 673.85 1015.72
  Q 673.40 1016.00 673.09 1015.56
  L 655.35 989.96
  Q 655.04 989.52 654.60 989.82
  L 647.55 994.63
  Q 647.10 994.94 647.41 995.39
  L 665.20 1021.07
  Q 665.52 1021.53 665.06 1021.86
  L 663.75 1022.77
  Q 663.25 1023.12 662.90 1022.62
  L 645.18 997.04
  Q 644.84 996.54 644.35 996.88
  L 637.42 1001.66
  Q 636.92 1002.00 637.26 1002.49
  L 654.98 1028.12
  Q 655.31 1028.60 654.83 1028.93
  L 653.50 1029.83
  Q 653.04 1030.14 652.73 1029.69"
/>
<path stroke="#808080" vector-effect="non-scaling-stroke" d="
  M 490.8591 1103.5108
  A 0.26 0.26 0.0 0 0 490.4973 1103.4451
  L 462.4786 1122.8461
  A 0.26 0.26 0.0 0 0 462.4129 1123.2079
  L 527.6409 1217.4092
  A 0.26 0.26 0.0 0 0 528.0027 1217.4749
  L 556.0214 1198.0739
  A 0.26 0.26 0.0 0 0 556.0871 1197.7121
  L 490.8591 1103.5108"
/>
</g>
<path fill="#000000" d="
  M 963.95 930.40
  C 971.68 940.50 984.17 953.21 994.58 957.92
  Q 1004.58 962.44 1016.72 960.00
  C 1058.13 951.66 1098.98 936.10 1138.13 920.48
  C 1205.11 893.75 1272.10 867.09 1338.89 839.88
  C 1343.64 837.95 1349.20 836.32 1354.25 835.51
  Q 1395.95 828.82 1437.28 837.85
  C 1460.17 842.85 1486.05 853.61 1500.95 872.05
  C 1512.04 885.77 1504.27 902.45 1492.56 912.33
  C 1474.90 927.22 1452.16 937.98 1431.47 946.19
  Q 1408.51 955.29 1385.04 963.02
  Q 1376.90 965.70 1364.63 973.35
  C 1346.42 984.71 1328.99 997.88 1311.95 1010.92
  C 1297.14 1022.26 1283.57 1035.78 1269.83 1048.45
  C 1267.65 1050.46 1264.84 1052.08 1262.43 1053.17
  C 1252.71 1057.59 1241.42 1061.81 1231.53 1066.91
  C 1220.56 1072.58 1208.49 1077.96 1198.17 1084.66
  C 1148.66 1116.83 1096.90 1145.79 1046.06 1175.80
  C 1033.90 1182.98 1022.43 1190.22 1011.26 1199.33
  C 968.76 1233.95 929.42 1272.22 886.07 1305.81
  C 853.15 1331.31 820.09 1352.87 778.08 1355.59
  C 722.92 1359.16 668.43 1344.32 613.93 1338.59
  C 592.30 1336.32 570.67 1339.10 548.61 1342.52
  C 505.99 1349.13 463.74 1357.35 420.00 1357.01
  C 372.36 1356.65 330.58 1342.23 303.67 1301.07
  C 279.90 1264.70 270.26 1218.77 263.63 1176.52
  C 258.07 1141.10 253.71 1111.91 252.64 1077.93
  C 251.79 1050.98 251.55 1023.89 249.29 997.02
  Q 248.35 985.82 248.25 977.07
  C 248.06 961.53 248.48 945.75 247.08 930.28
  Q 247.04 929.75 246.51 929.75
  L 213.00 929.75
  A 0.50 0.50 0.0 0 1 212.50 929.25
  L 212.50 797.63
  Q 212.50 797.00 213.12 797.00
  L 216.71 797.00
  Q 217.30 797.00 217.21 796.42
  Q 213.72 772.78 208.48 749.53
  Q 206.13 739.10 202.97 731.80
  C 194.63 712.56 180.03 691.29 170.18 676.57
  C 148.82 644.64 126.37 611.87 108.26 578.99
  C 101.62 566.93 94.64 550.54 90.00 540.71
  C 62.78 483.07 39.39 437.04 23.63 382.33
  C 18.80 365.56 16.19 348.09 18.61 330.84
  C 21.04 313.56 31.90 297.06 50.49 294.66
  C 74.98 291.49 97.68 312.82 110.88 330.75
  Q 114.41 335.54 121.59 347.63
  Q 177.70 442.08 217.82 511.43
  Q 244.41 557.39 268.56 608.65
  C 278.78 630.32 291.27 650.30 306.29 668.98
  C 312.31 676.47 320.43 685.21 329.50 688.50
  C 345.06 694.15 349.51 659.32 350.25 650.74
  C 353.37 614.73 350.65 581.31 343.35 545.78
  Q 335.73 508.68 325.31 465.44
  C 321.00 447.56 317.69 429.26 315.31 410.33
  C 308.84 358.89 299.63 304.29 286.54 253.17
  C 279.82 226.92 275.90 200.29 274.75 173.20
  C 273.43 142.14 276.39 82.37 317.76 76.70
  C 376.63 68.62 405.30 178.99 412.85 219.08
  C 421.51 265.07 427.17 312.55 441.23 357.29
  C 460.65 419.12 475.19 493.89 490.03 546.19
  Q 496.51 569.03 507.30 588.19
  C 512.65 597.70 526.40 616.57 539.49 611.13
  C 556.40 604.10 564.74 567.59 567.53 551.25
  C 576.98 495.98 576.14 439.37 579.37 383.53
  C 579.54 380.70 580.10 377.04 580.80 374.19
  Q 586.13 352.35 587.53 344.01
  C 589.72 330.92 591.03 312.57 592.79 297.90
  Q 599.70 240.52 606.79 183.17
  Q 607.98 173.53 608.70 163.29
  C 610.31 140.12 611.89 117.03 615.15 94.01
  C 620.44 56.80 635.54 5.63 684.47 12.14
  C 739.32 19.45 744.11 89.24 743.68 131.00
  Q 743.46 152.59 742.99 174.19
  C 741.97 220.48 733.84 266.11 732.88 312.49
  C 732.62 324.91 733.58 340.53 733.78 351.50
  C 733.89 357.53 732.85 364.29 732.78 370.26
  Q 732.54 392.17 730.49 414.00
  C 726.27 458.90 719.45 503.51 713.34 548.17
  C 712.19 556.56 710.43 566.05 711.96 574.39
  C 715.16 591.88 727.56 627.58 752.82 616.09
  C 786.75 600.66 800.27 538.04 807.14 505.58
  Q 817.09 458.59 820.71 446.24
  C 831.11 410.79 845.33 374.85 853.45 351.19
  Q 868.07 308.60 872.95 291.69
  C 884.46 251.76 916.00 128.71 968.16 124.74
  Q 976.54 124.10 985.47 127.47
  C 1045.91 150.29 1006.58 261.74 993.48 303.20
  C 977.88 352.54 972.80 407.73 958.77 453.68
  Q 947.81 489.57 937.00 525.50
  C 923.68 569.77 910.85 616.33 904.76 661.00
  Q 903.50 670.27 902.86 686.32
  C 901.44 721.59 905.65 760.33 911.01 796.41
  Q 911.14 797.28 912.02 797.28
  L 974.16 797.18
  Q 975.13 797.18 975.13 798.16
  L 975.24 929.25
  Q 975.24 929.75 974.75 929.75
  L 964.28 929.75
  A 0.41 0.40 -18.5 0 0 963.95 930.40
  Z
  M 341.48 698.03
  C 312.37 712.46 271.70 640.12 262.90 621.96
  C 244.56 584.12 226.27 547.76 204.54 510.45
  Q 152.20 420.61 111.36 351.89
  C 101.22 334.83 89.89 319.40 72.10 309.89
  C 63.31 305.19 51.95 303.35 43.21 308.61
  C 23.85 320.28 27.81 354.50 32.37 372.33
  C 40.97 405.94 54.60 438.52 69.72 471.12
  Q 90.56 516.10 111.65 560.96
  Q 117.97 574.41 125.57 587.18
  C 145.79 621.14 168.30 653.74 189.86 686.86
  C 201.38 704.55 213.03 722.57 218.38 743.23
  C 222.59 759.46 225.63 778.86 228.44 796.52
  Q 228.52 797.00 229.01 797.00
  L 899.55 797.00
  Q 900.04 797.00 899.97 796.51
  Q 894.67 760.54 892.40 724.26
  C 889.05 670.88 898.25 623.51 912.55 570.94
  C 922.96 532.69 934.79 494.86 946.48 456.99
  C 958.67 417.49 963.90 377.56 972.89 337.74
  C 983.65 290.02 1004.80 244.78 1007.01 195.26
  C 1008.01 172.74 1004.74 148.12 981.82 137.92
  C 936.51 117.76 901.34 234.54 893.46 261.35
  Q 871.83 334.96 845.24 406.93
  C 837.53 427.81 830.94 448.66 826.10 470.42
  C 819.85 498.49 814.37 525.55 805.96 554.23
  C 798.24 580.54 784.83 609.69 761.22 624.18
  Q 750.68 630.65 738.90 628.79
  C 715.94 625.17 705.02 596.84 701.27 577.10
  C 699.46 567.60 700.88 558.87 702.23 549.00
  Q 708.60 502.12 714.76 455.22
  C 718.77 424.73 721.65 397.13 721.80 368.12
  C 721.83 362.73 722.85 357.49 722.75 352.05
  Q 722.54 340.90 722.03 329.75
  C 720.40 294.28 725.91 252.11 729.56 213.81
  C 732.39 184.21 732.67 154.94 732.59 123.82
  C 732.51 87.67 727.79 26.70 679.89 22.63
  C 657.35 20.72 643.78 35.76 636.36 55.35
  C 620.82 96.39 622.99 140.39 617.80 183.19
  Q 611.50 235.10 605.13 287.01
  C 603.16 303.11 601.48 319.89 599.54 336.34
  C 597.96 349.65 594.77 362.53 591.83 375.63
  Q 590.45 381.78 590.09 387.99
  C 587.81 426.55 587.09 463.47 584.55 501.18
  C 582.77 527.73 579.18 557.69 570.45 584.20
  C 563.84 604.30 547.19 634.14 520.83 618.88
  C 499.86 606.74 486.91 574.26 480.36 551.92
  C 462.67 491.59 452.34 429.19 433.36 369.29
  Q 422.44 334.85 416.06 299.24
  Q 408.98 259.75 401.76 220.30
  C 395.26 184.74 383.58 145.79 362.88 114.36
  Q 354.32 101.37 342.69 93.33
  C 329.23 84.01 309.85 85.13 299.82 99.09
  C 288.74 114.51 286.04 137.85 285.81 156.51
  C 285.43 187.05 288.87 216.92 296.20 246.54
  C 309.54 300.40 319.33 354.79 326.30 409.83
  C 331.31 449.44 341.60 485.64 351.03 528.44
  C 359.29 565.90 363.99 601.19 362.07 639.31
  C 361.22 656.20 358.50 689.60 341.48 698.03
  Z
  M 445.47 838.25
  L 443.88 838.25
  Q 443.25 838.25 443.25 837.63
  L 443.25 806.25
  Q 443.25 805.75 442.75 805.75
  L 434.26 805.75
  Q 433.76 805.75 433.76 806.24
  L 433.72 837.76
  Q 433.72 838.25 433.24 838.25
  L 431.50 838.25
  Q 431.00 838.25 431.00 837.75
  L 431.00 806.72
  A 0.79 0.79 0.0 0 0 430.21 805.93
  L 421.76 805.97
  A 0.51 0.51 0.0 0 0 421.25 806.48
  L 421.25 837.75
  Q 421.25 838.25 420.75 838.25
  L 419.00 838.25
  Q 418.50 838.25 418.50 837.75
  L 418.50 806.37
  Q 418.50 805.75 417.87 805.75
  L 409.90 805.76
  Q 409.25 805.76 409.25 806.41
  L 409.25 868.25
  Q 409.25 868.75 408.75 868.75
  L 407.13 868.75
  Q 406.50 868.75 406.50 868.13
  L 406.50 806.49
  Q 406.50 805.98 405.99 805.98
  L 397.79 805.90
  A 0.31 0.31 0.0 0 0 397.48 806.21
  L 397.51 837.62
  Q 397.51 838.25 396.88 838.25
  L 395.18 838.25
  Q 394.61 838.25 394.61 837.68
  L 394.50 806.17
  A 0.33 0.32 89.1 0 0 394.18 805.85
  L 385.52 805.72
  A 0.51 0.51 0.0 0 0 385.00 806.23
  L 385.00 837.50
  Q 385.00 838.25 384.25 838.25
  L 382.75 838.25
  Q 382.25 838.25 382.25 837.75
  L 382.25 806.25
  Q 382.25 805.75 381.75 805.75
  L 373.12 805.75
  Q 372.50 805.75 372.50 806.38
  L 372.50 837.75
  Q 372.50 838.25 372.00 838.25
  L 370.38 838.25
  Q 369.75 838.25 369.75 837.62
  L 369.75 806.50
  Q 369.75 805.75 369.00 805.75
  L 360.75 805.75
  Q 360.25 805.75 360.25 806.25
  L 360.25 837.75
  Q 360.25 838.25 359.75 838.25
  L 358.00 838.25
  Q 357.50 838.25 357.50 837.75
  L 357.50 806.25
  A 0.50 0.50 0.0 0 0 357.00 805.75
  L 348.77 805.75
  A 0.49 0.48 -0.0 0 0 348.28 806.23
  L 348.17 868.16
  Q 348.17 868.75 347.58 868.75
  L 346.21 868.75
  Q 345.66 868.75 345.66 868.21
  L 345.45 806.35
  Q 345.45 805.75 344.85 805.75
  L 336.87 805.75
  Q 336.25 805.75 336.25 806.38
  L 336.25 837.63
  Q 336.25 838.25 335.63 838.25
  L 334.13 838.25
  Q 333.50 838.25 333.50 837.63
  L 333.50 806.50
  Q 333.50 805.75 332.75 805.75
  L 324.50 805.75
  Q 324.00 805.75 324.00 806.25
  L 324.00 837.63
  Q 324.00 838.25 323.37 838.25
  L 321.88 838.25
  Q 321.25 838.25 321.25 837.63
  L 321.25 806.25
  Q 321.25 805.75 320.75 805.75
  L 312.00 805.75
  A 0.50 0.50 0.0 0 0 311.50 806.25
  L 311.50 837.62
  Q 311.50 838.25 310.88 838.25
  L 309.25 838.25
  Q 308.75 838.25 308.75 837.75
  L 308.75 806.50
  Q 308.75 805.75 308.00 805.75
  L 299.75 805.75
  Q 299.25 805.75 299.25 806.25
  L 299.25 837.63
  Q 299.25 838.25 298.62 838.25
  L 297.12 838.25
  Q 296.50 838.25 296.50 837.63
  L 296.50 806.37
  Q 296.50 805.75 295.88 805.75
  L 287.89 805.75
  Q 287.28 805.75 287.28 806.36
  L 287.03 868.24
  Q 287.02 868.75 286.51 868.75
  L 285.00 868.75
  Q 284.50 868.75 284.50 868.25
  L 284.50 806.25
  A 0.50 0.50 0.0 0 0 284.00 805.75
  L 276.27 805.75
  Q 275.30 805.75 275.30 806.73
  L 275.15 837.55
  Q 275.15 838.25 274.45 838.25
  L 273.50 838.25
  A 1.00 1.00 0.0 0 1 272.50 837.25
  L 272.50 806.34
  Q 272.50 805.67 271.84 805.69
  L 263.29 805.90
  Q 262.75 805.92 262.75 806.46
  L 262.75 837.50
  Q 262.75 838.19 262.06 838.19
  L 260.81 838.19
  Q 260.25 838.19 260.25 837.63
  L 260.25 806.50
  A 0.75 0.75 0.0 0 0 259.50 805.75
  L 250.90 805.76
  A 0.40 0.40 0.0 0 0 250.50 806.16
  L 250.50 837.50
  Q 250.50 838.25 249.75 838.25
  L 248.38 838.25
  Q 247.75 838.25 247.75 837.63
  L 247.75 806.35
  Q 247.75 805.69 247.10 805.71
  L 238.71 805.88
  Q 238.25 805.89 238.24 806.35
  L 238.10 837.58
  Q 238.10 838.25 237.42 838.25
  L 235.87 838.25
  Q 235.25 838.25 235.25 837.62
  L 235.25 806.21
  Q 235.25 805.66 234.70 805.68
  L 226.76 805.95
  Q 226.25 805.97 226.25 806.48
  L 226.25 868.13
  Q 226.25 868.75 225.62 868.75
  L 224.03 868.75
  Q 223.57 868.75 223.57 868.28
  L 223.20 806.47
  Q 223.19 806.00 222.72 806.00
  L 221.75 806.00
  Q 221.25 806.00 221.25 806.50
  L 221.25 920.50
  Q 221.25 921.00 221.75 921.00
  L 965.82 921.00
  Q 966.46 921.00 966.46 920.36
  L 966.27 806.66
  Q 966.27 805.99 965.60 805.99
  L 959.31 806.00
  Q 958.87 806.01 958.86 806.44
  L 958.72 868.29
  Q 958.72 868.75 958.27 868.75
  L 956.62 868.75
  Q 956.00 868.75 956.00 868.13
  L 956.00 806.46
  Q 956.00 805.92 955.46 805.92
  L 947.52 806.03
  Q 947.08 806.04 947.07 806.48
  L 946.71 837.65
  Q 946.70 838.25 946.10 838.25
  L 944.75 838.25
  Q 944.25 838.25 944.25 837.75
  L 944.25 806.45
  A 0.62 0.61 90.0 0 0 943.64 805.83
  L 935.02 805.72
  A 0.52 0.51 0.0 0 0 934.50 806.23
  L 934.50 837.62
  Q 934.50 838.25 933.87 838.25
  L 932.38 838.25
  Q 931.75 838.25 931.75 837.63
  L 931.75 806.34
  Q 931.75 805.69 931.09 805.70
  L 923.05 805.87
  Q 922.30 805.89 922.29 806.64
  L 921.99 837.76
  Q 921.98 838.25 921.49 838.25
  L 920.16 838.25
  Q 919.56 838.25 919.56 837.66
  L 919.25 806.31
  Q 919.25 805.95 918.88 805.95
  L 910.15 805.95
  Q 909.75 805.95 909.75 806.35
  L 909.75 837.75
  Q 909.75 838.25 909.25 838.25
  L 907.50 838.25
  Q 907.00 838.25 907.00 837.75
  L 907.00 806.36
  Q 907.00 805.73 906.36 805.74
  L 898.26 805.96
  Q 897.75 805.98 897.75 806.49
  L 897.75 868.25
  Q 897.75 868.75 897.25 868.75
  L 895.50 868.75
  Q 895.00 868.75 895.00 868.25
  L 895.00 806.48
  Q 895.00 805.95 894.48 805.95
  L 886.30 805.96
  Q 885.75 805.96 885.75 806.51
  L 885.75 837.75
  Q 885.75 838.25 885.25 838.25
  L 883.91 838.25
  Q 883.32 838.25 883.31 837.66
  L 882.98 806.66
  Q 882.97 806.04 882.35 806.02
  L 874.12 805.77
  Q 873.50 805.75 873.50 806.38
  L 873.50 837.63
  Q 873.50 838.25 872.87 838.25
  L 871.38 838.25
  Q 870.75 838.25 870.75 837.63
  L 870.75 806.37
  Q 870.75 805.75 870.12 805.75
  L 861.65 805.76
  Q 861.00 805.76 861.00 806.41
  L 861.00 837.63
  Q 861.00 838.25 860.37 838.25
  L 858.93 838.25
  Q 858.29 838.25 858.29 837.62
  L 858.32 806.28
  Q 858.32 805.75 857.78 805.75
  L 849.24 805.75
  Q 848.72 805.75 848.72 806.27
  L 848.64 837.68
  Q 848.64 838.25 848.07 838.25
  L 846.62 838.25
  Q 846.00 838.25 846.00 837.62
  L 846.00 806.36
  Q 846.00 805.71 845.36 805.72
  L 837.40 805.83
  Q 836.89 805.83 836.88 806.35
  L 836.18 868.04
  Q 836.17 868.50 835.71 868.50
  L 834.95 868.50
  Q 834.26 868.50 834.28 867.80
  C 834.77 853.41 833.97 838.39 834.01 824.80
  Q 834.04 815.55 833.98 806.27
  Q 833.98 805.75 833.46 805.75
  L 825.25 805.75
  Q 824.75 805.75 824.75 806.25
  L 824.75 837.48
  Q 824.75 838.04 824.21 838.18
  Q 822.14 838.74 822.13 836.99
  Q 822.06 821.66 821.95 806.25
  Q 821.94 805.75 821.45 805.75
  L 813.00 805.75
  A 0.56 0.56 0.0 0 0 812.44 806.30
  Q 812.35 821.58 812.56 836.40
  C 812.58 838.08 811.78 838.92 810.13 838.08
  Q 809.75 837.89 809.75 837.47
  L 809.75 806.25
  A 0.50 0.50 0.0 0 0 809.25 805.75
  L 800.40 805.76
  A 0.40 0.40 0.0 0 0 800.00 806.16
  L 800.00 837.62
  Q 800.00 838.25 799.37 838.25
  L 797.88 838.25
  Q 797.25 838.25 797.25 837.63
  L 797.25 806.25
  Q 797.25 805.75 796.75 805.75
  L 788.22 805.75
  Q 787.63 805.75 787.63 806.34
  L 787.46 837.65
  Q 787.46 838.25 786.85 838.25
  L 785.30 838.25
  Q 784.79 838.25 784.79 837.74
  L 784.73 806.60
  Q 784.73 806.02 784.16 806.02
  L 776.17 805.91
  Q 775.75 805.91 775.75 806.33
  L 775.75 868.13
  Q 775.75 868.75 775.12 868.75
  L 773.50 868.75
  Q 773.00 868.75 773.00 868.25
  L 773.00 806.49
  Q 773.00 805.93 772.43 805.93
  L 764.23 806.03
  Q 763.75 806.04 763.75 806.52
  L 763.75 837.62
  Q 763.75 838.25 763.13 838.25
  L 761.63 838.25
  Q 761.00 838.25 761.00 837.62
  L 761.00 806.49
  Q 761.00 805.98 760.49 805.97
  L 751.78 805.76
  A 0.52 0.52 0.0 0 0 751.25 806.28
  L 751.25 837.75
  Q 751.25 838.25 750.75 838.25
  L 749.13 838.25
  Q 748.50 838.25 748.50 837.62
  L 748.50 806.50
  Q 748.50 805.75 747.75 805.75
  L 739.63 805.75
  Q 739.00 805.75 739.00 806.38
  L 739.00 837.62
  Q 739.00 838.25 738.37 838.25
  L 736.87 838.25
  Q 736.25 838.25 736.25 837.62
  L 736.25 806.24
  Q 736.25 805.72 735.74 805.73
  L 727.09 805.82
  Q 726.50 805.83 726.50 806.41
  L 726.50 837.63
  Q 726.50 838.27 725.86 838.26
  L 724.39 838.23
  Q 723.75 838.21 723.75 837.58
  L 723.75 806.45
  Q 723.75 805.90 723.20 805.91
  L 715.26 806.02
  Q 714.71 806.02 714.72 806.57
  C 714.89 827.13 714.16 847.91 714.56 868.15
  Q 714.57 868.77 713.96 868.76
  L 712.41 868.73
  Q 711.80 868.72 711.83 868.10
  Q 712.54 854.48 712.12 840.86
  C 711.72 828.06 711.78 817.88 711.74 806.36
  Q 711.74 805.88 711.26 805.88
  L 703.26 805.82
  Q 702.83 805.82 702.83 806.25
  L 702.47 837.64
  Q 702.46 838.25 701.86 838.25
  L 700.62 838.25
  Q 700.00 838.25 700.00 837.63
  L 700.00 806.37
  Q 700.00 805.75 699.37 805.75
  L 690.65 805.76
  A 0.40 0.40 0.0 0 0 690.25 806.16
  L 690.25 837.75
  Q 690.25 838.25 689.75 838.25
  L 688.00 838.25
  Q 687.50 838.25 687.50 837.75
  L 687.50 806.42
  Q 687.50 805.85 686.92 805.86
  L 678.32 806.06
  Q 677.96 806.06 677.96 806.43
  L 677.99 837.63
  Q 677.99 838.25 677.37 838.25
  L 675.90 838.25
  Q 675.25 838.25 675.25 837.59
  L 675.25 806.25
  Q 675.25 805.75 674.75 805.75
  L 666.00 805.75
  A 0.50 0.50 0.0 0 0 665.50 806.25
  L 665.50 837.75
  Q 665.50 838.25 665.00 838.25
  L 663.38 838.25
  Q 662.75 838.25 662.75 837.63
  L 662.75 806.48
  Q 662.75 805.95 662.23 805.95
  L 653.92 805.92
  A 0.42 0.42 0.0 0 0 653.50 806.34
  L 653.50 868.25
  Q 653.50 868.75 653.00 868.75
  L 651.25 868.75
  Q 650.75 868.75 650.75 868.25
  L 650.75 806.47
  Q 650.75 805.94 650.22 805.94
  L 642.14 805.94
  Q 641.71 805.94 641.71 806.37
  L 641.52 837.62
  Q 641.51 838.25 640.88 838.25
  L 639.38 838.25
  Q 638.75 838.25 638.75 837.62
  L 638.75 806.50
  Q 638.75 805.75 638.00 805.75
  L 629.87 805.75
  Q 629.25 805.75 629.25 806.38
  L 629.25 837.62
  Q 629.25 838.25 628.63 838.25
  L 627.13 838.25
  Q 626.50 838.25 626.50 837.62
  L 626.50 806.50
  Q 626.50 805.75 625.75 805.75
  L 617.25 805.75
  Q 616.75 805.75 616.75 806.25
  L 616.75 837.63
  Q 616.75 838.25 616.12 838.25
  L 614.63 838.25
  Q 614.00 838.25 614.00 837.63
  L 614.00 806.25
  Q 614.00 805.75 613.50 805.75
  L 605.01 805.75
  A 0.48 0.48 0.0 0 0 604.53 806.23
  Q 604.50 821.73 604.31 837.25
  Q 604.29 838.69 602.23 838.18
  A 0.63 0.63 0.0 0 1 601.75 837.57
  L 601.75 806.50
  Q 601.75 805.75 601.00 805.75
  L 593.17 805.75
  Q 592.59 805.75 592.58 806.33
  L 592.26 868.19
  Q 592.26 868.90 591.57 868.72
  L 590.61 868.47
  Q 590.13 868.35 590.13 867.85
  L 589.65 806.20
  Q 589.65 805.75 589.20 805.75
  L 581.00 805.75
  A 0.50 0.50 0.0 0 0 580.50 806.25
  L 580.50 837.63
  Q 580.50 838.25 579.87 838.25
  L 578.38 838.25
  Q 577.75 838.25 577.75 837.63
  L 577.75 806.25
  Q 577.75 805.75 577.25 805.75
  L 568.75 805.75
  A 0.50 0.50 0.0 0 0 568.25 806.25
  L 568.25 837.63
  Q 568.25 838.25 567.62 838.25
  L 566.28 838.25
  Q 565.50 838.25 565.50 837.47
  L 565.50 806.50
  A 0.75 0.75 0.0 0 0 564.75 805.75
  L 556.25 805.75
  Q 555.75 805.75 555.75 806.25
  L 555.75 837.75
  Q 555.75 838.25 555.25 838.25
  L 553.50 838.25
  Q 553.00 838.25 553.00 837.75
  L 553.00 806.50
  Q 553.00 805.75 552.25 805.75
  L 543.94 805.75
  A 0.50 0.50 0.0 0 0 543.44 806.25
  L 543.35 837.70
  Q 543.35 838.25 542.80 838.25
  L 541.14 838.25
  Q 540.53 838.25 540.53 837.64
  L 540.59 806.32
  Q 540.59 805.75 540.01 805.75
  L 532.13 805.75
  Q 531.52 805.75 531.52 806.37
  L 531.45 868.15
  Q 531.44 868.75 530.85 868.75
  L 529.25 868.75
  Q 528.75 868.75 528.75 868.25
  L 528.75 806.25
  A 0.50 0.50 0.0 0 0 528.25 805.75
  L 519.90 805.76
  A 0.40 0.40 0.0 0 0 519.50 806.16
  L 519.50 837.75
  Q 519.50 838.25 519.00 838.25
  L 517.50 838.25
  Q 516.75 838.25 516.75 837.50
  L 516.75 806.50
  Q 516.75 805.75 516.00 805.75
  L 507.66 805.75
  Q 507.00 805.75 507.00 806.41
  L 507.00 837.65
  Q 507.00 838.31 506.34 838.27
  L 504.98 838.19
  Q 504.38 838.15 504.38 837.55
  L 504.35 806.30
  Q 504.35 805.75 503.80 805.75
  L 495.25 805.75
  Q 494.75 805.75 494.75 806.25
  L 494.75 837.65
  Q 494.75 838.37 494.03 838.25
  L 492.57 838.00
  Q 492.00 837.90 492.00 837.32
  L 492.00 806.39
  Q 492.00 805.72 491.33 805.73
  L 482.80 805.83
  Q 482.25 805.84 482.25 806.39
  L 482.25 837.75
  Q 482.25 838.25 481.75 838.25
  L 480.13 838.25
  Q 479.50 838.25 479.50 837.62
  L 479.50 806.48
  Q 479.50 805.95 478.98 805.95
  L 471.20 805.86
  Q 470.54 805.85 470.53 806.51
  Q 470.30 819.09 470.22 831.15
  C 470.16 840.15 469.37 855.69 470.28 868.10
  Q 470.33 868.75 469.68 868.75
  L 468.36 868.75
  Q 467.97 868.75 467.97 868.36
  L 467.58 806.41
  Q 467.57 805.75 466.91 805.75
  L 459.14 805.75
  Q 458.53 805.75 458.53 806.36
  L 458.44 837.66
  Q 458.44 838.25 457.85 838.25
  L 456.37 838.25
  Q 455.75 838.25 455.75 837.63
  L 455.75 806.37
  Q 455.75 805.75 455.12 805.75
  L 446.65 805.76
  Q 446.00 805.76 446.00 806.41
  L 446.00 837.72
  Q 446.00 838.25 445.47 838.25
  Z
  M 525.76 1229.75
  A 0.30 0.30 0.0 0 1 525.35 1229.67
  L 450.28 1121.27
  A 0.57 0.57 0.0 0 1 450.42 1120.47
  L 725.39 930.10
  A 0.19 0.19 0.0 0 0 725.28 929.75
  L 258.51 929.75
  Q 258.02 929.75 258.05 930.24
  C 259.38 949.96 258.02 973.57 259.33 986.94
  C 262.30 1017.08 262.61 1047.43 263.68 1077.68
  C 265.21 1120.67 272.06 1163.24 280.21 1205.41
  C 285.87 1234.72 294.69 1265.18 310.49 1291.28
  C 332.84 1328.20 367.52 1343.50 409.81 1345.66
  C 457.38 1348.09 507.87 1338.00 552.72 1330.58
  Q 572.13 1327.37 591.75 1326.83
  C 609.13 1326.35 627.28 1328.76 644.57 1331.41
  Q 671.20 1335.51 697.83 1339.58
  C 726.08 1343.91 758.61 1347.41 788.63 1343.37
  C 804.76 1341.20 820.02 1335.58 833.96 1327.71
  C 861.14 1312.37 886.94 1292.16 910.44 1271.94
  C 939.77 1246.70 973.66 1215.47 1006.95 1188.74
  C 1022.50 1176.26 1040.58 1166.05 1057.78 1156.00
  C 1101.11 1130.68 1144.92 1105.87 1187.15 1078.73
  C 1199.19 1070.99 1211.44 1064.94 1223.95 1058.44
  C 1234.86 1052.77 1246.82 1048.10 1258.34 1042.87
  Q 1261.23 1041.55 1263.59 1039.34
  C 1277.39 1026.42 1291.19 1012.91 1306.23 1001.48
  Q 1324.82 987.35 1343.91 973.89
  C 1356.27 965.17 1369.30 957.12 1383.73 952.02
  C 1412.64 941.81 1440.64 931.81 1467.53 916.82
  C 1476.42 911.87 1492.29 900.78 1494.86 890.62
  C 1499.40 872.63 1461.99 856.60 1449.37 852.76
  C 1414.55 842.13 1370.30 838.44 1335.93 852.81
  C 1284.75 874.22 1228.19 896.44 1148.30 928.36
  Q 1099.92 947.69 1053.52 962.30
  C 1040.16 966.50 1023.03 971.38 1008.52 971.93
  C 986.40 972.78 965.84 951.10 953.42 934.73
  Q 952.80 933.92 951.95 934.50
  L 525.76 1229.75
  Z
  M 652.73 1029.69
  L 634.97 1004.05
  Q 634.65 1003.59 634.19 1003.91
  L 627.19 1008.76
  Q 626.73 1009.08 627.05 1009.54
  L 644.72 1034.99
  Q 645.13 1035.59 644.55 1036.03
  L 643.35 1036.94
  Q 642.92 1037.28 642.60 1036.82
  L 624.82 1011.14
  Q 624.46 1010.62 623.93 1010.99
  L 617.41 1015.58
  Q 616.95 1015.90 617.27 1016.37
  L 652.32 1066.99
  Q 652.72 1067.56 652.13 1067.93
  L 650.94 1068.68
  Q 650.39 1069.03 650.01 1068.49
  L 615.01 1018.00
  Q 614.64 1017.47 614.10 1017.84
  L 607.54 1022.31
  Q 607.07 1022.64 607.39 1023.11
  L 625.21 1048.81
  Q 625.53 1049.27 625.05 1049.57
  L 623.63 1050.47
  Q 623.17 1050.76 622.87 1050.32
  L 605.21 1024.78
  Q 604.86 1024.27 604.34 1024.61
  L 597.32 1029.39
  Q 596.90 1029.68 597.19 1030.10
  L 614.96 1055.82
  Q 615.27 1056.27 614.83 1056.61
  L 613.54 1057.59
  Q 613.08 1057.94 612.75 1057.46
  L 594.99 1031.77
  Q 594.66 1031.29 594.18 1031.62
  L 587.20 1036.50
  Q 586.74 1036.82 587.06 1037.28
  L 604.79 1062.84
  Q 605.18 1063.40 604.61 1063.77
  L 603.40 1064.56
  Q 602.85 1064.91 602.48 1064.37
  L 584.83 1038.90
  Q 584.47 1038.37 583.94 1038.73
  L 577.12 1043.47
  Q 576.57 1043.86 576.95 1044.41
  L 594.54 1069.84
  Q 594.91 1070.38 594.38 1070.78
  L 593.22 1071.63
  Q 592.71 1072.01 592.35 1071.49
  L 574.57 1045.83
  Q 574.27 1045.41 573.84 1045.70
  L 567.19 1050.31
  Q 566.72 1050.63 567.04 1051.09
  L 602.18 1101.82
  Q 602.57 1102.39 601.96 1102.73
  L 600.67 1103.43
  Q 600.13 1103.73 599.77 1103.22
  L 564.78 1052.68
  Q 564.46 1052.22 563.99 1052.54
  L 557.32 1057.14
  Q 556.91 1057.43 557.19 1057.85
  L 574.91 1083.45
  Q 575.30 1084.00 574.76 1084.41
  L 573.55 1085.33
  Q 573.08 1085.69 572.75 1085.20
  L 554.95 1059.44
  A 0.54 0.53 -34.6 0 0 554.21 1059.31
  L 547.18 1064.16
  Q 546.72 1064.48 547.04 1064.95
  L 564.82 1090.60
  Q 565.11 1091.03 564.70 1091.34
  L 563.47 1092.30
  Q 562.92 1092.73 562.52 1092.15
  L 544.77 1066.53
  Q 544.43 1066.05 543.95 1066.38
  L 537.02 1071.21
  Q 536.52 1071.55 536.87 1072.06
  L 554.54 1097.53
  Q 554.91 1098.07 554.39 1098.47
  L 553.21 1099.36
  Q 552.72 1099.74 552.36 1099.23
  L 534.60 1073.63
  Q 534.25 1073.12 533.74 1073.47
  L 526.88 1078.24
  Q 526.35 1078.61 526.71 1079.14
  L 544.43 1104.69
  Q 544.73 1105.12 544.31 1105.44
  L 543.03 1106.40
  Q 542.51 1106.80 542.13 1106.26
  L 524.34 1080.56
  Q 524.04 1080.14 523.62 1080.43
  L 516.81 1085.21
  A 0.35 0.34 56.3 0 0 516.72 1085.69
  L 551.90 1136.46
  Q 552.26 1136.98 551.78 1137.38
  L 550.70 1138.31
  Q 550.13 1138.80 549.71 1138.18
  L 514.62 1087.52
  A 0.65 0.65 0.0 0 0 513.71 1087.35
  L 507.32 1091.80
  A 0.74 0.74 0.0 0 0 507.13 1092.83
  L 524.75 1118.21
  Q 525.09 1118.70 524.61 1119.06
  L 523.27 1120.05
  Q 522.85 1120.36 522.55 1119.93
  L 504.80 1094.31
  Q 504.48 1093.85 504.01 1094.16
  L 498.32 1097.92
  Q 497.89 1098.20 498.18 1098.62
  L 563.23 1192.60
  A 0.40 0.40 0.0 0 0 563.79 1192.70
  L 942.80 930.18
  Q 943.42 929.75 942.67 929.75
  L 795.26 929.75
  Q 794.64 929.75 794.96 930.28
  L 795.44 931.08
  Q 795.80 931.67 795.17 931.94
  L 793.88 932.51
  Q 793.30 932.77 792.95 932.24
  L 791.64 930.29
  Q 791.28 929.75 790.63 929.75
  L 780.84 929.75
  Q 780.09 929.75 780.52 930.36
  L 802.95 962.72
  Q 803.27 963.18 802.82 963.52
  L 801.53 964.49
  Q 801.03 964.87 800.67 964.35
  L 777.03 930.18
  Q 776.74 929.75 776.22 929.75
  L 766.04 929.75
  Q 765.53 929.75 765.82 930.17
  L 775.74 944.40
  Q 776.07 944.88 775.60 945.24
  L 774.32 946.22
  Q 773.84 946.59 773.50 946.09
  L 762.51 930.17
  Q 762.22 929.75 761.71 929.75
  L 751.03 929.75
  Q 750.51 929.75 750.80 930.18
  L 765.57 951.50
  Q 765.96 952.07 765.38 952.43
  L 764.17 953.20
  Q 763.61 953.55 763.23 953.01
  L 747.69 930.55
  Q 747.37 930.09 746.83 929.95
  Q 741.46 928.61 737.78 932.24
  Q 737.41 932.61 737.71 933.04
  L 755.34 958.50
  Q 755.76 959.10 755.15 959.50
  L 753.86 960.33
  Q 753.42 960.61 753.13 960.19
  L 735.38 934.54
  Q 735.04 934.05 734.55 934.39
  L 727.58 939.25
  Q 727.15 939.55 727.44 939.98
  L 745.17 965.57
  Q 745.55 966.12 745.00 966.49
  L 743.80 967.30
  Q 743.27 967.66 742.90 967.13
  L 725.19 941.58
  Q 724.89 941.15 724.46 941.44
  L 717.71 946.02
  A 0.50 0.50 0.0 0 0 717.58 946.71
  L 752.74 997.50
  Q 753.08 997.99 752.59 998.34
  L 751.30 999.24
  Q 750.82 999.58 750.48 999.09
  L 715.38 948.40
  Q 715.04 947.92 714.57 948.25
  L 708.02 952.82
  A 0.62 0.62 0.0 0 0 707.86 953.68
  L 725.52 979.14
  Q 725.88 979.67 725.36 980.05
  L 724.10 980.96
  Q 723.65 981.29 723.33 980.83
  L 705.58 955.26
  Q 705.20 954.72 704.66 955.09
  L 697.78 959.83
  Q 697.27 960.18 697.63 960.68
  L 715.39 986.28
  Q 715.74 986.80 715.21 987.13
  L 713.85 987.99
  Q 713.38 988.29 713.06 987.82
  L 695.34 962.21
  Q 695.04 961.78 694.61 962.08
  L 687.57 966.96
  Q 687.13 967.26 687.44 967.70
  L 705.13 993.24
  Q 705.50 993.77 704.98 994.15
  L 703.73 995.08
  Q 703.28 995.41 702.96 994.95
  L 685.30 969.45
  Q 684.88 968.84 684.26 969.26
  L 677.34 973.97
  A 0.52 0.51 55.5 0 0 677.21 974.69
  L 694.98 1000.35
  Q 695.23 1000.71 694.91 1001.01
  L 693.64 1002.19
  Q 693.18 1002.61 692.83 1002.10
  L 675.04 976.40
  Q 674.69 975.88 674.17 976.24
  L 667.64 980.74
  Q 667.11 981.10 667.47 981.62
  L 702.56 1032.26
  Q 702.95 1032.82 702.37 1033.19
  L 701.16 1033.95
  Q 700.60 1034.31 700.22 1033.76
  L 665.18 983.15
  Q 664.84 982.67 664.36 983.01
  L 657.72 987.62
  Q 657.29 987.91 657.59 988.34
  L 675.35 1013.96
  Q 675.76 1014.56 675.14 1014.93
  L 673.85 1015.72
  Q 673.40 1016.00 673.09 1015.56
  L 655.35 989.96
  Q 655.04 989.52 654.60 989.82
  L 647.55 994.63
  Q 647.10 994.94 647.41 995.39
  L 665.20 1021.07
  Q 665.52 1021.53 665.06 1021.86
  L 663.75 1022.77
  Q 663.25 1023.12 662.90 1022.62
  L 645.18 997.04
  Q 644.84 996.54 644.35 996.88
  L 637.42 1001.66
  Q 636.92 1002.00 637.26 1002.49
  L 654.98 1028.12
  Q 655.31 1028.60 654.83 1028.93
  L 653.50 1029.83
  Q 653.04 1030.14 652.73 1029.69
  Z
  M 490.8591 1103.5108
  A 0.26 0.26 0.0 0 0 490.4973 1103.4451
  L 462.4786 1122.8461
  A 0.26 0.26 0.0 0 0 462.4129 1123.2079
  L 527.6409 1217.4092
  A 0.26 0.26 0.0 0 0 528.0027 1217.4749
  L 556.0214 1198.0739
  A 0.26 0.26 0.0 0 0 556.0871 1197.7121
  L 490.8591 1103.5108
  Z"
/>
<path fill="#ffffff" d="
  M 341.48 698.03
  C 358.50 689.60 361.22 656.20 362.07 639.31
  C 363.99 601.19 359.29 565.90 351.03 528.44
  C 341.60 485.64 331.31 449.44 326.30 409.83
  C 319.33 354.79 309.54 300.40 296.20 246.54
  C 288.87 216.92 285.43 187.05 285.81 156.51
  C 286.04 137.85 288.74 114.51 299.82 99.09
  C 309.85 85.13 329.23 84.01 342.69 93.33
  Q 354.32 101.37 362.88 114.36
  C 383.58 145.79 395.26 184.74 401.76 220.30
  Q 408.98 259.75 416.06 299.24
  Q 422.44 334.85 433.36 369.29
  C 452.34 429.19 462.67 491.59 480.36 551.92
  C 486.91 574.26 499.86 606.74 520.83 618.88
  C 547.19 634.14 563.84 604.30 570.45 584.20
  C 579.18 557.69 582.77 527.73 584.55 501.18
  C 587.09 463.47 587.81 426.55 590.09 387.99
  Q 590.45 381.78 591.83 375.63
  C 594.77 362.53 597.96 349.65 599.54 336.34
  C 601.48 319.89 603.16 303.11 605.13 287.01
  Q 611.50 235.10 617.80 183.19
  C 622.99 140.39 620.82 96.39 636.36 55.35
  C 643.78 35.76 657.35 20.72 679.89 22.63
  C 727.79 26.70 732.51 87.67 732.59 123.82
  C 732.67 154.94 732.39 184.21 729.56 213.81
  C 725.91 252.11 720.40 294.28 722.03 329.75
  Q 722.54 340.90 722.75 352.05
  C 722.85 357.49 721.83 362.73 721.80 368.12
  C 721.65 397.13 718.77 424.73 714.76 455.22
  Q 708.60 502.12 702.23 549.00
  C 700.88 558.87 699.46 567.60 701.27 577.10
  C 705.02 596.84 715.94 625.17 738.90 628.79
  Q 750.68 630.65 761.22 624.18
  C 784.83 609.69 798.24 580.54 805.96 554.23
  C 814.37 525.55 819.85 498.49 826.10 470.42
  C 830.94 448.66 837.53 427.81 845.24 406.93
  Q 871.83 334.96 893.46 261.35
  C 901.34 234.54 936.51 117.76 981.82 137.92
  C 1004.74 148.12 1008.01 172.74 1007.01 195.26
  C 1004.80 244.78 983.65 290.02 972.89 337.74
  C 963.90 377.56 958.67 417.49 946.48 456.99
  C 934.79 494.86 922.96 532.69 912.55 570.94
  C 898.25 623.51 889.05 670.88 892.40 724.26
  Q 894.67 760.54 899.97 796.51
  Q 900.04 797.00 899.55 797.00
  L 229.01 797.00
  Q 228.52 797.00 228.44 796.52
  C 225.63 778.86 222.59 759.46 218.38 743.23
  C 213.03 722.57 201.38 704.55 189.86 686.86
  C 168.30 653.74 145.79 621.14 125.57 587.18
  Q 117.97 574.41 111.65 560.96
  Q 90.56 516.10 69.72 471.12
  C 54.60 438.52 40.97 405.94 32.37 372.33
  C 27.81 354.50 23.85 320.28 43.21 308.61
  C 51.95 303.35 63.31 305.19 72.10 309.89
  C 89.89 319.40 101.22 334.83 111.36 351.89
  Q 152.20 420.61 204.54 510.45
  C 226.27 547.76 244.56 584.12 262.90 621.96
  C 271.70 640.12 312.37 712.46 341.48 698.03
  Z"
/>
<path fill="#ffffff" d="
  M 446.00 837.72
  L 446.00 806.41
  Q 446.00 805.76 446.65 805.76
  L 455.12 805.75
  Q 455.75 805.75 455.75 806.37
  L 455.75 837.63
  Q 455.75 838.25 456.37 838.25
  L 457.85 838.25
  Q 458.44 838.25 458.44 837.66
  L 458.53 806.36
  Q 458.53 805.75 459.14 805.75
  L 466.91 805.75
  Q 467.57 805.75 467.58 806.41
  L 467.97 868.36
  Q 467.97 868.75 468.36 868.75
  L 469.68 868.75
  Q 470.33 868.75 470.28 868.10
  C 469.37 855.69 470.16 840.15 470.22 831.15
  Q 470.30 819.09 470.53 806.51
  Q 470.54 805.85 471.20 805.86
  L 478.98 805.95
  Q 479.50 805.95 479.50 806.48
  L 479.50 837.62
  Q 479.50 838.25 480.13 838.25
  L 481.75 838.25
  Q 482.25 838.25 482.25 837.75
  L 482.25 806.39
  Q 482.25 805.84 482.80 805.83
  L 491.33 805.73
  Q 492.00 805.72 492.00 806.39
  L 492.00 837.32
  Q 492.00 837.90 492.57 838.00
  L 494.03 838.25
  Q 494.75 838.37 494.75 837.65
  L 494.75 806.25
  Q 494.75 805.75 495.25 805.75
  L 503.80 805.75
  Q 504.35 805.75 504.35 806.30
  L 504.38 837.55
  Q 504.38 838.15 504.98 838.19
  L 506.34 838.27
  Q 507.00 838.31 507.00 837.65
  L 507.00 806.41
  Q 507.00 805.75 507.66 805.75
  L 516.00 805.75
  Q 516.75 805.75 516.75 806.50
  L 516.75 837.50
  Q 516.75 838.25 517.50 838.25
  L 519.00 838.25
  Q 519.50 838.25 519.50 837.75
  L 519.50 806.16
  A 0.40 0.40 0.0 0 1 519.90 805.76
  L 528.25 805.75
  A 0.50 0.50 0.0 0 1 528.75 806.25
  L 528.75 868.25
  Q 528.75 868.75 529.25 868.75
  L 530.85 868.75
  Q 531.44 868.75 531.45 868.15
  L 531.52 806.37
  Q 531.52 805.75 532.13 805.75
  L 540.01 805.75
  Q 540.59 805.75 540.59 806.32
  L 540.53 837.64
  Q 540.53 838.25 541.14 838.25
  L 542.80 838.25
  Q 543.35 838.25 543.35 837.70
  L 543.44 806.25
  A 0.50 0.50 0.0 0 1 543.94 805.75
  L 552.25 805.75
  Q 553.00 805.75 553.00 806.50
  L 553.00 837.75
  Q 553.00 838.25 553.50 838.25
  L 555.25 838.25
  Q 555.75 838.25 555.75 837.75
  L 555.75 806.25
  Q 555.75 805.75 556.25 805.75
  L 564.75 805.75
  A 0.75 0.75 0.0 0 1 565.50 806.50
  L 565.50 837.47
  Q 565.50 838.25 566.28 838.25
  L 567.62 838.25
  Q 568.25 838.25 568.25 837.63
  L 568.25 806.25
  A 0.50 0.50 0.0 0 1 568.75 805.75
  L 577.25 805.75
  Q 577.75 805.75 577.75 806.25
  L 577.75 837.63
  Q 577.75 838.25 578.38 838.25
  L 579.87 838.25
  Q 580.50 838.25 580.50 837.63
  L 580.50 806.25
  A 0.50 0.50 0.0 0 1 581.00 805.75
  L 589.20 805.75
  Q 589.65 805.75 589.65 806.20
  L 590.13 867.85
  Q 590.13 868.35 590.61 868.47
  L 591.57 868.72
  Q 592.26 868.90 592.26 868.19
  L 592.58 806.33
  Q 592.59 805.75 593.17 805.75
  L 601.00 805.75
  Q 601.75 805.75 601.75 806.50
  L 601.75 837.57
  A 0.63 0.63 0.0 0 0 602.23 838.18
  Q 604.29 838.69 604.31 837.25
  Q 604.50 821.73 604.53 806.23
  A 0.48 0.48 0.0 0 1 605.01 805.75
  L 613.50 805.75
  Q 614.00 805.75 614.00 806.25
  L 614.00 837.63
  Q 614.00 838.25 614.63 838.25
  L 616.12 838.25
  Q 616.75 838.25 616.75 837.63
  L 616.75 806.25
  Q 616.75 805.75 617.25 805.75
  L 625.75 805.75
  Q 626.50 805.75 626.50 806.50
  L 626.50 837.62
  Q 626.50 838.25 627.13 838.25
  L 628.63 838.25
  Q 629.25 838.25 629.25 837.62
  L 629.25 806.38
  Q 629.25 805.75 629.87 805.75
  L 638.00 805.75
  Q 638.75 805.75 638.75 806.50
  L 638.75 837.62
  Q 638.75 838.25 639.38 838.25
  L 640.88 838.25
  Q 641.51 838.25 641.52 837.62
  L 641.71 806.37
  Q 641.71 805.94 642.14 805.94
  L 650.22 805.94
  Q 650.75 805.94 650.75 806.47
  L 650.75 868.25
  Q 650.75 868.75 651.25 868.75
  L 653.00 868.75
  Q 653.50 868.75 653.50 868.25
  L 653.50 806.34
  A 0.42 0.42 0.0 0 1 653.92 805.92
  L 662.23 805.95
  Q 662.75 805.95 662.75 806.48
  L 662.75 837.63
  Q 662.75 838.25 663.38 838.25
  L 665.00 838.25
  Q 665.50 838.25 665.50 837.75
  L 665.50 806.25
  A 0.50 0.50 0.0 0 1 666.00 805.75
  L 674.75 805.75
  Q 675.25 805.75 675.25 806.25
  L 675.25 837.59
  Q 675.25 838.25 675.90 838.25
  L 677.37 838.25
  Q 677.99 838.25 677.99 837.63
  L 677.96 806.43
  Q 677.96 806.06 678.32 806.06
  L 686.92 805.86
  Q 687.50 805.85 687.50 806.42
  L 687.50 837.75
  Q 687.50 838.25 688.00 838.25
  L 689.75 838.25
  Q 690.25 838.25 690.25 837.75
  L 690.25 806.16
  A 0.40 0.40 0.0 0 1 690.65 805.76
  L 699.37 805.75
  Q 700.00 805.75 700.00 806.37
  L 700.00 837.63
  Q 700.00 838.25 700.62 838.25
  L 701.86 838.25
  Q 702.46 838.25 702.47 837.64
  L 702.83 806.25
  Q 702.83 805.82 703.26 805.82
  L 711.26 805.88
  Q 711.74 805.88 711.74 806.36
  C 711.78 817.88 711.72 828.06 712.12 840.86
  Q 712.54 854.48 711.83 868.10
  Q 711.80 868.72 712.41 868.73
  L 713.96 868.76
  Q 714.57 868.77 714.56 868.15
  C 714.16 847.91 714.89 827.13 714.72 806.57
  Q 714.71 806.02 715.26 806.02
  L 723.20 805.91
  Q 723.75 805.90 723.75 806.45
  L 723.75 837.58
  Q 723.75 838.21 724.39 838.23
  L 725.86 838.26
  Q 726.50 838.27 726.50 837.63
  L 726.50 806.41
  Q 726.50 805.83 727.09 805.82
  L 735.74 805.73
  Q 736.25 805.72 736.25 806.24
  L 736.25 837.62
  Q 736.25 838.25 736.87 838.25
  L 738.37 838.25
  Q 739.00 838.25 739.00 837.62
  L 739.00 806.38
  Q 739.00 805.75 739.63 805.75
  L 747.75 805.75
  Q 748.50 805.75 748.50 806.50
  L 748.50 837.62
  Q 748.50 838.25 749.13 838.25
  L 750.75 838.25
  Q 751.25 838.25 751.25 837.75
  L 751.25 806.28
  A 0.52 0.52 0.0 0 1 751.78 805.76
  L 760.49 805.97
  Q 761.00 805.98 761.00 806.49
  L 761.00 837.62
  Q 761.00 838.25 761.63 838.25
  L 763.13 838.25
  Q 763.75 838.25 763.75 837.62
  L 763.75 806.52
  Q 763.75 806.04 764.23 806.03
  L 772.43 805.93
  Q 773.00 805.93 773.00 806.49
  L 773.00 868.25
  Q 773.00 868.75 773.50 868.75
  L 775.12 868.75
  Q 775.75 868.75 775.75 868.13
  L 775.75 806.33
  Q 775.75 805.91 776.17 805.91
  L 784.16 806.02
  Q 784.73 806.02 784.73 806.60
  L 784.79 837.74
  Q 784.79 838.25 785.30 838.25
  L 786.85 838.25
  Q 787.46 838.25 787.46 837.65
  L 787.63 806.34
  Q 787.63 805.75 788.22 805.75
  L 796.75 805.75
  Q 797.25 805.75 797.25 806.25
  L 797.25 837.63
  Q 797.25 838.25 797.88 838.25
  L 799.37 838.25
  Q 800.00 838.25 800.00 837.62
  L 800.00 806.16
  A 0.40 0.40 0.0 0 1 800.40 805.76
  L 809.25 805.75
  A 0.50 0.50 0.0 0 1 809.75 806.25
  L 809.75 837.47
  Q 809.75 837.89 810.13 838.08
  C 811.78 838.92 812.58 838.08 812.56 836.40
  Q 812.35 821.58 812.44 806.30
  A 0.56 0.56 0.0 0 1 813.00 805.75
  L 821.45 805.75
  Q 821.94 805.75 821.95 806.25
  Q 822.06 821.66 822.13 836.99
  Q 822.14 838.74 824.21 838.18
  Q 824.75 838.04 824.75 837.48
  L 824.75 806.25
  Q 824.75 805.75 825.25 805.75
  L 833.46 805.75
  Q 833.98 805.75 833.98 806.27
  Q 834.04 815.55 834.01 824.80
  C 833.97 838.39 834.77 853.41 834.28 867.80
  Q 834.26 868.50 834.95 868.50
  L 835.71 868.50
  Q 836.17 868.50 836.18 868.04
  L 836.88 806.35
  Q 836.89 805.83 837.40 805.83
  L 845.36 805.72
  Q 846.00 805.71 846.00 806.36
  L 846.00 837.62
  Q 846.00 838.25 846.62 838.25
  L 848.07 838.25
  Q 848.64 838.25 848.64 837.68
  L 848.72 806.27
  Q 848.72 805.75 849.24 805.75
  L 857.78 805.75
  Q 858.32 805.75 858.32 806.28
  L 858.29 837.62
  Q 858.29 838.25 858.93 838.25
  L 860.37 838.25
  Q 861.00 838.25 861.00 837.63
  L 861.00 806.41
  Q 861.00 805.76 861.65 805.76
  L 870.12 805.75
  Q 870.75 805.75 870.75 806.37
  L 870.75 837.63
  Q 870.75 838.25 871.38 838.25
  L 872.87 838.25
  Q 873.50 838.25 873.50 837.63
  L 873.50 806.38
  Q 873.50 805.75 874.12 805.77
  L 882.35 806.02
  Q 882.97 806.04 882.98 806.66
  L 883.31 837.66
  Q 883.32 838.25 883.91 838.25
  L 885.25 838.25
  Q 885.75 838.25 885.75 837.75
  L 885.75 806.51
  Q 885.75 805.96 886.30 805.96
  L 894.48 805.95
  Q 895.00 805.95 895.00 806.48
  L 895.00 868.25
  Q 895.00 868.75 895.50 868.75
  L 897.25 868.75
  Q 897.75 868.75 897.75 868.25
  L 897.75 806.49
  Q 897.75 805.98 898.26 805.96
  L 906.36 805.74
  Q 907.00 805.73 907.00 806.36
  L 907.00 837.75
  Q 907.00 838.25 907.50 838.25
  L 909.25 838.25
  Q 909.75 838.25 909.75 837.75
  L 909.75 806.35
  Q 909.75 805.95 910.15 805.95
  L 918.88 805.95
  Q 919.25 805.95 919.25 806.31
  L 919.56 837.66
  Q 919.56 838.25 920.16 838.25
  L 921.49 838.25
  Q 921.98 838.25 921.99 837.76
  L 922.29 806.64
  Q 922.30 805.89 923.05 805.87
  L 931.09 805.70
  Q 931.75 805.69 931.75 806.34
  L 931.75 837.63
  Q 931.75 838.25 932.38 838.25
  L 933.87 838.25
  Q 934.50 838.25 934.50 837.62
  L 934.50 806.23
  A 0.52 0.51 0.0 0 1 935.02 805.72
  L 943.64 805.83
  A 0.62 0.61 -90.0 0 1 944.25 806.45
  L 944.25 837.75
  Q 944.25 838.25 944.75 838.25
  L 946.10 838.25
  Q 946.70 838.25 946.71 837.65
  L 947.07 806.48
  Q 947.08 806.04 947.52 806.03
  L 955.46 805.92
  Q 956.00 805.92 956.00 806.46
  L 956.00 868.13
  Q 956.00 868.75 956.62 868.75
  L 958.27 868.75
  Q 958.72 868.75 958.72 868.29
  L 958.86 806.44
  Q 958.87 806.01 959.31 806.00
  L 965.60 805.99
  Q 966.27 805.99 966.27 806.66
  L 966.46 920.36
  Q 966.46 921.00 965.82 921.00
  L 221.75 921.00
  Q 221.25 921.00 221.25 920.50
  L 221.25 806.50
  Q 221.25 806.00 221.75 806.00
  L 222.72 806.00
  Q 223.19 806.00 223.20 806.47
  L 223.57 868.28
  Q 223.57 868.75 224.03 868.75
  L 225.62 868.75
  Q 226.25 868.75 226.25 868.13
  L 226.25 806.48
  Q 226.25 805.97 226.76 805.95
  L 234.70 805.68
  Q 235.25 805.66 235.25 806.21
  L 235.25 837.62
  Q 235.25 838.25 235.87 838.25
  L 237.42 838.25
  Q 238.10 838.25 238.10 837.58
  L 238.24 806.35
  Q 238.25 805.89 238.71 805.88
  L 247.10 805.71
  Q 247.75 805.69 247.75 806.35
  L 247.75 837.63
  Q 247.75 838.25 248.38 838.25
  L 249.75 838.25
  Q 250.50 838.25 250.50 837.50
  L 250.50 806.16
  A 0.40 0.40 0.0 0 1 250.90 805.76
  L 259.50 805.75
  A 0.75 0.75 0.0 0 1 260.25 806.50
  L 260.25 837.63
  Q 260.25 838.19 260.81 838.19
  L 262.06 838.19
  Q 262.75 838.19 262.75 837.50
  L 262.75 806.46
  Q 262.75 805.92 263.29 805.90
  L 271.84 805.69
  Q 272.50 805.67 272.50 806.34
  L 272.50 837.25
  A 1.00 1.00 0.0 0 0 273.50 838.25
  L 274.45 838.25
  Q 275.15 838.25 275.15 837.55
  L 275.30 806.73
  Q 275.30 805.75 276.27 805.75
  L 284.00 805.75
  A 0.50 0.50 0.0 0 1 284.50 806.25
  L 284.50 868.25
  Q 284.50 868.75 285.00 868.75
  L 286.51 868.75
  Q 287.02 868.75 287.03 868.24
  L 287.28 806.36
  Q 287.28 805.75 287.89 805.75
  L 295.88 805.75
  Q 296.50 805.75 296.50 806.37
  L 296.50 837.63
  Q 296.50 838.25 297.12 838.25
  L 298.62 838.25
  Q 299.25 838.25 299.25 837.63
  L 299.25 806.25
  Q 299.25 805.75 299.75 805.75
  L 308.00 805.75
  Q 308.75 805.75 308.75 806.50
  L 308.75 837.75
  Q 308.75 838.25 309.25 838.25
  L 310.88 838.25
  Q 311.50 838.25 311.50 837.62
  L 311.50 806.25
  A 0.50 0.50 0.0 0 1 312.00 805.75
  L 320.75 805.75
  Q 321.25 805.75 321.25 806.25
  L 321.25 837.63
  Q 321.25 838.25 321.88 838.25
  L 323.37 838.25
  Q 324.00 838.25 324.00 837.63
  L 324.00 806.25
  Q 324.00 805.75 324.50 805.75
  L 332.75 805.75
  Q 333.50 805.75 333.50 806.50
  L 333.50 837.63
  Q 333.50 838.25 334.13 838.25
  L 335.63 838.25
  Q 336.25 838.25 336.25 837.63
  L 336.25 806.38
  Q 336.25 805.75 336.87 805.75
  L 344.85 805.75
  Q 345.45 805.75 345.45 806.35
  L 345.66 868.21
  Q 345.66 868.75 346.21 868.75
  L 347.58 868.75
  Q 348.17 868.75 348.17 868.16
  L 348.28 806.23
  A 0.49 0.48 -0.0 0 1 348.77 805.75
  L 357.00 805.75
  A 0.50 0.50 0.0 0 1 357.50 806.25
  L 357.50 837.75
  Q 357.50 838.25 358.00 838.25
  L 359.75 838.25
  Q 360.25 838.25 360.25 837.75
  L 360.25 806.25
  Q 360.25 805.75 360.75 805.75
  L 369.00 805.75
  Q 369.75 805.75 369.75 806.50
  L 369.75 837.62
  Q 369.75 838.25 370.38 838.25
  L 372.00 838.25
  Q 372.50 838.25 372.50 837.75
  L 372.50 806.38
  Q 372.50 805.75 373.12 805.75
  L 381.75 805.75
  Q 382.25 805.75 382.25 806.25
  L 382.25 837.75
  Q 382.25 838.25 382.75 838.25
  L 384.25 838.25
  Q 385.00 838.25 385.00 837.50
  L 385.00 806.23
  A 0.51 0.51 0.0 0 1 385.52 805.72
  L 394.18 805.85
  A 0.33 0.32 89.1 0 1 394.50 806.17
  L 394.61 837.68
  Q 394.61 838.25 395.18 838.25
  L 396.88 838.25
  Q 397.51 838.25 397.51 837.62
  L 397.48 806.21
  A 0.31 0.31 0.0 0 1 397.79 805.90
  L 405.99 805.98
  Q 406.50 805.98 406.50 806.49
  L 406.50 868.13
  Q 406.50 868.75 407.13 868.75
  L 408.75 868.75
  Q 409.25 868.75 409.25 868.25
  L 409.25 806.41
  Q 409.25 805.76 409.90 805.76
  L 417.87 805.75
  Q 418.50 805.75 418.50 806.37
  L 418.50 837.75
  Q 418.50 838.25 419.00 838.25
  L 420.75 838.25
  Q 421.25 838.25 421.25 837.75
  L 421.25 806.48
  A 0.51 0.51 0.0 0 1 421.76 805.97
  L 430.21 805.93
  A 0.79 0.79 0.0 0 1 431.00 806.72
  L 431.00 837.75
  Q 431.00 838.25 431.50 838.25
  L 433.24 838.25
  Q 433.72 838.25 433.72 837.76
  L 433.76 806.24
  Q 433.76 805.75 434.26 805.75
  L 442.75 805.75
  Q 443.25 805.75 443.25 806.25
  L 443.25 837.63
  Q 443.25 838.25 443.88 838.25
  L 445.47 838.25
  Q 446.00 838.25 446.00 837.72
  Z"
/>
<path fill="#ffffff" d="
  M 525.76 1229.75
  L 951.95 934.50
  Q 952.80 933.92 953.42 934.73
  C 965.84 951.10 986.40 972.78 1008.52 971.93
  C 1023.03 971.38 1040.16 966.50 1053.52 962.30
  Q 1099.92 947.69 1148.30 928.36
  C 1228.19 896.44 1284.75 874.22 1335.93 852.81
  C 1370.30 838.44 1414.55 842.13 1449.37 852.76
  C 1461.99 856.60 1499.40 872.63 1494.86 890.62
  C 1492.29 900.78 1476.42 911.87 1467.53 916.82
  C 1440.64 931.81 1412.64 941.81 1383.73 952.02
  C 1369.30 957.12 1356.27 965.17 1343.91 973.89
  Q 1324.82 987.35 1306.23 1001.48
  C 1291.19 1012.91 1277.39 1026.42 1263.59 1039.34
  Q 1261.23 1041.55 1258.34 1042.87
  C 1246.82 1048.10 1234.86 1052.77 1223.95 1058.44
  C 1211.44 1064.94 1199.19 1070.99 1187.15 1078.73
  C 1144.92 1105.87 1101.11 1130.68 1057.78 1156.00
  C 1040.58 1166.05 1022.50 1176.26 1006.95 1188.74
  C 973.66 1215.47 939.77 1246.70 910.44 1271.94
  C 886.94 1292.16 861.14 1312.37 833.96 1327.71
  C 820.02 1335.58 804.76 1341.20 788.63 1343.37
  C 758.61 1347.41 726.08 1343.91 697.83 1339.58
  Q 671.20 1335.51 644.57 1331.41
  C 627.28 1328.76 609.13 1326.35 591.75 1326.83
  Q 572.13 1327.37 552.72 1330.58
  C 507.87 1338.00 457.38 1348.09 409.81 1345.66
  C 367.52 1343.50 332.84 1328.20 310.49 1291.28
  C 294.69 1265.18 285.87 1234.72 280.21 1205.41
  C 272.06 1163.24 265.21 1120.67 263.68 1077.68
  C 262.61 1047.43 262.30 1017.08 259.33 986.94
  C 258.02 973.57 259.38 949.96 258.05 930.24
  Q 258.02 929.75 258.51 929.75
  L 725.28 929.75
  A 0.19 0.19 0.0 0 1 725.39 930.10
  L 450.42 1120.47
  A 0.57 0.57 0.0 0 0 450.28 1121.27
  L 525.35 1229.67
  A 0.30 0.30 0.0 0 0 525.76 1229.75
  Z"
/>
<path fill="#ffffff" d="
  M 653.50 1029.83
  L 654.83 1028.93
  Q 655.31 1028.60 654.98 1028.12
  L 637.26 1002.49
  Q 636.92 1002.00 637.42 1001.66
  L 644.35 996.88
  Q 644.84 996.54 645.18 997.04
  L 662.90 1022.62
  Q 663.25 1023.12 663.75 1022.77
  L 665.06 1021.86
  Q 665.52 1021.53 665.20 1021.07
  L 647.41 995.39
  Q 647.10 994.94 647.55 994.63
  L 654.60 989.82
  Q 655.04 989.52 655.35 989.96
  L 673.09 1015.56
  Q 673.40 1016.00 673.85 1015.72
  L 675.14 1014.93
  Q 675.76 1014.56 675.35 1013.96
  L 657.59 988.34
  Q 657.29 987.91 657.72 987.62
  L 664.36 983.01
  Q 664.84 982.67 665.18 983.15
  L 700.22 1033.76
  Q 700.60 1034.31 701.16 1033.95
  L 702.37 1033.19
  Q 702.95 1032.82 702.56 1032.26
  L 667.47 981.62
  Q 667.11 981.10 667.64 980.74
  L 674.17 976.24
  Q 674.69 975.88 675.04 976.40
  L 692.83 1002.10
  Q 693.18 1002.61 693.64 1002.19
  L 694.91 1001.01
  Q 695.23 1000.71 694.98 1000.35
  L 677.21 974.69
  A 0.52 0.51 55.5 0 1 677.34 973.97
  L 684.26 969.26
  Q 684.88 968.84 685.30 969.45
  L 702.96 994.95
  Q 703.28 995.41 703.73 995.08
  L 704.98 994.15
  Q 705.50 993.77 705.13 993.24
  L 687.44 967.70
  Q 687.13 967.26 687.57 966.96
  L 694.61 962.08
  Q 695.04 961.78 695.34 962.21
  L 713.06 987.82
  Q 713.38 988.29 713.85 987.99
  L 715.21 987.13
  Q 715.74 986.80 715.39 986.28
  L 697.63 960.68
  Q 697.27 960.18 697.78 959.83
  L 704.66 955.09
  Q 705.20 954.72 705.58 955.26
  L 723.33 980.83
  Q 723.65 981.29 724.10 980.96
  L 725.36 980.05
  Q 725.88 979.67 725.52 979.14
  L 707.86 953.68
  A 0.62 0.62 0.0 0 1 708.02 952.82
  L 714.57 948.25
  Q 715.04 947.92 715.38 948.40
  L 750.48 999.09
  Q 750.82 999.58 751.30 999.24
  L 752.59 998.34
  Q 753.08 997.99 752.74 997.50
  L 717.58 946.71
  A 0.50 0.50 0.0 0 1 717.71 946.02
  L 724.46 941.44
  Q 724.89 941.15 725.19 941.58
  L 742.90 967.13
  Q 743.27 967.66 743.80 967.30
  L 745.00 966.49
  Q 745.55 966.12 745.17 965.57
  L 727.44 939.98
  Q 727.15 939.55 727.58 939.25
  L 734.55 934.39
  Q 735.04 934.05 735.38 934.54
  L 753.13 960.19
  Q 753.42 960.61 753.86 960.33
  L 755.15 959.50
  Q 755.76 959.10 755.34 958.50
  L 737.71 933.04
  Q 737.41 932.61 737.78 932.24
  Q 741.46 928.61 746.83 929.95
  Q 747.37 930.09 747.69 930.55
  L 763.23 953.01
  Q 763.61 953.55 764.17 953.20
  L 765.38 952.43
  Q 765.96 952.07 765.57 951.50
  L 750.80 930.18
  Q 750.51 929.75 751.03 929.75
  L 761.71 929.75
  Q 762.22 929.75 762.51 930.17
  L 773.50 946.09
  Q 773.84 946.59 774.32 946.22
  L 775.60 945.24
  Q 776.07 944.88 775.74 944.40
  L 765.82 930.17
  Q 765.53 929.75 766.04 929.75
  L 776.22 929.75
  Q 776.74 929.75 777.03 930.18
  L 800.67 964.35
  Q 801.03 964.87 801.53 964.49
  L 802.82 963.52
  Q 803.27 963.18 802.95 962.72
  L 780.52 930.36
  Q 780.09 929.75 780.84 929.75
  L 790.63 929.75
  Q 791.28 929.75 791.64 930.29
  L 792.95 932.24
  Q 793.30 932.77 793.88 932.51
  L 795.17 931.94
  Q 795.80 931.67 795.44 931.08
  L 794.96 930.28
  Q 794.64 929.75 795.26 929.75
  L 942.67 929.75
  Q 943.42 929.75 942.80 930.18
  L 563.79 1192.70
  A 0.40 0.40 0.0 0 1 563.23 1192.60
  L 498.18 1098.62
  Q 497.89 1098.20 498.32 1097.92
  L 504.01 1094.16
  Q 504.48 1093.85 504.80 1094.31
  L 522.55 1119.93
  Q 522.85 1120.36 523.27 1120.05
  L 524.61 1119.06
  Q 525.09 1118.70 524.75 1118.21
  L 507.13 1092.83
  A 0.74 0.74 0.0 0 1 507.32 1091.80
  L 513.71 1087.35
  A 0.65 0.65 0.0 0 1 514.62 1087.52
  L 549.71 1138.18
  Q 550.13 1138.80 550.70 1138.31
  L 551.78 1137.38
  Q 552.26 1136.98 551.90 1136.46
  L 516.72 1085.69
  A 0.35 0.34 56.3 0 1 516.81 1085.21
  L 523.62 1080.43
  Q 524.04 1080.14 524.34 1080.56
  L 542.13 1106.26
  Q 542.51 1106.80 543.03 1106.40
  L 544.31 1105.44
  Q 544.73 1105.12 544.43 1104.69
  L 526.71 1079.14
  Q 526.35 1078.61 526.88 1078.24
  L 533.74 1073.47
  Q 534.25 1073.12 534.60 1073.63
  L 552.36 1099.23
  Q 552.72 1099.74 553.21 1099.36
  L 554.39 1098.47
  Q 554.91 1098.07 554.54 1097.53
  L 536.87 1072.06
  Q 536.52 1071.55 537.02 1071.21
  L 543.95 1066.38
  Q 544.43 1066.05 544.77 1066.53
  L 562.52 1092.15
  Q 562.92 1092.73 563.47 1092.30
  L 564.70 1091.34
  Q 565.11 1091.03 564.82 1090.60
  L 547.04 1064.95
  Q 546.72 1064.48 547.18 1064.16
  L 554.21 1059.31
  A 0.54 0.53 -34.6 0 1 554.95 1059.44
  L 572.75 1085.20
  Q 573.08 1085.69 573.55 1085.33
  L 574.76 1084.41
  Q 575.30 1084.00 574.91 1083.45
  L 557.19 1057.85
  Q 556.91 1057.43 557.32 1057.14
  L 563.99 1052.54
  Q 564.46 1052.22 564.78 1052.68
  L 599.77 1103.22
  Q 600.13 1103.73 600.67 1103.43
  L 601.96 1102.73
  Q 602.57 1102.39 602.18 1101.82
  L 567.04 1051.09
  Q 566.72 1050.63 567.19 1050.31
  L 573.84 1045.70
  Q 574.27 1045.41 574.57 1045.83
  L 592.35 1071.49
  Q 592.71 1072.01 593.22 1071.63
  L 594.38 1070.78
  Q 594.91 1070.38 594.54 1069.84
  L 576.95 1044.41
  Q 576.57 1043.86 577.12 1043.47
  L 583.94 1038.73
  Q 584.47 1038.37 584.83 1038.90
  L 602.48 1064.37
  Q 602.85 1064.91 603.40 1064.56
  L 604.61 1063.77
  Q 605.18 1063.40 604.79 1062.84
  L 587.06 1037.28
  Q 586.74 1036.82 587.20 1036.50
  L 594.18 1031.62
  Q 594.66 1031.29 594.99 1031.77
  L 612.75 1057.46
  Q 613.08 1057.94 613.54 1057.59
  L 614.83 1056.61
  Q 615.27 1056.27 614.96 1055.82
  L 597.19 1030.10
  Q 596.90 1029.68 597.32 1029.39
  L 604.34 1024.61
  Q 604.86 1024.27 605.21 1024.78
  L 622.87 1050.32
  Q 623.17 1050.76 623.63 1050.47
  L 625.05 1049.57
  Q 625.53 1049.27 625.21 1048.81
  L 607.39 1023.11
  Q 607.07 1022.64 607.54 1022.31
  L 614.10 1017.84
  Q 614.64 1017.47 615.01 1018.00
  L 650.01 1068.49
  Q 650.39 1069.03 650.94 1068.68
  L 652.13 1067.93
  Q 652.72 1067.56 652.32 1066.99
  L 617.27 1016.37
  Q 616.95 1015.90 617.41 1015.58
  L 623.93 1010.99
  Q 624.46 1010.62 624.82 1011.14
  L 642.60 1036.82
  Q 642.92 1037.28 643.35 1036.94
  L 644.55 1036.03
  Q 645.13 1035.59 644.72 1034.99
  L 627.05 1009.54
  Q 626.73 1009.08 627.19 1008.76
  L 634.19 1003.91
  Q 634.65 1003.59 634.97 1004.05
  L 652.73 1029.69
  Q 653.04 1030.14 653.50 1029.83
  Z"
/>
<rect fill="#ffffff" x="-17.30" y="-57.55" transform="translate(509.25,1160.46) rotate(-34.7)" width="34.60" height="115.10" rx="0.26"/>
</svg>
