<svg width="14" height="10" fill="none" xmlns="http://www.w3.org/2000/svg"><path fill-rule="evenodd" clip-rule="evenodd" d="M4.098 1.58a3.37 3.37 0 00.138-.212l.118-.192.047-.077C4.86.346 5.196 0 5.8 0H8.02c.605 0 .94.346 1.4 1.1l.046.076.117.192c.057.091.1.159.14.213.025.036.048.065.066.086h1.565a1.667 1.667 0 011.666 1.666v5A1.667 1.667 0 0111.355 10H2.466A1.667 1.667 0 01.8 8.333v-5a1.667 1.667 0 011.666-1.666h1.565a.99.99 0 00.066-.086h.001zM2.466 2.778a.556.556 0 00-.555.556v5c0 .307.248.556.555.556h8.889a.556.556 0 00.556-.556v-5a.556.556 0 00-.556-.556H9.688c-.369 0-.617-.201-.867-.548a4.655 4.655 0 01-.182-.277l-.125-.206-.042-.067c-.25-.411-.402-.568-.45-.568H5.8c-.048 0-.2.157-.452.567l-.04.067-.126.207c-.068.111-.125.198-.182.278-.25.346-.498.547-.867.547H2.466zm8.889 1.112a.556.556 0 11-1.111.043.556.556 0 011.11-.043zM4.133 5.556a2.778 2.778 0 105.555 0 2.778 2.778 0 00-5.555 0zm4.444 0a1.667 1.667 0 11-3.333 0 1.667 1.667 0 013.333 0z" fill="#fff"/></svg>