<?xml version="1.0" encoding="UTF-8" standalone="no"?>
<!DOCTYPE svg PUBLIC "-//W3C//DTD SVG 1.1//EN" "http://www.w3.org/Graphics/SVG/1.1/DTD/svg11.dtd">
<svg xmlns="http://www.w3.org/2000/svg" version="1.1" viewBox="0.00 0.00 986.00 2125.00">
<g stroke-width="2.00" fill="none" stroke-linecap="butt">
<path stroke="#808080" vector-effect="non-scaling-stroke" d="
  M 300.64 250.49
  Q 299.57 239.39 299.60 236.19
  C 299.67 228.49 292.74 222.18 289.18 216.17
  Q 287.93 214.06 288.22 216.49
  Q 290.38 234.92 294.41 252.77
  C 296.53 262.16 299.01 271.45 305.15 277.35
  C 320.35 291.95 344.71 306.95 366.14 309.23
  C 384.45 311.18 407.99 299.43 423.29 288.45
  C 428.28 284.87 439.48 277.22 440.78 272.01
  Q 447.97 243.26 451.39 213.80
  Q 451.46 213.23 451.15 213.71
  Q 445.89 221.76 440.39 229.65
  C 438.11 232.93 438.52 247.09 438.01 251.79
  Q 437.88 252.97 437.83 251.78
  Q 437.72 249.00 437.72 246.39
  C 437.71 238.26 435.32 230.06 438.98 222.27
  Q 441.72 216.42 445.42 211.10
  C 449.10 205.83 450.78 199.59 452.66 193.60
  C 454.91 186.39 455.23 178.89 455.92 171.26
  Q 456.09 169.30 456.26 171.26
  Q 458.40 196.07 454.61 220.67
  Q 454.54 221.12 454.99 221.18
  C 465.32 222.61 467.62 202.97 467.70 196.69
  C 467.87 183.15 469.36 169.56 468.64 157.19
  Q 468.40 153.00 464.14 153.22
  Q 463.66 153.25 463.29 153.55
  L 457.10 158.56
  A 0.46 0.45 76.5 0 1 456.37 158.11
  C 467.34 104.81 450.75 40.59 388.66 29.96
  Q 365.90 26.06 343.60 31.85
  C 292.81 45.03 274.73 96.21 280.73 143.67
  Q 281.65 150.91 282.75 158.23
  Q 282.89 159.17 282.15 158.57
  L 275.87 153.41
  Q 275.43 153.05 274.86 153.08
  C 271.71 153.25 270.72 155.50 270.60 158.51
  Q 270.01 172.58 271.30 186.59
  Q 271.57 189.58 271.57 195.95
  C 271.57 201.95 273.91 223.01 284.19 221.71
  Q 284.75 221.63 284.70 221.07
  Q 282.63 199.36 282.49 177.53
  Q 282.48 176.17 282.67 177.52
  Q 284.62 191.84 290.03 205.12
  C 292.56 211.32 298.37 217.51 300.27 223.00
  C 303.04 231.04 301.21 241.59 300.77 250.48
  Q 300.73 251.36 300.64 250.49"
/>
<path stroke="#808080" vector-effect="non-scaling-stroke" d="
  M 442.79 323.22
  C 436.14 314.33 434.73 297.52 435.41 286.89
  A 0.48 0.47 -18.2 0 0 434.63 286.50
  Q 415.19 302.38 391.80 310.60
  C 377.78 315.53 365.62 316.07 352.00 311.50
  Q 327.11 303.13 306.97 286.18
  A 0.23 0.23 0.0 0 0 306.59 286.36
  C 307.09 297.85 306.94 316.19 300.45 326.19
  C 295.68 333.53 285.99 337.06 276.92 340.65
  Q 276.09 340.97 276.93 341.28
  C 328.36 360.29 389.32 360.94 442.00 348.54
  Q 454.02 345.71 468.32 339.65
  Q 468.89 339.41 468.34 339.13
  C 459.90 334.85 448.59 330.97 442.79 323.22"
/>
<path stroke="#800000" vector-effect="non-scaling-stroke" d="
  M 163.75 546.79
  L 166.00 547.04"
/>
<path stroke="#808080" vector-effect="non-scaling-stroke" d="
  M 166.00 547.04
  C 168.68 566.36 176.67 586.21 196.30 593.73
  Q 215.91 601.23 238.27 602.60
  C 269.77 604.52 301.15 600.91 332.24 596.16
  C 349.18 593.58 356.81 584.75 356.01 567.25
  Q 355.49 555.98 353.82 544.82
  C 353.80 544.64 353.85 544.50 353.88 544.31
  Q 353.93 543.96 354.01 544.30
  Q 357.87 562.05 357.24 576.24
  C 356.61 590.71 343.91 597.07 331.56 599.53
  C 296.31 606.58 260.25 612.59 227.01 607.75
  C 209.34 605.17 192.14 600.11 179.47 588.39
  A 0.26 0.26 0.0 0 0 179.04 588.61
  Q 180.09 596.86 181.89 605.28
  Q 192.00 652.62 201.99 700.00
  Q 202.16 700.78 201.92 700.01
  L 196.97 683.64
  Q 196.94 683.54 196.84 683.51
  Q 196.73 683.48 196.58 683.54
  Q 196.51 683.57 196.52 683.64
  C 199.57 707.90 198.85 739.68 202.28 772.69
  C 204.69 795.88 206.36 819.42 205.79 842.75"
/>
<path stroke="#800000" vector-effect="non-scaling-stroke" d="
  M 205.79 842.75
  L 205.65 846.14"
/>
<path stroke="#808080" vector-effect="non-scaling-stroke" d="
  M 205.65 846.14
  Q 205.32 870.59 199.36 894.42
  C 195.90 908.28 189.39 923.77 187.34 938.52
  Q 187.27 939.03 187.77 939.16
  C 223.42 948.87 262.35 953.32 297.56 954.70
  Q 411.73 959.18 528.00 941.96
  Q 543.03 939.73 558.06 936.80
  Q 558.60 936.69 558.51 936.15
  Q 558.12 933.71 557.15 931.40
  C 550.59 915.72 544.21 902.05 540.77 884.24
  C 535.63 857.65 536.89 825.95 540.04 797.75
  C 542.75 773.50 547.05 748.67 547.64 725.06
  Q 548.15 704.79 548.84 684.48
  Q 548.90 682.69 548.36 684.40
  L 544.00 698.25
  Q 543.53 699.74 543.86 698.21
  Q 553.73 651.51 563.56 604.81
  Q 565.53 595.46 566.43 588.50
  Q 566.53 587.73 565.98 588.27
  Q 558.35 595.70 549.19 599.44
  C 507.73 616.39 457.69 608.72 413.74 599.48
  C 397.32 596.02 386.24 587.55 388.07 569.05
  Q 389.62 553.36 392.22 537.71
  Q 392.42 536.50 392.33 537.72
  C 391.50 548.35 389.85 557.68 389.63 569.75
  C 389.34 585.19 396.69 593.46 412.02 595.90
  C 453.10 602.45 500.18 608.55 540.78 596.47
  C 566.75 588.74 575.72 572.43 579.50 546.79"
/>
<path stroke="#800000" vector-effect="non-scaling-stroke" d="
  M 579.50 546.79
  L 581.71 546.00"
/>
<path stroke="#808080" vector-effect="non-scaling-stroke" d="
  M 581.71 546.00
  Q 580.57 560.99 574.96 574.85
  Q 573.73 577.88 573.41 580.89
  C 570.70 606.46 564.26 630.63 557.09 655.22
  Q 556.42 657.52 556.79 659.84
  Q 561.98 693.06 570.46 721.26
  C 580.66 755.18 592.38 788.30 596.21 823.75
  C 599.63 855.48 601.16 878.89 611.56 905.31
  C 617.41 920.15 627.51 941.84 632.24 954.29
  Q 642.14 980.34 649.38 1012.72
  C 654.15 1034.02 659.97 1057.77 656.31 1079.19
  Q 656.22 1079.67 656.70 1079.80
  Q 679.83 1085.78 703.71 1086.11
  Q 704.17 1086.11 704.22 1085.65
  Q 705.81 1069.04 706.33 1056.75
  Q 708.41 1007.61 711.00 958.49
  C 712.14 937.04 714.12 914.23 714.72 894.75
  C 715.56 867.69 710.78 843.54 702.40 819.32
  C 692.29 790.10 677.81 759.23 674.53 725.61
  C 670.75 686.80 666.67 648.17 659.34 609.83
  Q 654.91 586.67 650.45 563.51
  C 645.21 536.32 643.60 512.99 642.63 487.31
  Q 642.32 479.11 641.60 470.93
  C 638.99 441.07 623.65 409.73 596.56 394.94
  C 583.77 387.95 569.63 383.10 554.71 382.16
  Q 519.55 379.96 484.54 384.48
  Q 483.23 384.65 484.51 384.35
  Q 496.09 381.60 507.71 379.29
  Q 527.50 375.35 547.53 375.44
  A 0.25 0.24 59.8 0 0 547.65 374.98
  C 524.71 362.30 504.02 353.60 476.07 342.43
  Q 475.60 342.24 475.15 342.45
  C 431.45 362.04 378.24 365.47 330.74 359.50
  Q 297.48 355.31 269.48 344.02
  Q 269.03 343.84 268.58 344.01
  C 242.03 353.77 217.11 363.54 192.82 377.02
  Q 192.22 377.35 192.90 377.33
  C 216.74 376.57 241.51 381.84 264.71 389.07
  Q 266.10 389.51 264.67 389.23
  Q 227.21 382.01 189.23 383.88
  Q 176.88 384.49 169.37 385.99
  C 129.53 393.99 104.97 428.74 100.44 467.72
  C 99.01 480.02 98.60 497.50 98.01 512.25
  Q 97.26 531.18 91.87 559.73
  Q 86.25 589.53 80.73 619.34
  C 74.54 652.73 71.54 682.90 67.89 718.67
  C 66.12 736.06 63.66 752.71 58.23 767.44
  C 49.18 792.01 38.85 817.46 32.58 842.07
  Q 25.98 867.95 27.06 896.06
  C 28.22 926.29 30.89 954.20 32.42 989.23
  C 34.23 1030.49 34.72 1055.80 37.54 1085.53
  Q 37.60 1086.10 38.18 1086.10
  Q 61.92 1086.04 84.97 1080.26
  Q 85.42 1080.15 85.35 1079.69
  Q 83.07 1063.91 86.03 1045.76
  Q 94.03 996.65 110.18 952.89
  C 114.85 940.25 120.85 927.28 127.13 912.66
  Q 139.19 884.54 142.09 855.53
  C 143.42 842.17 144.98 828.83 146.51 815.50
  C 149.61 788.45 159.88 759.00 168.35 731.52
  Q 180.47 692.19 186.24 651.43
  Q 186.58 649.03 185.89 646.65
  C 179.22 623.75 174.58 603.63 171.87 580.29
  Q 171.51 577.18 170.22 573.98
  Q 164.95 560.91 163.75 546.79"
/>
<path stroke="#ff8080" vector-effect="non-scaling-stroke" d="
  M 581.71 546.00
  Q 583.67 543.21 582.54 540.00"
/>
<path stroke="#808080" vector-effect="non-scaling-stroke" d="
  M 582.54 540.00
  C 585.83 524.92 597.22 511.95 610.04 503.64
  Q 614.84 500.52 609.89 503.39
  C 597.36 510.63 584.99 524.23 580.96 538.50"
/>
<path stroke="#ff8080" vector-effect="non-scaling-stroke" d="
  M 580.96 538.50
  Q 574.14 537.78 571.80 538.33
  C 568.16 539.17 567.35 544.13 570.24 545.91
  C 572.38 547.24 576.73 546.75 579.50 546.79"
/>
<path stroke="#ff8080" vector-effect="non-scaling-stroke" d="
  M 205.65 846.14
  Q 211.47 849.63 218.21 848.77
  C 224.36 847.97 223.67 840.30 219.49 840.27
  C 214.91 840.22 209.16 839.00 205.79 842.75"
/>
<path stroke="#ff8080" vector-effect="non-scaling-stroke" d="
  M 166.00 547.04
  C 168.90 546.59 173.30 547.33 175.41 545.97
  C 178.92 543.69 177.28 538.10 173.01 538.19
  Q 167.14 538.33 164.25 537.96"
/>
<path stroke="#808080" vector-effect="non-scaling-stroke" d="
  M 164.25 537.96
  C 160.52 524.52 149.13 512.17 137.81 504.78
  C 137.69 504.70 137.55 504.73 137.42 504.77
  Q 137.27 504.82 137.40 504.90
  C 147.95 512.16 160.45 525.82 162.54 538.75"
/>
<path stroke="#ff8080" vector-effect="non-scaling-stroke" d="
  M 162.54 538.75
  C 158.66 541.71 160.49 544.77 163.75 546.79"
/>
<path stroke="#800000" vector-effect="non-scaling-stroke" d="
  M 582.54 540.00
  L 580.96 538.50"
/>
<path stroke="#800000" vector-effect="non-scaling-stroke" d="
  M 164.25 537.96
  L 162.54 538.75"
/>
<path stroke="#800000" vector-effect="non-scaling-stroke" d="
  M 180.21 978.75
  Q 174.87 981.73 178.79 986.75"
/>
<path stroke="#808080" vector-effect="non-scaling-stroke" d="
  M 178.79 986.75
  C 160.74 1096.56 151.34 1208.25 152.92 1319.56
  Q 153.74 1377.85 158.09 1421.18
  Q 160.72 1447.38 161.52 1465.75
  C 163.19 1504.62 154.53 1542.90 147.72 1581.34
  C 136.62 1644.05 133.03 1707.44 138.49 1770.94
  Q 145.33 1850.55 146.38 1930.41
  Q 146.38 1930.86 146.81 1930.72
  C 172.39 1922.33 191.57 1929.79 212.49 1944.51
  Q 213.01 1944.88 212.96 1944.24
  Q 210.47 1914.47 210.53 1884.61
  C 210.57 1865.56 213.09 1850.64 216.75 1831.40
  Q 218.39 1822.76 221.19 1813.85
  C 231.38 1781.35 241.19 1748.72 251.79 1716.35
  Q 267.40 1668.70 266.10 1618.20
  C 265.71 1603.20 265.44 1588.20 264.99 1573.20
  C 264.21 1546.82 267.02 1521.38 273.43 1495.81
  C 286.02 1445.56 296.00 1394.84 307.81 1344.43
  Q 309.65 1336.59 312.60 1328.34
  C 335.96 1263.01 353.50 1195.74 361.64 1126.80
  Q 361.71 1126.15 362.33 1126.35
  C 370.58 1128.94 375.14 1129.31 383.35 1126.29
  A 0.41 0.40 -14.1 0 1 383.89 1126.61
  Q 388.51 1156.85 394.11 1186.99
  Q 407.77 1260.51 433.88 1330.51
  Q 436.37 1337.18 437.83 1343.72
  C 449.08 1394.32 459.43 1445.13 472.24 1495.37
  Q 482.24 1534.61 480.81 1575.33
  Q 480.33 1589.03 479.61 1611.32
  C 478.46 1646.51 482.42 1679.51 493.22 1713.79
  Q 509.35 1765.03 525.24 1816.36
  Q 527.64 1824.11 529.03 1832.04
  C 532.36 1851.01 535.53 1869.48 535.18 1888.86
  Q 534.68 1916.11 534.02 1936.25
  Q 533.83 1941.78 535.30 1946.89
  Q 535.47 1947.48 535.95 1947.09
  C 553.73 1932.77 572.12 1924.40 595.67 1928.25
  Q 596.09 1928.32 596.11 1927.88
  C 598.12 1877.69 602.59 1821.48 607.03 1770.65
  C 612.78 1704.80 608.68 1639.78 596.91 1574.82
  C 590.70 1540.59 583.55 1507.34 584.00 1472.31
  C 584.31 1448.54 587.67 1424.78 588.70 1401.01
  C 592.53 1312.61 590.42 1223.39 585.63 1135.06
  Q 582.79 1082.70 577.02 1030.58
  C 573.86 1002.05 569.66 970.65 560.55 942.59
  Q 560.40 942.10 559.89 942.19
  C 478.61 956.64 390.11 963.25 304.94 960.34
  C 265.52 958.99 225.07 955.07 186.95 944.45
  Q 186.44 944.31 186.33 944.82
  Q 182.77 961.68 180.21 978.75"
/>
<path stroke="#ff8080" vector-effect="non-scaling-stroke" d="
  M 178.79 986.75
  C 182.42 987.31 196.01 989.36 193.94 981.81
  C 192.71 977.33 183.89 978.74 180.21 978.75"
/>
<path stroke="#808080" vector-effect="non-scaling-stroke" d="
  M 622.10 1244.98
  C 617.29 1250.09 603.50 1261.42 606.94 1269.10
  A 1.19 1.19 0.0 0 0 608.79 1269.52
  C 619.84 1260.19 629.39 1248.30 638.62 1237.26
  Q 638.95 1236.87 639.46 1236.82
  C 648.75 1235.88 653.46 1225.64 657.49 1218.45
  Q 657.73 1218.01 658.22 1217.90
  C 663.36 1216.80 666.96 1211.80 669.63 1207.65
  Q 677.33 1195.65 684.80 1183.50
  Q 688.39 1177.65 689.31 1172.76
  C 692.07 1158.26 694.29 1138.12 697.84 1120.56
  C 699.79 1110.98 702.10 1101.68 703.55 1091.96
  A 0.55 0.55 0.0 0 0 703.02 1091.33
  Q 678.73 1091.04 655.24 1084.86
  Q 654.76 1084.74 654.57 1085.19
  C 649.63 1097.14 640.38 1106.18 631.09 1116.60
  C 618.39 1130.82 617.51 1148.47 613.76 1167.50
  C 612.27 1175.08 607.70 1183.15 605.78 1191.43
  Q 603.66 1200.56 600.20 1210.97
  Q 599.31 1213.64 600.80 1215.68
  Q 601.10 1216.09 601.60 1216.16
  C 610.42 1217.51 617.23 1199.54 619.10 1193.16
  C 622.82 1180.43 632.14 1172.58 641.80 1164.73
  Q 642.38 1164.25 642.25 1165.00
  L 633.84 1213.30
  Q 633.76 1213.76 633.45 1214.11
  Q 627.10 1221.32 618.43 1225.46
  Q 617.87 1225.73 617.56 1226.27
  Q 615.11 1230.57 615.28 1235.55
  Q 615.30 1236.10 614.81 1236.34
  C 608.68 1239.34 602.63 1242.55 604.08 1250.50
  Q 604.22 1251.26 604.94 1250.99
  L 621.87 1244.63
  A 0.22 0.21 -78.5 0 1 622.10 1244.98"
/>
<path stroke="#808080" vector-effect="non-scaling-stroke" d="
  M 119.76 1244.50
  L 135.44 1250.57
  A 1.70 1.70 0.0 0 0 137.73 1249.26
  C 138.85 1242.50 132.71 1239.17 127.13 1236.44
  Q 126.62 1236.19 126.62 1235.63
  Q 126.59 1230.63 124.27 1226.27
  Q 123.98 1225.72 123.42 1225.46
  Q 114.62 1221.35 108.26 1214.00
  Q 107.97 1213.67 107.89 1213.23
  L 99.47 1165.03
  Q 99.28 1163.94 100.10 1164.68
  C 106.09 1170.04 113.13 1175.69 117.86 1182.40
  C 121.51 1187.56 123.06 1194.25 125.03 1200.48
  C 126.09 1203.82 134.98 1219.70 141.03 1215.60
  Q 141.43 1215.33 141.53 1214.86
  Q 142.10 1211.98 141.55 1210.52
  Q 138.08 1201.28 136.03 1191.61
  Q 135.22 1187.76 133.67 1184.21
  C 127.10 1169.18 125.71 1154.18 122.29 1138.95
  C 117.28 1116.68 95.28 1104.00 87.39 1085.75
  Q 87.16 1085.22 86.60 1085.36
  Q 63.05 1091.22 38.78 1091.39
  Q 38.23 1091.39 38.30 1091.93
  C 39.93 1105.36 43.87 1118.41 45.98 1131.79
  Q 48.84 1149.88 51.57 1167.99
  C 53.53 1180.99 62.64 1192.62 69.42 1203.57
  C 72.84 1209.08 77.12 1216.39 83.52 1217.89
  Q 84.01 1218.01 84.25 1218.44
  C 87.97 1225.03 92.91 1235.89 102.27 1236.77
  Q 102.76 1236.82 103.08 1237.20
  Q 113.68 1249.80 124.80 1261.95
  Q 128.96 1266.50 133.78 1269.94
  A 0.67 0.66 24.1 0 0 134.82 1269.55
  C 137.03 1259.76 125.84 1251.43 119.49 1244.90
  Q 118.70 1244.09 119.76 1244.50"
/>
<path stroke="#808080" vector-effect="non-scaling-stroke" d="
  M 210.79 2002.00
  C 215.57 1997.65 220.36 1994.07 223.96 1988.20
  Q 224.24 1987.74 224.05 1987.23
  Q 217.67 1970.64 214.31 1953.19
  Q 214.22 1952.71 213.84 1952.41
  C 193.30 1935.87 172.76 1927.19 146.60 1936.40
  Q 146.09 1936.58 146.05 1937.12
  C 145.19 1947.47 144.83 1954.34 139.44 1963.72
  C 124.50 1989.67 104.69 2014.59 86.12 2038.96
  C 85.34 2039.97 84.72 2041.30 84.20 2042.44
  Q 83.99 2042.89 84.11 2043.37
  Q 87.56 2057.35 96.67 2067.61
  C 103.25 2075.02 110.47 2076.14 121.39 2077.92
  Q 144.65 2081.71 168.23 2079.55
  Q 175.90 2078.85 178.37 2077.38
  Q 195.24 2067.37 206.40 2051.12
  Q 206.70 2050.69 206.60 2050.18
  C 204.89 2041.32 206.10 2033.63 205.36 2024.98
  Q 204.53 2015.17 207.99 2006.00
  Q 208.83 2003.77 210.79 2002.00"
/>
<path stroke="#808080" vector-effect="non-scaling-stroke" d="
  M 540.15 2003.79
  C 545.74 2018.27 544.45 2034.16 544.46 2048.63
  Q 544.46 2049.10 544.71 2049.51
  C 552.69 2062.60 567.46 2076.57 583.25 2078.73
  Q 604.46 2081.63 626.41 2078.21
  C 639.85 2076.11 646.97 2073.39 652.78 2061.28
  C 656.31 2053.94 660.38 2042.15 656.54 2034.46
  Q 651.11 2023.57 642.06 2011.70
  Q 628.10 1993.39 614.24 1975.01
  C 607.64 1966.25 595.80 1950.40 596.16 1939.51
  Q 596.27 1936.22 596.21 1934.47
  Q 596.19 1933.93 595.66 1933.82
  C 571.71 1929.04 552.20 1939.83 534.61 1955.14
  Q 534.21 1955.49 534.10 1956.00
  Q 530.60 1972.12 524.81 1987.57
  Q 524.61 1988.10 524.95 1988.55
  Q 531.15 1996.84 539.54 2002.99
  Q 539.96 2003.30 540.15 2003.79"
/>
<path stroke="#808080" vector-effect="non-scaling-stroke" d="
  M 531.58 2003.14
  Q 527.39 1999.53 523.43 1995.61
  Q 523.00 1995.19 523.01 1995.80
  C 523.17 2005.58 531.34 2012.23 537.98 2017.73
  Q 538.51 2018.17 538.40 2017.49
  Q 537.67 2013.03 536.36 2008.78
  C 535.57 2006.22 533.54 2004.82 531.58 2003.14"
/>
<path stroke="#808080" vector-effect="non-scaling-stroke" d="
  M 225.24 1995.77
  C 221.71 1998.61 218.31 2002.42 214.83 2005.49
  C 211.80 2008.16 211.15 2013.18 210.80 2016.97
  Q 210.74 2017.57 211.22 2017.21
  C 217.75 2012.35 226.14 2004.96 225.76 1996.01
  Q 225.73 1995.38 225.24 1995.77"
/>
<path stroke="#808080" vector-effect="non-scaling-stroke" d="
  M 171.19 2084.69
  C 151.72 2087.04 131.27 2085.39 112.04 2081.74
  C 99.17 2079.30 89.90 2070.50 84.47 2059.02
  A 0.24 0.24 0.0 0 0 84.02 2059.18
  C 86.64 2069.61 93.31 2082.94 102.88 2088.47
  Q 107.91 2091.38 114.68 2092.56
  Q 141.90 2097.30 164.82 2096.09
  Q 174.36 2095.59 180.20 2092.22
  C 187.63 2087.93 210.12 2069.39 208.11 2058.69
  Q 208.01 2058.14 207.66 2058.58
  C 199.22 2069.11 185.26 2082.99 171.19 2084.69"
/>
<path stroke="#808080" vector-effect="non-scaling-stroke" d="
  M 601.75 2085.50
  Q 585.58 2085.07 578.26 2083.23
  C 564.86 2079.88 552.41 2068.98 544.11 2058.28
  A 0.29 0.28 27.1 0 0 543.60 2058.44
  C 543.48 2061.79 544.12 2064.53 546.05 2067.45
  C 554.17 2079.72 567.88 2092.23 583.00 2094.45
  Q 609.46 2098.34 634.97 2092.40
  C 648.00 2089.36 654.46 2077.32 656.92 2065.33
  A 0.18 0.18 0.0 0 0 656.59 2065.22
  C 651.56 2075.70 644.17 2080.08 632.47 2082.54
  Q 616.52 2085.90 601.75 2085.50"
/>
<path stroke="#808080" vector-effect="non-scaling-stroke" d="
  M 383.77 146.53
  C 399.41 142.28 438.34 136.47 448.44 153.27
  Q 449.25 154.62 448.70 153.14
  C 439.24 127.95 378.65 133.14 382.90 146.06
  A 0.72 0.72 0.0 0 0 383.77 146.53"
/>
<path stroke="#808080" vector-effect="non-scaling-stroke" d="
  M 291.71 153.00
  C 302.80 138.21 339.64 142.61 354.97 146.59
  A 0.64 0.64 0.0 0 0 355.77 145.89
  C 355.04 140.21 341.94 137.92 337.27 137.25
  C 320.83 134.86 297.16 137.33 289.84 155.19
  Q 289.35 156.38 290.07 155.32
  Q 290.91 154.07 291.71 153.00"
/>
<path stroke="#808080" vector-effect="non-scaling-stroke" d="
  M 347.23 157.80
  C 356.72 170.95 355.40 190.10 351.72 205.28
  Q 351.27 207.15 351.91 205.34
  Q 357.06 190.81 360.56 175.84
  Q 360.68 175.35 360.49 174.89
  C 357.91 168.71 351.99 162.51 347.39 157.66
  Q 346.30 156.51 347.23 157.80"
/>
<path stroke="#808080" vector-effect="non-scaling-stroke" d="
  M 310.60 165.53
  Q 310.82 165.48 310.90 165.69
  L 313.11 171.04
  Q 313.30 171.50 313.79 171.50
  L 328.26 171.50
  Q 328.76 171.50 329.07 171.11
  Q 331.25 168.30 331.27 164.72
  Q 331.27 164.22 331.77 164.24
  Q 339.12 164.51 346.17 166.58
  Q 347.19 166.88 346.25 166.38
  C 337.32 161.57 324.06 157.79 314.10 160.81
  C 308.56 162.49 302.92 166.19 300.49 171.68
  Q 300.15 172.44 300.66 171.78
  Q 304.45 166.82 310.60 165.53"
/>
<path stroke="#808080" vector-effect="non-scaling-stroke" d="
  M 426.11 165.50
  Q 432.27 166.70 436.10 171.62
  Q 436.57 172.22 436.30 171.51
  C 433.41 163.97 423.02 159.86 415.49 159.71
  Q 403.39 159.45 390.54 166.54
  Q 390.40 166.62 390.55 166.57
  Q 397.63 164.60 404.99 164.28
  Q 405.47 164.26 405.49 164.73
  Q 405.63 168.31 407.83 171.08
  Q 408.17 171.50 408.70 171.50
  L 422.70 171.50
  Q 423.15 171.50 423.43 171.15
  Q 425.27 168.83 425.57 165.90
  Q 425.62 165.40 426.11 165.50"
/>
<path stroke="#808080" vector-effect="non-scaling-stroke" d="
  M 350.29 221.12
  Q 349.67 220.77 348.99 220.53
  Q 348.47 220.34 348.85 220.74
  C 354.22 226.38 364.25 238.11 374.09 233.64
  C 380.17 230.87 385.75 225.48 390.14 220.98
  Q 390.74 220.36 389.97 220.74
  C 378.03 226.63 362.25 227.80 350.29 221.12"
/>
<path stroke="#808080" vector-effect="non-scaling-stroke" d="
  M 324.9881 236.1453
  A 0.53 0.53 0.0 0 0 324.9059 235.4003
  L 323.6572 234.3999
  A 0.53 0.53 0.0 0 0 322.9122 234.4822
  L 315.7719 243.3947
  A 0.53 0.53 0.0 0 0 315.8541 244.1397
  L 317.1028 245.1401
  A 0.53 0.53 0.0 0 0 317.8478 245.0578
  L 324.9881 236.1453"
/>
<path stroke="#808080" vector-effect="non-scaling-stroke" d="
  M 414.0449 234.4448
  A 0.45 0.45 0.0 0 0 413.4126 234.3728
  L 412.0509 235.4559
  A 0.45 0.45 0.0 0 0 411.9788 236.0882
  L 419.1751 245.1352
  A 0.45 0.45 0.0 0 0 419.8074 245.2072
  L 421.1691 244.1241
  A 0.45 0.45 0.0 0 0 421.2412 243.4918
  L 414.0449 234.4448"
/>
<path stroke="#808080" vector-effect="non-scaling-stroke" d="
  M 411.74 240.77
  C 384.45 249.19 350.60 247.54 323.03 241.36
  Q 322.33 241.21 323.00 241.46
  Q 343.70 249.11 365.50 249.82
  C 381.33 250.34 396.82 246.47 411.83 241.04
  A 0.14 0.14 0.0 0 0 411.74 240.77"
/>
<path stroke="#808080" vector-effect="non-scaling-stroke" d="
  M 391.21 260.89
  C 379.14 263.24 365.81 264.14 353.75 261.26
  Q 353.14 261.11 353.63 261.51
  C 361.86 268.19 370.99 274.15 381.69 267.99
  Q 386.85 265.02 391.35 261.17
  Q 391.82 260.77 391.21 260.89"
/>
<path stroke="#ff8080" vector-effect="non-scaling-stroke" d="
  M 211.24 542.26
  A 4.00 4.00 0.0 0 0 207.24 538.26
  L 198.54 538.26
  A 4.00 4.00 0.0 0 0 194.54 542.26
  L 194.54 542.70
  A 4.00 4.00 0.0 0 0 198.54 546.70
  L 207.24 546.70
  A 4.00 4.00 0.0 0 0 211.24 542.70
  L 211.24 542.26"
/>
<path stroke="#ff8080" vector-effect="non-scaling-stroke" d="
  M 245.23 542.26
  A 4.00 4.00 0.0 0 0 241.23 538.26
  L 232.53 538.26
  A 4.00 4.00 0.0 0 0 228.53 542.26
  L 228.53 542.70
  A 4.00 4.00 0.0 0 0 232.53 546.70
  L 241.23 546.70
  A 4.00 4.00 0.0 0 0 245.23 542.70
  L 245.23 542.26"
/>
<path stroke="#ff8080" vector-effect="non-scaling-stroke" d="
  M 279.23 542.27
  A 4.01 4.01 0.0 0 0 275.22 538.26
  L 266.54 538.26
  A 4.01 4.01 0.0 0 0 262.53 542.27
  L 262.53 542.69
  A 4.01 4.01 0.0 0 0 266.54 546.70
  L 275.22 546.70
  A 4.01 4.01 0.0 0 0 279.23 542.69
  L 279.23 542.27"
/>
<path stroke="#ff8080" vector-effect="non-scaling-stroke" d="
  M 313.2307 542.2891
  A 4.01 4.01 0.0 0 0 309.2347 538.2651
  L 300.5748 538.2349
  A 4.01 4.01 0.0 0 0 296.5508 542.2309
  L 296.5493 542.6709
  A 4.01 4.01 0.0 0 0 300.5453 546.6949
  L 309.2052 546.7251
  A 4.01 4.01 0.0 0 0 313.2292 542.7291
  L 313.2307 542.2891"
/>
<path stroke="#ff8080" vector-effect="non-scaling-stroke" d="
  M 347.2407 542.2891
  A 4.01 4.01 0.0 0 0 343.2447 538.2652
  L 334.5648 538.2349
  A 4.01 4.01 0.0 0 0 330.5408 542.2309
  L 330.5393 542.6709
  A 4.01 4.01 0.0 0 0 334.5353 546.6948
  L 343.2152 546.7251
  A 4.01 4.01 0.0 0 0 347.2392 542.7291
  L 347.2407 542.2891"
/>
<path stroke="#ff8080" vector-effect="non-scaling-stroke" d="
  M 381.2207 542.2891
  A 4.00 4.00 0.0 0 0 377.2347 538.2752
  L 368.5548 538.2449
  A 4.00 4.00 0.0 0 0 364.5408 542.2309
  L 364.5393 542.6709
  A 4.00 4.00 0.0 0 0 368.5253 546.6848
  L 377.2052 546.7151
  A 4.00 4.00 0.0 0 0 381.2192 542.7291
  L 381.2207 542.2891"
/>
<path stroke="#ff8080" vector-effect="non-scaling-stroke" d="
  M 415.2307 542.2991
  A 4.00 4.00 0.0 0 0 411.2447 538.2852
  L 402.5648 538.2549
  A 4.00 4.00 0.0 0 0 398.5508 542.2409
  L 398.5493 542.6809
  A 4.00 4.00 0.0 0 0 402.5353 546.6948
  L 411.2152 546.7251
  A 4.00 4.00 0.0 0 0 415.2292 542.7391
  L 415.2307 542.2991"
/>
<path stroke="#ff8080" vector-effect="non-scaling-stroke" d="
  M 449.2308 542.2791
  A 4.00 4.00 0.0 0 0 445.2447 538.2652
  L 436.5648 538.2349
  A 4.00 4.00 0.0 0 0 432.5509 542.2209
  L 432.5492 542.6809
  A 4.00 4.00 0.0 0 0 436.5353 546.6948
  L 445.2152 546.7251
  A 4.00 4.00 0.0 0 0 449.2291 542.7391
  L 449.2308 542.2791"
/>
<path stroke="#ff8080" vector-effect="non-scaling-stroke" d="
  M 483.2396 542.2454
  A 4.01 4.01 0.0 0 0 479.2226 538.2424
  L 470.5426 538.2576
  A 4.01 4.01 0.0 0 0 466.5396 542.2746
  L 466.5404 542.7146
  A 4.01 4.01 0.0 0 0 470.5574 546.7176
  L 479.2374 546.7024
  A 4.01 4.01 0.0 0 0 483.2404 542.6854
  L 483.2396 542.2454"
/>
<path stroke="#ff8080" vector-effect="non-scaling-stroke" d="
  M 517.2296 542.2354
  A 4.00 4.00 0.0 0 0 513.2226 538.2424
  L 504.5226 538.2576
  A 4.00 4.00 0.0 0 0 500.5296 542.2646
  L 500.5304 542.7246
  A 4.00 4.00 0.0 0 0 504.5374 546.7176
  L 513.2374 546.7024
  A 4.00 4.00 0.0 0 0 517.2304 542.6954
  L 517.2296 542.2354"
/>
<path stroke="#ff8080" vector-effect="non-scaling-stroke" d="
  M 551.2396 542.2354
  A 4.00 4.00 0.0 0 0 547.2326 538.2424
  L 538.5326 538.2576
  A 4.00 4.00 0.0 0 0 534.5396 542.2646
  L 534.5404 542.7246
  A 4.00 4.00 0.0 0 0 538.5474 546.7176
  L 547.2474 546.7024
  A 4.00 4.00 0.0 0 0 551.2404 542.6954
  L 551.2396 542.2354"
/>
<path stroke="#808080" vector-effect="non-scaling-stroke" d="
  M 358.33 656.60
  C 372.25 655.28 388.52 661.04 401.56 666.47
  C 427.21 677.13 442.18 684.13 463.06 691.20
  Q 463.38 691.31 463.74 691.24
  Q 464.28 691.15 463.76 690.97
  C 435.05 681.10 409.74 663.44 380.63 654.54
  Q 370.69 651.51 363.60 651.39
  C 349.93 651.17 334.85 657.24 322.68 663.18
  C 306.10 671.27 289.60 679.95 272.51 686.90
  Q 271.55 687.29 272.52 687.17
  Q 272.73 687.15 273.01 687.03
  Q 296.72 677.68 309.25 672.26
  C 324.24 665.78 342.02 658.15 358.33 656.60"
/>
<path stroke="#ff8080" vector-effect="non-scaling-stroke" d="
  M 256.7087 844.1564
  A 3.96 3.96 0.0 0 0 252.7280 840.2172
  L 243.9881 840.2629
  A 3.96 3.96 0.0 0 0 240.0489 844.2436
  L 240.0513 844.7036
  A 3.96 3.96 0.0 0 0 244.0320 848.6428
  L 252.7719 848.5971
  A 3.96 3.96 0.0 0 0 256.7111 844.6164
  L 256.7087 844.1564"
/>
<path stroke="#ff8080" vector-effect="non-scaling-stroke" d="
  M 290.75 844.17
  A 3.92 3.92 0.0 0 0 286.83 840.25
  L 277.91 840.25
  A 3.92 3.92 0.0 0 0 273.99 844.17
  L 273.99 844.59
  A 3.92 3.92 0.0 0 0 277.91 848.51
  L 286.83 848.51
  A 3.92 3.92 0.0 0 0 290.75 844.59
  L 290.75 844.17"
/>
<path stroke="#ff8080" vector-effect="non-scaling-stroke" d="
  M 324.74 844.18
  A 3.92 3.92 0.0 0 0 320.82 840.26
  L 311.92 840.26
  A 3.92 3.92 0.0 0 0 308.00 844.18
  L 308.00 844.58
  A 3.92 3.92 0.0 0 0 311.92 848.50
  L 320.82 848.50
  A 3.92 3.92 0.0 0 0 324.74 844.58
  L 324.74 844.18"
/>
<path stroke="#ff8080" vector-effect="non-scaling-stroke" d="
  M 358.74 844.17
  A 3.92 3.92 0.0 0 0 354.82 840.25
  L 345.92 840.25
  A 3.92 3.92 0.0 0 0 342.00 844.17
  L 342.00 844.59
  A 3.92 3.92 0.0 0 0 345.92 848.51
  L 354.82 848.51
  A 3.92 3.92 0.0 0 0 358.74 844.59
  L 358.74 844.17"
/>
<path stroke="#ff8080" vector-effect="non-scaling-stroke" d="
  M 392.7087 844.1664
  A 3.96 3.96 0.0 0 0 388.7280 840.2272
  L 379.9881 840.2729
  A 3.96 3.96 0.0 0 0 376.0489 844.2536
  L 376.0513 844.7136
  A 3.96 3.96 0.0 0 0 380.0320 848.6528
  L 388.7719 848.6071
  A 3.96 3.96 0.0 0 0 392.7111 844.6264
  L 392.7087 844.1664"
/>
<path stroke="#ff8080" vector-effect="non-scaling-stroke" d="
  M 426.75 844.17
  A 3.92 3.92 0.0 0 0 422.83 840.25
  L 413.93 840.25
  A 3.92 3.92 0.0 0 0 410.01 844.17
  L 410.01 844.59
  A 3.92 3.92 0.0 0 0 413.93 848.51
  L 422.83 848.51
  A 3.92 3.92 0.0 0 0 426.75 844.59
  L 426.75 844.17"
/>
<path stroke="#ff8080" vector-effect="non-scaling-stroke" d="
  M 460.74 844.18
  A 3.92 3.92 0.0 0 0 456.82 840.26
  L 447.92 840.26
  A 3.92 3.92 0.0 0 0 444.00 844.18
  L 444.00 844.58
  A 3.92 3.92 0.0 0 0 447.92 848.50
  L 456.82 848.50
  A 3.92 3.92 0.0 0 0 460.74 844.58
  L 460.74 844.18"
/>
<path stroke="#ff8080" vector-effect="non-scaling-stroke" d="
  M 494.75 844.17
  A 3.92 3.92 0.0 0 0 490.83 840.25
  L 481.91 840.25
  A 3.92 3.92 0.0 0 0 477.99 844.17
  L 477.99 844.59
  A 3.92 3.92 0.0 0 0 481.91 848.51
  L 490.83 848.51
  A 3.92 3.92 0.0 0 0 494.75 844.59
  L 494.75 844.17"
/>
<path stroke="#ff8080" vector-effect="non-scaling-stroke" d="
  M 528.7087 844.1664
  A 3.97 3.97 0.0 0 0 524.7179 840.2172
  L 515.9981 840.2629
  A 3.97 3.97 0.0 0 0 512.0489 844.2536
  L 512.0513 844.7136
  A 3.97 3.97 0.0 0 0 516.0421 848.6628
  L 524.7619 848.6171
  A 3.97 3.97 0.0 0 0 528.7111 844.6264
  L 528.7087 844.1664"
/>
<path stroke="#ff8080" vector-effect="non-scaling-stroke" d="
  M 227.96 982.77
  A 4.01 4.01 0.0 0 0 223.95 978.76
  L 215.27 978.76
  A 4.01 4.01 0.0 0 0 211.26 982.77
  L 211.26 983.21
  A 4.01 4.01 0.0 0 0 215.27 987.22
  L 223.95 987.22
  A 4.01 4.01 0.0 0 0 227.96 983.21
  L 227.96 982.77"
/>
<path stroke="#ff8080" vector-effect="non-scaling-stroke" d="
  M 261.9604 982.7746
  A 4.00 4.00 0.0 0 0 257.9674 978.7676
  L 249.2674 978.7524
  A 4.00 4.00 0.0 0 0 245.2604 982.7454
  L 245.2596 983.2054
  A 4.00 4.00 0.0 0 0 249.2526 987.2124
  L 257.9526 987.2276
  A 4.00 4.00 0.0 0 0 261.9596 983.2346
  L 261.9604 982.7746"
/>
<path stroke="#ff8080" vector-effect="non-scaling-stroke" d="
  M 295.9604 982.7846
  A 4.01 4.01 0.0 0 0 291.9574 978.7676
  L 283.2774 978.7524
  A 4.01 4.01 0.0 0 0 279.2604 982.7554
  L 279.2596 983.1954
  A 4.01 4.01 0.0 0 0 283.2626 987.2124
  L 291.9426 987.2276
  A 4.01 4.01 0.0 0 0 295.9596 983.2246
  L 295.9604 982.7846"
/>
<path stroke="#ff8080" vector-effect="non-scaling-stroke" d="
  M 329.9604 982.7746
  A 4.00 4.00 0.0 0 0 325.9674 978.7676
  L 317.2674 978.7524
  A 4.00 4.00 0.0 0 0 313.2604 982.7454
  L 313.2596 983.2054
  A 4.00 4.00 0.0 0 0 317.2526 987.2124
  L 325.9526 987.2276
  A 4.00 4.00 0.0 0 0 329.9596 983.2346
  L 329.9604 982.7746"
/>
<path stroke="#ff8080" vector-effect="non-scaling-stroke" d="
  M 363.96 982.77
  A 4.01 4.01 0.0 0 0 359.95 978.76
  L 351.27 978.76
  A 4.01 4.01 0.0 0 0 347.26 982.77
  L 347.26 983.21
  A 4.01 4.01 0.0 0 0 351.27 987.22
  L 359.95 987.22
  A 4.01 4.01 0.0 0 0 363.96 983.21
  L 363.96 982.77"
/>
<path stroke="#ff8080" vector-effect="non-scaling-stroke" d="
  M 397.95 982.77
  A 4.00 4.00 0.0 0 0 393.95 978.77
  L 385.27 978.77
  A 4.00 4.00 0.0 0 0 381.27 982.77
  L 381.27 983.21
  A 4.00 4.00 0.0 0 0 385.27 987.21
  L 393.95 987.21
  A 4.00 4.00 0.0 0 0 397.95 983.21
  L 397.95 982.77"
/>
<path stroke="#ff8080" vector-effect="non-scaling-stroke" d="
  M 431.9604 982.7846
  A 4.01 4.01 0.0 0 0 427.9574 978.7676
  L 419.2774 978.7524
  A 4.01 4.01 0.0 0 0 415.2604 982.7554
  L 415.2596 983.1954
  A 4.01 4.01 0.0 0 0 419.2626 987.2124
  L 427.9426 987.2276
  A 4.01 4.01 0.0 0 0 431.9596 983.2246
  L 431.9604 982.7846"
/>
<path stroke="#ff8080" vector-effect="non-scaling-stroke" d="
  M 465.9604 982.7746
  A 4.00 4.00 0.0 0 0 461.9674 978.7676
  L 453.2674 978.7524
  A 4.00 4.00 0.0 0 0 449.2604 982.7454
  L 449.2596 983.2054
  A 4.00 4.00 0.0 0 0 453.2526 987.2124
  L 461.9526 987.2276
  A 4.00 4.00 0.0 0 0 465.9596 983.2346
  L 465.9604 982.7746"
/>
<path stroke="#ff8080" vector-effect="non-scaling-stroke" d="
  M 499.9604 982.7846
  A 4.01 4.01 0.0 0 0 495.9574 978.7676
  L 487.2774 978.7524
  A 4.01 4.01 0.0 0 0 483.2604 982.7554
  L 483.2596 983.1954
  A 4.01 4.01 0.0 0 0 487.2626 987.2124
  L 495.9426 987.2276
  A 4.01 4.01 0.0 0 0 499.9596 983.2246
  L 499.9604 982.7846"
/>
<path stroke="#ff8080" vector-effect="non-scaling-stroke" d="
  M 533.9604 982.7746
  A 4.00 4.00 0.0 0 0 529.9674 978.7676
  L 521.2674 978.7524
  A 4.00 4.00 0.0 0 0 517.2604 982.7454
  L 517.2596 983.2054
  A 4.00 4.00 0.0 0 0 521.2526 987.2124
  L 529.9526 987.2276
  A 4.00 4.00 0.0 0 0 533.9596 983.2346
  L 533.9604 982.7746"
/>
<path stroke="#ff8080" vector-effect="non-scaling-stroke" d="
  M 567.96 982.78
  A 4.02 4.02 0.0 0 0 563.94 978.76
  L 555.28 978.76
  A 4.02 4.02 0.0 0 0 551.26 982.78
  L 551.26 983.20
  A 4.02 4.02 0.0 0 0 555.28 987.22
  L 563.94 987.22
  A 4.02 4.02 0.0 0 0 567.96 983.20
  L 567.96 982.78"
/>
</g>
<path fill="#000000" d="
  M 594.49 1215.47
  A 0.12 0.11 -59.2 0 0 594.27 1215.53
  C 596.27 1280.23 596.87 1345.36 593.53 1410.02
  C 592.55 1429.14 589.78 1451.20 589.31 1467.57
  Q 588.47 1497.54 593.64 1527.07
  C 599.32 1559.54 605.34 1588.97 609.71 1624.51
  C 615.58 1672.23 616.95 1720.99 612.49 1768.88
  Q 605.30 1846.07 601.46 1923.50
  Q 601.25 1927.84 601.68 1940.23
  C 601.93 1947.36 607.88 1956.83 611.54 1961.96
  C 625.68 1981.76 641.08 2000.62 654.90 2020.63
  C 659.56 2027.37 663.02 2034.35 663.86 2042.67
  C 665.75 2061.41 659.77 2090.66 638.55 2097.07
  C 621.49 2102.22 600.77 2102.20 583.25 2099.99
  C 565.83 2097.80 549.23 2083.20 540.56 2068.94
  C 536.94 2062.98 538.47 2054.88 538.91 2048.10
  C 539.50 2039.05 538.45 2031.22 535.68 2022.90
  Q 535.52 2022.42 535.12 2022.11
  C 520.83 2011.34 513.65 2001.73 520.64 1983.11
  Q 527.01 1966.10 529.58 1950.57
  C 530.27 1946.41 528.59 1942.11 528.70 1938.07
  Q 529.35 1914.30 529.85 1890.53
  C 530.28 1870.13 527.28 1852.83 524.02 1833.94
  Q 522.67 1826.09 520.32 1818.44
  Q 504.35 1766.55 488.00 1714.79
  C 476.95 1679.82 473.29 1646.81 474.41 1610.82
  Q 474.93 1594.32 475.55 1577.82
  C 476.60 1550.02 473.67 1522.47 466.75 1495.57
  C 454.01 1446.09 444.37 1397.19 433.35 1348.02
  Q 431.58 1340.10 428.78 1332.23
  C 415.69 1295.36 403.97 1258.57 395.77 1221.74
  Q 386.70 1180.98 379.76 1133.74
  Q 379.66 1133.06 378.99 1133.19
  Q 372.93 1134.40 366.88 1133.23
  Q 366.22 1133.10 366.13 1133.77
  C 357.67 1200.97 340.41 1266.41 317.60 1330.07
  Q 314.60 1338.45 312.81 1346.19
  C 298.39 1408.56 290.49 1450.49 278.42 1497.56
  C 271.97 1522.71 269.46 1548.14 270.25 1574.10
  C 271.06 1600.79 272.50 1626.48 270.23 1654.25
  Q 267.81 1683.75 257.85 1714.45
  C 246.68 1748.89 236.14 1783.55 225.42 1818.13
  Q 223.12 1825.55 221.78 1833.26
  C 218.39 1852.78 215.27 1871.13 215.80 1891.54
  C 216.31 1911.14 216.00 1931.60 219.38 1950.97
  C 221.83 1965.07 225.71 1975.15 229.79 1988.18
  C 234.87 2004.38 225.09 2012.24 214.57 2021.66
  C 208.38 2027.20 211.15 2045.23 212.47 2052.35
  C 214.18 2061.58 213.96 2065.99 208.61 2073.12
  Q 196.90 2088.75 182.68 2096.97
  C 175.74 2100.98 167.64 2101.18 157.96 2101.51
  Q 130.09 2102.47 106.49 2096.31
  C 89.88 2091.96 79.25 2068.10 77.58 2052.93
  C 76.61 2044.20 79.43 2038.81 85.04 2031.45
  C 101.68 2009.59 118.77 1987.78 132.98 1964.24
  C 136.70 1958.08 139.69 1951.78 140.11 1944.36
  Q 141.26 1923.91 140.69 1903.43
  Q 138.80 1836.75 133.26 1770.27
  C 128.21 1709.71 130.90 1649.97 140.88 1590.02
  Q 145.55 1561.99 150.78 1534.06
  C 157.13 1500.15 157.54 1472.24 154.19 1437.50
  C 146.75 1360.46 145.74 1283.02 149.81 1205.76
  Q 157.07 1068.10 183.02 932.75
  C 185.65 919.01 192.16 902.80 195.15 889.48
  C 202.84 855.26 201.49 818.94 198.13 784.23
  C 197.01 772.73 195.68 761.35 195.21 749.80
  C 194.09 722.35 192.94 694.96 189.63 667.70
  A 0.31 0.31 0.0 0 0 189.02 667.68
  C 182.80 704.05 171.70 738.69 160.85 773.82
  Q 152.48 800.93 149.69 834.19
  C 148.63 846.87 146.73 864.93 143.94 878.08
  C 139.42 899.41 130.21 919.24 121.54 939.13
  C 108.87 968.19 100.34 998.57 94.02 1030.76
  C 89.80 1052.29 84.51 1075.30 98.34 1094.15
  C 103.78 1101.57 114.99 1111.54 121.02 1121.52
  C 131.16 1138.30 130.04 1162.31 138.59 1182.11
  Q 140.24 1185.92 141.09 1189.74
  Q 143.13 1198.99 146.24 1207.94
  C 148.59 1214.70 145.76 1223.31 137.36 1221.65
  C 128.77 1219.95 121.86 1207.81 119.36 1200.21
  C 116.35 1191.07 114.90 1185.48 107.68 1178.80
  A 0.22 0.22 0.0 0 0 107.31 1179.00
  Q 110.08 1194.40 112.72 1209.76
  C 113.34 1213.36 120.24 1217.65 123.19 1219.31
  C 128.79 1222.47 131.42 1225.92 131.58 1232.41
  Q 131.60 1232.93 132.08 1233.13
  Q 144.26 1238.09 143.28 1250.71
  Q 143.06 1253.68 139.98 1255.44
  Q 139.54 1255.69 139.04 1255.70
  Q 138.38 1255.73 137.84 1256.08
  Q 137.35 1256.39 137.67 1256.88
  Q 141.94 1263.33 140.06 1270.32
  C 136.78 1282.49 125.28 1270.12 121.70 1266.30
  Q 110.77 1254.60 100.39 1242.39
  Q 100.06 1242.00 99.56 1241.88
  C 90.21 1239.67 85.72 1232.12 80.84 1223.20
  Q 80.60 1222.74 80.12 1222.55
  C 72.88 1219.58 68.49 1212.29 64.40 1205.63
  C 57.73 1194.79 48.54 1183.01 46.41 1170.26
  C 44.32 1157.74 42.78 1145.13 40.73 1132.60
  C 38.42 1118.53 33.61 1101.82 32.25 1087.25
  Q 30.07 1063.93 28.50 1023.07
  C 26.63 974.31 24.13 941.25 21.92 900.31
  Q 20.01 865.09 29.32 833.58
  C 35.31 813.31 42.97 793.43 50.32 773.60
  C 56.92 755.79 60.25 740.96 62.25 722.00
  C 66.40 682.74 70.29 643.88 77.90 605.08
  C 83.91 574.48 91.34 541.67 92.75 512.00
  C 93.73 491.55 93.48 476.58 96.45 459.59
  Q 99.90 439.94 109.94 422.74
  C 126.03 395.21 150.81 383.60 180.96 376.47
  Q 184.28 375.68 187.13 374.09
  C 217.89 356.93 250.40 345.64 282.85 332.37
  C 291.34 328.90 296.86 325.09 298.98 315.48
  C 301.47 304.19 301.55 293.24 301.19 281.74
  Q 301.17 281.25 300.86 280.86
  Q 293.89 272.45 291.10 261.17
  Q 286.64 243.16 284.31 227.55
  Q 284.23 227.01 283.69 227.01
  C 270.15 227.09 266.32 207.15 266.26 196.91
  C 266.19 184.28 264.79 172.04 265.29 159.34
  C 265.56 152.52 268.09 148.17 275.22 147.68
  Q 275.78 147.64 275.70 147.08
  C 266.64 80.64 301.44 20.20 375.23 23.31
  C 443.58 26.18 471.62 85.95 463.50 146.93
  Q 463.43 147.45 463.95 147.53
  C 475.31 149.27 473.99 156.62 474.16 166.94
  C 474.32 176.02 473.14 184.65 473.09 193.94
  C 473.02 205.01 470.87 225.65 455.68 226.71
  Q 455.14 226.74 455.05 227.28
  Q 451.37 251.18 445.63 274.52
  Q 445.21 276.24 441.21 280.65
  Q 440.86 281.03 440.82 281.54
  Q 439.54 297.14 443.26 311.74
  C 445.77 321.61 452.25 325.47 462.39 330.27
  C 482.95 340.00 505.02 348.37 523.81 356.94
  Q 540.19 364.42 557.27 374.59
  Q 559.98 376.21 563.12 376.97
  Q 579.59 380.96 592.21 386.80
  C 624.40 401.68 642.81 433.50 646.64 467.88
  C 647.73 477.69 648.06 491.30 648.60 504.19
  C 650.11 540.07 658.25 575.71 665.05 611.24
  C 669.57 634.87 672.85 658.64 675.29 682.58
  C 678.83 717.29 679.92 741.54 690.09 769.86
  C 701.95 802.86 716.23 835.63 719.44 871.31
  Q 721.06 889.32 719.24 914.83
  Q 714.98 974.61 712.64 1034.50
  C 711.40 1065.97 710.29 1090.50 703.98 1118.25
  C 699.94 1135.99 697.79 1155.60 695.02 1171.75
  Q 693.84 1178.65 689.90 1185.36
  Q 679.28 1203.43 670.98 1215.21
  Q 667.71 1219.85 661.70 1222.58
  Q 661.23 1222.79 660.97 1223.23
  C 656.45 1231.03 651.87 1239.81 642.19 1241.84
  Q 641.68 1241.94 641.36 1242.34
  C 632.43 1253.01 623.02 1264.98 612.13 1273.60
  C 607.73 1277.08 603.19 1275.79 601.76 1270.31
  Q 599.94 1263.30 604.01 1256.96
  Q 604.30 1256.51 603.91 1256.14
  Q 603.44 1255.69 602.78 1255.73
  Q 602.30 1255.76 601.90 1255.51
  Q 598.54 1253.47 598.48 1250.24
  Q 598.22 1238.03 609.31 1233.19
  A 1.65 1.65 0.0 0 0 610.30 1231.76
  C 610.85 1219.95 621.25 1219.49 627.49 1212.56
  Q 628.79 1211.11 629.14 1209.02
  Q 631.67 1194.02 634.39 1179.30
  A 0.34 0.34 0.0 0 0 633.83 1178.99
  C 628.98 1183.51 626.26 1187.65 624.34 1194.45
  C 621.89 1203.07 618.62 1210.69 612.20 1216.98
  C 606.28 1222.78 598.57 1224.56 594.49 1215.47
  Z
  M 300.64 250.49
  Q 299.57 239.39 299.60 236.19
  C 299.67 228.49 292.74 222.18 289.18 216.17
  Q 287.93 214.06 288.22 216.49
  Q 290.38 234.92 294.41 252.77
  C 296.53 262.16 299.01 271.45 305.15 277.35
  C 320.35 291.95 344.71 306.95 366.14 309.23
  C 384.45 311.18 407.99 299.43 423.29 288.45
  C 428.28 284.87 439.48 277.22 440.78 272.01
  Q 447.97 243.26 451.39 213.80
  Q 451.46 213.23 451.15 213.71
  Q 445.89 221.76 440.39 229.65
  C 438.11 232.93 438.52 247.09 438.01 251.79
  Q 437.88 252.97 437.83 251.78
  Q 437.72 249.00 437.72 246.39
  C 437.71 238.26 435.32 230.06 438.98 222.27
  Q 441.72 216.42 445.42 211.10
  C 449.10 205.83 450.78 199.59 452.66 193.60
  C 454.91 186.39 455.23 178.89 455.92 171.26
  Q 456.09 169.30 456.26 171.26
  Q 458.40 196.07 454.61 220.67
  Q 454.54 221.12 454.99 221.18
  C 465.32 222.61 467.62 202.97 467.70 196.69
  C 467.87 183.15 469.36 169.56 468.64 157.19
  Q 468.40 153.00 464.14 153.22
  Q 463.66 153.25 463.29 153.55
  L 457.10 158.56
  A 0.46 0.45 76.5 0 1 456.37 158.11
  C 467.34 104.81 450.75 40.59 388.66 29.96
  Q 365.90 26.06 343.60 31.85
  C 292.81 45.03 274.73 96.21 280.73 143.67
  Q 281.65 150.91 282.75 158.23
  Q 282.89 159.17 282.15 158.57
  L 275.87 153.41
  Q 275.43 153.05 274.86 153.08
  C 271.71 153.25 270.72 155.50 270.60 158.51
  Q 270.01 172.58 271.30 186.59
  Q 271.57 189.58 271.57 195.95
  C 271.57 201.95 273.91 223.01 284.19 221.71
  Q 284.75 221.63 284.70 221.07
  Q 282.63 199.36 282.49 177.53
  Q 282.48 176.17 282.67 177.52
  Q 284.62 191.84 290.03 205.12
  C 292.56 211.32 298.37 217.51 300.27 223.00
  C 303.04 231.04 301.21 241.59 300.77 250.48
  Q 300.73 251.36 300.64 250.49
  Z
  M 442.79 323.22
  C 436.14 314.33 434.73 297.52 435.41 286.89
  A 0.48 0.47 -18.2 0 0 434.63 286.50
  Q 415.19 302.38 391.80 310.60
  C 377.78 315.53 365.62 316.07 352.00 311.50
  Q 327.11 303.13 306.97 286.18
  A 0.23 0.23 0.0 0 0 306.59 286.36
  C 307.09 297.85 306.94 316.19 300.45 326.19
  C 295.68 333.53 285.99 337.06 276.92 340.65
  Q 276.09 340.97 276.93 341.28
  C 328.36 360.29 389.32 360.94 442.00 348.54
  Q 454.02 345.71 468.32 339.65
  Q 468.89 339.41 468.34 339.13
  C 459.90 334.85 448.59 330.97 442.79 323.22
  Z
  M 163.75 546.79
  L 166.00 547.04
  C 168.68 566.36 176.67 586.21 196.30 593.73
  Q 215.91 601.23 238.27 602.60
  C 269.77 604.52 301.15 600.91 332.24 596.16
  C 349.18 593.58 356.81 584.75 356.01 567.25
  Q 355.49 555.98 353.82 544.82
  C 353.80 544.64 353.85 544.50 353.88 544.31
  Q 353.93 543.96 354.01 544.30
  Q 357.87 562.05 357.24 576.24
  C 356.61 590.71 343.91 597.07 331.56 599.53
  C 296.31 606.58 260.25 612.59 227.01 607.75
  C 209.34 605.17 192.14 600.11 179.47 588.39
  A 0.26 0.26 0.0 0 0 179.04 588.61
  Q 180.09 596.86 181.89 605.28
  Q 192.00 652.62 201.99 700.00
  Q 202.16 700.78 201.92 700.01
  L 196.97 683.64
  Q 196.94 683.54 196.84 683.51
  Q 196.73 683.48 196.58 683.54
  Q 196.51 683.57 196.52 683.64
  C 199.57 707.90 198.85 739.68 202.28 772.69
  C 204.69 795.88 206.36 819.42 205.79 842.75
  L 205.65 846.14
  Q 205.32 870.59 199.36 894.42
  C 195.90 908.28 189.39 923.77 187.34 938.52
  Q 187.27 939.03 187.77 939.16
  C 223.42 948.87 262.35 953.32 297.56 954.70
  Q 411.73 959.18 528.00 941.96
  Q 543.03 939.73 558.06 936.80
  Q 558.60 936.69 558.51 936.15
  Q 558.12 933.71 557.15 931.40
  C 550.59 915.72 544.21 902.05 540.77 884.24
  C 535.63 857.65 536.89 825.95 540.04 797.75
  C 542.75 773.50 547.05 748.67 547.64 725.06
  Q 548.15 704.79 548.84 684.48
  Q 548.90 682.69 548.36 684.40
  L 544.00 698.25
  Q 543.53 699.74 543.86 698.21
  Q 553.73 651.51 563.56 604.81
  Q 565.53 595.46 566.43 588.50
  Q 566.53 587.73 565.98 588.27
  Q 558.35 595.70 549.19 599.44
  C 507.73 616.39 457.69 608.72 413.74 599.48
  C 397.32 596.02 386.24 587.55 388.07 569.05
  Q 389.62 553.36 392.22 537.71
  Q 392.42 536.50 392.33 537.72
  C 391.50 548.35 389.85 557.68 389.63 569.75
  C 389.34 585.19 396.69 593.46 412.02 595.90
  C 453.10 602.45 500.18 608.55 540.78 596.47
  C 566.75 588.74 575.72 572.43 579.50 546.79
  L 581.71 546.00
  Q 580.57 560.99 574.96 574.85
  Q 573.73 577.88 573.41 580.89
  C 570.70 606.46 564.26 630.63 557.09 655.22
  Q 556.42 657.52 556.79 659.84
  Q 561.98 693.06 570.46 721.26
  C 580.66 755.18 592.38 788.30 596.21 823.75
  C 599.63 855.48 601.16 878.89 611.56 905.31
  C 617.41 920.15 627.51 941.84 632.24 954.29
  Q 642.14 980.34 649.38 1012.72
  C 654.15 1034.02 659.97 1057.77 656.31 1079.19
  Q 656.22 1079.67 656.70 1079.80
  Q 679.83 1085.78 703.71 1086.11
  Q 704.17 1086.11 704.22 1085.65
  Q 705.81 1069.04 706.33 1056.75
  Q 708.41 1007.61 711.00 958.49
  C 712.14 937.04 714.12 914.23 714.72 894.75
  C 715.56 867.69 710.78 843.54 702.40 819.32
  C 692.29 790.10 677.81 759.23 674.53 725.61
  C 670.75 686.80 666.67 648.17 659.34 609.83
  Q 654.91 586.67 650.45 563.51
  C 645.21 536.32 643.60 512.99 642.63 487.31
  Q 642.32 479.11 641.60 470.93
  C 638.99 441.07 623.65 409.73 596.56 394.94
  C 583.77 387.95 569.63 383.10 554.71 382.16
  Q 519.55 379.96 484.54 384.48
  Q 483.23 384.65 484.51 384.35
  Q 496.09 381.60 507.71 379.29
  Q 527.50 375.35 547.53 375.44
  A 0.25 0.24 59.8 0 0 547.65 374.98
  C 524.71 362.30 504.02 353.60 476.07 342.43
  Q 475.60 342.24 475.15 342.45
  C 431.45 362.04 378.24 365.47 330.74 359.50
  Q 297.48 355.31 269.48 344.02
  Q 269.03 343.84 268.58 344.01
  C 242.03 353.77 217.11 363.54 192.82 377.02
  Q 192.22 377.35 192.90 377.33
  C 216.74 376.57 241.51 381.84 264.71 389.07
  Q 266.10 389.51 264.67 389.23
  Q 227.21 382.01 189.23 383.88
  Q 176.88 384.49 169.37 385.99
  C 129.53 393.99 104.97 428.74 100.44 467.72
  C 99.01 480.02 98.60 497.50 98.01 512.25
  Q 97.26 531.18 91.87 559.73
  Q 86.25 589.53 80.73 619.34
  C 74.54 652.73 71.54 682.90 67.89 718.67
  C 66.12 736.06 63.66 752.71 58.23 767.44
  C 49.18 792.01 38.85 817.46 32.58 842.07
  Q 25.98 867.95 27.06 896.06
  C 28.22 926.29 30.89 954.20 32.42 989.23
  C 34.23 1030.49 34.72 1055.80 37.54 1085.53
  Q 37.60 1086.10 38.18 1086.10
  Q 61.92 1086.04 84.97 1080.26
  Q 85.42 1080.15 85.35 1079.69
  Q 83.07 1063.91 86.03 1045.76
  Q 94.03 996.65 110.18 952.89
  C 114.85 940.25 120.85 927.28 127.13 912.66
  Q 139.19 884.54 142.09 855.53
  C 143.42 842.17 144.98 828.83 146.51 815.50
  C 149.61 788.45 159.88 759.00 168.35 731.52
  Q 180.47 692.19 186.24 651.43
  Q 186.58 649.03 185.89 646.65
  C 179.22 623.75 174.58 603.63 171.87 580.29
  Q 171.51 577.18 170.22 573.98
  Q 164.95 560.91 163.75 546.79
  Z
  M 552.88 727.50
  C 551.88 751.60 548.82 768.89 545.75 793.99
  C 540.94 833.29 539.45 875.55 554.96 912.40
  Q 557.32 918.01 559.67 923.63
  C 563.02 931.66 565.30 940.15 567.99 948.50
  Q 571.84 960.48 576.02 984.75
  C 579.13 1002.76 581.89 1023.65 583.81 1043.19
  Q 591.99 1126.77 594.02 1210.75
  Q 594.04 1211.28 594.30 1211.67
  Q 594.70 1212.26 594.81 1211.56
  C 595.74 1205.25 598.53 1199.22 599.97 1192.92
  C 601.67 1185.48 603.63 1180.26 606.44 1173.93
  Q 607.98 1170.45 610.51 1156.75
  C 613.89 1138.48 615.26 1126.63 626.31 1114.04
  Q 633.73 1105.59 641.08 1097.08
  C 654.03 1082.07 653.60 1065.34 650.54 1046.25
  Q 643.42 1001.90 628.71 960.17
  C 620.92 938.06 609.50 917.31 602.24 895.01
  C 594.88 872.41 593.67 848.90 591.14 825.93
  C 588.73 803.99 584.13 782.73 577.33 761.73
  C 568.72 735.12 560.68 708.35 555.19 680.93
  Q 554.59 677.93 554.39 680.98
  C 553.39 696.31 553.45 713.73 552.88 727.50
  Z
  M 180.21 978.75
  Q 174.87 981.73 178.79 986.75
  C 160.74 1096.56 151.34 1208.25 152.92 1319.56
  Q 153.74 1377.85 158.09 1421.18
  Q 160.72 1447.38 161.52 1465.75
  C 163.19 1504.62 154.53 1542.90 147.72 1581.34
  C 136.62 1644.05 133.03 1707.44 138.49 1770.94
  Q 145.33 1850.55 146.38 1930.41
  Q 146.38 1930.86 146.81 1930.72
  C 172.39 1922.33 191.57 1929.79 212.49 1944.51
  Q 213.01 1944.88 212.96 1944.24
  Q 210.47 1914.47 210.53 1884.61
  C 210.57 1865.56 213.09 1850.64 216.75 1831.40
  Q 218.39 1822.76 221.19 1813.85
  C 231.38 1781.35 241.19 1748.72 251.79 1716.35
  Q 267.40 1668.70 266.10 1618.20
  C 265.71 1603.20 265.44 1588.20 264.99 1573.20
  C 264.21 1546.82 267.02 1521.38 273.43 1495.81
  C 286.02 1445.56 296.00 1394.84 307.81 1344.43
  Q 309.65 1336.59 312.60 1328.34
  C 335.96 1263.01 353.50 1195.74 361.64 1126.80
  Q 361.71 1126.15 362.33 1126.35
  C 370.58 1128.94 375.14 1129.31 383.35 1126.29
  A 0.41 0.40 -14.1 0 1 383.89 1126.61
  Q 388.51 1156.85 394.11 1186.99
  Q 407.77 1260.51 433.88 1330.51
  Q 436.37 1337.18 437.83 1343.72
  C 449.08 1394.32 459.43 1445.13 472.24 1495.37
  Q 482.24 1534.61 480.81 1575.33
  Q 480.33 1589.03 479.61 1611.32
  C 478.46 1646.51 482.42 1679.51 493.22 1713.79
  Q 509.35 1765.03 525.24 1816.36
  Q 527.64 1824.11 529.03 1832.04
  C 532.36 1851.01 535.53 1869.48 535.18 1888.86
  Q 534.68 1916.11 534.02 1936.25
  Q 533.83 1941.78 535.30 1946.89
  Q 535.47 1947.48 535.95 1947.09
  C 553.73 1932.77 572.12 1924.40 595.67 1928.25
  Q 596.09 1928.32 596.11 1927.88
  C 598.12 1877.69 602.59 1821.48 607.03 1770.65
  C 612.78 1704.80 608.68 1639.78 596.91 1574.82
  C 590.70 1540.59 583.55 1507.34 584.00 1472.31
  C 584.31 1448.54 587.67 1424.78 588.70 1401.01
  C 592.53 1312.61 590.42 1223.39 585.63 1135.06
  Q 582.79 1082.70 577.02 1030.58
  C 573.86 1002.05 569.66 970.65 560.55 942.59
  Q 560.40 942.10 559.89 942.19
  C 478.61 956.64 390.11 963.25 304.94 960.34
  C 265.52 958.99 225.07 955.07 186.95 944.45
  Q 186.44 944.31 186.33 944.82
  Q 182.77 961.68 180.21 978.75
  Z
  M 622.10 1244.98
  C 617.29 1250.09 603.50 1261.42 606.94 1269.10
  A 1.19 1.19 0.0 0 0 608.79 1269.52
  C 619.84 1260.19 629.39 1248.30 638.62 1237.26
  Q 638.95 1236.87 639.46 1236.82
  C 648.75 1235.88 653.46 1225.64 657.49 1218.45
  Q 657.73 1218.01 658.22 1217.90
  C 663.36 1216.80 666.96 1211.80 669.63 1207.65
  Q 677.33 1195.65 684.80 1183.50
  Q 688.39 1177.65 689.31 1172.76
  C 692.07 1158.26 694.29 1138.12 697.84 1120.56
  C 699.79 1110.98 702.10 1101.68 703.55 1091.96
  A 0.55 0.55 0.0 0 0 703.02 1091.33
  Q 678.73 1091.04 655.24 1084.86
  Q 654.76 1084.74 654.57 1085.19
  C 649.63 1097.14 640.38 1106.18 631.09 1116.60
  C 618.39 1130.82 617.51 1148.47 613.76 1167.50
  C 612.27 1175.08 607.70 1183.15 605.78 1191.43
  Q 603.66 1200.56 600.20 1210.97
  Q 599.31 1213.64 600.80 1215.68
  Q 601.10 1216.09 601.60 1216.16
  C 610.42 1217.51 617.23 1199.54 619.10 1193.16
  C 622.82 1180.43 632.14 1172.58 641.80 1164.73
  Q 642.38 1164.25 642.25 1165.00
  L 633.84 1213.30
  Q 633.76 1213.76 633.45 1214.11
  Q 627.10 1221.32 618.43 1225.46
  Q 617.87 1225.73 617.56 1226.27
  Q 615.11 1230.57 615.28 1235.55
  Q 615.30 1236.10 614.81 1236.34
  C 608.68 1239.34 602.63 1242.55 604.08 1250.50
  Q 604.22 1251.26 604.94 1250.99
  L 621.87 1244.63
  A 0.22 0.21 -78.5 0 1 622.10 1244.98
  Z
  M 119.76 1244.50
  L 135.44 1250.57
  A 1.70 1.70 0.0 0 0 137.73 1249.26
  C 138.85 1242.50 132.71 1239.17 127.13 1236.44
  Q 126.62 1236.19 126.62 1235.63
  Q 126.59 1230.63 124.27 1226.27
  Q 123.98 1225.72 123.42 1225.46
  Q 114.62 1221.35 108.26 1214.00
  Q 107.97 1213.67 107.89 1213.23
  L 99.47 1165.03
  Q 99.28 1163.94 100.10 1164.68
  C 106.09 1170.04 113.13 1175.69 117.86 1182.40
  C 121.51 1187.56 123.06 1194.25 125.03 1200.48
  C 126.09 1203.82 134.98 1219.70 141.03 1215.60
  Q 141.43 1215.33 141.53 1214.86
  Q 142.10 1211.98 141.55 1210.52
  Q 138.08 1201.28 136.03 1191.61
  Q 135.22 1187.76 133.67 1184.21
  C 127.10 1169.18 125.71 1154.18 122.29 1138.95
  C 117.28 1116.68 95.28 1104.00 87.39 1085.75
  Q 87.16 1085.22 86.60 1085.36
  Q 63.05 1091.22 38.78 1091.39
  Q 38.23 1091.39 38.30 1091.93
  C 39.93 1105.36 43.87 1118.41 45.98 1131.79
  Q 48.84 1149.88 51.57 1167.99
  C 53.53 1180.99 62.64 1192.62 69.42 1203.57
  C 72.84 1209.08 77.12 1216.39 83.52 1217.89
  Q 84.01 1218.01 84.25 1218.44
  C 87.97 1225.03 92.91 1235.89 102.27 1236.77
  Q 102.76 1236.82 103.08 1237.20
  Q 113.68 1249.80 124.80 1261.95
  Q 128.96 1266.50 133.78 1269.94
  A 0.67 0.66 24.1 0 0 134.82 1269.55
  C 137.03 1259.76 125.84 1251.43 119.49 1244.90
  Q 118.70 1244.09 119.76 1244.50
  Z
  M 210.79 2002.00
  C 215.57 1997.65 220.36 1994.07 223.96 1988.20
  Q 224.24 1987.74 224.05 1987.23
  Q 217.67 1970.64 214.31 1953.19
  Q 214.22 1952.71 213.84 1952.41
  C 193.30 1935.87 172.76 1927.19 146.60 1936.40
  Q 146.09 1936.58 146.05 1937.12
  C 145.19 1947.47 144.83 1954.34 139.44 1963.72
  C 124.50 1989.67 104.69 2014.59 86.12 2038.96
  C 85.34 2039.97 84.72 2041.30 84.20 2042.44
  Q 83.99 2042.89 84.11 2043.37
  Q 87.56 2057.35 96.67 2067.61
  C 103.25 2075.02 110.47 2076.14 121.39 2077.92
  Q 144.65 2081.71 168.23 2079.55
  Q 175.90 2078.85 178.37 2077.38
  Q 195.24 2067.37 206.40 2051.12
  Q 206.70 2050.69 206.60 2050.18
  C 204.89 2041.32 206.10 2033.63 205.36 2024.98
  Q 204.53 2015.17 207.99 2006.00
  Q 208.83 2003.77 210.79 2002.00
  Z
  M 540.15 2003.79
  C 545.74 2018.27 544.45 2034.16 544.46 2048.63
  Q 544.46 2049.10 544.71 2049.51
  C 552.69 2062.60 567.46 2076.57 583.25 2078.73
  Q 604.46 2081.63 626.41 2078.21
  C 639.85 2076.11 646.97 2073.39 652.78 2061.28
  C 656.31 2053.94 660.38 2042.15 656.54 2034.46
  Q 651.11 2023.57 642.06 2011.70
  Q 628.10 1993.39 614.24 1975.01
  C 607.64 1966.25 595.80 1950.40 596.16 1939.51
  Q 596.27 1936.22 596.21 1934.47
  Q 596.19 1933.93 595.66 1933.82
  C 571.71 1929.04 552.20 1939.83 534.61 1955.14
  Q 534.21 1955.49 534.10 1956.00
  Q 530.60 1972.12 524.81 1987.57
  Q 524.61 1988.10 524.95 1988.55
  Q 531.15 1996.84 539.54 2002.99
  Q 539.96 2003.30 540.15 2003.79
  Z
  M 531.58 2003.14
  Q 527.39 1999.53 523.43 1995.61
  Q 523.00 1995.19 523.01 1995.80
  C 523.17 2005.58 531.34 2012.23 537.98 2017.73
  Q 538.51 2018.17 538.40 2017.49
  Q 537.67 2013.03 536.36 2008.78
  C 535.57 2006.22 533.54 2004.82 531.58 2003.14
  Z
  M 225.24 1995.77
  C 221.71 1998.61 218.31 2002.42 214.83 2005.49
  C 211.80 2008.16 211.15 2013.18 210.80 2016.97
  Q 210.74 2017.57 211.22 2017.21
  C 217.75 2012.35 226.14 2004.96 225.76 1996.01
  Q 225.73 1995.38 225.24 1995.77
  Z
  M 171.19 2084.69
  C 151.72 2087.04 131.27 2085.39 112.04 2081.74
  C 99.17 2079.30 89.90 2070.50 84.47 2059.02
  A 0.24 0.24 0.0 0 0 84.02 2059.18
  C 86.64 2069.61 93.31 2082.94 102.88 2088.47
  Q 107.91 2091.38 114.68 2092.56
  Q 141.90 2097.30 164.82 2096.09
  Q 174.36 2095.59 180.20 2092.22
  C 187.63 2087.93 210.12 2069.39 208.11 2058.69
  Q 208.01 2058.14 207.66 2058.58
  C 199.22 2069.11 185.26 2082.99 171.19 2084.69
  Z
  M 601.75 2085.50
  Q 585.58 2085.07 578.26 2083.23
  C 564.86 2079.88 552.41 2068.98 544.11 2058.28
  A 0.29 0.28 27.1 0 0 543.60 2058.44
  C 543.48 2061.79 544.12 2064.53 546.05 2067.45
  C 554.17 2079.72 567.88 2092.23 583.00 2094.45
  Q 609.46 2098.34 634.97 2092.40
  C 648.00 2089.36 654.46 2077.32 656.92 2065.33
  A 0.18 0.18 0.0 0 0 656.59 2065.22
  C 651.56 2075.70 644.17 2080.08 632.47 2082.54
  Q 616.52 2085.90 601.75 2085.50
  Z"
/>
<path fill="#ffffff" d="
  M 300.77 250.48
  C 301.21 241.59 303.04 231.04 300.27 223.00
  C 298.37 217.51 292.56 211.32 290.03 205.12
  Q 284.62 191.84 282.67 177.52
  Q 282.48 176.17 282.49 177.53
  Q 282.63 199.36 284.70 221.07
  Q 284.75 221.63 284.19 221.71
  C 273.91 223.01 271.57 201.95 271.57 195.95
  Q 271.57 189.58 271.30 186.59
  Q 270.01 172.58 270.60 158.51
  C 270.72 155.50 271.71 153.25 274.86 153.08
  Q 275.43 153.05 275.87 153.41
  L 282.15 158.57
  Q 282.89 159.17 282.75 158.23
  Q 281.65 150.91 280.73 143.67
  C 274.73 96.21 292.81 45.03 343.60 31.85
  Q 365.90 26.06 388.66 29.96
  C 450.75 40.59 467.34 104.81 456.37 158.11
  A 0.46 0.45 76.5 0 0 457.10 158.56
  L 463.29 153.55
  Q 463.66 153.25 464.14 153.22
  Q 468.40 153.00 468.64 157.19
  C 469.36 169.56 467.87 183.15 467.70 196.69
  C 467.62 202.97 465.32 222.61 454.99 221.18
  Q 454.54 221.12 454.61 220.67
  Q 458.40 196.07 456.26 171.26
  Q 456.09 169.30 455.92 171.26
  C 455.23 178.89 454.91 186.39 452.66 193.60
  C 450.78 199.59 449.10 205.83 445.42 211.10
  Q 441.72 216.42 438.98 222.27
  C 435.32 230.06 437.71 238.26 437.72 246.39
  Q 437.72 249.00 437.83 251.78
  Q 437.88 252.97 438.01 251.79
  C 438.52 247.09 438.11 232.93 440.39 229.65
  Q 445.89 221.76 451.15 213.71
  Q 451.46 213.23 451.39 213.80
  Q 447.97 243.26 440.78 272.01
  C 439.48 277.22 428.28 284.87 423.29 288.45
  C 407.99 299.43 384.45 311.18 366.14 309.23
  C 344.71 306.95 320.35 291.95 305.15 277.35
  C 299.01 271.45 296.53 262.16 294.41 252.77
  Q 290.38 234.92 288.22 216.49
  Q 287.93 214.06 289.18 216.17
  C 292.74 222.18 299.67 228.49 299.60 236.19
  Q 299.57 239.39 300.64 250.49
  Q 300.73 251.36 300.77 250.48
  Z
  M 383.77 146.53
  C 399.41 142.28 438.34 136.47 448.44 153.27
  Q 449.25 154.62 448.70 153.14
  C 439.24 127.95 378.65 133.14 382.90 146.06
  A 0.72 0.72 0.0 0 0 383.77 146.53
  Z
  M 291.71 153.00
  C 302.80 138.21 339.64 142.61 354.97 146.59
  A 0.64 0.64 0.0 0 0 355.77 145.89
  C 355.04 140.21 341.94 137.92 337.27 137.25
  C 320.83 134.86 297.16 137.33 289.84 155.19
  Q 289.35 156.38 290.07 155.32
  Q 290.91 154.07 291.71 153.00
  Z
  M 347.23 157.80
  C 356.72 170.95 355.40 190.10 351.72 205.28
  Q 351.27 207.15 351.91 205.34
  Q 357.06 190.81 360.56 175.84
  Q 360.68 175.35 360.49 174.89
  C 357.91 168.71 351.99 162.51 347.39 157.66
  Q 346.30 156.51 347.23 157.80
  Z
  M 310.60 165.53
  Q 310.82 165.48 310.90 165.69
  L 313.11 171.04
  Q 313.30 171.50 313.79 171.50
  L 328.26 171.50
  Q 328.76 171.50 329.07 171.11
  Q 331.25 168.30 331.27 164.72
  Q 331.27 164.22 331.77 164.24
  Q 339.12 164.51 346.17 166.58
  Q 347.19 166.88 346.25 166.38
  C 337.32 161.57 324.06 157.79 314.10 160.81
  C 308.56 162.49 302.92 166.19 300.49 171.68
  Q 300.15 172.44 300.66 171.78
  Q 304.45 166.82 310.60 165.53
  Z
  M 426.11 165.50
  Q 432.27 166.70 436.10 171.62
  Q 436.57 172.22 436.30 171.51
  C 433.41 163.97 423.02 159.86 415.49 159.71
  Q 403.39 159.45 390.54 166.54
  Q 390.40 166.62 390.55 166.57
  Q 397.63 164.60 404.99 164.28
  Q 405.47 164.26 405.49 164.73
  Q 405.63 168.31 407.83 171.08
  Q 408.17 171.50 408.70 171.50
  L 422.70 171.50
  Q 423.15 171.50 423.43 171.15
  Q 425.27 168.83 425.57 165.90
  Q 425.62 165.40 426.11 165.50
  Z
  M 350.29 221.12
  Q 349.67 220.77 348.99 220.53
  Q 348.47 220.34 348.85 220.74
  C 354.22 226.38 364.25 238.11 374.09 233.64
  C 380.17 230.87 385.75 225.48 390.14 220.98
  Q 390.74 220.36 389.97 220.74
  C 378.03 226.63 362.25 227.80 350.29 221.12
  Z
  M 324.9881 236.1453
  A 0.53 0.53 0.0 0 0 324.9059 235.4003
  L 323.6572 234.3999
  A 0.53 0.53 0.0 0 0 322.9122 234.4822
  L 315.7719 243.3947
  A 0.53 0.53 0.0 0 0 315.8541 244.1397
  L 317.1028 245.1401
  A 0.53 0.53 0.0 0 0 317.8478 245.0578
  L 324.9881 236.1453
  Z
  M 414.0449 234.4448
  A 0.45 0.45 0.0 0 0 413.4126 234.3728
  L 412.0509 235.4559
  A 0.45 0.45 0.0 0 0 411.9788 236.0882
  L 419.1751 245.1352
  A 0.45 0.45 0.0 0 0 419.8074 245.2072
  L 421.1691 244.1241
  A 0.45 0.45 0.0 0 0 421.2412 243.4918
  L 414.0449 234.4448
  Z
  M 411.74 240.77
  C 384.45 249.19 350.60 247.54 323.03 241.36
  Q 322.33 241.21 323.00 241.46
  Q 343.70 249.11 365.50 249.82
  C 381.33 250.34 396.82 246.47 411.83 241.04
  A 0.14 0.14 0.0 0 0 411.74 240.77
  Z
  M 391.21 260.89
  C 379.14 263.24 365.81 264.14 353.75 261.26
  Q 353.14 261.11 353.63 261.51
  C 361.86 268.19 370.99 274.15 381.69 267.99
  Q 386.85 265.02 391.35 261.17
  Q 391.82 260.77 391.21 260.89
  Z"
/>
<path fill="#000000" d="
  M 448.44 153.27
  C 438.34 136.47 399.41 142.28 383.77 146.53
  A 0.72 0.72 0.0 0 1 382.90 146.06
  C 378.65 133.14 439.24 127.95 448.70 153.14
  Q 449.25 154.62 448.44 153.27
  Z"
/>
<path fill="#000000" d="
  M 291.71 153.00
  Q 290.91 154.07 290.07 155.32
  Q 289.35 156.38 289.84 155.19
  C 297.16 137.33 320.83 134.86 337.27 137.25
  C 341.94 137.92 355.04 140.21 355.77 145.89
  A 0.64 0.64 0.0 0 1 354.97 146.59
  C 339.64 142.61 302.80 138.21 291.71 153.00
  Z"
/>
<path fill="#000000" d="
  M 351.72 205.28
  C 355.40 190.10 356.72 170.95 347.23 157.80
  Q 346.30 156.51 347.39 157.66
  C 351.99 162.51 357.91 168.71 360.49 174.89
  Q 360.68 175.35 360.56 175.84
  Q 357.06 190.81 351.91 205.34
  Q 351.27 207.15 351.72 205.28
  Z"
/>
<path fill="#000000" d="
  M 310.60 165.53
  Q 304.45 166.82 300.66 171.78
  Q 300.15 172.44 300.49 171.68
  C 302.92 166.19 308.56 162.49 314.10 160.81
  C 324.06 157.79 337.32 161.57 346.25 166.38
  Q 347.19 166.88 346.17 166.58
  Q 339.12 164.51 331.77 164.24
  Q 331.27 164.22 331.27 164.72
  Q 331.25 168.30 329.07 171.11
  Q 328.76 171.50 328.26 171.50
  L 313.79 171.50
  Q 313.30 171.50 313.11 171.04
  L 310.90 165.69
  Q 310.82 165.48 310.60 165.53
  Z"
/>
<path fill="#000000" d="
  M 425.57 165.90
  Q 425.27 168.83 423.43 171.15
  Q 423.15 171.50 422.70 171.50
  L 408.70 171.50
  Q 408.17 171.50 407.83 171.08
  Q 405.63 168.31 405.49 164.73
  Q 405.47 164.26 404.99 164.28
  Q 397.63 164.60 390.55 166.57
  Q 390.40 166.62 390.54 166.54
  Q 403.39 159.45 415.49 159.71
  C 423.02 159.86 433.41 163.97 436.30 171.51
  Q 436.57 172.22 436.10 171.62
  Q 432.27 166.70 426.11 165.50
  Q 425.62 165.40 425.57 165.90
  Z"
/>
<path fill="#000000" d="
  M 350.29 221.12
  C 362.25 227.80 378.03 226.63 389.97 220.74
  Q 390.74 220.36 390.14 220.98
  C 385.75 225.48 380.17 230.87 374.09 233.64
  C 364.25 238.11 354.22 226.38 348.85 220.74
  Q 348.47 220.34 348.99 220.53
  Q 349.67 220.77 350.29 221.12
  Z"
/>
<rect fill="#000000" x="-1.33" y="-6.24" transform="translate(320.38,239.77) rotate(38.7)" width="2.66" height="12.48" rx="0.53"/>
<rect fill="#000000" x="-1.32" y="-6.23" transform="translate(416.61,239.79) rotate(-38.5)" width="2.64" height="12.46" rx="0.45"/>
<path fill="#000000" d="
  M 323.03 241.36
  C 350.60 247.54 384.45 249.19 411.74 240.77
  A 0.14 0.14 0.0 0 1 411.83 241.04
  C 396.82 246.47 381.33 250.34 365.50 249.82
  Q 343.70 249.11 323.00 241.46
  Q 322.33 241.21 323.03 241.36
  Z"
/>
<path fill="#000000" d="
  M 353.75 261.26
  C 365.81 264.14 379.14 263.24 391.21 260.89
  Q 391.82 260.77 391.35 261.17
  Q 386.85 265.02 381.69 267.99
  C 370.99 274.15 361.86 268.19 353.63 261.51
  Q 353.14 261.11 353.75 261.26
  Z"
/>
<path fill="#ffffff" d="
  M 442.79 323.22
  C 448.59 330.97 459.90 334.85 468.34 339.13
  Q 468.89 339.41 468.32 339.65
  Q 454.02 345.71 442.00 348.54
  C 389.32 360.94 328.36 360.29 276.93 341.28
  Q 276.09 340.97 276.92 340.65
  C 285.99 337.06 295.68 333.53 300.45 326.19
  C 306.94 316.19 307.09 297.85 306.59 286.36
  A 0.23 0.23 0.0 0 1 306.97 286.18
  Q 327.11 303.13 352.00 311.50
  C 365.62 316.07 377.78 315.53 391.80 310.60
  Q 415.19 302.38 434.63 286.50
  A 0.48 0.47 -18.2 0 1 435.41 286.89
  C 434.73 297.52 436.14 314.33 442.79 323.22
  Z"
/>
<path fill="#ffffff" d="
  M 581.71 546.00
  Q 583.67 543.21 582.54 540.00
  C 585.83 524.92 597.22 511.95 610.04 503.64
  Q 614.84 500.52 609.89 503.39
  C 597.36 510.63 584.99 524.23 580.96 538.50
  Q 574.14 537.78 571.80 538.33
  C 568.16 539.17 567.35 544.13 570.24 545.91
  C 572.38 547.24 576.73 546.75 579.50 546.79
  C 575.72 572.43 566.75 588.74 540.78 596.47
  C 500.18 608.55 453.10 602.45 412.02 595.90
  C 396.69 593.46 389.34 585.19 389.63 569.75
  C 389.85 557.68 391.50 548.35 392.33 537.72
  Q 392.42 536.50 392.22 537.71
  Q 389.62 553.36 388.07 569.05
  C 386.24 587.55 397.32 596.02 413.74 599.48
  C 457.69 608.72 507.73 616.39 549.19 599.44
  Q 558.35 595.70 565.98 588.27
  Q 566.53 587.73 566.43 588.50
  Q 565.53 595.46 563.56 604.81
  Q 553.73 651.51 543.86 698.21
  Q 543.53 699.74 544.00 698.25
  L 548.36 684.40
  Q 548.90 682.69 548.84 684.48
  Q 548.15 704.79 547.64 725.06
  C 547.05 748.67 542.75 773.50 540.04 797.75
  C 536.89 825.95 535.63 857.65 540.77 884.24
  C 544.21 902.05 550.59 915.72 557.15 931.40
  Q 558.12 933.71 558.51 936.15
  Q 558.60 936.69 558.06 936.80
  Q 543.03 939.73 528.00 941.96
  Q 411.73 959.18 297.56 954.70
  C 262.35 953.32 223.42 948.87 187.77 939.16
  Q 187.27 939.03 187.34 938.52
  C 189.39 923.77 195.90 908.28 199.36 894.42
  Q 205.32 870.59 205.65 846.14
  Q 211.47 849.63 218.21 848.77
  C 224.36 847.97 223.67 840.30 219.49 840.27
  C 214.91 840.22 209.16 839.00 205.79 842.75
  C 206.36 819.42 204.69 795.88 202.28 772.69
  C 198.85 739.68 199.57 707.90 196.52 683.64
  Q 196.51 683.57 196.58 683.54
  Q 196.73 683.48 196.84 683.51
  Q 196.94 683.54 196.97 683.64
  L 201.92 700.01
  Q 202.16 700.78 201.99 700.00
  Q 192.00 652.62 181.89 605.28
  Q 180.09 596.86 179.04 588.61
  A 0.26 0.26 0.0 0 1 179.47 588.39
  C 192.14 600.11 209.34 605.17 227.01 607.75
  C 260.25 612.59 296.31 606.58 331.56 599.53
  C 343.91 597.07 356.61 590.71 357.24 576.24
  Q 357.87 562.05 354.01 544.30
  Q 353.93 543.96 353.88 544.31
  C 353.85 544.50 353.80 544.64 353.82 544.82
  Q 355.49 555.98 356.01 567.25
  C 356.81 584.75 349.18 593.58 332.24 596.16
  C 301.15 600.91 269.77 604.52 238.27 602.60
  Q 215.91 601.23 196.30 593.73
  C 176.67 586.21 168.68 566.36 166.00 547.04
  C 168.90 546.59 173.30 547.33 175.41 545.97
  C 178.92 543.69 177.28 538.10 173.01 538.19
  Q 167.14 538.33 164.25 537.96
  C 160.52 524.52 149.13 512.17 137.81 504.78
  C 137.69 504.70 137.55 504.73 137.42 504.77
  Q 137.27 504.82 137.40 504.90
  C 147.95 512.16 160.45 525.82 162.54 538.75
  C 158.66 541.71 160.49 544.77 163.75 546.79
  Q 164.95 560.91 170.22 573.98
  Q 171.51 577.18 171.87 580.29
  C 174.58 603.63 179.22 623.75 185.89 646.65
  Q 186.58 649.03 186.24 651.43
  Q 180.47 692.19 168.35 731.52
  C 159.88 759.00 149.61 788.45 146.51 815.50
  C 144.98 828.83 143.42 842.17 142.09 855.53
  Q 139.19 884.54 127.13 912.66
  C 120.85 927.28 114.85 940.25 110.18 952.89
  Q 94.03 996.65 86.03 1045.76
  Q 83.07 1063.91 85.35 1079.69
  Q 85.42 1080.15 84.97 1080.26
  Q 61.92 1086.04 38.18 1086.10
  Q 37.60 1086.10 37.54 1085.53
  C 34.72 1055.80 34.23 1030.49 32.42 989.23
  C 30.89 954.20 28.22 926.29 27.06 896.06
  Q 25.98 867.95 32.58 842.07
  C 38.85 817.46 49.18 792.01 58.23 767.44
  C 63.66 752.71 66.12 736.06 67.89 718.67
  C 71.54 682.90 74.54 652.73 80.73 619.34
  Q 86.25 589.53 91.87 559.73
  Q 97.26 531.18 98.01 512.25
  C 98.60 497.50 99.01 480.02 100.44 467.72
  C 104.97 428.74 129.53 393.99 169.37 385.99
  Q 176.88 384.49 189.23 383.88
  Q 227.21 382.01 264.67 389.23
  Q 266.10 389.51 264.71 389.07
  C 241.51 381.84 216.74 376.57 192.90 377.33
  Q 192.22 377.35 192.82 377.02
  C 217.11 363.54 242.03 353.77 268.58 344.01
  Q 269.03 343.84 269.48 344.02
  Q 297.48 355.31 330.74 359.50
  C 378.24 365.47 431.45 362.04 475.15 342.45
  Q 475.60 342.24 476.07 342.43
  C 504.02 353.60 524.71 362.30 547.65 374.98
  A 0.25 0.24 59.8 0 1 547.53 375.44
  Q 527.50 375.35 507.71 379.29
  Q 496.09 381.60 484.51 384.35
  Q 483.23 384.65 484.54 384.48
  Q 519.55 379.96 554.71 382.16
  C 569.63 383.10 583.77 387.95 596.56 394.94
  C 623.65 409.73 638.99 441.07 641.60 470.93
  Q 642.32 479.11 642.63 487.31
  C 643.60 512.99 645.21 536.32 650.45 563.51
  Q 654.91 586.67 659.34 609.83
  C 666.67 648.17 670.75 686.80 674.53 725.61
  C 677.81 759.23 692.29 790.10 702.40 819.32
  C 710.78 843.54 715.56 867.69 714.72 894.75
  C 714.12 914.23 712.14 937.04 711.00 958.49
  Q 708.41 1007.61 706.33 1056.75
  Q 705.81 1069.04 704.22 1085.65
  Q 704.17 1086.11 703.71 1086.11
  Q 679.83 1085.78 656.70 1079.80
  Q 656.22 1079.67 656.31 1079.19
  C 659.97 1057.77 654.15 1034.02 649.38 1012.72
  Q 642.14 980.34 632.24 954.29
  C 627.51 941.84 617.41 920.15 611.56 905.31
  C 601.16 878.89 599.63 855.48 596.21 823.75
  C 592.38 788.30 580.66 755.18 570.46 721.26
  Q 561.98 693.06 556.79 659.84
  Q 556.42 657.52 557.09 655.22
  C 564.26 630.63 570.70 606.46 573.41 580.89
  Q 573.73 577.88 574.96 574.85
  Q 580.57 560.99 581.71 546.00
  Z
  M 211.24 542.26
  A 4.00 4.00 0.0 0 0 207.24 538.26
  L 198.54 538.26
  A 4.00 4.00 0.0 0 0 194.54 542.26
  L 194.54 542.70
  A 4.00 4.00 0.0 0 0 198.54 546.70
  L 207.24 546.70
  A 4.00 4.00 0.0 0 0 211.24 542.70
  L 211.24 542.26
  Z
  M 245.23 542.26
  A 4.00 4.00 0.0 0 0 241.23 538.26
  L 232.53 538.26
  A 4.00 4.00 0.0 0 0 228.53 542.26
  L 228.53 542.70
  A 4.00 4.00 0.0 0 0 232.53 546.70
  L 241.23 546.70
  A 4.00 4.00 0.0 0 0 245.23 542.70
  L 245.23 542.26
  Z
  M 279.23 542.27
  A 4.01 4.01 0.0 0 0 275.22 538.26
  L 266.54 538.26
  A 4.01 4.01 0.0 0 0 262.53 542.27
  L 262.53 542.69
  A 4.01 4.01 0.0 0 0 266.54 546.70
  L 275.22 546.70
  A 4.01 4.01 0.0 0 0 279.23 542.69
  L 279.23 542.27
  Z
  M 313.2307 542.2891
  A 4.01 4.01 0.0 0 0 309.2347 538.2651
  L 300.5748 538.2349
  A 4.01 4.01 0.0 0 0 296.5508 542.2309
  L 296.5493 542.6709
  A 4.01 4.01 0.0 0 0 300.5453 546.6949
  L 309.2052 546.7251
  A 4.01 4.01 0.0 0 0 313.2292 542.7291
  L 313.2307 542.2891
  Z
  M 347.2407 542.2891
  A 4.01 4.01 0.0 0 0 343.2447 538.2652
  L 334.5648 538.2349
  A 4.01 4.01 0.0 0 0 330.5408 542.2309
  L 330.5393 542.6709
  A 4.01 4.01 0.0 0 0 334.5353 546.6948
  L 343.2152 546.7251
  A 4.01 4.01 0.0 0 0 347.2392 542.7291
  L 347.2407 542.2891
  Z
  M 381.2207 542.2891
  A 4.00 4.00 0.0 0 0 377.2347 538.2752
  L 368.5548 538.2449
  A 4.00 4.00 0.0 0 0 364.5408 542.2309
  L 364.5393 542.6709
  A 4.00 4.00 0.0 0 0 368.5253 546.6848
  L 377.2052 546.7151
  A 4.00 4.00 0.0 0 0 381.2192 542.7291
  L 381.2207 542.2891
  Z
  M 415.2307 542.2991
  A 4.00 4.00 0.0 0 0 411.2447 538.2852
  L 402.5648 538.2549
  A 4.00 4.00 0.0 0 0 398.5508 542.2409
  L 398.5493 542.6809
  A 4.00 4.00 0.0 0 0 402.5353 546.6948
  L 411.2152 546.7251
  A 4.00 4.00 0.0 0 0 415.2292 542.7391
  L 415.2307 542.2991
  Z
  M 449.2308 542.2791
  A 4.00 4.00 0.0 0 0 445.2447 538.2652
  L 436.5648 538.2349
  A 4.00 4.00 0.0 0 0 432.5509 542.2209
  L 432.5492 542.6809
  A 4.00 4.00 0.0 0 0 436.5353 546.6948
  L 445.2152 546.7251
  A 4.00 4.00 0.0 0 0 449.2291 542.7391
  L 449.2308 542.2791
  Z
  M 483.2396 542.2454
  A 4.01 4.01 0.0 0 0 479.2226 538.2424
  L 470.5426 538.2576
  A 4.01 4.01 0.0 0 0 466.5396 542.2746
  L 466.5404 542.7146
  A 4.01 4.01 0.0 0 0 470.5574 546.7176
  L 479.2374 546.7024
  A 4.01 4.01 0.0 0 0 483.2404 542.6854
  L 483.2396 542.2454
  Z
  M 517.2296 542.2354
  A 4.00 4.00 0.0 0 0 513.2226 538.2424
  L 504.5226 538.2576
  A 4.00 4.00 0.0 0 0 500.5296 542.2646
  L 500.5304 542.7246
  A 4.00 4.00 0.0 0 0 504.5374 546.7176
  L 513.2374 546.7024
  A 4.00 4.00 0.0 0 0 517.2304 542.6954
  L 517.2296 542.2354
  Z
  M 551.2396 542.2354
  A 4.00 4.00 0.0 0 0 547.2326 538.2424
  L 538.5326 538.2576
  A 4.00 4.00 0.0 0 0 534.5396 542.2646
  L 534.5404 542.7246
  A 4.00 4.00 0.0 0 0 538.5474 546.7176
  L 547.2474 546.7024
  A 4.00 4.00 0.0 0 0 551.2404 542.6954
  L 551.2396 542.2354
  Z
  M 358.33 656.60
  C 372.25 655.28 388.52 661.04 401.56 666.47
  C 427.21 677.13 442.18 684.13 463.06 691.20
  Q 463.38 691.31 463.74 691.24
  Q 464.28 691.15 463.76 690.97
  C 435.05 681.10 409.74 663.44 380.63 654.54
  Q 370.69 651.51 363.60 651.39
  C 349.93 651.17 334.85 657.24 322.68 663.18
  C 306.10 671.27 289.60 679.95 272.51 686.90
  Q 271.55 687.29 272.52 687.17
  Q 272.73 687.15 273.01 687.03
  Q 296.72 677.68 309.25 672.26
  C 324.24 665.78 342.02 658.15 358.33 656.60
  Z
  M 256.7087 844.1564
  A 3.96 3.96 0.0 0 0 252.7280 840.2172
  L 243.9881 840.2629
  A 3.96 3.96 0.0 0 0 240.0489 844.2436
  L 240.0513 844.7036
  A 3.96 3.96 0.0 0 0 244.0320 848.6428
  L 252.7719 848.5971
  A 3.96 3.96 0.0 0 0 256.7111 844.6164
  L 256.7087 844.1564
  Z
  M 290.75 844.17
  A 3.92 3.92 0.0 0 0 286.83 840.25
  L 277.91 840.25
  A 3.92 3.92 0.0 0 0 273.99 844.17
  L 273.99 844.59
  A 3.92 3.92 0.0 0 0 277.91 848.51
  L 286.83 848.51
  A 3.92 3.92 0.0 0 0 290.75 844.59
  L 290.75 844.17
  Z
  M 324.74 844.18
  A 3.92 3.92 0.0 0 0 320.82 840.26
  L 311.92 840.26
  A 3.92 3.92 0.0 0 0 308.00 844.18
  L 308.00 844.58
  A 3.92 3.92 0.0 0 0 311.92 848.50
  L 320.82 848.50
  A 3.92 3.92 0.0 0 0 324.74 844.58
  L 324.74 844.18
  Z
  M 358.74 844.17
  A 3.92 3.92 0.0 0 0 354.82 840.25
  L 345.92 840.25
  A 3.92 3.92 0.0 0 0 342.00 844.17
  L 342.00 844.59
  A 3.92 3.92 0.0 0 0 345.92 848.51
  L 354.82 848.51
  A 3.92 3.92 0.0 0 0 358.74 844.59
  L 358.74 844.17
  Z
  M 392.7087 844.1664
  A 3.96 3.96 0.0 0 0 388.7280 840.2272
  L 379.9881 840.2729
  A 3.96 3.96 0.0 0 0 376.0489 844.2536
  L 376.0513 844.7136
  A 3.96 3.96 0.0 0 0 380.0320 848.6528
  L 388.7719 848.6071
  A 3.96 3.96 0.0 0 0 392.7111 844.6264
  L 392.7087 844.1664
  Z
  M 426.75 844.17
  A 3.92 3.92 0.0 0 0 422.83 840.25
  L 413.93 840.25
  A 3.92 3.92 0.0 0 0 410.01 844.17
  L 410.01 844.59
  A 3.92 3.92 0.0 0 0 413.93 848.51
  L 422.83 848.51
  A 3.92 3.92 0.0 0 0 426.75 844.59
  L 426.75 844.17
  Z
  M 460.74 844.18
  A 3.92 3.92 0.0 0 0 456.82 840.26
  L 447.92 840.26
  A 3.92 3.92 0.0 0 0 444.00 844.18
  L 444.00 844.58
  A 3.92 3.92 0.0 0 0 447.92 848.50
  L 456.82 848.50
  A 3.92 3.92 0.0 0 0 460.74 844.58
  L 460.74 844.18
  Z
  M 494.75 844.17
  A 3.92 3.92 0.0 0 0 490.83 840.25
  L 481.91 840.25
  A 3.92 3.92 0.0 0 0 477.99 844.17
  L 477.99 844.59
  A 3.92 3.92 0.0 0 0 481.91 848.51
  L 490.83 848.51
  A 3.92 3.92 0.0 0 0 494.75 844.59
  L 494.75 844.17
  Z
  M 528.7087 844.1664
  A 3.97 3.97 0.0 0 0 524.7179 840.2172
  L 515.9981 840.2629
  A 3.97 3.97 0.0 0 0 512.0489 844.2536
  L 512.0513 844.7136
  A 3.97 3.97 0.0 0 0 516.0421 848.6628
  L 524.7619 848.6171
  A 3.97 3.97 0.0 0 0 528.7111 844.6264
  L 528.7087 844.1664
  Z"
/>
<path fill="#ff0000" d="
  M 966.97 536.35
  A 59.45 59.45 0.0 0 1 907.52 595.80
  A 59.45 59.45 0.0 0 1 848.07 536.35
  A 59.45 59.45 0.0 0 1 907.52 476.90
  A 59.45 59.45 0.0 0 1 966.97 536.35
  Z
  M 958.48 536.34
  A 50.97 50.97 0.0 0 0 907.51 485.37
  A 50.97 50.97 0.0 0 0 856.54 536.34
  A 50.97 50.97 0.0 0 0 907.51 587.31
  A 50.97 50.97 0.0 0 0 958.48 536.34
  Z"
/>
<path fill="#000000" d="
  M 582.54 540.00
  L 580.96 538.50
  C 584.99 524.23 597.36 510.63 609.89 503.39
  Q 614.84 500.52 610.04 503.64
  C 597.22 511.95 585.83 524.92 582.54 540.00
  Z"
/>
<path fill="#000000" d="
  M 164.25 537.96
  L 162.54 538.75
  C 160.45 525.82 147.95 512.16 137.40 504.90
  Q 137.27 504.82 137.42 504.77
  C 137.55 504.73 137.69 504.70 137.81 504.78
  C 149.13 512.17 160.52 524.52 164.25 537.96
  Z"
/>
<path fill="#000000" d="
  M 905.76 519.62
  C 901.10 522.73 897.01 525.57 891.77 527.98
  A 0.69 0.69 0.0 0 1 890.79 527.32
  L 891.08 521.20
  Q 891.10 520.77 891.49 520.58
  Q 901.99 515.76 908.43 506.18
  Q 908.71 505.76 909.21 505.76
  L 912.87 505.74
  Q 913.50 505.74 913.50 506.37
  L 913.50 566.25
  Q 913.50 567.00 912.75 567.00
  L 907.14 567.00
  Q 905.79 567.00 905.79 565.64
  L 905.99 519.56
  Q 906.00 519.46 905.76 519.62
  Z"
/>
<path fill="#ff0000" d="
  M 164.25 537.96
  Q 167.14 538.33 173.01 538.19
  C 177.28 538.10 178.92 543.69 175.41 545.97
  C 173.30 547.33 168.90 546.59 166.00 547.04
  L 163.75 546.79
  C 160.49 544.77 158.66 541.71 162.54 538.75
  L 164.25 537.96
  Z"
/>
<rect fill="#ff0000" x="194.54" y="538.26" width="16.70" height="8.44" rx="4.00"/>
<rect fill="#ff0000" x="228.53" y="538.26" width="16.70" height="8.44" rx="4.00"/>
<rect fill="#ff0000" x="262.53" y="538.26" width="16.70" height="8.44" rx="4.01"/>
<rect fill="#ff0000" x="-8.34" y="-4.23" transform="translate(304.89,542.48) rotate(0.2)" width="16.68" height="8.46" rx="4.01"/>
<rect fill="#ff0000" x="-8.35" y="-4.23" transform="translate(338.89,542.48) rotate(0.2)" width="16.70" height="8.46" rx="4.01"/>
<rect fill="#ff0000" x="-8.34" y="-4.22" transform="translate(372.88,542.48) rotate(0.2)" width="16.68" height="8.44" rx="4.00"/>
<rect fill="#ff0000" x="-8.34" y="-4.22" transform="translate(406.89,542.49) rotate(0.2)" width="16.68" height="8.44" rx="4.00"/>
<rect fill="#ff0000" x="-8.34" y="-4.23" transform="translate(440.89,542.48) rotate(0.2)" width="16.68" height="8.46" rx="4.00"/>
<rect fill="#ff0000" x="-8.35" y="-4.23" transform="translate(474.89,542.48) rotate(-0.1)" width="16.70" height="8.46" rx="4.01"/>
<rect fill="#ff0000" x="-8.35" y="-4.23" transform="translate(508.88,542.48) rotate(-0.1)" width="16.70" height="8.46" rx="4.00"/>
<rect fill="#ff0000" x="-8.35" y="-4.23" transform="translate(542.89,542.48) rotate(-0.1)" width="16.70" height="8.46" rx="4.00"/>
<path fill="#ff0000" d="
  M 580.96 538.50
  L 582.54 540.00
  Q 583.67 543.21 581.71 546.00
  L 579.50 546.79
  C 576.73 546.75 572.38 547.24 570.24 545.91
  C 567.35 544.13 568.16 539.17 571.80 538.33
  Q 574.14 537.78 580.96 538.50
  Z"
/>
<rect fill="#ff0000" x="667.11" y="541.25" width="180.14" height="2.50" rx="1.24"/>
<path fill="#000000" d="
  M 358.33 656.60
  C 342.02 658.15 324.24 665.78 309.25 672.26
  Q 296.72 677.68 273.01 687.03
  Q 272.73 687.15 272.52 687.17
  Q 271.55 687.29 272.51 686.90
  C 289.60 679.95 306.10 671.27 322.68 663.18
  C 334.85 657.24 349.93 651.17 363.60 651.39
  Q 370.69 651.51 380.63 654.54
  C 409.74 663.44 435.05 681.10 463.76 690.97
  Q 464.28 691.15 463.74 691.24
  Q 463.38 691.31 463.06 691.20
  C 442.18 684.13 427.21 677.13 401.56 666.47
  C 388.52 661.04 372.25 655.28 358.33 656.60
  Z"
/>
<path fill="#ff0000" d="
  M 966.96 844.40
  A 59.45 59.45 0.0 0 1 907.51 903.85
  A 59.45 59.45 0.0 0 1 848.06 844.40
  A 59.45 59.45 0.0 0 1 907.51 784.95
  A 59.45 59.45 0.0 0 1 966.96 844.40
  Z
  M 958.48 844.39
  A 50.97 50.97 0.0 0 0 907.51 793.42
  A 50.97 50.97 0.0 0 0 856.54 844.39
  A 50.97 50.97 0.0 0 0 907.51 895.36
  A 50.97 50.97 0.0 0 0 958.48 844.39
  Z"
/>
<path fill="#000000" d="
  M 898.16 867.37
  A 0.41 0.40 -73.0 0 0 898.49 868.00
  L 927.13 868.00
  Q 927.75 868.00 927.75 868.63
  L 927.75 874.48
  Q 927.75 874.96 927.27 874.96
  L 887.87 875.09
  Q 887.12 875.09 887.21 874.35
  C 888.84 860.85 906.22 850.61 914.70 841.69
  C 933.19 822.23 898.51 809.42 896.40 831.50
  Q 896.34 832.13 895.71 832.06
  L 889.44 831.43
  Q 888.98 831.38 889.00 830.91
  C 890.52 805.99 930.83 808.93 927.35 833.27
  C 925.16 848.60 905.94 855.64 898.16 867.37
  Z"
/>
<path fill="#ff0000" d="
  M 205.65 846.14
  L 205.79 842.75
  C 209.16 839.00 214.91 840.22 219.49 840.27
  C 223.67 840.30 224.36 847.97 218.21 848.77
  Q 211.47 849.63 205.65 846.14
  Z"
/>
<rect fill="#ff0000" x="-8.33" y="-4.19" transform="translate(248.38,844.43) rotate(-0.3)" width="16.66" height="8.38" rx="3.96"/>
<rect fill="#ff0000" x="273.99" y="840.25" width="16.76" height="8.26" rx="3.92"/>
<rect fill="#ff0000" x="308.00" y="840.26" width="16.74" height="8.24" rx="3.92"/>
<rect fill="#ff0000" x="342.00" y="840.25" width="16.74" height="8.26" rx="3.92"/>
<rect fill="#ff0000" x="-8.33" y="-4.19" transform="translate(384.38,844.44) rotate(-0.3)" width="16.66" height="8.38" rx="3.96"/>
<rect fill="#ff0000" x="410.01" y="840.25" width="16.74" height="8.26" rx="3.92"/>
<rect fill="#ff0000" x="444.00" y="840.26" width="16.74" height="8.24" rx="3.92"/>
<rect fill="#ff0000" x="477.99" y="840.25" width="16.76" height="8.26" rx="3.92"/>
<rect fill="#ff0000" x="-8.33" y="-4.20" transform="translate(520.38,844.44) rotate(-0.3)" width="16.66" height="8.40" rx="3.97"/>
<rect fill="#ff0000" x="739.77" y="843.00" width="107.48" height="2.74" rx="1.35"/>
<path fill="#ff0000" d="
  M 966.97 982.99
  A 59.46 59.46 0.0 0 1 907.51 1042.45
  A 59.46 59.46 0.0 0 1 848.05 982.99
  A 59.46 59.46 0.0 0 1 907.51 923.53
  A 59.46 59.46 0.0 0 1 966.97 982.99
  Z
  M 958.48 982.99
  A 50.97 50.97 0.0 0 0 907.51 932.02
  A 50.97 50.97 0.0 0 0 856.54 982.99
  A 50.97 50.97 0.0 0 0 907.51 1033.96
  A 50.97 50.97 0.0 0 0 958.48 982.99
  Z"
/>
<path fill="#ffffff" d="
  M 178.79 986.75
  C 182.42 987.31 196.01 989.36 193.94 981.81
  C 192.71 977.33 183.89 978.74 180.21 978.75
  Q 182.77 961.68 186.33 944.82
  Q 186.44 944.31 186.95 944.45
  C 225.07 955.07 265.52 958.99 304.94 960.34
  C 390.11 963.25 478.61 956.64 559.89 942.19
  Q 560.40 942.10 560.55 942.59
  C 569.66 970.65 573.86 1002.05 577.02 1030.58
  Q 582.79 1082.70 585.63 1135.06
  C 590.42 1223.39 592.53 1312.61 588.70 1401.01
  C 587.67 1424.78 584.31 1448.54 584.00 1472.31
  C 583.55 1507.34 590.70 1540.59 596.91 1574.82
  C 608.68 1639.78 612.78 1704.80 607.03 1770.65
  C 602.59 1821.48 598.12 1877.69 596.11 1927.88
  Q 596.09 1928.32 595.67 1928.25
  C 572.12 1924.40 553.73 1932.77 535.95 1947.09
  Q 535.47 1947.48 535.30 1946.89
  Q 533.83 1941.78 534.02 1936.25
  Q 534.68 1916.11 535.18 1888.86
  C 535.53 1869.48 532.36 1851.01 529.03 1832.04
  Q 527.64 1824.11 525.24 1816.36
  Q 509.35 1765.03 493.22 1713.79
  C 482.42 1679.51 478.46 1646.51 479.61 1611.32
  Q 480.33 1589.03 480.81 1575.33
  Q 482.24 1534.61 472.24 1495.37
  C 459.43 1445.13 449.08 1394.32 437.83 1343.72
  Q 436.37 1337.18 433.88 1330.51
  Q 407.77 1260.51 394.11 1186.99
  Q 388.51 1156.85 383.89 1126.61
  A 0.41 0.40 -14.1 0 0 383.35 1126.29
  C 375.14 1129.31 370.58 1128.94 362.33 1126.35
  Q 361.71 1126.15 361.64 1126.80
  C 353.50 1195.74 335.96 1263.01 312.60 1328.34
  Q 309.65 1336.59 307.81 1344.43
  C 296.00 1394.84 286.02 1445.56 273.43 1495.81
  C 267.02 1521.38 264.21 1546.82 264.99 1573.20
  C 265.44 1588.20 265.71 1603.20 266.10 1618.20
  Q 267.40 1668.70 251.79 1716.35
  C 241.19 1748.72 231.38 1781.35 221.19 1813.85
  Q 218.39 1822.76 216.75 1831.40
  C 213.09 1850.64 210.57 1865.56 210.53 1884.61
  Q 210.47 1914.47 212.96 1944.24
  Q 213.01 1944.88 212.49 1944.51
  C 191.57 1929.79 172.39 1922.33 146.81 1930.72
  Q 146.38 1930.86 146.38 1930.41
  Q 145.33 1850.55 138.49 1770.94
  C 133.03 1707.44 136.62 1644.05 147.72 1581.34
  C 154.53 1542.90 163.19 1504.62 161.52 1465.75
  Q 160.72 1447.38 158.09 1421.18
  Q 153.74 1377.85 152.92 1319.56
  C 151.34 1208.25 160.74 1096.56 178.79 986.75
  Z
  M 227.96 982.77
  A 4.01 4.01 0.0 0 0 223.95 978.76
  L 215.27 978.76
  A 4.01 4.01 0.0 0 0 211.26 982.77
  L 211.26 983.21
  A 4.01 4.01 0.0 0 0 215.27 987.22
  L 223.95 987.22
  A 4.01 4.01 0.0 0 0 227.96 983.21
  L 227.96 982.77
  Z
  M 261.9604 982.7746
  A 4.00 4.00 0.0 0 0 257.9674 978.7676
  L 249.2674 978.7524
  A 4.00 4.00 0.0 0 0 245.2604 982.7454
  L 245.2596 983.2054
  A 4.00 4.00 0.0 0 0 249.2526 987.2124
  L 257.9526 987.2276
  A 4.00 4.00 0.0 0 0 261.9596 983.2346
  L 261.9604 982.7746
  Z
  M 295.9604 982.7846
  A 4.01 4.01 0.0 0 0 291.9574 978.7676
  L 283.2774 978.7524
  A 4.01 4.01 0.0 0 0 279.2604 982.7554
  L 279.2596 983.1954
  A 4.01 4.01 0.0 0 0 283.2626 987.2124
  L 291.9426 987.2276
  A 4.01 4.01 0.0 0 0 295.9596 983.2246
  L 295.9604 982.7846
  Z
  M 329.9604 982.7746
  A 4.00 4.00 0.0 0 0 325.9674 978.7676
  L 317.2674 978.7524
  A 4.00 4.00 0.0 0 0 313.2604 982.7454
  L 313.2596 983.2054
  A 4.00 4.00 0.0 0 0 317.2526 987.2124
  L 325.9526 987.2276
  A 4.00 4.00 0.0 0 0 329.9596 983.2346
  L 329.9604 982.7746
  Z
  M 363.96 982.77
  A 4.01 4.01 0.0 0 0 359.95 978.76
  L 351.27 978.76
  A 4.01 4.01 0.0 0 0 347.26 982.77
  L 347.26 983.21
  A 4.01 4.01 0.0 0 0 351.27 987.22
  L 359.95 987.22
  A 4.01 4.01 0.0 0 0 363.96 983.21
  L 363.96 982.77
  Z
  M 397.95 982.77
  A 4.00 4.00 0.0 0 0 393.95 978.77
  L 385.27 978.77
  A 4.00 4.00 0.0 0 0 381.27 982.77
  L 381.27 983.21
  A 4.00 4.00 0.0 0 0 385.27 987.21
  L 393.95 987.21
  A 4.00 4.00 0.0 0 0 397.95 983.21
  L 397.95 982.77
  Z
  M 431.9604 982.7846
  A 4.01 4.01 0.0 0 0 427.9574 978.7676
  L 419.2774 978.7524
  A 4.01 4.01 0.0 0 0 415.2604 982.7554
  L 415.2596 983.1954
  A 4.01 4.01 0.0 0 0 419.2626 987.2124
  L 427.9426 987.2276
  A 4.01 4.01 0.0 0 0 431.9596 983.2246
  L 431.9604 982.7846
  Z
  M 465.9604 982.7746
  A 4.00 4.00 0.0 0 0 461.9674 978.7676
  L 453.2674 978.7524
  A 4.00 4.00 0.0 0 0 449.2604 982.7454
  L 449.2596 983.2054
  A 4.00 4.00 0.0 0 0 453.2526 987.2124
  L 461.9526 987.2276
  A 4.00 4.00 0.0 0 0 465.9596 983.2346
  L 465.9604 982.7746
  Z
  M 499.9604 982.7846
  A 4.01 4.01 0.0 0 0 495.9574 978.7676
  L 487.2774 978.7524
  A 4.01 4.01 0.0 0 0 483.2604 982.7554
  L 483.2596 983.1954
  A 4.01 4.01 0.0 0 0 487.2626 987.2124
  L 495.9426 987.2276
  A 4.01 4.01 0.0 0 0 499.9596 983.2246
  L 499.9604 982.7846
  Z
  M 533.9604 982.7746
  A 4.00 4.00 0.0 0 0 529.9674 978.7676
  L 521.2674 978.7524
  A 4.00 4.00 0.0 0 0 517.2604 982.7454
  L 517.2596 983.2054
  A 4.00 4.00 0.0 0 0 521.2526 987.2124
  L 529.9526 987.2276
  A 4.00 4.00 0.0 0 0 533.9596 983.2346
  L 533.9604 982.7746
  Z
  M 567.96 982.78
  A 4.02 4.02 0.0 0 0 563.94 978.76
  L 555.28 978.76
  A 4.02 4.02 0.0 0 0 551.26 982.78
  L 551.26 983.20
  A 4.02 4.02 0.0 0 0 555.28 987.22
  L 563.94 987.22
  A 4.02 4.02 0.0 0 0 567.96 983.20
  L 567.96 982.78
  Z"
/>
<path fill="#000000" d="
  M 916.96 980.30
  C 923.15 982.11 926.65 986.44 927.31 992.95
  C 929.75 1017.01 892.87 1023.21 887.53 998.11
  Q 887.29 997.00 888.42 996.84
  L 894.49 995.98
  Q 894.97 995.91 895.09 996.39
  C 896.66 1002.67 899.57 1007.73 906.55 1007.89
  C 924.44 1008.30 924.39 979.32 903.03 983.98
  Q 902.33 984.13 902.41 983.42
  L 903.02 978.12
  Q 903.09 977.47 903.74 977.52
  C 910.06 977.97 916.69 974.56 916.91 967.68
  C 917.33 954.91 897.55 954.42 895.98 968.44
  A 0.51 0.51 0.0 0 1 895.39 968.89
  L 889.05 967.82
  Q 888.46 967.73 888.55 967.13
  C 890.35 955.26 901.24 949.47 912.42 952.63
  C 925.03 956.20 929.93 972.57 916.89 979.55
  Q 916.02 980.02 916.96 980.30
  Z"
/>
<path fill="#ff0000" d="
  M 180.21 978.75
  C 183.89 978.74 192.71 977.33 193.94 981.81
  C 196.01 989.36 182.42 987.31 178.79 986.75
  Q 174.87 981.73 180.21 978.75
  Z"
/>
<rect fill="#ff0000" x="211.26" y="978.76" width="16.70" height="8.46" rx="4.01"/>
<rect fill="#ff0000" x="-8.35" y="-4.23" transform="translate(253.61,982.99) rotate(0.1)" width="16.70" height="8.46" rx="4.00"/>
<rect fill="#ff0000" x="-8.35" y="-4.23" transform="translate(287.61,982.99) rotate(0.1)" width="16.70" height="8.46" rx="4.01"/>
<rect fill="#ff0000" x="-8.35" y="-4.23" transform="translate(321.61,982.99) rotate(0.1)" width="16.70" height="8.46" rx="4.00"/>
<rect fill="#ff0000" x="347.26" y="978.76" width="16.70" height="8.46" rx="4.01"/>
<rect fill="#ff0000" x="381.27" y="978.77" width="16.68" height="8.44" rx="4.00"/>
<rect fill="#ff0000" x="-8.35" y="-4.23" transform="translate(423.61,982.99) rotate(0.1)" width="16.70" height="8.46" rx="4.01"/>
<rect fill="#ff0000" x="-8.35" y="-4.23" transform="translate(457.61,982.99) rotate(0.1)" width="16.70" height="8.46" rx="4.00"/>
<rect fill="#ff0000" x="-8.35" y="-4.23" transform="translate(491.61,982.99) rotate(0.1)" width="16.70" height="8.46" rx="4.01"/>
<rect fill="#ff0000" x="-8.35" y="-4.23" transform="translate(525.61,982.99) rotate(0.1)" width="16.70" height="8.46" rx="4.00"/>
<rect fill="#ff0000" x="551.26" y="978.76" width="16.70" height="8.46" rx="4.02"/>
<rect fill="#ff0000" x="733.53" y="981.75" width="113.72" height="2.50" rx="1.08"/>
<path fill="#ffffff" d="
  M 622.10 1244.98
  A 0.22 0.21 -78.5 0 0 621.87 1244.63
  L 604.94 1250.99
  Q 604.22 1251.26 604.08 1250.50
  C 602.63 1242.55 608.68 1239.34 614.81 1236.34
  Q 615.30 1236.10 615.28 1235.55
  Q 615.11 1230.57 617.56 1226.27
  Q 617.87 1225.73 618.43 1225.46
  Q 627.10 1221.32 633.45 1214.11
  Q 633.76 1213.76 633.84 1213.30
  L 642.25 1165.00
  Q 642.38 1164.25 641.80 1164.73
  C 632.14 1172.58 622.82 1180.43 619.10 1193.16
  C 617.23 1199.54 610.42 1217.51 601.60 1216.16
  Q 601.10 1216.09 600.80 1215.68
  Q 599.31 1213.64 600.20 1210.97
  Q 603.66 1200.56 605.78 1191.43
  C 607.70 1183.15 612.27 1175.08 613.76 1167.50
  C 617.51 1148.47 618.39 1130.82 631.09 1116.60
  C 640.38 1106.18 649.63 1097.14 654.57 1085.19
  Q 654.76 1084.74 655.24 1084.86
  Q 678.73 1091.04 703.02 1091.33
  A 0.55 0.55 0.0 0 1 703.55 1091.96
  C 702.10 1101.68 699.79 1110.98 697.84 1120.56
  C 694.29 1138.12 692.07 1158.26 689.31 1172.76
  Q 688.39 1177.65 684.80 1183.50
  Q 677.33 1195.65 669.63 1207.65
  C 666.96 1211.80 663.36 1216.80 658.22 1217.90
  Q 657.73 1218.01 657.49 1218.45
  C 653.46 1225.64 648.75 1235.88 639.46 1236.82
  Q 638.95 1236.87 638.62 1237.26
  C 629.39 1248.30 619.84 1260.19 608.79 1269.52
  A 1.19 1.19 0.0 0 1 606.94 1269.10
  C 603.50 1261.42 617.29 1250.09 622.10 1244.98
  Z"
/>
<path fill="#ffffff" d="
  M 119.49 1244.90
  C 125.84 1251.43 137.03 1259.76 134.82 1269.55
  A 0.67 0.66 24.1 0 1 133.78 1269.94
  Q 128.96 1266.50 124.80 1261.95
  Q 113.68 1249.80 103.08 1237.20
  Q 102.76 1236.82 102.27 1236.77
  C 92.91 1235.89 87.97 1225.03 84.25 1218.44
  Q 84.01 1218.01 83.52 1217.89
  C 77.12 1216.39 72.84 1209.08 69.42 1203.57
  C 62.64 1192.62 53.53 1180.99 51.57 1167.99
  Q 48.84 1149.88 45.98 1131.79
  C 43.87 1118.41 39.93 1105.36 38.30 1091.93
  Q 38.23 1091.39 38.78 1091.39
  Q 63.05 1091.22 86.60 1085.36
  Q 87.16 1085.22 87.39 1085.75
  C 95.28 1104.00 117.28 1116.68 122.29 1138.95
  C 125.71 1154.18 127.10 1169.18 133.67 1184.21
  Q 135.22 1187.76 136.03 1191.61
  Q 138.08 1201.28 141.55 1210.52
  Q 142.10 1211.98 141.53 1214.86
  Q 141.43 1215.33 141.03 1215.60
  C 134.98 1219.70 126.09 1203.82 125.03 1200.48
  C 123.06 1194.25 121.51 1187.56 117.86 1182.40
  C 113.13 1175.69 106.09 1170.04 100.10 1164.68
  Q 99.28 1163.94 99.47 1165.03
  L 107.89 1213.23
  Q 107.97 1213.67 108.26 1214.00
  Q 114.62 1221.35 123.42 1225.46
  Q 123.98 1225.72 124.27 1226.27
  Q 126.59 1230.63 126.62 1235.63
  Q 126.62 1236.19 127.13 1236.44
  C 132.71 1239.17 138.85 1242.50 137.73 1249.26
  A 1.70 1.70 0.0 0 1 135.44 1250.57
  L 119.76 1244.50
  Q 118.70 1244.09 119.49 1244.90
  Z"
/>
<path fill="#ffffff" d="
  M 207.99 2006.00
  Q 204.53 2015.17 205.36 2024.98
  C 206.10 2033.63 204.89 2041.32 206.60 2050.18
  Q 206.70 2050.69 206.40 2051.12
  Q 195.24 2067.37 178.37 2077.38
  Q 175.90 2078.85 168.23 2079.55
  Q 144.65 2081.71 121.39 2077.92
  C 110.47 2076.14 103.25 2075.02 96.67 2067.61
  Q 87.56 2057.35 84.11 2043.37
  Q 83.99 2042.89 84.20 2042.44
  C 84.72 2041.30 85.34 2039.97 86.12 2038.96
  C 104.69 2014.59 124.50 1989.67 139.44 1963.72
  C 144.83 1954.34 145.19 1947.47 146.05 1937.12
  Q 146.09 1936.58 146.60 1936.40
  C 172.76 1927.19 193.30 1935.87 213.84 1952.41
  Q 214.22 1952.71 214.31 1953.19
  Q 217.67 1970.64 224.05 1987.23
  Q 224.24 1987.74 223.96 1988.20
  C 220.36 1994.07 215.57 1997.65 210.79 2002.00
  Q 208.83 2003.77 207.99 2006.00
  Z"
/>
<path fill="#ffffff" d="
  M 539.54 2002.99
  Q 531.15 1996.84 524.95 1988.55
  Q 524.61 1988.10 524.81 1987.57
  Q 530.60 1972.12 534.10 1956.00
  Q 534.21 1955.49 534.61 1955.14
  C 552.20 1939.83 571.71 1929.04 595.66 1933.82
  Q 596.19 1933.93 596.21 1934.47
  Q 596.27 1936.22 596.16 1939.51
  C 595.80 1950.40 607.64 1966.25 614.24 1975.01
  Q 628.10 1993.39 642.06 2011.70
  Q 651.11 2023.57 656.54 2034.46
  C 660.38 2042.15 656.31 2053.94 652.78 2061.28
  C 646.97 2073.39 639.85 2076.11 626.41 2078.21
  Q 604.46 2081.63 583.25 2078.73
  C 567.46 2076.57 552.69 2062.60 544.71 2049.51
  Q 544.46 2049.10 544.46 2048.63
  C 544.45 2034.16 545.74 2018.27 540.15 2003.79
  Q 539.96 2003.30 539.54 2002.99
  Z"
/>
<path fill="#ffffff" d="
  M 531.58 2003.14
  C 533.54 2004.82 535.57 2006.22 536.36 2008.78
  Q 537.67 2013.03 538.40 2017.49
  Q 538.51 2018.17 537.98 2017.73
  C 531.34 2012.23 523.17 2005.58 523.01 1995.80
  Q 523.00 1995.19 523.43 1995.61
  Q 527.39 1999.53 531.58 2003.14
  Z"
/>
<path fill="#ffffff" d="
  M 214.83 2005.49
  C 218.31 2002.42 221.71 1998.61 225.24 1995.77
  Q 225.73 1995.38 225.76 1996.01
  C 226.14 2004.96 217.75 2012.35 211.22 2017.21
  Q 210.74 2017.57 210.80 2016.97
  C 211.15 2013.18 211.80 2008.16 214.83 2005.49
  Z"
/>
<path fill="#ffffff" d="
  M 112.04 2081.74
  C 131.27 2085.39 151.72 2087.04 171.19 2084.69
  C 185.26 2082.99 199.22 2069.11 207.66 2058.58
  Q 208.01 2058.14 208.11 2058.69
  C 210.12 2069.39 187.63 2087.93 180.20 2092.22
  Q 174.36 2095.59 164.82 2096.09
  Q 141.90 2097.30 114.68 2092.56
  Q 107.91 2091.38 102.88 2088.47
  C 93.31 2082.94 86.64 2069.61 84.02 2059.18
  A 0.24 0.24 0.0 0 1 84.47 2059.02
  C 89.90 2070.50 99.17 2079.30 112.04 2081.74
  Z"
/>
<path fill="#ffffff" d="
  M 601.75 2085.50
  Q 616.52 2085.90 632.47 2082.54
  C 644.17 2080.08 651.56 2075.70 656.59 2065.22
  A 0.18 0.18 0.0 0 1 656.92 2065.33
  C 654.46 2077.32 648.00 2089.36 634.97 2092.40
  Q 609.46 2098.34 583.00 2094.45
  C 567.88 2092.23 554.17 2079.72 546.05 2067.45
  C 544.12 2064.53 543.48 2061.79 543.60 2058.44
  A 0.29 0.28 27.1 0 1 544.11 2058.28
  C 552.41 2068.98 564.86 2079.88 578.26 2083.23
  Q 585.58 2085.07 601.75 2085.50
  Z"
/>
</svg>
